<svg width="60" height="45" viewBox="0 0 60 45" fill="none" xmlns="http://www.w3.org/2000/svg">
<g clip-path="url(#clip0)">
<path d="M48.5593 8.75H4.85101C4.74556 8.75 4.69283 8.75 4.58739 8.80208C4.53466 8.80208 4.48194 8.85417 4.42921 8.90625C4.42921 8.90625 4.37649 8.90625 4.37649 8.95833C4.32377 9.01042 4.27104 9.0625 4.27104 9.11458L2.00391 13.1771H43.9723C46.503 13.1771 48.5065 11.1979 48.5593 8.75Z" fill="#DADCE0"/>
<path d="M59.1575 15.4173L56.0468 9.11523C55.9941 9.06315 55.9414 9.01107 55.8887 8.95898L55.8359 8.9069C55.7832 8.85482 55.7305 8.85482 55.6778 8.80273H55.625C55.5723 8.80273 55.5196 8.80273 55.4669 8.80273H48.56C48.5073 11.2507 46.5038 13.2298 44.0257 13.2298H2.05737L0.844711 15.4173C0.739263 15.6257 0.739263 15.834 0.844711 16.0423C0.950159 16.2507 1.16106 16.3548 1.37195 16.3548H5.90622H54.4124H58.5776C58.7885 16.3548 58.9994 16.2507 59.1048 16.0423C59.263 15.834 59.263 15.5736 59.1575 15.4173Z" fill="#E2E5ED"/>
<path d="M5.95703 16.3027V40.0527C5.95703 42.3965 7.8551 44.2715 10.2277 44.2715H13.0221C12.653 44.2715 12.3894 44.0111 12.3894 43.6465V21.1465C12.3894 20.7819 12.653 20.5215 13.0221 20.5215H20.5616V16.3548H5.95703V16.3027Z" fill="#E09C3B"/>
<path d="M20.5098 16.3027V20.4694H47.9263C48.2954 20.4694 48.559 20.7298 48.559 21.0944V43.5944C48.559 43.959 48.2954 44.2194 47.9263 44.2194H50.1934C52.566 44.2194 54.4641 42.3444 54.4641 40.0006V16.3027H20.5098Z" fill="#F4A343"/>
<path d="M25.941 36.6667H30.4753V33.5938H23.832V34.5833C23.832 35.7292 24.7811 36.6667 25.941 36.6667Z" fill="#F4A343"/>
<path d="M25.9406 36.6667C24.7807 36.6667 23.8317 35.7292 23.8317 34.5833V33.5938H22.0391V38.8542H30.4749V36.6667H25.9406Z" fill="#E09C3B"/>
<path d="M34.3765 36.6667H38.9108V33.5938H32.2676V34.5833C32.2676 35.7292 33.2166 36.6667 34.3765 36.6667Z" fill="#F4A343"/>
<path d="M34.3762 36.6667C33.2163 36.6667 32.2672 35.7292 32.2672 34.5833V33.5938H30.4746V38.8542H38.9105V36.6667H34.3762Z" fill="#E09C3B"/>
<path d="M25.941 41.9792H30.4753V38.9062H23.832V39.8958C23.832 41.0417 24.7811 41.9792 25.941 41.9792Z" fill="#F4A343"/>
<path d="M25.9406 41.9792C24.7807 41.9792 23.8317 41.0417 23.8317 39.8958V38.9062H22.0391V44.1667H30.4749V41.9792H25.9406Z" fill="#E09C3B"/>
<path d="M34.3765 41.9792H38.9108V38.9062H32.2676V39.8958C32.2676 41.0417 33.2166 41.9792 34.3765 41.9792Z" fill="#F4A343"/>
<path d="M34.3762 41.9792C33.2163 41.9792 32.2672 41.0417 32.2672 39.8958V38.9062H30.4746V44.1667H38.9105V41.9792H34.3762Z" fill="#E09C3B"/>
<path d="M48.5593 43.5944V21.1465C48.5593 20.7819 48.2957 20.5215 47.9266 20.5215H12.9706C12.6015 20.5215 12.3379 20.7819 12.3379 21.1465V43.6465C12.3379 44.0111 12.6015 44.2715 12.9706 44.2715H17.9794C17.5576 44.2194 17.2412 43.8548 17.2412 43.4382V32.3965C17.2412 30.0527 19.1393 28.1777 21.5119 28.1777H39.3326C41.7052 28.1777 43.6033 30.0527 43.6033 32.3965V43.4382C43.6033 43.8548 43.2869 44.1673 42.8651 44.2715H47.8739C48.2957 44.2194 48.5593 43.959 48.5593 43.5944Z" fill="#E2E5ED"/>
<path d="M30.4741 44.2188H22.0383H18.0312C18.084 44.2188 18.1367 44.2708 18.1894 44.2708H42.8643C42.917 44.2708 42.9697 44.2708 42.9697 44.2188H38.9627H30.4741Z" fill="#F4A343"/>
<path d="M43.655 43.4382V32.3965C43.655 30.0527 41.7569 28.1777 39.3843 28.1777H21.5109C19.1383 28.1777 17.2402 30.0527 17.2402 32.3965V43.4382C17.2402 43.8548 17.5566 44.1673 17.9784 44.2715H21.9854V38.959H30.4213H38.8571V44.2194H42.8641C43.3387 44.1673 43.655 43.8548 43.655 43.4382ZM38.9098 38.8548H30.474H22.0381V33.5944H30.474H38.9098V38.8548Z" fill="#DADCE0"/>
<path d="M55.5194 8.75C55.5721 8.75 55.6248 8.75 55.6775 8.75L29.8955 0.78125C29.7373 0.729167 29.6318 0.729167 29.4737 0.78125L4.64061 8.80208C4.64061 8.80208 4.64061 8.80208 4.58789 8.80208C4.64061 8.75 4.74606 8.75 4.85151 8.75H55.5194Z" fill="#F4A343"/>
<path d="M55.9395 8.90625C55.9922 8.95833 56.0449 9.01042 56.0976 9.0625C56.0449 9.0625 55.9922 8.95833 55.9395 8.90625Z" fill="#F4A343"/>
<path d="M4.32422 9.0625C4.37694 9.01042 4.42967 8.95833 4.42967 8.90625C4.37694 8.95833 4.32422 9.01042 4.32422 9.0625Z" fill="#F4A343"/>
<path d="M4.48242 8.9069C4.53515 8.85482 4.58787 8.85482 4.64059 8.80273C4.58787 8.80273 4.53515 8.85482 4.48242 8.9069Z" fill="#F4A343"/>
<path d="M55.7305 8.80273C55.7832 8.80273 55.8359 8.85482 55.8886 8.9069C55.8886 8.85482 55.8359 8.80273 55.7305 8.80273Z" fill="#F4A343"/>
<path d="M55.2009 16.3027H53.6719V35.1048H55.2009V16.3027Z" fill="#33353D"/>
<path d="M55.2009 36.459H53.6719V38.6986H55.2009V36.459Z" fill="#33353D"/>
<path d="M50.1924 45.0006H10.1748C7.43315 45.0006 5.16602 42.7611 5.16602 40.0527V16.3027H6.69501V40.0527C6.69501 41.9798 8.27674 43.5423 10.2275 43.5423H50.2451C52.1959 43.5423 53.7776 41.9798 53.7776 40.0527H55.3066C55.2012 42.7611 52.934 45.0006 50.1924 45.0006Z" fill="#33353D"/>
<path d="M47.9265 44.9993H12.9704C12.1796 44.9993 11.5996 44.3743 11.5996 43.6452V21.1452C11.5996 20.3639 12.2323 19.791 12.9704 19.791H47.9265C48.7174 19.791 49.2973 20.416 49.2973 21.1452V43.6452C49.2973 44.3743 48.6646 44.9993 47.9265 44.9993ZM13.0759 43.4889H47.821V21.2493H13.0759V43.4889Z" fill="#33353D"/>
<path d="M42.7586 44.9993H18.1364C17.2401 44.9993 16.5547 44.2702 16.5547 43.4368V32.3952C16.5547 29.6868 18.8218 27.4473 21.5635 27.4473H39.3842C42.1259 27.4473 44.393 29.6868 44.393 32.3952V43.4368C44.393 44.3223 43.6549 44.9993 42.7586 44.9993ZM21.5108 28.9056C19.56 28.9056 17.9782 30.4681 17.9782 32.3952V43.4368C17.9782 43.4889 18.031 43.541 18.0837 43.541H42.7586C42.8113 43.541 42.864 43.4889 42.864 43.4368V32.3952C42.864 30.4681 41.2823 28.9056 39.3315 28.9056H21.5108Z" fill="#33353D"/>
<path d="M30.4748 44.9993H22.0389C21.6171 44.9993 21.3008 44.6868 21.3008 44.2702V38.9577C21.3008 38.541 21.6171 38.2285 22.0389 38.2285H30.4748C30.8966 38.2285 31.2129 38.541 31.2129 38.9577V44.2181C31.2129 44.6348 30.8438 44.9993 30.4748 44.9993ZM22.7771 43.4889H29.7366V39.6868H22.7771V43.4889Z" fill="#33353D"/>
<path d="M38.9103 44.9993H30.4745C30.0527 44.9993 29.7363 44.6868 29.7363 44.2702V38.9577C29.7363 38.541 30.0527 38.2285 30.4745 38.2285H38.9103C39.3321 38.2285 39.6484 38.541 39.6484 38.9577V44.2181C39.6484 44.6348 39.3321 44.9993 38.9103 44.9993ZM31.2126 43.4889H38.1722V39.6868H31.2126V43.4889Z" fill="#33353D"/>
<path d="M30.4748 39.584H22.0389C21.6171 39.584 21.3008 39.2715 21.3008 38.8548V33.5944C21.3008 33.1777 21.6171 32.8652 22.0389 32.8652H30.4748C30.8966 32.8652 31.2129 33.1777 31.2129 33.5944V38.8548C31.2129 39.2715 30.8438 39.584 30.4748 39.584ZM22.7771 38.1256H29.7366V34.3236H22.7771V38.1256Z" fill="#33353D"/>
<path d="M38.9103 39.584H30.4745C30.0527 39.584 29.7363 39.2715 29.7363 38.8548V33.5944C29.7363 33.1777 30.0527 32.8652 30.4745 32.8652H38.9103C39.3321 32.8652 39.6484 33.1777 39.6484 33.5944V38.8548C39.6484 39.2715 39.3321 39.584 38.9103 39.584ZM31.2126 38.1256H38.1722V34.3236H31.2126V38.1256Z" fill="#33353D"/>
<path d="M58.5769 17.0319H1.37131C0.89679 17.0319 0.422273 16.7715 0.158653 16.3548C-0.104968 15.9382 -0.104968 15.4173 0.158653 15.0007L3.63844 8.69857C3.79661 8.38607 4.06023 8.17773 4.37658 8.07357L29.2623 0.0527344C29.526 0.000651043 29.8423 0.000651043 30.1586 0.0527344L55.9407 8.07357C56.3098 8.17773 56.5734 8.43815 56.7843 8.80273L59.895 15.1048C60.1059 15.5215 60.0532 16.0423 59.8423 16.459C59.526 16.8236 59.1042 17.0319 58.5769 17.0319ZM1.5822 15.5736H58.4188L55.4135 9.47982L29.6841 1.51107L4.95654 9.47982L1.5822 15.5736Z" fill="#33353D"/>
<path d="M58.5769 17.0312H1.37131C0.89679 17.0312 0.422273 16.7708 0.158653 16.3542C-0.104968 15.9375 -0.104968 15.4167 0.158653 15L3.63844 8.69792C3.90206 8.28125 4.32385 7.96875 4.85109 7.96875H55.5189C56.0462 7.96875 56.5207 8.28125 56.7843 8.75L59.895 15.0521C60.1059 15.4687 60.0532 15.9896 59.8423 16.4062C59.526 16.8229 59.1042 17.0312 58.5769 17.0312ZM1.5822 15.5729H58.4188L55.4662 9.47917H4.95654L1.5822 15.5729Z" fill="#33353D"/>
</g>
<defs>
<clipPath id="clip0">
<rect width="60" height="45" fill="white"/>
</clipPath>
</defs>
</svg>
