<svg width="62" height="55" viewBox="0 0 62 55" fill="none" xmlns="http://www.w3.org/2000/svg">
<g clip-path="url(#clip0)">
<path d="M12.3124 17.9531C11.3055 17.9531 10.3578 18.131 9.46934 18.4273V26.6666C9.46934 28.9784 7.63321 30.8159 5.32324 30.8159H2.36174L1.41406 37.2177H23.0922L20.3084 22.5173C18.7092 19.7907 15.6885 17.9531 12.3124 17.9531Z" fill="#F4A343"/>
<path d="M9.41034 26.667V18.4277C6.03422 19.4947 3.4281 22.4585 2.95426 26.1336L2.30273 30.8163H5.26423C7.5742 30.757 9.41034 28.9195 9.41034 26.667Z" fill="#E09C3B"/>
<path d="M56.6759 30.7566C54.3659 30.7566 52.5298 28.9191 52.5298 26.6074V18.4273C51.6413 18.131 50.6937 17.9531 49.6867 17.9531C46.3106 17.9531 43.2899 19.7907 41.6315 22.5173L38.8477 37.2177H60.5258L59.6374 30.7566H56.6759Z" fill="#F4A343"/>
<path d="M56.6761 30.7558H59.6376L59.0453 26.073C58.5715 22.3979 55.9653 19.4341 52.5892 18.3672V26.6065C52.53 28.9182 54.4254 30.7558 56.6761 30.7558Z" fill="#E09C3B"/>
<path d="M12.3131 17.8944C15.3553 17.8944 17.8215 15.4263 17.8215 12.3818C17.8215 9.33723 15.3553 6.86914 12.3131 6.86914C9.27088 6.86914 6.80469 9.33723 6.80469 12.3818C6.80469 15.4263 9.27088 17.8944 12.3131 17.8944Z" fill="#DADCE0"/>
<path d="M49.6881 17.8944C52.7303 17.8944 55.1965 15.4263 55.1965 12.3818C55.1965 9.33723 52.7303 6.86914 49.6881 6.86914C46.6459 6.86914 44.1797 9.33723 44.1797 12.3818C44.1797 15.4263 46.6459 17.8944 49.6881 17.8944Z" fill="#DADCE0"/>
<path d="M41.6322 22.5178C41.8099 23.0513 41.8691 23.5848 41.9876 24.1183L43.7645 37.2182H18.2363L20.0132 24.1183C20.7832 18.6056 25.4624 14.5156 30.9708 14.5156C36.0053 14.5156 40.2699 17.8351 41.6322 22.5178Z" fill="#F4A343"/>
<path d="M30.9704 14.4547C34.5687 14.4547 37.4857 11.5354 37.4857 7.93437C37.4857 4.3333 34.5687 1.41406 30.9704 1.41406C27.3721 1.41406 24.4551 4.3333 24.4551 7.93437C24.4551 11.5354 27.3721 14.4547 30.9704 14.4547Z" fill="#DADCE0"/>
<path d="M23.1528 37.2177H1.47461L3.01459 26.0739C3.66612 21.3911 7.63453 17.9531 12.3137 17.9531C15.6898 17.9531 18.7105 19.7314 20.369 22.5173" stroke="#33353D" stroke-width="1.5" stroke-miterlimit="10" stroke-linecap="round" stroke-linejoin="round"/>
<path d="M12.3131 17.8944C15.3553 17.8944 17.8215 15.4263 17.8215 12.3818C17.8215 9.33723 15.3553 6.86914 12.3131 6.86914C9.27088 6.86914 6.80469 9.33723 6.80469 12.3818C6.80469 15.4263 9.27088 17.8944 12.3131 17.8944Z" stroke="#33353D" stroke-width="1.5" stroke-miterlimit="10" stroke-linecap="round" stroke-linejoin="round"/>
<path d="M41.6315 22.5173C43.2899 19.7314 46.3106 17.9531 49.6867 17.9531C54.3659 17.9531 58.3936 21.4504 58.9859 26.0739L60.5258 37.2177H38.8477" stroke="#33353D" stroke-width="1.5" stroke-miterlimit="10" stroke-linecap="round" stroke-linejoin="round"/>
<path d="M49.6881 17.8944C52.7303 17.8944 55.1965 15.4263 55.1965 12.3818C55.1965 9.33723 52.7303 6.86914 49.6881 6.86914C46.6459 6.86914 44.1797 9.33723 44.1797 12.3818C44.1797 15.4263 46.6459 17.8944 49.6881 17.8944Z" stroke="#33353D" stroke-width="1.5" stroke-miterlimit="10" stroke-linecap="round" stroke-linejoin="round"/>
<path d="M41.6322 22.5178C41.8099 23.0513 41.8691 23.5848 41.9876 24.1183L43.7645 37.2182H18.2363L20.0132 24.1183C20.7832 18.6056 25.4624 14.5156 30.9708 14.5156C36.0053 14.5156 40.2699 17.8351 41.6322 22.5178Z" stroke="#33353D" stroke-width="1.5" stroke-miterlimit="10" stroke-linecap="round" stroke-linejoin="round"/>
<path d="M30.9704 14.4547C34.5687 14.4547 37.4857 11.5354 37.4857 7.93437C37.4857 4.3333 34.5687 1.41406 30.9704 1.41406C27.3721 1.41406 24.4551 4.3333 24.4551 7.93437C24.4551 11.5354 27.3721 14.4547 30.9704 14.4547Z" stroke="#33353D" stroke-width="1.5" stroke-miterlimit="10" stroke-linecap="round" stroke-linejoin="round"/>
<path d="M14.7419 52.6291V52.7477L17.7627 52.5698H20.5465C20.7242 52.5698 20.8426 52.6884 20.8426 52.8662V54.5259C20.8426 54.7038 20.7242 54.8223 20.5465 54.8223H11.5435C11.425 54.8223 11.2474 54.7038 11.2474 54.5259V52.9255C11.2474 52.7477 11.3066 52.6291 11.425 52.5106L17.1704 49.0726C18.0588 48.5391 18.5919 48.0649 18.5919 47.2943C18.5919 46.1681 17.585 45.6939 16.1634 45.6939C14.6827 45.6939 13.5573 46.1681 12.4912 47.235C12.3727 47.3536 12.2543 47.3536 12.1358 47.235L10.9512 46.0495C10.892 45.9903 10.8327 45.8717 10.9512 45.7532C12.195 44.212 14.1496 43.4414 16.1634 43.4414C18.4142 43.4414 20.9611 44.6269 20.9611 47.235C20.9611 48.7762 19.8357 49.9024 18.5326 50.673L17.4073 51.3251L14.7419 52.6291Z" fill="#33353D"/>
<path d="M25.8185 47.4721C26.47 47.2349 27.1808 47.0571 28.01 47.0571C30.5569 47.0571 32.6892 48.3019 32.6892 50.9693C32.6892 53.696 30.0238 55 27.6546 55C25.2262 55 23.9232 54.348 22.6201 53.044C22.5016 52.9254 22.5016 52.8068 22.6201 52.629L23.8047 51.3842C23.9232 51.2657 24.1008 51.2657 24.2193 51.3842C25.167 52.3326 26.0554 52.7476 27.6546 52.7476C29.2539 52.7476 30.3792 52.1548 30.3792 50.91C30.3792 49.7245 29.3723 49.191 27.7731 49.191C26.8847 49.191 26.1147 49.3689 25.3447 49.7245C25.2262 49.7838 25.1078 49.7838 24.9893 49.7838L23.7455 49.4874C23.5678 49.4281 23.5085 49.3689 23.5678 49.1318L23.9824 43.9155C23.9824 43.7377 24.1008 43.6191 24.2785 43.6191H31.8007C31.9784 43.6191 32.0969 43.7377 32.0969 43.9155V45.5752C32.0969 45.7531 31.9784 45.8716 31.8007 45.8716H25.8777L25.8185 47.4721Z" fill="#33353D"/>
<path d="M40.0331 43.5C43.2315 43.5 45.8376 45.9896 45.8376 49.2497C45.8376 52.5692 43.2315 54.9995 40.0331 54.9995C36.7754 54.9995 34.2285 52.5692 34.2285 49.2497C34.2285 45.9896 36.8346 43.5 40.0331 43.5ZM36.6569 49.309C36.6569 51.3244 38.0192 52.8063 40.0923 52.8063C42.1061 52.8063 43.4684 51.3244 43.4684 49.309C43.4684 47.2344 42.1061 45.7525 40.0923 45.7525C38.0192 45.7525 36.6569 47.2344 36.6569 49.309Z" fill="#33353D"/>
<path d="M50.1609 45.9311C50.1609 45.7533 50.2794 45.6348 50.457 45.6348H51.8786C52.0563 45.6348 52.1747 45.7533 52.1747 45.9311V47.9465H54.1293C54.307 47.9465 54.4255 48.0651 54.4255 48.2429V49.7248C54.4255 49.9026 54.307 50.0211 54.1293 50.0211H52.1747V51.9772C52.1747 52.1551 52.0563 52.2736 51.8786 52.2736H50.457C50.2794 52.2736 50.1609 52.1551 50.1609 51.9772V49.9619H48.2063C48.0286 49.9619 47.9102 49.8433 47.9102 49.6655V48.1836C47.9102 48.0058 48.0286 47.8872 48.2063 47.8872H50.1609V45.9311Z" fill="#33353D"/>
</g>
<defs>
<clipPath id="clip0">
<rect width="62" height="55" fill="white"/>
</clipPath>
</defs>
</svg>
