<svg width="67" height="41" viewBox="0 0 67 41" fill="none" xmlns="http://www.w3.org/2000/svg">
<path d="M13.2214 33.1365H29.1652V30.9987C29.1652 29.9536 28.4776 29.1935 27.5322 29.1935H20.6132L17.0462 29.3835L20.0545 27.8633L22.9338 26.0106C27.2743 23.1602 29.466 19.6922 29.466 15.6541C29.466 7.76806 22.8049 4.20508 16.6165 4.20508C11.0297 4.20508 6.04457 6.62791 2.95036 10.9035L2.90739 10.951C2.43466 11.6636 2.47763 12.5187 2.99334 13.0888L5.91565 16.4142C6.1735 16.6993 6.56027 16.8893 6.94705 16.8893C7.3768 16.8893 7.76358 16.6993 8.0644 16.3667C10.5999 13.5639 13.1355 12.3762 16.6165 12.3762C18.5503 12.3762 21.7735 12.8038 21.7735 15.8442C21.7735 17.2219 20.9999 18.2195 18.6363 19.8347L9.00986 26.1531V28.4334C9.00986 31.0462 10.9008 33.1365 13.2214 33.1365Z" fill="#F4A343"/>
<path d="M13.2222 33.1371C10.9015 33.1371 9.0106 31.0468 9.0106 28.4815V26.2012L4.32631 29.1941L4.28334 29.2416C3.68169 29.7167 3.38086 30.3342 3.38086 31.1894L3.42383 35.56C3.42383 36.5101 4.15441 37.3652 5.05689 37.3652H19.8833H24.8255H27.5759C28.5213 37.3652 29.2089 36.6051 29.2089 35.56V33.0896H13.2222V33.1371Z" fill="#E09C3B"/>
<path d="M46.6566 4.20508V5.86781C46.6566 6.96045 45.969 7.91058 44.9806 8.14812C42.1442 8.86071 36.5574 11.1885 35.6979 18.9796C35.569 20.1673 34.6665 21.0224 33.5921 21.0224H31.2285C31.2285 21.0224 31.2285 21.0224 31.2285 21.0699C31.2285 25.678 32.8186 29.9536 35.7409 33.089C38.6202 36.177 42.488 37.8397 46.6566 37.8397C55.2516 37.8397 61.9987 30.4762 61.9987 21.0699C61.9987 11.6161 55.2516 4.20508 46.6566 4.20508ZM46.6566 29.6686C42.1872 29.6686 39.05 26.1056 39.05 21.0224C39.05 15.8442 42.1012 12.3287 46.6566 12.3287C51.169 12.3287 54.2202 15.8442 54.2202 21.0224C54.2202 26.1531 51.083 29.6686 46.6566 29.6686Z" fill="#F4A343"/>
<path d="M35.7175 18.9796C36.534 11.1885 42.1208 8.86071 45.0001 8.14811C45.9885 7.91058 46.6761 6.96045 46.6761 5.8678V4.20508C38.0381 4.20508 31.291 11.5686 31.291 21.0224H33.6546C34.6861 21.0224 35.5885 20.1672 35.7175 18.9796Z" fill="#E09C3B"/>
<path d="M22.4181 29.1935H20.6132L17.0462 29.3835L20.0545 27.8633L22.9338 26.0106C27.2743 23.1602 29.466 19.6922 29.466 15.6541C29.466 7.76806 22.8049 4.20508 16.6165 4.20508C11.0297 4.20508 6.04457 6.62791 2.95036 10.9035L2.90739 10.951C2.43466 11.6636 2.47763 12.5187 2.99334 13.0888L5.91565 16.4142C6.1735 16.6993 6.56027 16.8893 6.94705 16.8893C7.3768 16.8893 7.76358 16.6993 8.06441 16.3667C10.5999 13.5639 13.1355 12.3762 16.6165 12.3762C18.5503 12.3762 21.7735 12.8038 21.7735 15.8442C21.7735 17.2219 20.9999 18.2195 18.6363 19.8347L4.32557 29.1935L4.28259 29.241C3.68094 29.7161 3.38011 30.3336 3.38011 31.1888L3.42309 35.5594C3.42309 36.5095 4.15367 37.3646 5.05614 37.3646H27.5322C28.4776 37.3646 29.1652 36.6045 29.1652 35.5594V30.9512C29.1652 29.9061 28.4776 29.146 27.5322 29.146H26.028" stroke="#33353D" stroke-miterlimit="10"/>
<path d="M24.8693 29.1934H23.4512" stroke="#33353D" stroke-width="2.8346" stroke-miterlimit="10"/>
<path d="M46.6566 4.20508C38.0186 4.20508 31.2715 11.6161 31.2715 21.0699C31.2715 25.678 32.8616 29.9536 35.7839 33.089C38.6632 36.1769 42.531 37.8397 46.6996 37.8397C55.2946 37.8397 62.0417 30.4762 62.0417 21.0699C61.9987 11.6161 55.2516 4.20508 46.6566 4.20508ZM54.2202 21.0699C54.2202 26.1531 51.126 29.7161 46.6566 29.7161C42.1872 29.7161 39.05 26.1531 39.05 21.0699C39.05 15.8917 42.1012 12.3762 46.6566 12.3762C51.169 12.3762 54.2202 15.8442 54.2202 21.0699Z" stroke="#33353D" stroke-miterlimit="10"/>
</svg>
