<svg width="44" height="60" viewBox="0 0 44 60" fill="none" xmlns="http://www.w3.org/2000/svg">
<g clip-path="url(#clip0)">
<path d="M39.4939 0.794922H31.2057V3.63583H33.0413V5.51083H39.4939V56.3631H22.0274H4.50529V5.51083H10.9579V3.63583H12.7935V0.794922H4.50529C2.44713 0.794922 0.833984 2.49947 0.833984 4.54492V55.3972C0.833984 57.4995 2.50276 59.1472 4.50529 59.1472H22.0274H39.4939C41.5521 59.1472 43.1652 57.4426 43.1652 55.3972V4.60174C43.2208 2.49947 41.5521 0.794922 39.4939 0.794922Z" fill="#F4A343"/>
<path d="M14.5734 46.9883H9.06641V52.6133H14.5734V46.9883Z" fill="#F4A343"/>
<path d="M14.5734 36.5918H9.06641V42.2168H14.5734V36.5918Z" fill="#F4A343"/>
<path d="M14.5734 26.25H9.06641V31.875H14.5734V26.25Z" fill="#F4A343"/>
<path d="M33.0421 5.51172V8.35263H27.5352V5.51172H30.3164V3.63672H31.2065H33.0421V5.51172Z" fill="#DADCE0"/>
<path d="M16.4659 5.51172V8.35263H10.959V5.51172V3.63672H12.7946H13.6846V5.51172H16.4659Z" fill="#DADCE0"/>
<path d="M27.5344 5.51172H16.4648V8.35263H27.5344V5.51172Z" fill="#DADCE0"/>
<path d="M14.6298 26.2504H9.1228V31.8754H14.6298V26.2504ZM14.6298 36.5913H9.1228V42.2163H14.6298V36.5913ZM39.4945 5.51172V50.739V56.364H33.9875H4.50586V5.51172H10.9585V8.35263H16.4654H27.5349H33.0419V5.51172H39.4945ZM14.6298 52.614V46.989H9.1228V52.614H14.6298Z" fill="#E2E5ED"/>
<path d="M31.2071 0.794922V3.63583H30.317V5.51083H27.5358H16.4662H13.6849V3.63583H12.7949V0.794922H31.2071Z" fill="#F4A343"/>
<path d="M39.4939 0.794922H31.2057H12.7935H4.50529C2.44713 0.794922 0.833984 2.49947 0.833984 4.54492V6.41992C0.833984 4.31765 2.50276 2.66992 4.50529 2.66992H12.7935H31.2613H39.4939C41.5521 2.66992 43.1652 4.37447 43.1652 6.41992V4.60174C43.2208 2.49947 41.5521 0.794922 39.4939 0.794922Z" fill="#E09C3B"/>
<path d="M27.5344 6.47656H16.4648V8.35156H27.5344V6.47656Z" fill="#F4A343"/>
<path d="M27.5344 6.47656V8.35156H16.4648V6.47656H17.4105V7.38565H26.5887V6.47656H27.5344Z" fill="#CE9222"/>
<path d="M30.3161 0.794922H28.4805V5.51083H30.3161V0.794922Z" fill="#E09C3B"/>
<path d="M11.8477 0.794922V3.63583H10.9577V5.51083H9.06641V2.66992H10.012V0.794922H11.8477Z" fill="#E09C3B"/>
<path d="M10.9577 8.35263V5.51172H9.06641V10.2276H10.9577H30.3155V8.35263H10.9577Z" fill="#DADCE0"/>
<path d="M31.262 3.63672H30.3164V5.51172H31.262V3.63672Z" fill="#33353D"/>
<path d="M13.7406 3.63672H12.7949V5.51172H13.7406V3.63672Z" fill="#33353D"/>
<path d="M33.0421 7.38672H27.5352V8.35263H33.0421V7.38672Z" fill="#33353D"/>
<path d="M16.4659 7.38672H10.959V8.35263H16.4659V7.38672Z" fill="#33353D"/>
<path d="M4.50651 56.3629V6.47656H2.61523V54.4879C2.61523 56.5902 4.28401 58.2379 6.28654 58.2379H38.5495V56.3629H4.50651Z" fill="#E09C3B"/>
<path d="M33.9874 60H4.50569C2.05815 60 0 57.9545 0 55.3977V4.60227C0 2.04545 2.00253 0 4.50569 0H39.5499C41.9975 0 44.0556 2.04545 44.0556 4.60227V56.1364H42.4425V4.60227C42.4425 2.95455 41.1631 1.64773 39.5499 1.64773H4.50569C2.89254 1.64773 1.61315 2.95455 1.61315 4.60227V55.4545C1.61315 57.1023 2.89254 58.4091 4.50569 58.4091H33.9874V60Z" fill="#33353D"/>
<path d="M16.4654 9.14666H10.9584C10.5134 9.14666 10.1797 8.80575 10.1797 8.35121V3.6353C10.1797 3.18075 10.5134 2.83984 10.9584 2.83984H13.7397C14.1847 2.83984 14.5185 3.18075 14.5185 3.6353V4.71484H16.4654C16.9104 4.71484 17.2442 5.05575 17.2442 5.5103V8.35121C17.2442 8.80575 16.9104 9.14666 16.4654 9.14666ZM11.7372 7.55575H15.6866V6.36257H13.7397C13.2947 6.36257 12.961 6.02166 12.961 5.56712V4.43075H11.7928V7.55575H11.7372Z" fill="#33353D"/>
<path d="M33.0416 9.14666H27.5346C27.0896 9.14666 26.7559 8.80575 26.7559 8.35121V5.5103C26.7559 5.05575 27.0896 4.71484 27.5346 4.71484H29.4815V3.6353C29.4815 3.18075 29.8709 2.83984 30.3159 2.83984H33.0972C33.5422 2.83984 33.876 3.18075 33.876 3.6353V8.35121C33.876 8.80575 33.4866 9.14666 33.0416 9.14666ZM28.3134 7.55575H32.2628V4.43075H31.0947V5.5103C31.0947 5.96484 30.7609 6.30575 30.3159 6.30575H28.369V7.55575H28.3134Z" fill="#33353D"/>
<path d="M27.5344 7.55664H16.4648V9.20437H27.5344V7.55664Z" fill="#33353D"/>
<path d="M32.0409 0.794922H30.4277V3.63583H32.0409V0.794922Z" fill="#33353D"/>
<path d="M13.5741 0.794922H11.9609V3.63583H13.5741V0.794922Z" fill="#33353D"/>
<path d="M33.987 57.2168H4.50532C4.06032 57.2168 3.72656 56.8759 3.72656 56.4213V5.51225C3.72656 5.05771 4.06032 4.7168 4.50532 4.7168H10.9579V6.36452H5.28408V55.6259H33.987V57.2168Z" fill="#33353D"/>
<path d="M40.328 56.0804H38.7148V6.30771H35.8223V4.7168H39.4936C39.9386 4.7168 40.2723 5.05771 40.2723 5.51225V56.0804H40.328Z" fill="#33353D"/>
<path d="M27.5344 4.7168H16.4648V6.36452H27.5344V4.7168Z" fill="#33353D"/>
<path d="M14.6295 32.7276H9.12251C8.6775 32.7276 8.34375 32.3867 8.34375 31.9322V26.3072C8.34375 25.8526 8.6775 25.5117 9.12251 25.5117H14.6295C15.0745 25.5117 15.4082 25.8526 15.4082 26.3072V31.9322C15.4082 32.3299 15.0745 32.7276 14.6295 32.7276ZM9.90127 31.0799H13.8507V27.0458H9.90127V31.0799Z" fill="#33353D"/>
<path d="M14.6295 43.0675H9.12251C8.6775 43.0675 8.34375 42.7266 8.34375 42.272V36.647C8.34375 36.1925 8.6775 35.8516 9.12251 35.8516H14.6295C15.0745 35.8516 15.4082 36.1925 15.4082 36.647V42.272C15.4082 42.7266 15.0745 43.0675 14.6295 43.0675ZM9.90127 41.4197H13.8507V37.3857H9.90127V41.4197Z" fill="#33353D"/>
<path d="M14.6295 53.4093H9.12251C8.6775 53.4093 8.34375 53.0684 8.34375 52.6138V46.9888C8.34375 46.5343 8.6775 46.1934 9.12251 46.1934H14.6295C15.0745 46.1934 15.4082 46.5343 15.4082 46.9888V52.6138C15.4082 53.0684 15.0745 53.4093 14.6295 53.4093ZM9.90127 51.8184H13.8507V47.7843H9.90127V51.8184Z" fill="#33353D"/>
<path d="M35.8229 26.3633H21.082V28.011H35.8229V26.3633Z" fill="#33353D"/>
<path d="M35.8229 30.1133H21.082V31.761H35.8229V30.1133Z" fill="#33353D"/>
<path d="M35.8229 36.7051H21.082V38.3528H35.8229V36.7051Z" fill="#33353D"/>
<path d="M35.8229 40.5117H21.082V42.1594H35.8229V40.5117Z" fill="#33353D"/>
<path d="M35.8229 47.1016H21.082V48.7493H35.8229V47.1016Z" fill="#33353D"/>
<path d="M35.8229 50.8516H21.082V52.4993H35.8229V50.8516Z" fill="#33353D"/>
<path d="M37.0468 55.5684H35.5449V57.2161H37.0468V55.5684Z" fill="#33353D"/>
<path d="M37.0468 58.4082H35.5449V60.0559H37.0468V58.4082Z" fill="#33353D"/>
<path d="M10.29 13.75H11.2913V18.8068H12.2926V20H8.84375V18.8068H10.0119V15.1136L8.84375 15.5682V14.3182L10.29 13.75Z" fill="#33353D"/>
<path d="M13.5718 19.2049C13.1268 18.5799 12.9043 17.8413 12.9043 16.8754C12.9043 15.9094 13.1268 15.114 13.5718 14.5458C14.0168 13.9208 14.7399 13.6367 15.63 13.6367C16.5756 13.6367 17.2431 13.9208 17.6881 14.5458C18.1331 15.1708 18.3556 15.9094 18.3556 16.8754C18.3556 17.8413 18.1331 18.6367 17.6881 19.2049C17.2431 19.8299 16.52 20.114 15.63 20.114C14.7399 20.114 14.0724 19.8299 13.5718 19.2049ZM15.6856 18.9208C16.6312 18.9208 17.1319 18.239 17.1319 16.8754C17.1319 15.5117 16.6312 14.8299 15.6856 14.8299C14.7399 14.8299 14.2393 15.5117 14.2393 16.8754C14.2393 18.239 14.7399 18.9208 15.6856 18.9208Z" fill="#33353D"/>
<path d="M19.9136 19.2049C19.4686 18.5799 19.2461 17.8413 19.2461 16.8754C19.2461 15.9094 19.4686 15.114 19.9136 14.5458C20.3586 13.9208 21.0817 13.6367 21.9718 13.6367C22.9174 13.6367 23.5849 13.9208 24.0299 14.5458C24.4749 15.1708 24.6974 15.9094 24.6974 16.8754C24.6974 17.8413 24.4749 18.6367 24.0299 19.2049C23.5849 19.8299 22.8618 20.114 21.9718 20.114C21.0817 20.114 20.3586 19.8299 19.9136 19.2049ZM21.9718 18.9208C22.9174 18.9208 23.418 18.239 23.418 16.8754C23.418 15.5117 22.9174 14.8299 21.9718 14.8299C21.0261 14.8299 20.5255 15.5117 20.5255 16.8754C20.5255 18.239 21.0261 18.9208 21.9718 18.9208Z" fill="#33353D"/>
<path d="M26.2554 19.2049C25.8104 18.5799 25.5879 17.8413 25.5879 16.8754C25.5879 15.9094 25.8104 15.114 26.2554 14.5458C26.7004 13.9208 27.4235 13.6367 28.3136 13.6367C29.2592 13.6367 29.9267 13.9208 30.3717 14.5458C30.8167 15.1708 31.0392 15.9094 31.0392 16.8754C31.0392 17.8413 30.8167 18.6367 30.3717 19.2049C29.9267 19.8299 29.2036 20.114 28.3136 20.114C27.3679 20.114 26.7004 19.8299 26.2554 19.2049ZM28.3136 18.9208C29.2592 18.9208 29.7598 18.239 29.7598 16.8754C29.7598 15.5117 29.2592 14.8299 28.3136 14.8299C27.3679 14.8299 26.8673 15.5117 26.8673 16.8754C26.8673 18.239 27.3679 18.9208 28.3136 18.9208Z" fill="#33353D"/>
<path d="M34.4308 16.2511H35.9883V17.3306H34.4308V18.9215H33.3739V17.3306H31.8164V16.2511H33.3739V14.6602H34.4308V16.2511Z" fill="#33353D"/>
</g>
<defs>
<clipPath id="clip0">
<rect width="44" height="60" fill="white"/>
</clipPath>
</defs>
</svg>
