<svg width="60" height="44" viewBox="0 0 60 44" fill="none" xmlns="http://www.w3.org/2000/svg">
<g clip-path="url(#clip0)">
<path d="M27.3513 37.6836C26.8385 37.6836 26.4966 37.9844 26.4111 38.2422C26.3257 38.4141 26.0265 38.8438 24.9581 40.1328L24.4453 40.7344L24.7445 41.25C25.0436 41.7656 25.7274 42.9687 26.753 42.7969C27.2658 42.7109 27.8641 42.2383 28.4197 41.3789C28.8043 40.8203 29.4026 39.7461 29.1889 38.9297C28.9752 37.8555 27.3513 37.6836 27.3513 37.6836Z" fill="#F4A343"/>
<path d="M26.2402 34.4607C26.0692 34.1169 25.6419 33.6013 24.5308 33.6872C22.7786 33.8162 21.7103 35.406 20.941 36.5662L20.5137 37.2107L20.5564 37.5115C20.6846 38.8865 21.6675 39.9177 22.9923 40.0037H23.4624L23.7615 39.6599C26.582 36.3513 26.6248 35.1911 26.2402 34.4607Z" fill="#F4A343"/>
<path d="M30.8117 37.8555C30.8117 37.8555 31.3673 39.7461 30.5981 41.1211L29.957 42.1953L31.1963 42.4102C31.3246 42.4531 31.4528 42.4531 31.6237 42.4531C32.3075 42.4531 32.9058 42.1523 33.4613 41.5508L34.1878 40.7773L33.2904 40.2188C32.8203 39.918 31.2391 38.1992 30.8117 37.8555Z" fill="#F4A343"/>
<path d="M17.3076 29.9492L17.3931 29.8203C17.6068 29.3477 18.0769 28.1445 17.4786 27.1992C17.2649 26.8984 16.7948 26.3398 15.7692 26.3398C14.658 26.3398 12.9059 29.2617 12.5213 29.9922C12.1367 30.7227 12.0939 31.3672 12.3076 31.9258C12.6495 32.7422 13.5042 33.0859 14.2734 33.3438L15.1709 33.6445L15.3845 32.7852C15.5982 32.3125 16.923 30.4219 17.1794 30.1641L17.3076 29.9492Z" fill="#F4A343"/>
<path d="M21.581 30.8516C21.4101 30.5508 21.0255 30.1211 20.128 30.1211C20.0426 30.1211 19.9571 30.1211 19.8716 30.1211C18.205 30.293 16.752 32.5273 16.581 32.7852C15.9827 33.7305 15.8118 34.4609 15.9827 35.0195C16.3246 36.0078 17.2648 36.5664 18.4186 36.5664C18.6323 36.5664 18.8887 36.5234 19.1451 36.4805L19.487 36.3945L19.7434 36.0508C22.0939 32.6992 21.9657 31.5391 21.581 30.8516Z" fill="#F4A343"/>
<path d="M45.3 29.7344L44.9581 29.5625C40.0436 26.7695 37.3085 22.9023 34.0179 17.7891L33.7615 17.3164L28.4624 18.0469L28.2914 18.5195C26.4966 22.9023 23.3342 24.3203 18.8897 22.7305C18.6761 22.6445 18.5051 22.5156 18.4197 22.3438C18.3769 22.2148 18.3769 22.0859 18.4197 21.9141L21.6675 13.4063C21.7102 13.3203 21.753 13.1914 21.8812 13.1055L24.2744 11.4727L19.7872 8.20703L10.5137 24.4062L12.9068 27.0703L13.5051 26.125C14.2316 25.0078 15.5564 24.8789 16.5393 25.1797C17.6077 25.4805 18.8897 26.4258 18.9752 28.0586L19.0179 28.9609L19.9154 28.918C20.8555 28.875 21.7102 29.1328 22.2658 29.6484C22.7786 30.1211 22.9923 30.8086 22.9923 31.625L22.9496 32.6992L24.0179 32.5273C25.2573 32.3125 26.3684 32.5703 27.0094 33.2578C27.5649 33.8594 27.7359 34.6758 27.5222 35.6641L27.3085 36.5664L28.206 36.7383C28.2914 36.7383 28.3769 36.7813 28.4624 36.7813L29.4026 36.9961L29.5308 36.0508C29.5735 35.6641 29.9154 35.5781 30.0008 35.5352C30.0436 35.5352 30.0863 35.5352 30.1291 35.5352C30.2573 35.5352 30.4709 35.5781 30.6419 35.8359C32.394 38.5859 34.3598 39.4883 34.9581 39.7031L35.0863 39.7461H35.2573C35.8555 39.7461 36.7102 39.4023 37.3513 37.8984L37.6504 37.2109L37.0094 36.8242C35.1718 35.6641 33.5906 34.5469 31.9667 32.7422C31.753 32.5273 31.753 32.3125 31.7957 32.1836C31.8812 31.9688 32.0949 31.7539 32.3085 31.668C32.4367 31.625 32.6077 31.625 32.8214 31.8828C34.4453 33.6445 36.0265 34.7617 38.206 36.0938L38.4624 36.2227H38.7615C39.3171 36.1797 40.0436 36.0938 40.5991 35.793L42.0094 35.0195L40.5564 34.2461C37.8641 32.8711 35.8555 30.3789 34.5735 28.6602C34.3598 28.3594 34.4026 28.0586 34.7017 27.8008C34.8299 27.7148 34.9581 27.6719 35.0863 27.6719C35.2573 27.6719 35.4282 27.7578 35.5564 27.9297C37.0949 30.0352 39.2743 32.5703 42.2658 33.6875L42.3513 33.7305C43.0778 33.9023 43.8897 33.6875 44.5308 33.043C45.3 32.2695 45.6846 31.0664 45.4282 30.0781L45.3 29.7344Z" fill="#F4A343"/>
<path d="M48.6334 1.41797C48.2916 0.816406 47.736 0.386719 47.0522 0.214844C46.3685 0.0429687 45.6847 0.128906 45.0864 0.472656L40.2574 3.26562C39.2317 3.86719 38.7189 5.15625 39.1035 6.31641L39.4454 7.43359L30.0437 7.69141C29.8728 7.69141 29.7873 7.77734 29.7018 7.82031L25.3428 10.7422L20.471 7.17578L20.7702 6.53125C21.3257 5.32812 20.8557 3.86719 19.7446 3.17969L14.8728 0.34375C14.2745 0 13.5907 -0.0859375 12.9069 0.0859375C12.2232 0.257812 11.6676 0.6875 11.3257 1.28906L0.34284 20.4961C-0.383656 21.7422 0.0436947 23.332 1.28301 24.0195L6.11207 26.8125C7.13771 27.4141 8.4625 27.2422 9.27446 26.3398L9.91549 25.6523L12.2232 28.1016L11.7958 28.7031C10.9411 29.9063 10.6847 31.0664 11.0266 32.0977C11.4112 33.2148 12.5651 34.1172 14.1463 34.5469L14.6163 34.6758L14.7446 35.1484C15.2146 36.9102 16.6676 37.8984 18.5907 37.8125H19.2745L19.4454 38.457C19.9155 40.0039 21.283 41.1211 22.9069 41.25L23.377 41.293L23.5907 41.6797C24.1463 42.625 25.001 43.7422 26.1548 43.957C26.283 44 26.4112 44 26.5394 44C27.1804 44 27.8642 43.6992 28.6334 43.1406L29.1035 42.7539L29.6164 43.0977C30.5138 43.6562 31.4112 43.8281 32.3514 43.6133C33.4198 43.3555 34.4027 42.5391 35.0864 41.3789L35.3001 41.0352L35.6847 40.9492C37.3514 40.6914 38.2061 39.0156 38.548 38.0273L38.7189 37.5117L39.2317 37.4688C40.8557 37.2539 41.8813 36.6523 42.3514 35.5352L42.5651 35.0625L43.0779 34.9766C44.2317 34.8047 45.2574 34.1602 45.9411 33.1719C46.6249 32.1836 46.8386 30.9375 46.5394 29.7773L46.4112 29.3477L49.7018 25.0938L50.3856 26.125C50.7275 26.6406 51.2403 27.0273 51.8813 27.1992C52.5223 27.3711 53.2488 27.2852 53.8471 26.9414L58.6762 24.1484C59.9155 23.418 60.3428 21.8281 59.6163 20.625L48.6334 1.41797ZM8.5907 25.2656C8.41976 25.5664 8.12062 25.8242 7.77874 25.9102C7.43686 25.9961 7.05224 25.9531 6.7531 25.7812L6.0266 25.3516L1.8813 22.9453C1.24028 22.5586 1.0266 21.7422 1.36848 21.0977L12.3941 1.93359C12.7787 1.28906 13.5907 1.07422 14.2317 1.41797L19.0608 4.25391C19.7018 4.64062 19.9155 5.45703 19.5736 6.10156L8.5907 25.2656ZM15.3856 32.6992L15.1719 33.5586L14.2745 33.2578C13.5052 33 12.6505 32.6562 12.3087 31.8398C12.0522 31.2812 12.1377 30.6367 12.5223 29.9062C12.9069 29.1758 14.6591 26.2539 15.7702 26.2539C16.7958 26.2539 17.2659 26.7695 17.4796 27.1133C18.0779 28.0586 17.6078 29.2617 17.3941 29.7344L17.3087 29.8633L17.1804 30.0781C16.924 30.3359 15.5993 32.2695 15.3856 32.6992ZM19.7446 36.1367L19.4881 36.4805L19.1463 36.5234C18.8898 36.5664 18.6762 36.6094 18.4198 36.6094C17.2232 36.6094 16.3257 36.0078 15.9839 35.0625C15.7702 34.5039 15.9839 33.7734 16.5822 32.8281C16.7531 32.5703 18.2061 30.293 19.8728 30.1641C19.9582 30.1641 20.0437 30.1641 20.1292 30.1641C21.0266 30.1641 21.4112 30.6367 21.5822 30.8945C21.9668 31.5391 22.095 32.6992 19.7446 36.1367ZM23.4198 40.0039H22.9497C21.6249 39.918 20.642 38.8867 20.5138 37.5117V37.2109L20.9411 36.5664C21.7104 35.4062 22.7787 33.8164 24.5309 33.6875C25.642 33.6016 26.0693 34.1602 26.2403 34.4609C26.5822 35.1914 26.5822 36.3516 23.7189 39.6602L23.4198 40.0039ZM28.4625 41.293C27.8642 42.1523 27.3087 42.625 26.7958 42.7109C25.7702 42.8828 25.0864 41.6797 24.7873 41.1641L24.4881 40.6484L25.001 40.0469C26.0693 38.7578 26.3685 38.3281 26.454 38.1562C26.5394 37.9414 26.8386 37.5977 27.3941 37.5977C27.3941 37.5977 29.0608 37.7695 29.2745 38.8008C29.4454 39.6602 28.8044 40.7344 28.4625 41.293ZM33.4625 41.5508C32.9069 42.1523 32.2659 42.4531 31.6249 42.4531C31.4967 42.4531 31.3685 42.4531 31.1975 42.4102L29.9582 42.1953L30.5993 41.1211C31.3685 39.7461 30.8129 37.8555 30.8129 37.8555C31.2403 38.2422 32.8215 39.918 33.2916 40.2188L34.189 40.7773L33.4625 41.5508ZM44.4881 33.043C43.8471 33.6875 43.0779 33.9453 42.3087 33.7305L42.2232 33.6875C39.2317 32.6133 37.0522 30.0352 35.5138 27.9297C35.3856 27.7578 35.2146 27.6719 35.0437 27.6719C34.9155 27.6719 34.7873 27.7148 34.6591 27.8008C34.3599 28.0156 34.3172 28.3594 34.5309 28.6602C35.8129 30.3789 37.8215 32.8711 40.5138 34.2461L41.9668 35.0195L40.5565 35.793C40.0437 36.0938 39.3172 36.1797 38.7189 36.2227H38.4198L38.1634 36.0938C35.9839 34.7617 34.4027 33.6445 32.7787 31.8828C32.5651 31.668 32.3941 31.668 32.2659 31.668C32.0095 31.7109 31.7958 31.9258 31.7531 32.1836C31.7104 32.3125 31.7104 32.4844 31.924 32.7422C33.5907 34.5039 35.1292 35.6641 36.9668 36.8242L37.6078 37.2109L37.3087 37.8984C36.6676 39.4023 35.8129 39.7461 35.2146 39.7461H35.0437L34.9155 39.7031C34.3599 39.4883 32.3514 38.6289 30.5993 35.8359C30.471 35.5781 30.2574 35.5352 30.0864 35.5352C30.0437 35.5352 30.001 35.5352 29.9582 35.5352C29.8728 35.5352 29.5309 35.6641 29.4881 36.0508L29.3599 36.9961L28.4198 36.7812C28.3343 36.7383 28.2488 36.7383 28.1634 36.7383L27.2659 36.5664L27.4796 35.6641C27.6933 34.6758 27.5223 33.8594 26.9668 33.2578C26.3257 32.5703 25.2146 32.3125 23.9753 32.5273L22.9069 32.6992L22.9497 31.625C22.9924 30.8086 22.736 30.1211 22.2232 29.6484C21.6676 29.1328 20.8557 28.875 19.8728 28.918L18.9753 28.9609L18.9326 28.0586C18.8898 26.4258 17.6078 25.4805 16.4967 25.1797C15.5138 24.9219 14.189 25.0078 13.4625 26.125L12.8642 27.0703L10.471 24.4062L19.7873 8.16406L24.2745 11.4297L21.8813 13.0625C21.7531 13.1484 21.6676 13.2773 21.6676 13.3633L18.377 21.8711C18.2916 22.043 18.2916 22.1719 18.377 22.3008C18.4625 22.4727 18.6334 22.6016 18.8471 22.6875C23.2916 24.2773 26.4967 22.8594 28.2488 18.4766L28.4198 18.0039L33.7616 17.3164L34.0608 17.7891C37.3514 22.9023 40.0437 26.7266 45.001 29.5625L45.3428 29.7344L45.4283 30.0781C45.642 31.0664 45.2574 32.2695 44.4881 33.043ZM45.5993 28.4883L44.9582 28.0586C40.2574 25.1797 37.5223 20.9258 34.6163 16.4141C34.4027 16.0703 34.189 16.0273 34.0608 16.0273C34.0181 16.0273 33.9753 16.0273 33.9326 16.0273L27.9497 16.8867C27.6933 16.9297 27.4796 17.0586 27.3941 17.3164C26.924 18.6914 25.471 22.9453 20.7275 22L19.7018 21.7852L22.6933 14.0078L30.2146 8.89453L40.3001 8.63672L49.1463 23.9336L45.5993 28.4883ZM58.0779 23.0742L53.2488 25.8672C53.0352 25.9961 52.8215 26.0391 52.5651 26.0391C52.095 26.0391 51.6249 25.7812 51.3685 25.3516L40.3856 6.1875C40.001 5.54297 40.2574 4.68359 40.8984 4.29688L45.7275 1.50391C45.9411 1.375 46.1548 1.33203 46.4112 1.33203C46.8813 1.33203 47.3514 1.58984 47.6078 2.01953L58.6334 21.1836C58.9753 21.8711 58.7189 22.6875 58.0779 23.0742Z" fill="#33353D"/>
<path d="M57.3083 18.9922L47.5647 2.01953C47.3083 1.58984 46.8382 1.33203 46.3681 1.33203C46.1544 1.33203 45.898 1.375 45.6843 1.50391L42.6074 3.26563L50.5989 17.1875C52.0091 19.5938 55.0006 20.3672 57.3083 18.9922Z" fill="#E2E5ED"/>
<path d="M57.3072 18.9922C54.9996 20.3672 52.0081 19.5508 50.6406 17.2305L42.6491 3.30859L40.8542 4.33984C40.2132 4.72656 39.9995 5.54297 40.3414 6.23047L51.3671 25.3945C51.6235 25.8242 52.0508 26.082 52.5637 26.082C52.8201 26.082 53.0337 26.0391 53.2474 25.9102L58.0765 23.1172C58.7175 22.7305 58.9312 21.9141 58.5893 21.2266L57.3072 18.9922Z" fill="#DADCE0"/>
<path d="M2.64844 18.9062L12.392 1.89062C12.6484 1.46094 13.1185 1.20312 13.5886 1.20312C13.8023 1.20312 14.0587 1.24609 14.2724 1.375L17.3493 3.13672L9.3151 17.1016C7.99032 19.4648 4.99886 20.2383 2.64844 18.9062Z" fill="#E2E5ED"/>
<path d="M2.64887 18.9062C4.95656 20.2812 7.94801 19.4648 9.31554 17.1445L17.3497 3.17969L19.1446 4.21094C19.7856 4.59766 19.9993 5.41406 19.6574 6.10156L8.58904 25.2656C8.33263 25.6953 7.90528 25.9531 7.39246 25.9531C7.13605 25.9531 6.92237 25.9102 6.7087 25.7812L1.87964 22.9453C1.23861 22.5586 1.02494 21.7422 1.36682 21.0547L2.64887 18.9062Z" fill="#DADCE0"/>
<path d="M47.6929 21.3984C44.7014 22.7305 41.1544 21.6562 39.4023 18.7773L33.4194 8.76562L30.257 8.85156L22.7356 14.0078L19.7441 21.7852L20.7698 22C25.5561 22.9453 26.9664 18.6914 27.4364 17.3164C27.5219 17.1016 27.7356 16.9297 27.992 16.8867L33.9749 16.0273C34.0176 16.0273 34.0604 16.0273 34.1031 16.0273C34.2313 16.0273 34.445 16.0703 34.6587 16.4141C37.5646 20.9258 40.2997 25.1797 44.9578 28.0586L45.5988 28.4883L49.1458 23.9336L47.6929 21.3984Z" fill="#F4A343"/>
<path d="M47.6934 21.3984L40.343 8.63672L33.4199 8.80859L39.4028 18.8203C41.155 21.6992 44.7447 22.7734 47.6934 21.3984Z" fill="#E09C3B"/>
</g>
<defs>
<clipPath id="clip0">
<rect width="60" height="44" fill="white"/>
</clipPath>
</defs>
</svg>
