<svg width="60" height="60" viewBox="0 0 60 60" fill="none" xmlns="http://www.w3.org/2000/svg">
<g clip-path="url(#clip0)">
<path d="M41.0016 33.5918L36.7115 29.4772L43.3305 22.5376C46.8851 24.1957 51.1752 23.8887 54.546 21.4322C57.7942 18.9757 59.3877 15.1067 58.9586 11.3605L51.8494 16.5806C50.8688 17.3175 49.5205 17.0719 48.785 16.0893L44.8013 10.685C44.0659 9.70238 44.3111 8.35131 45.2916 7.61436L52.4009 2.3943C48.9076 0.9204 44.7401 1.22746 41.4306 3.62255C37.5695 6.50894 36.0986 11.4219 37.4469 15.8436L30.3376 23.3974L23.167 16.5806C24.8218 13.0187 24.5153 8.71979 22.0639 5.3421C19.6124 2.08724 15.7513 0.490512 12.0128 0.9204L17.2222 8.04425C17.9576 9.02685 17.7125 10.3779 16.7319 11.1149L13.545 13.4485C14.7094 14.861 14.4643 16.8876 13.116 18.0545L8.51943 21.8621C10.9709 23.0289 13.8514 23.2131 16.4867 22.4148L24.1476 29.7843L23.9638 29.9685L16.7319 37.6451C13.1772 35.9255 8.82587 36.1098 5.3938 38.5663C2.0843 40.9613 0.490833 44.8303 0.858555 48.6379L8.02914 43.4793C9.00973 42.7423 10.358 42.9879 11.0935 43.9706L15.0159 49.3749C15.7513 50.3575 15.5062 51.7085 14.5256 52.4455L7.35498 57.6041C10.8483 59.1394 15.0159 58.8938 18.3254 56.4987C22.1864 53.6737 23.7186 48.8221 22.4316 44.5233L30.3989 36.1712L30.5828 35.9869L38.1824 43.295C36.4663 46.8569 36.6502 51.2172 39.1017 54.6563C41.4919 57.9726 45.3529 59.5693 49.1527 59.2008L44.0046 52.0156C43.2692 51.033 43.5143 49.6819 44.4949 48.945L49.8882 45.0146C50.8688 44.2776 52.2171 44.5233 52.9525 45.5059L58.1006 52.6911C59.6328 49.1906 59.3877 45.0146 56.9975 41.6983C54.2396 37.7679 49.3979 36.2326 45.0465 37.4608L41.0016 33.5918ZM36.8953 19.9583C37.6308 19.1599 38.9178 19.0985 39.7145 19.8969C40.1435 20.2653 40.3274 20.7566 40.3274 21.3093C40.3274 21.8006 40.1435 22.3534 39.7758 22.7218L34.9341 27.8191L32.0536 25.0555L36.8953 19.9583ZM28.6829 34.4516L23.3509 40.0401C22.6154 40.8385 21.3284 40.8999 20.5317 40.1016C20.1027 39.7331 19.9188 39.2418 19.9188 38.6891C19.9188 38.1978 20.1027 37.6451 20.4704 37.2766L25.8024 31.6881L25.9862 31.5038L28.8667 34.2674L28.6829 34.4516ZM40.6951 39.4874C40.3274 39.9173 39.8371 40.1016 39.2855 40.1016C38.7952 40.1016 38.2436 39.9173 37.8759 39.5489L33.2181 35.1272L24.5766 26.8365L20.593 23.0289C19.7962 22.2919 19.735 21.0023 20.5317 20.2039C20.8994 19.774 21.3897 19.5898 21.9413 19.5898C22.4316 19.5898 22.9832 19.774 23.3509 20.1425L27.2733 23.8887L36.2212 32.425L40.6338 36.6625C41.4306 37.3994 41.4919 38.6891 40.6951 39.4874Z" fill="#F4A343"/>
<path d="M13.6067 13.4492L11.4004 15.1073C10.4198 15.8443 9.07145 15.5986 8.33601 14.616L3.06532 7.49219C1.53314 10.9927 1.90087 15.1687 4.29106 18.485C5.39423 20.0203 6.86512 21.1872 8.45858 21.9241L13.0551 18.1165C14.526 16.9497 14.7099 14.8617 13.6067 13.4492Z" fill="#E09C3B"/>
<path d="M36.8944 19.9582L32.0527 25.0555L34.9332 27.819L39.8362 22.7218C40.2039 22.3533 40.3878 21.8006 40.3878 21.3093C40.3878 20.818 40.1426 20.2653 39.7749 19.8968C38.9169 19.1599 37.6911 19.1599 36.8944 19.9582Z" fill="#E2E5ED"/>
<path d="M27.274 23.8887L23.3516 20.1426C22.9839 19.7741 22.4323 19.5898 21.942 19.5898C21.4517 19.5898 20.9002 19.8355 20.5324 20.204C19.797 21.0023 19.797 22.292 20.5937 23.0289L24.5774 26.8365L33.2189 35.1272L37.8767 39.5489C38.3057 39.9174 38.796 40.1016 39.2863 40.1016C39.7766 40.1016 40.3282 39.856 40.6959 39.4875C41.4313 38.6891 41.4313 37.3995 40.6346 36.6625L36.2219 32.4251L27.274 23.8887Z" fill="#E2E5ED"/>
<path d="M25.8015 31.6881L20.4696 37.2767C20.1018 37.7066 19.918 38.1979 19.918 38.6892C19.918 39.1805 20.1631 39.7332 20.5308 40.1017C21.3276 40.8386 22.6146 40.8386 23.35 40.0402L28.682 34.4517L28.8659 34.2675L25.9854 31.5039L25.8015 31.6881Z" fill="#E2E5ED"/>
<path d="M34.9332 28.6789C34.6881 28.6789 34.5042 28.6175 34.3203 28.4333L31.4399 25.6697C31.0721 25.3627 31.0721 24.81 31.4399 24.4415L36.2815 19.3442C37.3847 18.1774 39.2233 18.1774 40.3265 19.2214C40.8781 19.7127 41.1845 20.4497 41.2458 21.248C41.2458 22.0464 41.0006 22.7833 40.449 23.3361L35.6074 28.4333C35.4235 28.6175 35.1784 28.6789 34.9332 28.6789ZM33.2785 25.0556L34.8719 26.5909L39.1007 22.1078C39.2846 21.9236 39.4072 21.6165 39.4072 21.3094C39.4072 21.0024 39.2846 20.7567 39.0394 20.5111C38.6104 20.0812 37.875 20.0812 37.446 20.5111L33.2785 25.0556Z" fill="#33353D"/>
<path d="M39.2858 40.9626C38.5503 40.9626 37.8762 40.6555 37.3246 40.1642L20.0416 23.6443C18.8772 22.5388 18.8772 20.6965 19.9191 19.591C20.4094 19.0383 21.1448 18.7313 21.9415 18.6699C22.7383 18.6084 23.4737 18.9155 23.964 19.4682L41.2469 35.9882C42.4114 37.0936 42.4114 38.936 41.3695 40.0414C40.8179 40.5941 40.1438 40.9012 39.347 40.9626C39.2858 40.9626 39.2858 40.9626 39.2858 40.9626ZM22.0028 20.4508C21.6964 20.4508 21.39 20.5736 21.2061 20.8193C20.7771 21.2492 20.7771 21.9861 21.2674 22.416L38.5503 38.936C38.7955 39.1202 39.0406 39.243 39.347 39.243C39.5922 39.243 39.8986 39.1816 40.1438 38.8746C40.5728 38.4447 40.5728 37.7077 40.0825 37.2778L26.6606 24.504L22.7383 20.7579C22.5544 20.5736 22.3093 20.4508 22.0028 20.4508Z" fill="#33353D"/>
<path d="M21.8805 41.5145C21.145 41.5145 20.4709 41.2689 19.9193 40.7162C19.3677 40.1635 19.0613 39.4879 19 38.6896C19 37.9526 19.2451 37.2157 19.7967 36.663L25.3126 30.8902C25.4964 30.7059 25.6803 30.6445 25.9254 30.6445C26.1706 30.6445 26.3544 30.7059 26.5383 30.8902L29.4188 33.6537C29.6027 33.838 29.6639 34.0222 29.6639 34.2679C29.6639 34.5135 29.6027 34.6978 29.4188 34.882L23.903 40.6548C23.4127 41.2075 22.6772 41.5145 21.8805 41.5145ZM25.9867 32.7326L21.0838 37.8912C20.8999 38.1369 20.7773 38.3825 20.7773 38.6896C20.7773 38.9352 20.8386 39.2423 21.145 39.4879C21.5741 39.9178 22.3095 39.9178 22.7385 39.4265L27.6415 34.2679L25.9867 32.7326Z" fill="#33353D"/>
<path d="M48.1109 60.0006C44.3111 60.0006 40.6952 58.1582 38.4275 55.0876C35.9761 51.7099 35.4858 47.2882 37.1405 43.4192L30.6441 37.1551L23.4735 44.7088C24.5767 49.3762 22.7993 54.3506 18.877 57.1756C15.4449 59.6321 10.9097 60.1234 7.04858 58.4038C6.74215 58.281 6.55829 58.0354 6.55829 57.6669C6.497 57.3598 6.68086 57.0528 6.92601 56.8685L14.0966 51.7099C14.6482 51.28 14.832 50.4816 14.403 49.8675L10.4194 44.4632C9.99036 43.8491 9.19363 43.7262 8.58076 44.1561L1.41018 49.3148C1.16503 49.499 0.797306 49.5604 0.552158 49.3762C0.245723 49.2534 0.0618619 48.9463 0.0618619 48.6392C-0.367147 44.4018 1.53275 40.2257 4.96482 37.7692C8.33561 35.3127 12.7483 34.8214 16.6094 36.4796L22.9832 29.7856L16.2416 23.4601C11.5225 24.6884 6.497 22.9688 3.61651 19.0384C1.10374 15.5993 0.613445 11.0548 2.26819 7.18581C2.39077 6.87875 2.63592 6.69451 2.94235 6.6331C3.24879 6.57169 3.55522 6.75593 3.73908 7.00158L9.00977 14.1254C9.43878 14.7395 10.2355 14.8624 10.8484 14.4325L16.2416 10.4407C16.7932 10.0108 16.9771 9.15101 16.5481 8.5983L11.2774 1.47445C11.0935 1.2288 11.0935 0.860327 11.2161 0.614677C11.3387 0.369027 11.5838 0.123377 11.8903 0.123377C16.0578 -0.367923 20.2253 1.47445 22.7381 4.91355C25.1895 8.29124 25.7411 12.6515 24.209 16.4591L30.2151 22.2319L36.4664 15.6607C35.2406 10.932 36.9566 5.89615 40.879 3.00976C44.2498 0.491852 48.785 0.000552297 52.7074 1.65869C53.0139 1.78151 53.1977 2.02716 53.259 2.33423C53.3203 2.64129 53.1364 2.94835 52.8913 3.13259L45.782 8.35265C45.1691 8.78254 45.0465 9.5809 45.4755 10.195L49.4592 15.5993C49.8882 16.152 50.7462 16.3363 51.2978 15.9064L58.3458 10.6863C58.591 10.5021 58.9587 10.4407 59.2038 10.5635C59.5103 10.6863 59.6941 10.932 59.6941 11.239C60.1844 15.4151 58.3458 19.5911 54.9137 22.109C51.543 24.5655 47.1916 25.1183 43.3918 23.5829L37.9372 29.4785L40.9403 32.3649L39.7146 33.6546L36.0986 30.1541C35.7309 29.847 35.7309 29.2329 36.0373 28.9258L42.6563 21.9862C42.9015 21.7406 43.3305 21.6177 43.6369 21.802C47.0077 23.3987 50.9301 22.9688 53.9332 20.758C56.3846 18.9156 57.9168 16.0906 58.0394 13.0814L52.2784 17.3189C50.9301 18.3015 48.9689 17.9944 47.9883 16.6433L44.1272 11.239C43.1466 9.88796 43.3918 7.92276 44.8014 6.94016L50.5624 2.7027C47.6206 1.96575 44.495 2.51846 41.9822 4.36084C38.4888 6.94016 37.0179 11.4233 38.305 15.5993C38.4275 15.9064 38.305 16.2134 38.1211 16.4591L30.9505 24.0128C30.6441 24.3813 30.0925 24.3813 29.7248 24.0128L22.6155 17.196C22.3703 16.9504 22.2478 16.5205 22.4316 16.2134C24.0251 12.8358 23.5961 8.90536 21.3897 5.89615C19.5511 3.43965 16.7319 1.90434 13.7289 1.78151L17.9577 7.55429C18.9383 8.90536 18.6318 10.8706 17.2835 11.8532L11.8903 15.845C10.5419 16.8276 8.58076 16.5819 7.60017 15.1694L3.37136 9.39666C2.63592 12.3445 3.1875 15.4765 5.02611 17.9944C7.60017 21.4949 12.0741 22.9688 16.2416 21.6792C16.5481 21.5563 16.8545 21.6792 17.0997 21.8634L24.7605 29.2329C24.9444 29.4171 25.0057 29.6014 25.0057 29.847C25.0057 30.0927 24.9444 30.2769 24.7605 30.4611L17.4061 38.1991C17.1609 38.4448 16.7319 38.5676 16.3642 38.3834C12.9934 36.7252 9.00977 37.0323 5.94542 39.2431C3.43265 41.0241 1.96176 43.8491 1.7779 46.9197L7.60017 42.7436C8.94848 41.761 10.8484 42.0681 11.8903 43.4192L15.8126 48.8235C16.7932 50.1746 16.4868 52.0783 15.1385 53.1224L9.3162 57.2984C12.258 58.0968 15.3836 57.5441 17.8964 55.7017C21.3285 53.1838 22.8606 48.7621 21.6962 44.6474C21.6349 44.3404 21.6962 44.0333 21.88 43.7877L29.9699 35.2513C30.2764 34.8828 30.8279 34.8828 31.1957 35.1899L38.8565 42.498C39.163 42.7436 39.2243 43.1735 39.0404 43.542C37.3857 46.9197 37.6921 50.9115 39.8984 53.9821C41.6758 56.5 44.495 57.9739 47.5593 58.1582L43.3918 52.324C42.4112 50.9729 42.7176 49.0691 44.0659 48.0251L49.4592 44.0947C50.8075 43.1121 52.7074 43.4192 53.7493 44.7703L57.9168 50.6044C58.7135 47.6566 58.162 44.5246 56.3234 42.0067C53.8106 38.5676 49.3979 37.0323 45.2917 38.1991L44.8014 36.541C49.5818 35.1285 54.7912 36.9709 57.733 41.0241C60.1844 44.4632 60.6747 49.0077 58.9587 52.8767C58.8361 53.1838 58.591 53.368 58.2233 53.368C57.9168 53.368 57.6104 53.2452 57.4265 52.9995L52.2784 45.8143C51.8494 45.2616 51.0527 45.0773 50.4398 45.5072L45.0465 49.4376C44.4337 49.8675 44.3111 50.6659 44.7401 51.28L49.8882 58.4652C50.0721 58.7109 50.1334 59.0794 49.9495 59.325C49.8269 59.6321 49.5205 59.8163 49.2141 59.8163C48.9076 60.0006 48.5399 60.0006 48.1109 60.0006ZM21.88 41.5154C21.1446 41.5154 20.4704 41.2697 19.9189 40.717C19.3673 40.1643 19.0608 39.4888 18.9996 38.6904C18.9996 37.9535 19.2447 37.2165 19.7963 36.6638L25.3121 30.891C25.496 30.7068 25.6798 30.6454 25.925 30.6454C26.1701 30.6454 26.354 30.7068 26.5379 30.891L29.4183 33.6546C29.6022 33.8388 29.6635 34.0231 29.6635 34.2687C29.6635 34.5144 29.6022 34.6986 29.4183 34.8828L23.9025 40.6556C23.4122 41.2083 22.6768 41.5154 21.88 41.5154ZM25.9863 32.7334L21.0833 37.8921C20.8995 38.1377 20.7769 38.3834 20.7769 38.6904C20.7769 38.9361 20.8382 39.2431 21.1446 39.4888C21.5736 39.9187 22.3091 39.9187 22.7381 39.4274L27.641 34.2687L25.9863 32.7334ZM39.2856 40.9627C38.5501 40.9627 37.876 40.6556 37.3244 40.1643L20.0414 23.6444C18.877 22.5389 18.877 20.6966 19.9189 19.5911C20.4092 19.0384 21.1446 18.7314 21.9413 18.6699C22.7381 18.6085 23.4735 18.9156 23.9638 19.4683L41.2467 35.9883C42.4112 37.0937 42.4112 38.9361 41.3693 40.0415C40.8177 40.5942 40.1436 40.9013 39.3468 40.9627C39.2856 40.9627 39.2856 40.9627 39.2856 40.9627ZM22.0026 20.4509C21.6962 20.4509 21.3897 20.5737 21.2059 20.8194C20.7769 21.2493 20.7769 21.9862 21.2672 22.4161L38.5501 38.9361C38.7953 39.1203 39.0404 39.2431 39.3468 39.2431C39.592 39.2431 39.8984 39.1817 40.1436 38.8747C40.5726 38.4448 40.5726 37.7078 40.0823 37.2779L22.7993 20.758C22.5542 20.5737 22.3091 20.4509 22.0026 20.4509ZM34.9342 28.6802C34.689 28.6802 34.5052 28.6188 34.3213 28.4345L31.4408 25.671C31.0731 25.3639 31.0731 24.8112 31.4408 24.4427L36.2825 19.3455C37.3857 18.1786 39.2243 18.1786 40.3274 19.2227C40.879 19.714 41.1855 20.4509 41.2467 21.2493C41.2467 21.9862 41.0016 22.7846 40.45 23.2759L35.6083 28.3731C35.4245 28.6188 35.1793 28.6802 34.9342 28.6802ZM33.2794 25.0568L34.8729 26.5922L39.1017 22.109C39.2856 21.9248 39.4081 21.6177 39.4081 21.3107C39.4081 21.0036 39.2856 20.758 39.0404 20.5123C38.6114 20.0824 37.876 20.0824 37.4469 20.5123L33.2794 25.0568Z" fill="#33353D"/>
<path d="M42.0418 33.4606L40.8574 34.7051L42.4985 36.2734L43.6829 35.029L42.0418 33.4606Z" fill="#33353D"/>
</g>
<defs>
<clipPath id="clip0">
<rect width="60" height="60" fill="white"/>
</clipPath>
</defs>
</svg>
