<svg width="16" height="16" viewBox="0 0 16 16" fill="none" xmlns="http://www.w3.org/2000/svg">
<path fill-rule="evenodd" clip-rule="evenodd" d="M10.1469 5.64689C10.1933 5.60033 10.2485 5.56339 10.3093 5.53818C10.37 5.51297 10.4351 5.5 10.5009 5.5C10.5667 5.5 10.6318 5.51297 10.6925 5.53818C10.7533 5.56339 10.8084 5.60033 10.8549 5.64689L13.8549 8.64689C13.9015 8.69334 13.9384 8.74852 13.9636 8.80926C13.9888 8.87001 14.0018 8.93513 14.0018 9.00089C14.0018 9.06666 13.9888 9.13178 13.9636 9.19253C13.9384 9.25327 13.9015 9.30845 13.8549 9.35489L10.8549 12.3549C10.761 12.4488 10.6337 12.5015 10.5009 12.5015C10.3681 12.5015 10.2408 12.4488 10.1469 12.3549C10.053 12.261 10.0003 12.1337 10.0003 12.0009C10.0003 11.8681 10.053 11.7408 10.1469 11.6469L12.7939 9.00089L10.1469 6.35489C10.1003 6.30845 10.0634 6.25327 10.0382 6.19253C10.013 6.13178 10 6.06666 10 6.00089C10 5.93513 10.013 5.87001 10.0382 5.80926C10.0634 5.74851 10.1003 5.69334 10.1469 5.64689Z" fill="#F4A343"/>
<path fill-rule="evenodd" clip-rule="evenodd" d="M3 2.5C2.86739 2.5 2.74021 2.55268 2.64645 2.64645C2.55268 2.74021 2.5 2.86739 2.5 3V7C2.5 7.66304 2.76339 8.29893 3.23223 8.76777C3.70107 9.23661 4.33696 9.5 5 9.5H13.5C13.6326 9.5 13.7598 9.44732 13.8536 9.35355C13.9473 9.25979 14 9.13261 14 9C14 8.86739 13.9473 8.74021 13.8536 8.64645C13.7598 8.55268 13.6326 8.5 13.5 8.5H5C4.60218 8.5 4.22064 8.34196 3.93934 8.06066C3.65804 7.77936 3.5 7.39782 3.5 7V3C3.5 2.86739 3.44732 2.74021 3.35355 2.64645C3.25979 2.55268 3.13261 2.5 3 2.5Z" fill="#F4A343"/>
</svg>
