<svg width="16" height="16" viewBox="0 0 16 16" fill="none" xmlns="http://www.w3.org/2000/svg">
<path fill-rule="evenodd" clip-rule="evenodd" d="M14.3531 11.3531C14.3067 11.3997 14.2515 11.4366 14.1907 11.4618C14.13 11.487 14.0649 11.5 13.9991 11.5C13.9333 11.5 13.8682 11.487 13.8075 11.4618C13.7467 11.4366 13.6916 11.3997 13.6451 11.3531L7.99911 5.70611L2.35311 11.3531C2.30662 11.3996 2.25143 11.4365 2.19069 11.4616C2.12995 11.4868 2.06485 11.4997 1.99911 11.4997C1.93336 11.4997 1.86826 11.4868 1.80752 11.4616C1.74678 11.4365 1.69159 11.3996 1.64511 11.3531C1.59862 11.3066 1.56174 11.2514 1.53658 11.1907C1.51142 11.1299 1.49848 11.0648 1.49848 10.9991C1.49848 10.9334 1.51142 10.8683 1.53658 10.8075C1.56174 10.7468 1.59862 10.6916 1.64511 10.6451L7.64511 4.64511C7.69155 4.59854 7.74673 4.5616 7.80747 4.53639C7.86822 4.51119 7.93334 4.49821 7.99911 4.49821C8.06487 4.49821 8.13 4.51119 8.19074 4.53639C8.25149 4.5616 8.30666 4.59854 8.35311 4.64511L14.3531 10.6451C14.3997 10.6916 14.4366 10.7467 14.4618 10.8075C14.487 10.8682 14.5 10.9333 14.5 10.9991C14.5 11.0649 14.487 11.13 14.4618 11.1907C14.4366 11.2515 14.3997 11.3067 14.3531 11.3531Z" fill="#F4A343"/>
</svg>
