<svg width="16" height="16" viewBox="0 0 16 16" fill="none" xmlns="http://www.w3.org/2000/svg">
<path fill-rule="evenodd" clip-rule="evenodd" d="M12.5 8C12.5 8.13261 12.4473 8.25979 12.3536 8.35355C12.2598 8.44732 12.1326 8.5 12 8.5L3 8.5C2.86739 8.5 2.74021 8.44732 2.64645 8.35355C2.55268 8.25979 2.5 8.13261 2.5 8C2.5 7.86739 2.55268 7.74021 2.64645 7.64645C2.74021 7.55268 2.86739 7.5 3 7.5L12 7.5C12.1326 7.5 12.2598 7.55268 12.3536 7.64645C12.4473 7.74021 12.5 7.86739 12.5 8Z" fill="#C0C0C0"/>
<path fill-rule="evenodd" clip-rule="evenodd" d="M13.3541 7.64663C13.4006 7.69308 13.4376 7.74825 13.4628 7.809C13.488 7.86974 13.501 7.93486 13.501 8.00063C13.501 8.0664 13.488 8.13152 13.4628 8.19227C13.4376 8.25301 13.4006 8.30819 13.3541 8.35463L10.3541 11.3546C10.2602 11.4485 10.1329 11.5013 10.0001 11.5013C9.86731 11.5013 9.73997 11.4485 9.64608 11.3546C9.5522 11.2607 9.49945 11.1334 9.49945 11.0006C9.49945 10.8679 9.5522 10.7405 9.64608 10.6466L12.2931 8.00063L9.64608 5.35463C9.5522 5.26075 9.49945 5.13341 9.49945 5.00063C9.49945 4.86786 9.5522 4.74052 9.64608 4.64663C9.73997 4.55274 9.86731 4.5 10.0001 4.5C10.1329 4.5 10.2602 4.55274 10.3541 4.64663L13.3541 7.64663Z" fill="#C0C0C0"/>
</svg>
