<svg width="54" height="51" viewBox="0 0 54 51" fill="none" xmlns="http://www.w3.org/2000/svg">
<path d="M33.0898 44.7324H20.9102V50.1431H33.0898V44.7324Z" fill="#BEC3C7"/>
<path d="M4.58159 6.80273C2.37201 6.80273 0.647461 8.57059 0.647461 10.7134V32.1956V36.9634H53.4079V10.7134C53.4079 8.51702 51.6295 6.80273 49.4738 6.80273H4.58159Z" fill="#F4A343"/>
<path d="M0.59375 36.9648V40.1791C0.59375 42.3756 2.37219 44.0898 4.52788 44.0898H21.0189H33.0369H49.474C51.6836 44.0898 53.4081 42.322 53.4081 40.1791V36.9648H0.59375Z" fill="#E09C3B"/>
<path d="M42.5749 6.80404V26.2505C42.5749 26.2505 35.0838 22.6076 27 26.2505V2.35761C34.8144 -1.60668 42.5749 2.35761 42.5749 2.35761V6.80404Z" fill="#BEC3C7"/>
<path d="M26.9999 2.35761V26.1969C18.8622 22.554 11.4251 26.1969 11.4251 26.1969V6.80404V2.35761C11.3712 2.35761 19.1856 -1.60668 26.9999 2.35761Z" fill="#ECF0F1"/>
<path d="M47.3722 39.3223C46.7254 39.3223 46.1865 39.858 46.1865 40.5008C46.1865 41.1437 46.7254 41.6794 47.3722 41.6794C48.0189 41.6794 48.5578 41.1437 48.5578 40.5008C48.6117 39.858 48.0728 39.3223 47.3722 39.3223Z" fill="#33353D"/>
<path d="M43.8145 39.3223C43.1678 39.3223 42.6289 39.858 42.6289 40.5008C42.6289 41.1437 43.1678 41.6794 43.8145 41.6794C44.4612 41.6794 45.0002 41.1437 45.0002 40.5008C45.0002 39.858 44.4612 39.3223 43.8145 39.3223Z" fill="#33353D"/>
<path d="M40.2032 39.3223C39.5565 39.3223 39.0176 39.858 39.0176 40.5008C39.0176 41.1437 39.5565 41.6794 40.2032 41.6794C40.8499 41.6794 41.3888 41.1437 41.3888 40.5008C41.3888 39.858 40.8499 39.3223 40.2032 39.3223Z" fill="#33353D"/>
<path d="M49.4192 6.21429H43.1677V2.35714C43.1677 2.14286 43.0599 1.92857 42.8443 1.82143C42.7365 1.76786 39.2335 0 34.491 0C31.7964 0 29.3174 0.589286 27 1.71429C22.9042 -0.267857 18.8623 -0.160714 16.1677 0.267857C13.2036 0.803571 11.2096 1.76786 11.1018 1.82143C10.9401 1.92857 10.7784 2.14286 10.7784 2.35714V6.16071H4.58084C2.0479 6.21429 0 8.19643 0 10.7143V40.1786C0 42.6964 2.0479 44.7321 4.58084 44.7321H20.4252V49.8214H17.4072C17.0838 49.8214 16.8144 50.0893 16.8144 50.4107C16.8144 50.7321 17.0838 51 17.4072 51H36.5928C36.9162 51 37.1856 50.7321 37.1856 50.4107C37.1856 50.0893 36.9162 49.8214 36.5928 49.8214H33.5749V44.7321H49.4192C51.9521 44.7321 54 42.6964 54 40.1786V10.7143C54 8.19643 51.9521 6.21429 49.4192 6.21429ZM27.5928 2.73214C29.6946 1.71429 32.0659 1.17857 34.491 1.17857C38.1018 1.17857 41.012 2.30357 41.982 2.73214V25.2857C40.6886 24.8036 37.994 24 34.6527 24C32.1737 24 29.8563 24.4286 27.5928 25.2857V2.73214ZM12.018 2.73214C12.6647 2.46429 14.2814 1.82143 16.4371 1.44643C18.9162 1.01786 22.6347 0.910714 26.4072 2.73214V25.3393C22.3653 23.7857 18.5928 23.8929 16.0599 24.2679C14.2814 24.5357 12.8263 25.0179 12.018 25.3393V2.73214ZM4.58084 7.39286H10.7784V26.25C10.7784 26.4643 10.8862 26.625 11.0479 26.7321C11.2096 26.8393 11.4252 26.8393 11.6407 26.7857C11.6946 26.7321 18.9701 23.3571 26.7305 26.7857C26.7305 26.7857 26.7305 26.7857 26.7844 26.7857C26.8383 26.8393 26.9461 26.8393 27 26.8393C27.0539 26.8393 27.1617 26.8393 27.2156 26.7857C27.2156 26.7857 27.2156 26.7857 27.2695 26.7857C29.5868 25.7679 32.0659 25.2321 34.6527 25.2321C39.0719 25.2321 42.3054 26.7857 42.3593 26.7857C42.521 26.8929 42.7904 26.8393 42.9521 26.7321C43.1138 26.625 43.2216 26.4107 43.2216 26.25V7.39286H49.4731C51.3054 7.39286 52.8144 8.89286 52.8144 10.7143V36.375H1.18563V32.7857H24.5749C24.8982 32.7857 25.1677 32.5179 25.1677 32.1964C25.1677 31.875 24.8982 31.6071 24.5749 31.6071H1.18563V10.7143C1.18563 8.89286 2.69461 7.39286 4.58084 7.39286ZM32.3892 49.7679H29.9641V48.8571C29.9641 48.5357 29.6946 48.2679 29.3713 48.2679C29.0479 48.2679 28.7784 48.5357 28.7784 48.8571V49.7679H25.1677V48.8571C25.1677 48.5357 24.8982 48.2679 24.5749 48.2679C24.2515 48.2679 23.982 48.5357 23.982 48.8571V49.7679H21.5569V44.6786H32.3353V49.7679H32.3892ZM49.4192 43.5H4.58084C2.7485 43.5 1.23952 42 1.23952 40.1786V37.5536H52.8144V40.1786C52.7605 42 51.3054 43.5 49.4192 43.5Z" fill="#33353D"/>
<path d="M16.0607 7.71412L22.0967 8.89269C22.1506 8.89269 22.1506 8.89269 22.2044 8.89269C22.4739 8.89269 22.7434 8.67841 22.7973 8.41055C22.8512 8.08912 22.6356 7.76769 22.3122 7.71412L16.3302 6.53555C16.0068 6.48198 15.6835 6.69626 15.6296 7.01769C15.5218 7.33912 15.7374 7.66055 16.0607 7.71412Z" fill="#33353D"/>
<path d="M16.0607 11.304L22.0967 12.4825C22.1506 12.4825 22.1506 12.4825 22.2044 12.4825C22.4739 12.4825 22.7434 12.2683 22.7973 12.0004C22.8512 11.679 22.6356 11.3575 22.3122 11.304L16.3302 10.1254C16.0068 10.0718 15.6835 10.2861 15.6296 10.6075C15.5218 10.929 15.7374 11.2504 16.0607 11.304Z" fill="#33353D"/>
<path d="M16.0607 14.8919L22.0967 16.0704C22.1506 16.0704 22.1506 16.0704 22.2044 16.0704C22.4739 16.0704 22.7434 15.8561 22.7973 15.5883C22.8512 15.2669 22.6356 14.9454 22.3122 14.8919L16.3302 13.7133C16.0068 13.6597 15.6835 13.874 15.6296 14.1954C15.5218 14.5169 15.7374 14.8383 16.0607 14.8919Z" fill="#33353D"/>
<path d="M16.0607 18.4817L22.0967 19.6603C22.1506 19.6603 22.1506 19.6603 22.2044 19.6603C22.4739 19.6603 22.7434 19.446 22.7973 19.1781C22.8512 18.8567 22.6356 18.5353 22.3122 18.4817L16.3302 17.3031C16.0068 17.2496 15.6835 17.4638 15.6296 17.7853C15.5218 18.1067 15.7374 18.3746 16.0607 18.4817Z" fill="#33353D"/>
<path d="M31.7964 8.94738C31.8503 8.94738 31.8503 8.94738 31.9042 8.94738L37.8862 7.76881C38.2096 7.71523 38.4251 7.39381 38.3712 7.07238C38.3173 6.75095 37.994 6.53666 37.6706 6.59024L31.6886 7.76881C31.3652 7.82238 31.1497 8.14381 31.2036 8.46523C31.2575 8.73309 31.5269 8.94738 31.7964 8.94738Z" fill="#33353D"/>
<path d="M31.7964 12.4825C31.8503 12.4825 31.8503 12.4825 31.9042 12.4825L37.8862 11.304C38.2096 11.2504 38.4251 10.929 38.3712 10.6075C38.3173 10.2861 37.994 10.0718 37.6706 10.1254L31.6886 11.304C31.3652 11.3575 31.1497 11.679 31.2036 12.0004C31.2575 12.3218 31.5269 12.4825 31.7964 12.4825Z" fill="#33353D"/>
<path d="M31.7964 16.0704C31.8503 16.0704 31.8503 16.0704 31.9042 16.0704L37.8862 14.8919C38.2096 14.8383 38.4251 14.5169 38.3712 14.1954C38.3173 13.874 37.994 13.6597 37.6706 13.7133L31.6886 14.8919C31.3652 14.9454 31.1497 15.2669 31.2036 15.5883C31.2575 15.9097 31.5269 16.0704 31.7964 16.0704Z" fill="#33353D"/>
<path d="M38.3712 17.7325C38.3173 17.4111 37.994 17.1968 37.6706 17.2504L31.6886 18.429C31.3652 18.4825 31.1497 18.804 31.2036 19.1254C31.2575 19.3933 31.5269 19.6075 31.7964 19.6075C31.8503 19.6075 31.8503 19.6075 31.9042 19.6075L37.8862 18.429C38.2096 18.3754 38.4251 18.1075 38.3712 17.7325Z" fill="#33353D"/>
<path d="M26.8389 32.786H45.0006C45.3239 32.786 45.5934 32.5181 45.5934 32.1967C45.5934 31.8753 45.3239 31.6074 45.0006 31.6074H26.8389C26.5156 31.6074 26.2461 31.8753 26.2461 32.1967C26.2461 32.5181 26.5156 32.786 26.8389 32.786Z" fill="#33353D"/>
<path d="M47.1016 32.786H48.6106C48.9339 32.786 49.2034 32.5181 49.2034 32.1967C49.2034 31.8753 48.9339 31.6074 48.6106 31.6074H47.1016C46.7782 31.6074 46.5088 31.8753 46.5088 32.1967C46.5088 32.5181 46.7782 32.786 47.1016 32.786Z" fill="#33353D"/>
</svg>
