<svg width="60" height="54" viewBox="0 0 60 54" fill="none" xmlns="http://www.w3.org/2000/svg">
<g clip-path="url(#clip0)">
<path d="M45.498 12.3549C29.2358 7.77271 21.0166 12.3549 21.0166 12.3549V16.357C21.0166 21.1132 24.9501 24.9993 29.7642 24.9993C35.1066 24.9413 41.3884 25.5794 43.8542 28.3635C48.4921 33.6417 59.1184 31.4956 59.1184 31.4956C59.6467 24.5353 56.5939 15.487 45.498 12.3549Z" fill="#E09C3B"/>
<path d="M43.7959 28.364C41.3301 25.5799 35.0483 24.9418 29.7058 24.9998C24.8917 25.0578 20.9583 21.1717 20.9583 16.3575V12.3554C20.9583 12.3554 15.5571 7.9472 6.63342 10.8473C6.63342 10.8473 12.3281 16.1835 13.2088 17.7496C13.2088 17.7496 9.92109 20.8237 8.21855 24.4778C6.51601 28.1319 0.821289 29.466 0.821289 29.466V38.2243C0.821289 38.2243 15.9094 41.3564 19.0209 53.1309H26.7117V48.2587C26.7117 48.2587 33.5806 50.9268 41.0953 48.2587V53.1309H48.6099C48.6099 53.1309 52.3086 43.7925 56.5356 38.9783C57.8859 37.4703 58.8839 34.6862 59.1188 31.4381C59.06 31.4961 48.4925 33.6422 43.7959 28.364Z" fill="#F4A343"/>
<path d="M48.5519 53.9998H41.0959C40.6262 53.9998 40.274 53.6518 40.274 53.1878V49.4756C34.7554 51.0997 29.7065 50.0557 27.5342 49.4756V53.1878C27.5342 53.6518 27.182 53.9998 26.7123 53.9998H19.0215C18.6693 53.9998 18.317 53.7678 18.1996 53.3618C15.2642 42.2254 0.821918 39.0933 0.645793 39.0353C0.293542 38.9773 0 38.6292 0 38.2232V29.4649C0 29.0589 0.293542 28.7689 0.645793 28.6529C0.704501 28.6529 5.98826 27.3188 7.51468 24.0707C8.86497 21.1706 11.1546 18.6185 12.2114 17.5745C11.0959 16.1824 8.16047 13.2243 6.16438 11.3682C5.92955 11.1942 5.87084 10.8462 5.92955 10.6142C5.98826 10.3242 6.22309 10.0922 6.45793 10.0342C14.3249 7.48208 19.6086 10.3822 21.135 11.3682C23.1898 10.4402 31.3503 7.48208 45.7339 11.5422C54.4814 14.0363 57.8865 19.7785 59.1781 24.1867C60.998 30.3349 59.589 36.8312 57.1233 39.5573C55.7143 41.1813 54.1879 43.5014 52.6027 46.4595C52.3679 46.8655 51.8982 47.0395 51.4873 46.8075C51.0763 46.5755 50.9002 46.1115 51.135 45.7055C52.7789 42.5734 54.364 40.1373 55.8904 38.4552C58.0039 36.0771 59.2368 30.1609 57.593 24.6507C56.4188 20.6486 53.3072 15.4284 45.2642 13.1663C29.4716 8.70012 21.4873 13.0503 21.4286 13.1083C21.135 13.2823 20.7241 13.2243 20.4892 13.0503C20.3131 12.8763 15.7926 9.39615 8.3366 11.2522C10.0391 12.9343 13.3268 16.1244 13.9726 17.3424C14.1487 17.6905 14.09 18.0965 13.7965 18.3285C13.7378 18.3865 10.6262 21.3446 8.98239 24.8247C7.45597 28.0728 3.28767 29.6389 1.64384 30.1029V37.5852C4.63796 38.3392 16.4971 41.9934 19.6086 52.3177H25.8317V48.3156C25.8317 48.0256 25.9491 47.7936 26.184 47.6196C26.4188 47.4456 26.7123 47.4456 26.9472 47.5036C27.0059 47.5036 33.6399 49.9977 40.7436 47.5036C40.9785 47.3876 41.272 47.4456 41.5069 47.6196C41.7417 47.7936 41.8591 48.0256 41.8591 48.3156V52.3177H48.4932C48.9628 52.3177 49.3151 52.6658 49.3151 53.1298C49.3151 53.5938 49.0215 53.9998 48.5519 53.9998Z" fill="#33353D"/>
<path d="M50.3713 49.9394C50.2538 49.9394 50.1364 49.9394 50.019 49.8814C49.608 49.7074 49.4319 49.1854 49.608 48.7794L49.7255 48.5474C49.7842 48.4314 49.7842 48.4314 49.9016 48.1994L50.019 47.9673C50.1951 47.5613 50.7235 47.3873 51.1345 47.5613C51.5454 47.7353 51.7216 48.2574 51.5454 48.6634L51.428 48.8954C51.3106 49.0694 51.3106 49.0694 51.2519 49.2434L51.1345 49.5334C51.0171 49.7654 50.6648 49.9394 50.3713 49.9394Z" fill="#33353D"/>
<path d="M48.5519 54.0003C48.4344 54.0003 48.3757 54.0003 48.2583 53.9423C47.8474 53.7683 47.6125 53.3042 47.7887 52.8982C47.7887 52.8982 47.9648 52.3762 48.5519 51.1002C48.728 50.6941 49.2564 50.5201 49.6673 50.6941C50.0783 50.8681 50.3131 51.3902 50.0783 51.7962C49.5499 53.0142 49.3738 53.5362 49.3151 53.5362C49.2564 53.7683 48.9041 54.0003 48.5519 54.0003Z" fill="#33353D"/>
<path d="M41.625 18.2705C41.5076 18.2705 41.3902 18.2705 41.2728 18.2125C34.9322 15.3124 26.0673 16.9945 25.9499 16.9945C25.4802 17.0525 25.0692 16.7624 24.9518 16.3564C24.8931 15.8924 25.1866 15.4864 25.5976 15.3704C26.0086 15.3124 35.0497 13.6303 41.9185 16.7044C42.3295 16.8784 42.5056 17.4005 42.3295 17.8065C42.2121 18.0965 41.9185 18.2705 41.625 18.2705Z" fill="#33353D"/>
<path d="M16.2038 25.6371C17.2089 25.6371 18.0237 24.8321 18.0237 23.8391C18.0237 22.846 17.2089 22.041 16.2038 22.041C15.1986 22.041 14.3838 22.846 14.3838 23.8391C14.3838 24.8321 15.1986 25.6371 16.2038 25.6371Z" fill="#33353D"/>
<path d="M33.6989 12.3536C36.9088 12.3536 39.511 9.78269 39.511 6.61135C39.511 3.44002 36.9088 0.869141 33.6989 0.869141C30.4889 0.869141 27.8867 3.44002 27.8867 6.61135C27.8867 9.78269 30.4889 12.3536 33.6989 12.3536Z" fill="#BEC3C7"/>
<path d="M36.5162 6.61135H39.5104C39.5104 3.42124 36.9272 0.869141 33.6982 0.869141V3.82725C35.2834 3.82725 36.5162 5.0453 36.5162 6.61135Z" fill="#ECF0F1"/>
<path d="M33.6986 13.2245C30 13.2245 27.0059 10.2664 27.0059 6.61225C27.0059 2.95811 30 0 33.6986 0C37.3973 0 40.3914 2.95811 40.3914 6.61225C40.3914 10.2664 37.3973 13.2245 33.6986 13.2245ZM33.6986 1.68206C30.9393 1.68206 28.7084 3.88614 28.7084 6.61225C28.7084 9.33835 30.9393 11.5424 33.6986 11.5424C36.4579 11.5424 38.6888 9.33835 38.6888 6.61225C38.6888 3.88614 36.4579 1.68206 33.6986 1.68206Z" fill="#33353D"/>
</g>
<defs>
<clipPath id="clip0">
<rect width="60" height="54" fill="white"/>
</clipPath>
</defs>
</svg>
