<svg width="60" height="39" viewBox="0 0 60 39" fill="none" xmlns="http://www.w3.org/2000/svg">
<g clip-path="url(#clip0)">
<path d="M50.0144 0.578125H43.8723C42.4099 0.578125 41.1982 1.77622 41.1982 3.22219V38.38H52.7303V3.22219C52.6885 1.77622 51.4768 0.578125 50.0144 0.578125Z" fill="#F4A343"/>
<path d="M33.0913 8.42773H26.9075C25.4451 8.42773 24.2334 9.62583 24.2334 11.0718V38.3801H35.7654V11.1131C35.7654 9.62583 34.5537 8.42773 33.0913 8.42773Z" fill="#F4A343"/>
<path d="M16.1695 16.3184H9.98562C8.52322 16.3184 7.31152 17.5165 7.31152 18.9624V38.4211H18.8436V18.9624C18.8436 17.4751 17.6319 16.3184 16.1695 16.3184Z" fill="#F4A343"/>
<path d="M7.31152 28.2993C9.94383 28.2993 12.0748 26.1923 12.0748 23.5895V16.3184H9.98562C8.52322 16.3184 7.31152 17.5165 7.31152 18.9624V28.2993Z" fill="#E09C3B"/>
<path d="M24.2334 20.45C26.8657 20.45 28.9966 18.343 28.9966 15.7402V8.42773H26.9075C25.4451 8.42773 24.2334 9.62583 24.2334 11.0718V20.45Z" fill="#E09C3B"/>
<path d="M41.1562 12.6004C43.7886 12.6004 45.9195 10.4934 45.9195 7.89063V0.578125H43.8303C42.368 0.578125 41.1562 1.77622 41.1562 3.22219V12.6004Z" fill="#E09C3B"/>
<path d="M7.3125 34.9518C6.97824 34.9518 6.72754 34.7039 6.72754 34.3734V33.5471C6.72754 33.2166 6.97824 32.9688 7.3125 32.9688C7.64676 32.9688 7.89746 33.2166 7.89746 33.5471V34.3734C7.89746 34.6626 7.64676 34.9518 7.3125 34.9518Z" fill="#33353D"/>
<path d="M18.8445 38.9998H7.3125C6.97824 38.9998 6.72754 38.7519 6.72754 38.4214V36.2318C6.72754 35.9012 6.97824 35.6534 7.3125 35.6534C7.64676 35.6534 7.89746 35.9012 7.89746 36.2318V37.843H18.2178V18.9627C18.2178 17.8059 17.2986 16.897 16.1287 16.897H9.98659C8.81667 16.897 7.89746 17.8059 7.89746 18.9627V31.5633C7.89746 31.8938 7.64676 32.1417 7.3125 32.1417C6.97824 32.1417 6.72754 31.8938 6.72754 31.5633V18.9627C6.72754 17.1862 8.18993 15.7402 9.98659 15.7402H16.1287C17.9253 15.7402 19.3877 17.1862 19.3877 18.9627V38.4214C19.4295 38.7106 19.1788 38.9998 18.8445 38.9998Z" fill="#33353D"/>
<path d="M35.7664 38.9997H24.2344C23.9001 38.9997 23.6494 38.7519 23.6494 38.4213V11.1131C23.6494 9.3366 25.1118 7.89062 26.9085 7.89062H33.0505C34.8472 7.89062 36.3096 9.3366 36.3096 11.1131V38.4213C36.3514 38.7105 36.1007 38.9997 35.7664 38.9997ZM24.8193 37.8016H35.1397V11.1131C35.1397 9.9563 34.2204 9.0474 33.0505 9.0474H26.9085C25.7386 9.0474 24.8193 9.9563 24.8193 11.1131V37.8016Z" fill="#33353D"/>
<path d="M52.6883 39H41.1562C40.822 39 40.5713 38.7521 40.5713 38.4216V3.22246C40.5713 1.44597 42.0337 0 43.8303 0H49.9724C51.7691 0 53.2315 1.44597 53.2315 3.22246V38.3803C53.2732 38.7108 53.0225 39 52.6883 39ZM41.7412 37.8019H52.0615V3.22246C52.0615 2.06568 51.1423 1.15678 49.9724 1.15678H43.8303C42.6604 1.15678 41.7412 2.06568 41.7412 3.22246V37.8019Z" fill="#33353D"/>
<path d="M59.4156 39.0005H7.3125C6.97824 39.0005 6.72754 38.7527 6.72754 38.4221C6.72754 38.0916 6.97824 37.8438 7.3125 37.8438H59.4156C59.7498 37.8438 60.0005 38.0916 60.0005 38.4221C60.0005 38.7527 59.708 39.0005 59.4156 39.0005Z" fill="#33353D"/>
<path d="M7.31123 39.0005H4.7207C4.38644 39.0005 4.13574 38.7527 4.13574 38.4221C4.13574 38.0916 4.38644 37.8438 4.7207 37.8438H7.31123C7.64549 37.8438 7.89619 38.0916 7.89619 38.4221C7.89619 38.7527 7.64549 39.0005 7.31123 39.0005Z" fill="#33353D"/>
<path d="M2.63231 39.0005H0.584958C0.250696 39.0005 0 38.7527 0 38.4221C0 38.0916 0.250696 37.8438 0.584958 37.8438H2.63231C2.96657 37.8438 3.21727 38.0916 3.21727 38.4221C3.21727 38.7527 2.96657 39.0005 2.63231 39.0005Z" fill="#33353D"/>
</g>
<defs>
<clipPath id="clip0">
<rect width="60" height="39" fill="white"/>
</clipPath>
</defs>
</svg>
