<svg width="54" height="51" viewBox="0 0 54 51" fill="none" xmlns="http://www.w3.org/2000/svg">
<g clip-path="url(#clip0)">
<path d="M35.3047 22.2504C35.3047 23.3662 36.2166 24.2195 37.2588 24.2195C38.3662 24.2195 39.213 23.3006 39.213 22.2504C39.213 21.2002 38.3011 20.2812 37.2588 20.2812C36.1515 20.2812 35.3047 21.1345 35.3047 22.2504Z" fill="#F4A343"/>
<path d="M25.9252 12.7996C27.0326 12.7996 27.8794 11.8806 27.8794 10.8304C27.8794 9.71461 26.9674 8.86133 25.9252 8.86133C24.8179 8.86133 23.9711 9.78025 23.9711 10.8304C23.9059 11.8806 24.8179 12.7996 25.9252 12.7996Z" fill="#F4A343"/>
<path d="M50.3519 36.4275C48.8537 35.9024 45.9224 36.2306 40.5159 40.1032C41.2976 41.3503 41.037 42.4005 41.037 42.5318L40.8416 43.2538H26.1203C25.5992 43.2538 25.2083 42.8599 25.2083 42.3348C25.2083 41.8098 25.5992 41.4159 26.1203 41.4159H39.0829C39.0177 41.219 38.8875 40.9565 38.6269 40.6939C37.5847 39.4468 34.1975 37.3464 23.7101 37.3464H23.2542L22.9936 36.9526C22.9936 36.9526 20.844 34.1959 17.6522 33.8677C15.6981 33.6708 13.6788 34.3928 11.7246 35.9681V46.2731C13.6136 45.8136 17.5871 45.4198 23.7101 47.4545C31.2011 49.8831 41.1673 46.3387 51.8501 37.5433C51.5244 37.1495 51.1335 36.6901 50.3519 36.4275Z" fill="#F4A343"/>
<path d="M51.0036 34.7231C48.2027 33.7385 44.2943 35.1169 39.2786 38.7269C36.7382 36.6266 31.6574 35.5107 24.1665 35.4451C23.3848 34.5262 21.1049 32.3602 17.848 31.9663C15.7636 31.7694 13.6791 32.2945 11.6598 33.6729C11.5947 31.7694 10.0965 30.2598 8.20748 30.2598H3.51749C1.56333 30.2598 0 31.8351 0 33.8042V47.5223C0 49.4914 1.56333 51.0667 3.51749 51.0667H8.14234C9.83595 51.0667 11.2039 49.8853 11.5296 48.31C12.7672 47.9161 16.5452 47.1941 23.0591 49.2945C24.7527 49.8196 26.5766 50.0822 28.4656 50.0822C35.7612 50.0822 44.4246 46.1439 53.4789 38.53L53.9349 38.1362L53.8046 37.5455C53.8046 37.4142 53.2183 35.4451 51.0036 34.7231ZM9.77081 47.4567C9.77081 48.3756 9.05428 49.0976 8.14234 49.0976H3.51749C2.60555 49.0976 1.88902 48.3756 1.88902 47.4567V33.8042C1.88902 32.8852 2.60555 32.1632 3.51749 32.1632H8.14234C9.05428 32.1632 9.77081 32.8852 9.77081 33.8042V47.4567ZM23.6454 47.4567C17.5223 45.4876 13.5489 45.8814 11.6598 46.2752V35.9702C13.6791 34.3293 15.6333 33.6073 17.5875 33.8698C20.8444 34.198 22.9288 36.9547 22.9288 36.9547L23.1894 37.3486H23.6454C34.1978 37.3486 37.5199 39.449 38.5621 40.6961C38.7575 40.9586 38.8878 41.2212 39.0181 41.4181H26.1206C25.5995 41.4181 25.2087 41.8119 25.2087 42.337C25.2087 42.8621 25.5995 43.2559 26.1206 43.2559H40.842L41.0374 42.5339C41.0374 42.4026 41.2979 41.3524 40.5163 40.1053C45.9228 36.2327 48.854 35.9702 50.3522 36.4297C51.1339 36.6922 51.5247 37.1517 51.7853 37.4798C41.1025 46.3408 31.0712 49.8853 23.6454 47.4567Z" fill="#33353D"/>
<path d="M31.8525 33.0154C40.8416 33.0154 48.2023 25.5985 48.2023 16.5405C48.2023 7.41699 40.8416 0 31.8525 0C22.8633 0 15.4375 7.41699 15.4375 16.5405C15.4375 25.5985 22.7982 33.0154 31.8525 33.0154ZM31.8525 1.83784C39.8645 1.83784 46.3784 8.40155 46.3784 16.4749C46.3784 24.5483 39.8645 31.112 31.8525 31.112C23.8404 31.112 17.3265 24.5483 17.3265 16.4749C17.2614 8.46718 23.7753 1.83784 31.8525 1.83784Z" fill="#33353D"/>
<path d="M25.9897 26.5828C26.12 26.6484 26.3154 26.7141 26.4457 26.7141C26.7714 26.7141 27.0971 26.5828 27.2274 26.2546L37.9753 7.8106C38.2358 7.35114 38.1055 6.82605 37.6496 6.5635C37.1936 6.30095 36.6725 6.43223 36.4119 6.89169L25.664 25.2701C25.4035 25.7295 25.5338 26.3203 25.9897 26.5828Z" fill="#33353D"/>
<path d="M25.9252 14.6378C28.0097 14.6378 29.7684 12.9312 29.7684 10.7652C29.7684 8.59914 28.0748 6.89258 25.9252 6.89258C23.7756 6.89258 22.082 8.59914 22.082 10.7652C22.082 12.9312 23.7756 14.6378 25.9252 14.6378ZM25.9252 8.79605C27.0326 8.79605 27.8794 9.71497 27.8794 10.7652C27.8794 11.881 26.9674 12.7343 25.9252 12.7343C24.8179 12.7343 23.9711 11.8154 23.9711 10.7652C23.9059 9.71497 24.8179 8.79605 25.9252 8.79605Z" fill="#33353D"/>
<path d="M33.416 22.2515C33.416 24.3519 35.1096 26.1241 37.2592 26.1241C39.4088 26.1241 41.1024 24.4175 41.1024 22.2515C41.1024 20.0855 39.3436 18.3789 37.2592 18.3789C35.1748 18.3789 33.416 20.0855 33.416 22.2515ZM39.2134 22.2515C39.2134 23.3673 38.3014 24.2206 37.2592 24.2206C36.1518 24.2206 35.305 23.3017 35.305 22.2515C35.305 21.2013 36.217 20.2824 37.2592 20.2824C38.3666 20.2824 39.2134 21.1357 39.2134 22.2515Z" fill="#33353D"/>
<path d="M5.797 41.4818V32.0957H3.51714C2.6052 32.0957 1.88867 32.8177 1.88867 33.7366V45.42C4.03825 45.42 5.797 43.6478 5.797 41.4818Z" fill="#BEC3C7"/>
<path d="M8.14268 32.0957H5.79768V41.4162C5.79768 43.6478 4.03894 45.42 1.82422 45.42V47.4548C1.82422 48.3737 2.54074 49.0957 3.45269 49.0957H8.07754C8.98948 49.0957 9.706 48.3737 9.706 47.4548V33.8023C9.77114 32.8833 9.05462 32.0957 8.14268 32.0957Z" fill="#ECF0F1"/>
<path d="M31.8525 1.83789V7.22013C33.2205 7.22013 34.5232 7.54832 35.6957 8.07341L36.4122 6.82631C36.6728 6.36685 37.2591 6.23557 37.6499 6.49812C38.1059 6.76067 38.2361 7.3514 37.9756 7.74523L37.2591 8.99233C39.5389 10.6989 41.0371 13.39 41.0371 16.475H46.3785C46.3785 8.46724 39.8646 1.83789 31.8525 1.83789Z" fill="#E09C3B"/>
<path d="M37.2593 8.99233L27.2279 26.2549C27.0325 26.5174 26.7719 26.7143 26.4462 26.7143C26.316 26.7143 26.1206 26.6487 25.9903 26.5831C25.5343 26.3205 25.404 25.7298 25.6646 25.336L35.6959 8.13905C34.9794 7.81086 34.1978 7.54832 33.4161 7.41704C32.5041 7.28577 31.8528 6.49812 31.8528 5.5792V1.83789C23.2544 1.83789 16.4149 9.32052 17.392 18.1815C18.1085 24.8765 23.515 30.3244 30.1592 31.0464C38.9529 32.0309 46.3787 25.1391 46.3787 16.475H42.7309C41.819 16.475 41.0373 15.8186 40.907 14.9653C40.5162 12.5367 39.1483 10.4363 37.2593 8.99233ZM22.082 10.8302C22.082 8.72978 23.7756 6.95758 25.9251 6.95758C28.0747 6.95758 29.7683 8.66415 29.7683 10.8302C29.7683 12.9962 28.0747 14.7028 25.9251 14.7028C23.7756 14.7028 22.082 12.9306 22.082 10.8302ZM37.2593 26.058C35.1748 26.058 33.4161 24.3514 33.4161 22.1854C33.4161 20.0194 35.1748 18.3784 37.2593 18.3784C39.3437 18.3784 41.1025 20.085 41.1025 22.251C41.1025 24.417 39.3437 26.058 37.2593 26.058Z" fill="#F4A343"/>
</g>
<defs>
<clipPath id="clip0">
<rect width="54" height="51" fill="white"/>
</clipPath>
</defs>
</svg>
