<svg width="49" height="60" viewBox="0 0 49 60" fill="none" xmlns="http://www.w3.org/2000/svg">
<g clip-path="url(#clip0)">
<path d="M17.447 44.7657L7.8877 51.9149L12.0992 57.5942C12.3665 57.9951 12.9013 58.0619 13.3024 57.7946L19.0514 53.5185C19.9873 52.9171 20.9232 52.7835 21.859 52.7167C22.9955 52.5831 24.1319 52.4494 25.3352 51.5808C25.4689 51.514 27.4743 49.9773 30.0814 48.1064L28.6776 46.3024C25.9368 42.7612 20.99 42.0931 17.447 44.7657Z" fill="#E09C3B"/>
<path d="M40.9788 37.8169C40.7114 37.416 40.3103 37.2156 39.8424 37.1488C39.3744 37.082 38.9065 37.2156 38.5723 37.4828L34.294 40.6232C33.826 40.9572 33.1575 40.8904 32.8233 40.4227C32.489 39.955 32.5559 39.2869 33.0238 38.9528L37.3021 35.8125C38.0375 35.2111 38.238 34.1421 37.6364 33.4071C37.1016 32.6722 35.9652 32.4717 35.2298 33.073L30.9515 36.2134C30.4836 36.5474 29.8151 36.4806 29.4809 36.0129C29.1466 35.5452 29.2135 34.8771 29.6814 34.543L33.9597 31.4027C34.3608 31.1354 34.5613 30.7345 34.6282 30.2668C34.695 29.7991 34.5613 29.3314 34.294 28.9973C33.6923 28.2624 32.6227 28.0619 31.8874 28.6632L27.6091 31.8036C27.1412 32.1376 26.4727 32.0708 26.1384 31.6031C25.8042 31.1354 25.871 30.4673 26.339 30.1332L30.6173 26.9929C31.0184 26.7256 31.2189 26.3247 31.2858 25.857C31.3526 25.3893 31.2189 24.9216 30.9515 24.5875C30.6841 24.1866 30.283 23.9862 29.8151 23.9194C29.3472 23.8526 28.8792 23.9862 28.545 24.2534L16.7796 32.9394C16.3117 33.2735 15.6432 33.2067 15.309 32.739C14.9747 32.2713 15.0416 31.6031 15.5095 31.269L17.3144 29.9327L15.2421 27.4606L11.0307 30.6677C9.62684 31.6699 8.08932 34.4762 8.62411 41.9595C8.62411 42.2935 8.49041 42.6276 8.22302 42.8281L4.27895 45.7679C3.87786 46.0352 3.81101 46.5697 4.07841 46.9706L7.75508 51.9149L17.4481 44.7657C20.9911 42.0931 25.9379 42.7612 28.6787 46.2356L30.0825 48.0396C34.5613 44.6989 40.5777 40.2223 40.5777 40.2223C40.9788 39.955 41.1794 39.5541 41.2462 39.0864C41.3799 38.6187 41.2462 38.2178 40.9788 37.8169Z" fill="#F4A343"/>
<path d="M40.3767 42.9629C38.6386 44.2324 35.6304 46.5041 32.8896 48.5085L38.5049 55.3237C40.0424 57.395 42.9838 57.8627 45.0561 56.3259C47.1284 54.7892 47.5295 51.8493 46.0588 49.778L40.3767 42.9629Z" fill="#BEC3C7"/>
<path d="M42.0485 41.758C42.7838 41.1566 43.2517 40.3548 43.3854 39.4194C43.5191 38.4172 43.2517 37.415 42.6501 36.6132C42.0485 35.8114 41.1794 35.2769 40.1767 35.1433C40.1099 35.1433 40.1099 35.1433 40.043 35.1433C40.2436 34.141 39.9762 33.072 39.3745 32.2034C38.706 31.3348 37.7702 30.8003 36.7674 30.6666C36.7674 30.5998 36.7674 30.5998 36.7674 30.533C36.9011 29.5308 36.6337 28.5286 36.0321 27.7268C35.3636 26.8582 34.4277 26.3237 33.425 26.19C33.425 26.1232 33.425 26.1232 33.425 26.0564C33.5587 25.0542 33.2913 24.0519 32.6897 23.2502C32.088 22.4484 31.219 21.9139 30.2163 21.7802C29.5478 21.7134 28.9462 21.7802 28.3445 21.9807C28.3445 21.9139 28.2777 21.847 28.2777 21.847L24.1331 16.9027C25.6037 12.9606 25.0021 8.4172 22.5287 5.00963C19.5874 1.06753 14.6406 -0.803292 9.89431 0.26575C9.56007 0.332565 9.29267 0.599826 9.15898 0.933901C9.02528 1.26798 9.09213 1.66887 9.29267 1.93613C9.29267 2.00294 9.35952 2.06976 9.42637 2.13657L15.8438 7.81586L14.1726 14.6978L7.08667 14.2301L3.47685 6.54637C3.34315 6.14548 3.00891 5.87822 2.60782 5.87822C2.20673 5.81141 1.80563 6.01185 1.60509 6.34593C-0.80146 10.6221 -0.467217 15.9005 2.47412 19.8426C5.01436 23.2502 9.15897 25.121 13.3704 24.8537L14.1726 25.7891L10.028 28.9294C7.48776 30.8003 6.41818 35.0096 6.75243 41.4907L3.1426 44.0965C1.80563 45.0319 1.53824 46.9027 2.54097 48.1722L10.4291 58.7958C11.365 60.0653 13.2367 60.3326 14.5069 59.3972L20.189 55.1878C20.6569 54.9205 21.3254 54.7869 22.1276 54.7201C23.3977 54.5865 24.9352 54.386 26.5396 53.1833C26.6733 53.1165 28.6119 51.6466 31.1522 49.7758L36.7674 56.5909C38.9734 59.5976 43.2517 60.1989 46.1931 57.994C49.2013 55.7891 49.8029 51.5798 47.5969 48.5731L42.0485 41.758ZM13.7047 22.7825C10.028 23.1833 6.35134 21.6466 4.14533 18.6399C2.13988 15.9673 1.60509 12.4929 2.54097 9.41943L5.41546 15.7C5.54915 16.0341 5.8834 16.3014 6.28449 16.3014L14.908 16.8359C15.4427 16.8359 15.8438 16.5018 15.9775 16.0341L17.983 7.68223C18.0498 7.28134 17.9161 6.94726 17.6487 6.68L12.5014 2.06976C15.7101 2.06976 18.9189 3.60651 20.8575 6.27911C23.0635 9.21898 23.5314 13.2279 21.9939 16.6355C21.8602 16.9695 21.8602 17.3704 22.1276 17.6377L26.6733 23.0497L19.1863 28.5954L14.6406 23.1833C14.44 22.9161 14.0389 22.7825 13.7047 22.7825ZM25.3363 51.513C24.1999 52.3816 22.9966 52.5152 21.8602 52.6488C20.9243 52.7825 19.9884 52.9161 19.0526 53.4506L13.3036 57.7268C12.9025 57.994 12.3677 57.9272 12.1003 57.5263L4.21218 46.9695C3.94479 46.5686 4.01164 46.0341 4.41273 45.7669L8.35679 42.827C8.62419 42.6265 8.82473 42.2925 8.75788 41.9584C8.28994 34.4751 9.82746 31.6689 11.1644 30.6666L15.3759 27.4595L17.4482 29.9317L15.6433 31.268C15.1753 31.6021 15.1085 32.2702 15.4427 32.7379C15.777 33.2056 16.4455 33.2724 16.9134 32.9384L28.6788 24.2524C29.0798 23.9851 29.4809 23.8515 29.9489 23.9183C30.4168 23.9851 30.8179 24.2524 31.0853 24.5865C31.3527 24.9874 31.4864 25.3882 31.4195 25.856C31.3527 26.3237 31.0853 26.7245 30.7511 26.9918L26.4728 30.0653C26.0048 30.3994 25.938 31.0675 26.2722 31.5352C26.6065 32.0029 27.2749 32.0698 27.7429 31.7357L32.0212 28.5954C32.7565 27.994 33.8929 28.1945 34.4277 28.9294C34.6951 29.3303 34.8288 29.7312 34.762 30.1989C34.6951 30.6666 34.4277 31.0675 34.0935 31.3348L29.8152 34.4751C29.3472 34.8092 29.2804 35.4773 29.6146 35.945C29.9489 36.4127 30.6174 36.4796 31.0853 36.1455L35.3636 33.0052C36.0989 32.4706 37.2354 32.6043 37.7702 33.3392C38.305 34.0742 38.1713 35.2101 37.4359 35.7446L33.1576 38.8849C32.6897 39.219 32.6228 39.8871 32.9571 40.3548C33.2913 40.8225 33.9598 40.8894 34.4277 40.5553L38.706 37.415C39.1071 37.1477 39.5082 37.0141 39.9762 37.0809C40.4441 37.1477 40.8452 37.415 41.1126 37.749C41.38 38.1499 41.5137 38.5508 41.4468 39.0185C41.38 39.4862 41.1126 39.8871 40.7783 40.1544C40.6446 40.2212 25.6706 51.3125 25.3363 51.513ZM44.9898 56.3237C42.9175 57.8604 39.9762 57.3927 38.4386 55.3214L32.8234 48.5063C35.5642 46.435 38.5723 44.2301 40.3104 42.9606L45.9257 49.7758C47.53 51.847 47.0621 54.7869 44.9898 56.3237Z" fill="#33353D"/>
<path d="M15.977 16.0366C15.8433 16.5043 15.4422 16.8384 14.9074 16.8384L6.28394 16.3038C5.88285 16.3038 5.54861 16.0366 5.41491 15.7025L2.54042 9.42188C1.60454 12.5622 2.13933 15.9698 4.14479 18.6424C6.35079 21.649 10.0275 23.1858 13.7041 22.7849C14.0384 22.7181 14.4395 22.9185 14.64 23.1858L19.1857 28.5978L25.1352 24.188L16.5786 13.4976L15.977 16.0366Z" fill="#BEC3C7"/>
<path d="M26.6729 23.1186L22.1272 17.7066C21.9266 17.4393 21.8598 17.0384 21.9935 16.7044C23.4641 13.2968 23.063 9.28789 20.857 6.34803C18.8516 3.67542 15.6429 2.13867 12.501 2.13867L17.6483 6.74892C17.9157 7.01618 18.0494 7.41707 17.9826 7.75114L16.5787 13.6309L25.1354 24.3213L26.6729 23.1186Z" fill="#BEC3C7"/>
<path d="M13.9709 34.81C14.5617 34.81 15.0405 34.3313 15.0405 33.7409C15.0405 33.1505 14.5617 32.6719 13.9709 32.6719C13.3802 32.6719 12.9014 33.1505 12.9014 33.7409C12.9014 34.3313 13.3802 34.81 13.9709 34.81Z" fill="#33353D"/>
</g>
<defs>
<clipPath id="clip0">
<rect width="49" height="60" fill="white"/>
</clipPath>
</defs>
</svg>
