<svg width="30" height="30" viewBox="0 0 30 30" fill="none" xmlns="http://www.w3.org/2000/svg">
<path d="M28.5938 0.9375H1.40625C1.28193 0.9375 1.1627 0.986886 1.07479 1.07479C0.986886 1.1627 0.9375 1.28193 0.9375 1.40625V7.03125C0.9375 7.15557 0.986886 7.2748 1.07479 7.36271C1.1627 7.45061 1.28193 7.5 1.40625 7.5H1.875V26.25H1.40625C1.28193 26.25 1.1627 26.2994 1.07479 26.3873C0.986886 26.4752 0.9375 26.5944 0.9375 26.7188V28.5938C0.9375 28.7181 0.986886 28.8373 1.07479 28.9252C1.1627 29.0131 1.28193 29.0625 1.40625 29.0625H28.5938C28.7181 29.0625 28.8373 29.0131 28.9252 28.9252C29.0131 28.8373 29.0625 28.7181 29.0625 28.5938V26.7188C29.0625 26.5944 29.0131 26.4752 28.9252 26.3873C28.8373 26.2994 28.7181 26.25 28.5938 26.25H28.125V7.5H28.5938C28.7181 7.5 28.8373 7.45061 28.9252 7.36271C29.0131 7.2748 29.0625 7.15557 29.0625 7.03125V1.40625C29.0625 1.28193 29.0131 1.1627 28.9252 1.07479C28.8373 0.986886 28.7181 0.9375 28.5938 0.9375ZM28.125 28.125H1.875V27.1875H28.125V28.125ZM15 9.375C10.0891 9.375 6.09375 13.3703 6.09375 18.2812V26.25H2.8125V7.5H27.1875V26.25H23.9062V18.2812C23.9062 13.3703 19.9109 9.375 15 9.375ZM15 11.25C13.1358 11.2521 11.3486 11.9936 10.0305 13.3117C8.71233 14.6299 7.97086 16.4171 7.96875 18.2812V26.25H7.03125V18.2812C7.03125 13.8873 10.6061 10.3125 15 10.3125C19.3939 10.3125 22.9688 13.8873 22.9688 18.2812V26.25H22.0312V18.2812C22.0291 16.4171 21.2877 14.6299 19.9695 13.3117C18.6514 11.9936 16.8642 11.2521 15 11.25ZM17.8125 23.4375C17.5463 23.4375 17.2831 23.4942 17.0406 23.6041C16.7981 23.7139 16.5818 23.8742 16.4062 24.0743C16.2306 23.8742 16.0144 23.7139 15.7719 23.6041C15.5294 23.4943 15.2662 23.4375 15 23.4375C14.7338 23.4375 14.4706 23.4943 14.2281 23.6041C13.9856 23.7139 13.7694 23.8742 13.5938 24.0743C13.2867 23.7249 12.8606 23.5022 12.3984 23.4495C11.9362 23.3968 11.471 23.518 11.0932 23.7893C10.7154 24.0607 10.452 24.4629 10.3543 24.9177C10.2567 25.3726 10.3317 25.8474 10.5647 26.25H8.90625V18.2812C8.90625 16.6651 9.54827 15.1151 10.6911 13.9723C11.8339 12.8295 13.3838 12.1875 15 12.1875C16.6162 12.1875 18.1661 12.8295 19.3089 13.9723C20.4517 15.1151 21.0938 16.6651 21.0938 18.2812V26.25H19.4355C19.6005 25.9651 19.6875 25.6417 19.6878 25.3125C19.688 24.9833 19.6015 24.6598 19.437 24.3746C19.2724 24.0895 19.0356 23.8527 18.7504 23.6882C18.4652 23.5237 18.1417 23.4372 17.8125 23.4375ZM18.75 25.3125C18.75 25.4979 18.695 25.6792 18.592 25.8333C18.489 25.9875 18.3426 26.1077 18.1713 26.1786C18 26.2496 17.8115 26.2682 17.6296 26.232C17.4477 26.1958 17.2807 26.1065 17.1496 25.9754C17.0185 25.8443 16.9292 25.6773 16.893 25.4954C16.8568 25.3135 16.8754 25.125 16.9464 24.9537C17.0173 24.7824 17.1375 24.636 17.2917 24.533C17.4458 24.43 17.6271 24.375 17.8125 24.375C18.0611 24.3753 18.2993 24.4742 18.4751 24.6499C18.6508 24.8257 18.7497 25.0639 18.75 25.3125ZM15.9375 25.3125C15.9375 25.4979 15.8825 25.6792 15.7795 25.8333C15.6765 25.9875 15.5301 26.1077 15.3588 26.1786C15.1875 26.2496 14.999 26.2682 14.8171 26.232C14.6352 26.1958 14.4682 26.1065 14.3371 25.9754C14.206 25.8443 14.1167 25.6773 14.0805 25.4954C14.0443 25.3135 14.0629 25.125 14.1339 24.9537C14.2048 24.7824 14.325 24.636 14.4792 24.533C14.6333 24.43 14.8146 24.375 15 24.375C15.2486 24.3753 15.4868 24.4742 15.6626 24.6499C15.8383 24.8257 15.9372 25.0639 15.9375 25.3125ZM13.125 25.3125C13.125 25.4979 13.07 25.6792 12.967 25.8333C12.864 25.9875 12.7176 26.1077 12.5463 26.1786C12.375 26.2496 12.1865 26.2682 12.0046 26.232C11.8227 26.1958 11.6557 26.1065 11.5246 25.9754C11.3935 25.8443 11.3042 25.6773 11.268 25.4954C11.2318 25.3135 11.2504 25.125 11.3214 24.9537C11.3923 24.7824 11.5125 24.636 11.6667 24.533C11.8208 24.43 12.0021 24.375 12.1875 24.375C12.4361 24.3753 12.6743 24.4742 12.8501 24.6499C13.0258 24.8257 13.1247 25.0639 13.125 25.3125ZM28.125 6.5625H1.875V3.75H28.125V6.5625ZM28.125 2.8125H1.875V1.875H28.125V2.8125Z" fill="#35373F"/>
<path d="M15.3193 14.1881C15.2325 14.1074 15.1184 14.0625 14.9999 14.0625C14.8814 14.0625 14.7673 14.1074 14.6806 14.1881C14.5598 14.3005 11.7188 16.9694 11.7188 19.2188C11.7188 21.3041 12.9147 22.5 15 22.5C17.0853 22.5 18.2812 21.3041 18.2812 19.2188C18.2812 16.9694 15.4402 14.3005 15.3193 14.1881ZM15 21.5625C14.8089 21.5625 14.5312 21.1973 14.5312 20.625C14.5312 20.3226 14.7523 19.7722 15 19.2681C15.2516 19.7831 15.4688 20.3333 15.4688 20.625C15.4688 21.1973 15.1911 21.5625 15 21.5625ZM17.3438 19.2188C17.3438 20.2458 16.9996 20.9382 16.3184 21.2902C16.3774 21.0735 16.407 20.8497 16.4062 20.625C16.4062 19.7443 15.505 18.2124 15.4022 18.0406C15.3606 17.9711 15.3017 17.9135 15.2312 17.8735C15.1607 17.8336 15.081 17.8126 15 17.8126C14.919 17.8126 14.8393 17.8336 14.7688 17.8735C14.6983 17.9135 14.6394 17.9711 14.5978 18.0406C14.495 18.2124 13.5938 19.7443 13.5938 20.625C13.593 20.8497 13.6226 21.0735 13.6816 21.2902C13.0004 20.9382 12.6562 20.2458 12.6562 19.2188C12.6562 18.4789 13.106 17.5025 13.957 16.3951C14.282 15.9749 14.6302 15.5731 15 15.1918C15.3698 15.5731 15.718 15.9749 16.043 16.3951C16.894 17.5025 17.3438 18.4789 17.3438 19.2188Z" fill="#35373F"/>
</svg>
