<svg width="30" height="30" viewBox="0 0 30 30" fill="none" xmlns="http://www.w3.org/2000/svg">
<path d="M28.125 24.873C27.8338 24.873 27.5977 24.6369 27.5977 24.3457C27.5977 23.5864 27.0093 22.998 26.25 22.998H23.9102C23.3579 22.998 22.9102 22.5503 22.9102 21.998V10.8145C22.9102 10.2622 23.3579 9.81445 23.9102 9.81445H24.7227C25.2749 9.81445 25.7227 9.36674 25.7227 8.81445V5.24805C25.7227 4.69576 25.2749 4.24805 24.7227 4.24805H5.21875C4.66647 4.24805 4.21875 4.69576 4.21875 5.24805V8.81445C4.21875 9.36674 4.66647 9.81445 5.21875 9.81445H6.03125C6.58354 9.81445 7.03125 10.2622 7.03125 10.8145V19.1855C7.03125 19.7378 6.58353 20.1855 6.03125 20.1855H5.625C3.83186 20.1855 2.34375 21.6151 2.34375 23.4082V23.873C2.34375 24.4253 1.89603 24.873 1.34375 24.873H0.439453C0.19675 24.873 0 25.0698 0 25.3125C0 25.5552 0.19675 25.752 0.439453 25.752H29.5605C29.8033 25.752 30 25.5552 30 25.3125C30 25.0698 29.8033 24.873 29.5605 24.873H28.125ZM6.09766 8.93555C5.54537 8.93555 5.09766 8.48783 5.09766 7.93555V6.12695C5.09766 5.57467 5.54537 5.12695 6.09766 5.12695H23.8438C24.396 5.12695 24.8438 5.57467 24.8438 6.12695V7.93555C24.8438 8.48783 24.396 8.93555 23.8438 8.93555H6.09766ZM19.1895 20.1855C18.6555 20.1855 18.2227 19.7527 18.2227 19.2188C18.2227 18.6848 18.6555 18.252 19.1895 18.252H21.0645C21.5984 18.252 22.0312 18.6848 22.0312 19.2188C22.0312 19.7527 21.5984 20.1855 21.0645 20.1855H19.1895ZM21.0645 21.0645C21.5984 21.0645 22.0312 21.4973 22.0312 22.0312C22.0312 22.5652 21.5984 22.998 21.0645 22.998C20.5305 22.998 20.0977 22.5652 20.0977 22.0312C20.0977 21.4973 20.5305 21.0645 21.0645 21.0645ZM8.87695 17.373C8.34301 17.373 7.91016 16.9402 7.91016 16.4063C7.91016 15.8723 8.34301 15.4395 8.87695 15.4395H12.627C13.1609 15.4395 13.5938 15.8723 13.5938 16.4063C13.5938 16.9402 13.1609 17.373 12.627 17.373H8.87695ZM9.81445 18.252C10.3484 18.252 10.7812 18.6848 10.7812 19.2188C10.7812 19.7527 10.3484 20.1855 9.81445 20.1855H8.87695C8.34301 20.1855 7.91016 19.7527 7.91016 19.2188C7.91016 18.6848 8.34301 18.252 8.87695 18.252H9.81445ZM16.377 12.627C16.9109 12.627 17.3438 13.0598 17.3438 13.5938C17.3438 14.1277 16.9109 14.5605 16.377 14.5605H11.6895C11.1555 14.5605 10.7227 14.1277 10.7227 13.5938C10.7227 13.0598 11.1555 12.627 11.6895 12.627H16.377ZM14.502 11.748C13.968 11.748 13.5352 11.3152 13.5352 10.7813C13.5352 10.2473 13.968 9.81445 14.502 9.81445H18.252C18.7859 9.81445 19.2188 10.2473 19.2188 10.7813C19.2188 11.3152 18.7859 11.748 18.252 11.748H14.502ZM19.1895 15.4395C19.7234 15.4395 20.1562 15.8723 20.1562 16.4063C20.1562 16.9402 19.7234 17.373 19.1895 17.373H15.4395C14.9055 17.373 14.4727 16.9402 14.4727 16.4063C14.4727 15.8723 14.9055 15.4395 15.4395 15.4395H19.1895ZM12.6563 10.7813C12.6563 11.3152 12.2234 11.748 11.6895 11.748H8.87695C8.34301 11.748 7.91016 11.3152 7.91016 10.7813C7.91016 10.2473 8.34301 9.81445 8.87695 9.81445H11.6895C12.2234 9.81445 12.6563 10.2473 12.6563 10.7813ZM8.87695 12.627C9.4109 12.627 9.84375 13.0598 9.84375 13.5938C9.84375 14.1277 9.4109 14.5605 8.87695 14.5605C8.34301 14.5605 7.91016 14.1277 7.91016 13.5938C7.91016 13.0598 8.34301 12.627 8.87695 12.627ZM11.6602 19.2188C11.6602 18.6848 12.093 18.252 12.627 18.252H16.377C16.9109 18.252 17.3438 18.6848 17.3438 19.2188C17.3438 19.7527 16.9109 20.1855 16.377 20.1855H12.627C12.093 20.1855 11.6602 19.7527 11.6602 19.2188ZM18.252 21.0645C18.7859 21.0645 19.2188 21.4973 19.2188 22.0312C19.2188 22.5652 18.7859 22.998 18.252 22.998H16.875C16.6004 22.998 16.377 22.7746 16.377 22.5C16.377 21.899 16.8274 21.0645 17.4284 21.0645H18.252ZM21.5332 17.373C21.2581 17.373 21.0352 17.1501 21.0352 16.875V15.9375C21.0352 15.6624 21.2581 15.4395 21.5332 15.4395C21.8083 15.4395 22.0312 15.6624 22.0312 15.9375V16.875C22.0312 17.1501 21.8083 17.373 21.5332 17.373ZM19.1895 14.5605C18.6555 14.5605 18.2227 14.1277 18.2227 13.5938C18.2227 13.0598 18.6555 12.627 19.1895 12.627H21.0645C21.5984 12.627 22.0312 13.0598 22.0312 13.5938C22.0312 14.1277 21.5984 14.5605 21.0645 14.5605H19.1895ZM21.0645 11.748C20.5305 11.748 20.0977 11.3152 20.0977 10.7813C20.0977 10.2473 20.5305 9.81445 21.0645 9.81445C21.5984 9.81445 22.0312 10.2473 22.0312 10.7813C22.0312 11.3152 21.5984 11.748 21.0645 11.748ZM26.7188 24.3457C26.7188 24.6369 26.4827 24.873 26.1914 24.873H4.22266C3.67037 24.873 3.22266 24.4253 3.22266 23.873V23.4082C3.22266 22.0997 4.31654 21.0645 5.625 21.0645H14.0625C14.854 21.0645 15.498 21.7084 15.498 22.5C15.498 23.2593 16.1157 23.877 16.875 23.877H26.25C26.5246 23.877 26.7188 24.0711 26.7188 24.3457Z" fill="#35373F"/>
</svg>
