<svg width="30" height="30" viewBox="0 0 30 30" fill="none" xmlns="http://www.w3.org/2000/svg">
<g clip-path="url(#clip0)">
<path d="M30 2.04537C30.0023 1.49757 29.7909 0.983295 29.4047 0.597162C29.0186 0.21103 28.5033 -2.5087e-05 27.9566 0.0019671C27.4104 0.00425226 26.8962 0.218881 26.5087 0.606303C26.3446 0.770365 26.0462 1.12474 25.883 1.32144C25.7115 1.52798 25.7399 1.83443 25.9464 2.00581C26.1529 2.17726 26.4594 2.1489 26.6308 1.94236C26.8865 1.63439 27.0979 1.39187 27.196 1.29367C27.401 1.08876 27.6725 0.975209 27.9606 0.973979C27.9622 0.973979 27.9637 0.973979 27.9653 0.973979C28.2502 0.973979 28.5172 1.08413 28.7174 1.28447C28.9188 1.48585 29.0292 1.75462 29.0279 2.04126C29.0267 2.32937 28.9131 2.60089 28.7082 2.80591C28.5248 2.98937 27.8942 3.48958 26.9907 4.1207C26.4563 3.20699 25.4651 2.59146 24.3323 2.59146H17.2153C16.2546 2.59146 15.3514 2.96558 14.6721 3.64486L0.446074 17.871C0.158438 18.1586 0 18.5411 0 18.9478C0 19.3546 0.158438 19.7371 0.446074 20.0247L9.97734 29.556C10.2743 29.8528 10.6642 30.0013 11.0542 30.0013C11.4442 30.0013 11.8342 29.8528 12.131 29.556L26.3571 15.3299C27.0364 14.6506 27.4105 13.7474 27.4105 12.7867V5.66968C27.4105 5.45962 27.3892 5.25454 27.3489 5.05621C28.3773 4.34857 29.1322 3.7566 29.3955 3.49328C29.7831 3.10585 29.9977 2.59163 30 2.04537ZM26.4385 12.7867C26.4385 13.4877 26.1654 14.1468 25.6698 14.6425L11.4437 28.8686C11.229 29.0834 10.8795 29.0834 10.6647 28.8686L1.13344 19.3374C1.02943 19.2334 0.97207 19.095 0.97207 18.9478C0.97207 18.8007 1.02937 18.6624 1.13344 18.5584L15.3595 4.33234C15.8552 3.83664 16.5143 3.56365 17.2153 3.56365H24.3323C25.1315 3.56365 25.8282 4.01113 26.1849 4.66867C25.6108 5.04882 24.968 5.45306 24.286 5.85056C24.2647 5.82724 24.243 5.80415 24.2204 5.7816C23.4245 4.98566 22.1295 4.98566 21.3335 5.7816C20.5376 6.57753 20.5376 7.87257 21.3335 8.66851C21.7315 9.06648 22.2543 9.2654 22.777 9.2654C23.2997 9.2654 23.8225 9.06648 24.2204 8.66851C24.7517 8.13724 24.9278 7.38378 24.7499 6.70462C25.343 6.35933 25.9126 6.00642 26.4383 5.66499C26.4383 5.66663 26.4384 5.66816 26.4384 5.66974V12.7867H26.4385ZM22.3429 7.44343C22.4283 7.61318 22.5996 7.71115 22.7775 7.71115C22.8509 7.71115 22.9255 7.69445 22.9956 7.65917C23.2805 7.51585 23.5644 7.36679 23.8454 7.2141C23.8482 7.49154 23.7445 7.76986 23.5332 7.98115C23.1163 8.39804 22.438 8.39804 22.0211 7.98115C21.6042 7.56419 21.6042 6.88591 22.0211 6.46896C22.2295 6.26048 22.5033 6.1563 22.7771 6.1563C22.9939 6.1563 23.2101 6.22275 23.3945 6.35335C23.1194 6.50288 22.8402 6.64931 22.5588 6.79093C22.3188 6.91146 22.2222 7.20367 22.3429 7.44343Z" fill="#35373F"/>
<path d="M14.4821 9.90039C14.2137 9.90039 13.9961 10.1179 13.9961 10.3864V20.6508C13.9961 20.9192 14.2137 21.1369 14.4821 21.1369C14.7505 21.1369 14.9682 20.9192 14.9682 20.6508V10.3864C14.9682 10.1179 14.7505 9.90039 14.4821 9.90039Z" fill="#35373F"/>
<path d="M12.2591 14.0755C11.4633 13.2795 10.1682 13.2795 9.37234 14.0755C8.57641 14.8714 8.57641 16.1665 9.37234 16.9624C9.77037 17.3604 10.293 17.5594 10.8158 17.5593C11.3385 17.5593 11.8613 17.3602 12.2592 16.9624C12.6448 16.5768 12.8571 16.0642 12.8571 15.5189C12.8571 14.9737 12.6447 14.461 12.2591 14.0755ZM11.5718 16.275C11.1549 16.6919 10.4766 16.6919 10.0597 16.275C9.64281 15.858 9.64281 15.1797 10.0597 14.7628C10.2682 14.5543 10.542 14.4501 10.8158 14.4501C11.0896 14.4501 11.3634 14.5543 11.5719 14.7628C11.7739 14.9648 11.8851 15.2332 11.8851 15.5189C11.885 15.8045 11.7738 16.073 11.5718 16.275Z" fill="#35373F"/>
<path d="M19.5912 14.0755C18.7952 13.2795 17.5001 13.2796 16.7044 14.0755C15.9084 14.8714 15.9084 16.1665 16.7044 16.9624C17.1023 17.3604 17.6251 17.5593 18.1478 17.5593C18.6705 17.5593 19.1933 17.3604 19.5912 16.9624C20.3871 16.1665 20.3871 14.8714 19.5912 14.0755ZM18.9038 16.275C18.4869 16.6919 17.8086 16.6919 17.3917 16.275C16.9748 15.858 16.9748 15.1797 17.3917 14.7628C17.6002 14.5543 17.874 14.4501 18.1478 14.4501C18.4216 14.4501 18.6954 14.5543 18.9039 14.7628C19.3208 15.1797 19.3208 15.858 18.9038 16.275Z" fill="#35373F"/>
</g>
<defs>
<clipPath id="clip0">
<rect width="30" height="30" fill="white"/>
</clipPath>
</defs>
</svg>
