<svg width="30" height="30" viewBox="0 0 30 30" fill="none" xmlns="http://www.w3.org/2000/svg">
<g clip-path="url(#clip0)">
<path d="M30 10.5017V9.2249C30 8.86279 29.8063 8.52306 29.4948 8.33837L25.9535 6.23662C25.7447 6.11275 25.4752 6.18154 25.3513 6.39019C25.2274 6.5989 25.2962 6.86855 25.5049 6.99236L29.0464 9.09423C29.0925 9.1216 29.1211 9.17158 29.1211 9.22484V10.5016C29.1211 10.5856 29.0528 10.6539 28.9688 10.6539H7.02861C6.78592 10.6539 6.58916 10.8506 6.58916 11.0934C6.58916 11.3361 6.78592 11.5328 7.02861 11.5328H26.7463C26.6006 11.7874 26.5167 12.0818 26.5167 12.3955C26.5167 12.7093 26.6006 13.0037 26.7463 13.2583H3.25359C3.39943 13.0037 3.48322 12.7094 3.48322 12.3955C3.48322 12.0818 3.39937 11.7874 3.25359 11.5328H4.97783C5.22053 11.5328 5.41729 11.3361 5.41729 11.0934C5.41729 10.8506 5.22053 10.6539 4.97783 10.6539H1.03125C0.947227 10.6539 0.878906 10.5856 0.878906 10.5016V9.22484C0.878906 9.17158 0.907559 9.12154 0.953789 9.09412L14.62 0.983159C14.8544 0.844292 15.1456 0.844175 15.3798 0.983042L23.7417 5.94593C23.9505 6.0698 24.2201 6.00101 24.3439 5.79236C24.4678 5.58365 24.399 5.314 24.1903 5.19019L15.8282 0.227183C15.3173 -0.0757471 14.6827 -0.0757471 14.1716 0.2273L0.505371 8.33832C0.193652 8.52312 0 8.86285 0 9.2249V10.5017C0 10.8259 0.150762 11.1153 0.385547 11.3044C0.144668 11.6033 0 11.9828 0 12.3956C0 12.9131 0.227227 13.3785 0.586816 13.6978C0.227227 14.017 0 14.4823 0 14.9999C0 15.5175 0.227227 15.9828 0.586816 16.3021C0.227227 16.6214 0 17.0867 0 17.6042C0 18.1218 0.227227 18.5871 0.586816 18.9064C0.227227 19.2257 0 19.691 0 20.2086C0 20.7262 0.227227 21.1915 0.586816 21.5108C0.227227 21.83 0 22.2953 0 22.8129C0 23.3305 0.227227 23.7958 0.586816 24.1151C0.227227 24.4343 0 24.8997 0 25.4172C0 25.7481 0.0928125 26.0577 0.253652 26.3214C0.103945 26.3915 0 26.543 0 26.7192V29.5604C0 29.8032 0.196758 29.9999 0.439453 29.9999H22.3828C22.6255 29.9999 22.8222 29.8032 22.8222 29.5604C22.8222 29.3177 22.6255 29.121 22.3828 29.121H0.878906V27.1587H29.1211V29.121H24.4335C24.1908 29.121 23.9941 29.3177 23.9941 29.5604C23.9941 29.8032 24.1908 29.9999 24.4335 29.9999H29.5605C29.8033 29.9999 30 29.8032 30 29.5604V26.7192C30 26.543 29.8961 26.3915 29.7463 26.3214C29.9072 26.0577 30 25.748 30 25.4172C30 24.8997 29.7728 24.4343 29.4132 24.115C29.7728 23.7958 30 23.3305 30 22.8128C30 22.2952 29.7728 21.8299 29.4132 21.5107C29.7728 21.1914 30 20.7261 30 20.2085C30 19.6909 29.7728 19.2256 29.4132 18.9063C29.7728 18.587 30 18.1217 30 17.6041C30 17.0865 29.7728 16.6212 29.4132 16.3019C29.7728 15.9828 30 15.5175 30 14.9999C30 14.4823 29.7728 14.017 29.4132 13.6977C29.7728 13.3784 30 12.9131 30 12.3955C30 11.9827 29.8553 11.6033 29.6145 11.3044C29.8492 11.1153 30 10.8259 30 10.5017ZM25.5016 14.1372H26.7465C26.6006 14.3917 26.5168 14.6861 26.5168 14.9999C26.5168 15.3136 26.6006 15.6079 26.7463 15.8624H25.5017V14.1372H25.5016ZM25.5016 16.7413H26.7466C26.6007 16.9959 26.5168 17.2904 26.5168 17.6043C26.5168 17.918 26.6006 18.2124 26.7464 18.4669H25.5016V16.7413ZM25.5016 19.3458H26.7465C26.6006 19.6003 26.5168 19.8948 26.5168 20.2086C26.5168 20.5224 26.6006 20.8169 26.7465 21.0714H25.5016V19.3458H25.5016ZM15.4395 14.1372H24.6227V21.0713H15.4395V14.1372ZM13.1903 14.1372H14.5605V15.8623H13.1903V14.1372ZM13.1903 16.7413H14.5605V18.4669H13.1903V16.7413ZM13.1903 19.3458H14.5605V21.0714H13.1903V19.3458ZM1.73936 26.2798C1.26469 26.2786 0.878906 25.8921 0.878906 25.4172C0.878906 24.9426 1.26434 24.5562 1.73871 24.5547C1.73965 24.5547 1.74053 24.5548 1.74146 24.5548H1.74732C2.22041 24.5579 2.60438 24.9434 2.60438 25.4172C2.60449 25.8937 2.21555 26.2812 1.73936 26.2798ZM1.74164 23.6756C1.26592 23.6756 0.878906 23.2886 0.878906 22.8128C0.878906 22.3376 1.26527 21.9509 1.74041 21.9502C1.74076 21.9502 1.74111 21.9502 1.74146 21.9502H1.74393C2.21859 21.9515 2.60438 22.3379 2.60438 22.8128C2.60432 23.2886 2.2173 23.6756 1.74164 23.6756ZM1.74164 21.0713C1.26592 21.0713 0.878906 20.6843 0.878906 20.2085C0.878906 19.7328 1.26592 19.3458 1.74164 19.3458C2.21736 19.3458 2.60438 19.7328 2.60438 20.2085C2.60438 20.6843 2.2173 21.0713 1.74164 21.0713ZM1.74275 18.4669H1.74141C1.74123 18.4669 1.74111 18.4669 1.74094 18.4669C1.26557 18.4665 0.878906 18.0797 0.878906 17.6042C0.878906 17.1285 1.26592 16.7415 1.74164 16.7415C2.21736 16.7415 2.60438 17.1285 2.60438 17.6042C2.60432 18.0795 2.21795 18.4662 1.74275 18.4669ZM1.74615 15.8624H1.74141C1.7407 15.8624 1.74 15.8625 1.73924 15.8625C1.26463 15.8612 0.878906 15.4747 0.878906 14.9999C0.878906 14.5242 1.26592 14.1372 1.74164 14.1372C2.21736 14.1372 2.60432 14.5242 2.60432 14.9999C2.60432 15.474 2.21977 15.8599 1.74615 15.8624ZM1.74164 13.2583C1.26592 13.2583 0.878906 12.8712 0.878906 12.3955C0.878906 11.9202 1.26533 11.5335 1.74047 11.5328H1.74275C2.21795 11.5335 2.60432 11.9202 2.60432 12.3955C2.60432 12.8712 2.2173 13.2583 1.74164 13.2583ZM4.49836 26.2798H3.25365C3.39943 26.0252 3.48322 25.7309 3.48322 25.4172C3.48322 25.1036 3.39943 24.8093 3.25371 24.5548H4.49836V26.2798ZM4.49836 23.6759H3.25342C3.39932 23.4213 3.48322 23.1268 3.48322 22.8128C3.48322 22.4991 3.39943 22.2048 3.25365 21.9502H4.49836V23.6759ZM4.49836 21.0714H3.25354C3.39937 20.8168 3.48322 20.5224 3.48322 20.2085C3.48322 19.8947 3.39937 19.6003 3.25354 19.3457H4.49836V21.0714ZM4.49836 18.4669H3.25365C3.39943 18.2124 3.48328 17.918 3.48328 17.6042C3.48328 17.2903 3.39937 16.9959 3.25348 16.7412H4.49842V18.4669H4.49836ZM4.49836 15.8624H3.25371C3.39943 15.6079 3.48322 15.3136 3.48322 14.9999C3.48322 14.6861 3.39937 14.3918 3.25359 14.1372H4.49842V15.8624H4.49836ZM12.3114 26.2798H5.37727V14.1372H12.3113V26.2798H12.3114ZM13.1903 26.2798V24.5548H26.7462C26.6005 24.8093 26.5167 25.1036 26.5167 25.4172C26.5167 25.7309 26.6005 26.0252 26.7463 26.2798H13.1903ZM13.1903 23.6759V21.9503H26.7463C26.6006 22.2048 26.5168 22.4991 26.5168 22.8129C26.5168 23.1268 26.6007 23.4213 26.7466 23.6759H13.1903V23.6759ZM28.2606 26.2798C27.7845 26.2812 27.3955 25.8937 27.3957 25.4172C27.3957 24.9434 27.7797 24.5579 28.2527 24.5548H28.2586C28.2595 24.5548 28.2604 24.5547 28.2613 24.5547C28.7356 24.5562 29.121 24.9426 29.121 25.4172C29.1211 25.8921 28.7353 26.2786 28.2606 26.2798ZM28.2584 23.6756C27.7827 23.6756 27.3956 23.2886 27.3956 22.8128C27.3956 22.3379 27.7815 21.9515 28.2561 21.9502H28.2585C28.2589 21.9502 28.2592 21.9502 28.2595 21.9502C28.7346 21.9509 29.121 22.3376 29.121 22.8128C29.1211 23.2886 28.7341 23.6756 28.2584 23.6756ZM28.2584 21.0713C27.7827 21.0713 27.3956 20.6843 27.3956 20.2085C27.3956 19.7328 27.7826 19.3458 28.2584 19.3458C28.7341 19.3458 29.1211 19.7329 29.1211 20.2086C29.1211 20.6843 28.7341 21.0713 28.2584 21.0713ZM28.2591 18.4669C28.2589 18.4669 28.2588 18.4669 28.2586 18.4669H28.2572C27.7821 18.4662 27.3957 18.0795 27.3957 17.6042C27.3957 17.1285 27.7827 16.7415 28.2584 16.7415C28.7341 16.7415 29.1211 17.1285 29.1211 17.6042C29.1211 18.0797 28.7344 18.4665 28.2591 18.4669ZM28.2608 15.8625C28.2601 15.8625 28.2594 15.8624 28.2586 15.8624H28.2538C27.7803 15.8599 27.3957 15.474 27.3957 14.9999C27.3957 14.5242 27.7827 14.1372 28.2584 14.1372C28.7341 14.1372 29.1211 14.5242 29.1211 14.9999C29.1211 15.4747 28.7353 15.8612 28.2608 15.8625ZM28.2584 13.2583C27.7827 13.2583 27.3956 12.8712 27.3956 12.3955C27.3956 11.9202 27.7821 11.5335 28.2572 11.5328H28.2595C28.7346 11.5335 29.121 11.9202 29.121 12.3955C29.1211 12.8712 28.7341 13.2583 28.2584 13.2583Z" fill="#35373F"/>
<path d="M9.67383 20.6484H10.8576C11.1003 20.6484 11.2971 20.4517 11.2971 20.209C11.2971 19.9662 11.1003 19.7695 10.8576 19.7695H9.67383C9.43113 19.7695 9.23438 19.9662 9.23438 20.209C9.23438 20.4517 9.43113 20.6484 9.67383 20.6484Z" fill="#35373F"/>
<path d="M12.1934 6.47691C12.1934 8.02473 13.4526 9.28396 15.0004 9.28396C16.5482 9.28396 17.8074 8.02473 17.8074 6.47691C17.8074 4.9291 16.5482 3.66992 15.0004 3.66992C13.4526 3.66992 12.1934 4.9291 12.1934 6.47691ZM16.9285 6.47691C16.9285 7.54016 16.0635 8.40506 15.0004 8.40506C13.9372 8.40506 13.0723 7.5401 13.0723 6.47691C13.0723 5.41373 13.9372 4.54883 15.0004 4.54883C16.0636 4.54883 16.9285 5.41379 16.9285 6.47691Z" fill="#35373F"/>
<path d="M27.2266 5.58045C27.2266 5.8232 27.4233 6.01938 27.666 6.01938C27.9048 6.01938 28.0993 5.8283 28.1054 5.59094C28.1331 5.56041 28.2115 5.50815 28.265 5.47252C28.471 5.33518 28.8157 5.10531 28.8157 4.6334C28.8157 4.16148 28.4709 3.93156 28.2649 3.79428C28.2173 3.76246 28.1497 3.71746 28.116 3.68647C28.1498 3.65547 28.2173 3.61047 28.2649 3.57871C28.471 3.44137 28.8157 3.21156 28.8157 2.73971C28.8157 2.49695 28.619 2.30078 28.3763 2.30078C28.1375 2.30078 27.9431 2.49174 27.937 2.7291C27.9091 2.75963 27.8308 2.81178 27.7775 2.8474C27.5714 2.98475 27.2266 3.21455 27.2266 3.68647C27.2266 4.15838 27.5714 4.3883 27.7774 4.52559C27.825 4.5574 27.8927 4.60246 27.9264 4.63346C27.8927 4.66445 27.825 4.70951 27.7774 4.74133C27.5714 4.87861 27.2266 5.10848 27.2266 5.58045Z" fill="#35373F"/>
<path d="M23.5566 3.27967C23.5566 3.52242 23.7534 3.71859 23.9961 3.71859C24.2349 3.71859 24.4293 3.52752 24.4354 3.29016C24.4632 3.25963 24.5416 3.20736 24.595 3.17174C24.8011 3.03439 25.1458 2.80453 25.1458 2.33262C25.1458 1.8607 24.801 1.63078 24.595 1.4935C24.5473 1.46168 24.4798 1.41668 24.4461 1.38568C24.4798 1.35469 24.5473 1.30969 24.595 1.27793C24.8011 1.14059 25.1458 0.910781 25.1458 0.438926C25.1458 0.196172 24.9491 0 24.7064 0C24.4675 0 24.2732 0.190957 24.267 0.42832C24.2392 0.458848 24.1609 0.510996 24.1075 0.546621C23.9015 0.683965 23.5566 0.913769 23.5566 1.38568C23.5566 1.8576 23.9015 2.08752 24.1075 2.2248C24.1551 2.25662 24.2227 2.30168 24.2564 2.33268C24.2227 2.36367 24.1551 2.40873 24.1075 2.44055C23.9015 2.57783 23.5566 2.80775 23.5566 3.27967Z" fill="#35373F"/>
<path d="M1.18359 4.63398C1.18359 5.10596 1.52842 5.33582 1.73438 5.47311C1.78787 5.50873 1.86621 5.561 1.89398 5.59152C1.89955 5.82936 2.09414 6.02043 2.33332 6.02043C2.57602 6.02043 2.77277 5.82373 2.77277 5.58098C2.77277 5.109 2.42795 4.87908 2.22193 4.7418C2.17424 4.70998 2.10668 4.66492 2.07299 4.63393C2.10674 4.60293 2.1743 4.55787 2.22193 4.52605C2.42795 4.38871 2.77277 4.15885 2.77277 3.68693C2.77277 3.21502 2.42789 2.98516 2.22187 2.84787C2.16844 2.8123 2.09016 2.7601 2.06238 2.72957C2.0567 2.49174 1.86217 2.30078 1.62305 2.30078C1.38035 2.30078 1.18359 2.49748 1.18359 2.74023C1.18359 3.21215 1.52842 3.44195 1.73443 3.57924C1.78207 3.611 1.84957 3.656 1.88332 3.68699C1.84957 3.71799 1.78207 3.76299 1.73438 3.7948C1.52842 3.93215 1.18359 4.16201 1.18359 4.63398Z" fill="#35373F"/>
<path d="M4.85352 2.33314C4.85352 2.80506 5.19828 3.03498 5.4043 3.17227C5.45779 3.20789 5.53613 3.26016 5.56391 3.29068C5.56947 3.52852 5.76406 3.71959 6.00324 3.71959C6.24594 3.71959 6.4427 3.52289 6.4427 3.28014C6.4427 2.80816 6.09787 2.57824 5.89186 2.44096C5.84416 2.40914 5.7766 2.36408 5.74291 2.33309C5.7766 2.30209 5.84416 2.25703 5.89186 2.22521C6.09787 2.08787 6.44264 1.85801 6.44264 1.38609C6.44264 0.91418 6.09781 0.684316 5.89174 0.547031C5.83836 0.511465 5.76002 0.459258 5.73225 0.42873C5.72668 0.191016 5.53215 0 5.29297 0C5.05027 0 4.85352 0.196699 4.85352 0.439453C4.85352 0.911367 5.19834 1.14117 5.40436 1.27846C5.45199 1.31021 5.51949 1.35521 5.55324 1.38621C5.51955 1.41721 5.45199 1.46221 5.4043 1.49402C5.19834 1.63137 4.85352 1.86123 4.85352 2.33314Z" fill="#35373F"/>
</g>
<defs>
<clipPath id="clip0">
<rect width="30" height="30" fill="white"/>
</clipPath>
</defs>
</svg>
