<svg width="30" height="30" viewBox="0 0 30 30" fill="none" xmlns="http://www.w3.org/2000/svg">
<g clip-path="url(#clip0)">
<path d="M29.7722 14.0003L24.2369 9.2734C24.2434 9.24107 24.2499 9.20874 24.2563 9.16994V2.98806C24.2499 2.61948 23.9589 2.32202 23.5903 2.30909H20.4994C20.1437 2.30909 19.8527 2.62595 19.8527 2.98806V5.54876L15.4233 1.77238C15.184 1.56546 14.8283 1.56546 14.5826 1.77238L0.233689 13.9939C-0.0443657 14.2202 -0.0766977 14.6276 0.149626 14.9056C0.37595 15.1837 0.783333 15.216 1.06139 14.9897C1.06785 14.9832 1.06785 14.9832 1.07432 14.9768L15.0029 3.11739L19.9885 7.36581L22.9695 9.90064L28.938 14.9832C29.2096 15.216 29.617 15.1837 29.8498 14.9121C30.0761 14.6405 30.0438 14.2331 29.7722 14.0003ZM22.9566 8.18058L21.146 6.65451V3.60884H22.9566V8.18058Z" fill="#35373F"/>
<path d="M26.9192 15.3077L25.1022 13.7558L15.422 5.48527C15.1827 5.27835 14.8271 5.27835 14.5814 5.48527L4.90117 13.7558L3.08412 15.3077C2.81253 15.5405 2.78019 15.9479 3.01298 16.2195C3.23931 16.4911 3.64023 16.5234 3.90535 16.2971L3.91181 16.2906L4.72011 15.5922V27.7167C4.72658 28.0789 5.02403 28.3763 5.38615 28.3828H24.6107C24.9729 28.3763 25.2703 28.0853 25.2768 27.7167V15.5922L26.0851 16.2906C26.2015 16.3876 26.3437 16.4458 26.4989 16.4458C26.6865 16.4458 26.8675 16.3617 26.9904 16.2195C27.2296 15.9414 27.1908 15.534 26.9192 15.3077ZM17.5882 27.083H12.4151V20.0993H17.5882V27.083ZM18.8815 27.083V19.4721C18.8815 19.1164 18.6164 18.806 18.2607 18.806H11.7426C11.387 18.806 11.1218 19.1164 11.1218 19.4721V27.083H6.01339V14.4865L15.0017 6.83028L23.99 14.4865V27.083H18.8815Z" fill="#35373F"/>
</g>
<defs>
<clipPath id="clip0">
<rect width="30" height="30" fill="white"/>
</clipPath>
</defs>
</svg>
