<svg width="30" height="32" viewBox="0 0 30 32" fill="none" xmlns="http://www.w3.org/2000/svg">
<path fill-rule="evenodd" clip-rule="evenodd" d="M5.38934 9.31445L5.61087 9.41749C6.39682 9.78305 7.48364 10.4868 8.03457 11.455C8.31883 11.9545 8.4693 12.5421 8.33644 13.1821C8.22675 13.7105 7.9335 14.2285 7.44527 14.7316C7.62019 15.0109 7.82096 15.3543 7.9991 15.7183C8.25493 16.241 8.5 16.8763 8.5 17.4456V23.7247H7.5V17.4456C7.5 17.1179 7.34507 16.6568 7.1009 16.1579C6.86498 15.6759 6.57878 15.2235 6.3844 14.9329L6.14051 14.5683L6.47031 14.279C7.04081 13.7786 7.28263 13.3386 7.35731 12.9788C7.4307 12.6253 7.35617 12.2847 7.16543 11.9495C6.80651 11.3188 6.07219 10.7765 5.40858 10.4322C3.92448 11.247 3.57073 12.0371 3.56245 12.6065C3.55302 13.255 3.97924 13.8749 4.43387 14.2827L4.85468 14.6602L4.42863 15.0317C4.13112 15.2912 3.91658 15.7105 3.765 16.1985C3.6207 16.6632 3.54999 17.1335 3.5 17.4813V29.9041H2.5V17.4099L2.50628 17.3661C2.55607 17.0187 2.63567 16.4633 2.81 15.902C2.93681 15.4936 3.12352 15.0485 3.41119 14.6674C2.96695 14.1596 2.55027 13.4367 2.56255 12.592C2.57888 11.4692 3.34109 10.3643 5.17193 9.4259L5.38934 9.31445Z" fill="#33353D"/>
<path fill-rule="evenodd" clip-rule="evenodd" d="M14.8893 9.31445L15.1109 9.41749C15.8968 9.78305 16.9836 10.4868 17.5346 11.455C17.8188 11.9545 17.9693 12.5421 17.8364 13.1821C17.728 13.7046 17.44 14.2171 16.9614 14.7149C17.1363 14.976 17.3272 15.3005 17.4909 15.6526C17.7372 16.1824 17.9548 16.8437 17.9 17.4689V23.7247H16.9V17.4206L16.9025 17.3957C16.939 17.032 16.8093 16.5584 16.5841 16.0742C16.3646 15.602 16.0864 15.1876 15.9101 14.9679L15.6105 14.5946L15.9703 14.279C16.5408 13.7786 16.7826 13.3386 16.8573 12.9788C16.9307 12.6253 16.8562 12.2847 16.6654 11.9495C16.3065 11.3188 15.5722 10.7765 14.9086 10.4322C13.4245 11.247 13.0707 12.0371 13.0624 12.6065C13.053 13.255 13.4792 13.8749 13.9339 14.2827L14.3547 14.6602L13.9286 15.0317C13.6311 15.2912 13.4166 15.7105 13.265 16.1985C13.1207 16.6632 13.05 17.1335 13 17.4813V23.7247H12V17.4099L12.0063 17.3661C12.0561 17.0187 12.1357 16.4633 12.31 15.902C12.4368 15.4936 12.6235 15.0485 12.9112 14.6674C12.467 14.1596 12.0503 13.4367 12.0626 12.592C12.0789 11.4692 12.8411 10.3643 14.6719 9.4259L14.8893 9.31445Z" fill="#33353D"/>
<path fill-rule="evenodd" clip-rule="evenodd" d="M24.611 9.31445L24.8284 9.42589C26.6593 10.3643 27.4215 11.4692 27.4378 12.592C27.4501 13.4367 27.0334 14.1596 26.5892 14.6674C26.8768 15.0485 27.0635 15.4936 27.1903 15.902C27.3647 16.4633 27.4443 17.0187 27.4941 17.3661L27.5003 17.4099V29.9041H26.5003V17.4813C26.4504 17.1335 26.3796 16.6632 26.2353 16.1985C26.0838 15.7105 25.8692 15.2912 25.5717 15.0317L25.1457 14.6602L25.5665 14.2827C26.0211 13.8749 26.4473 13.255 26.4379 12.6065C26.4296 12.0371 26.0759 11.247 24.5918 10.4322C23.9282 10.7765 23.1938 11.3188 22.8349 11.9495C22.6442 12.2847 22.5696 12.6253 22.643 12.9788C22.7177 13.3386 22.9595 13.7786 23.53 14.279L23.8899 14.5946L23.5903 14.9679C23.4139 15.1876 23.1358 15.602 22.9162 16.0742C22.6911 16.5584 22.5614 17.032 22.5978 17.3957L22.6003 17.4206V23.7247H21.6003V17.4689C21.5455 16.8437 21.7631 16.1824 22.0095 15.6526C22.1731 15.3005 22.3641 14.976 22.539 14.7149C22.0604 14.2171 21.7724 13.7046 21.6639 13.1821C21.531 12.5421 21.6815 11.9545 21.9658 11.455C22.5167 10.4868 23.6035 9.78305 24.3895 9.41749L24.611 9.31445Z" fill="#33353D"/>
<path fill-rule="evenodd" clip-rule="evenodd" d="M2 1.99805C1.47457 1.99805 1 2.47343 1 2.99306V28.9067C1 29.4263 1.47457 29.9017 2 29.9017H28C28.5254 29.9017 29 29.4263 29 28.9067V2.99306C29 2.47343 28.5254 1.99805 28 1.99805H2ZM0 2.99306C0 1.91801 0.925428 0.998047 2 0.998047H28C29.0746 0.998047 30 1.91801 30 2.99306V28.9067C30 29.9817 29.0746 30.9017 28 30.9017H2C0.925428 30.9017 0 29.9817 0 28.9067V2.99306Z" fill="#33353D"/>
<path fill-rule="evenodd" clip-rule="evenodd" d="M5 24.916L25 25.0209V31.0043L5 30.8994V24.916ZM6 25.9213V29.9047L24 29.9991V26.0157L6 25.9213Z" fill="#33353D"/>
<path fill-rule="evenodd" clip-rule="evenodd" d="M5.37271 24.2565C5.15196 24.4427 5.07135 24.6582 5.09648 24.8586L5.10037 24.8896V24.9191H25.1004C25.0997 24.7161 24.9824 24.4757 24.7171 24.2679C24.4545 24.0623 24.0879 23.9258 23.7004 23.9258H6.40037C5.95273 23.9258 5.59627 24.068 5.37271 24.2565ZM4.72803 23.4921C5.15447 23.1324 5.74801 22.9258 6.40037 22.9258H23.7004C24.3128 22.9258 24.8962 23.1381 25.3336 23.4806C25.7677 23.8205 26.1004 24.3268 26.1004 24.9208V25.9191H4.10037V24.9492C4.03965 24.366 4.30691 23.8472 4.72803 23.4921Z" fill="#33353D"/>
<path fill-rule="evenodd" clip-rule="evenodd" d="M4 0.998047H26V3.98974C26 4.25337 25.9096 4.51168 25.7155 4.70518C25.5215 4.89853 25.2631 4.98808 25 4.98808H5C4.73687 4.98808 4.47853 4.89853 4.28454 4.70518C4.0904 4.51168 4 4.25337 4 3.98974V0.998047ZM5 1.99805V3.98808H25V1.99805H5Z" fill="#33353D"/>
<path d="M29 6.98047H1V7.97715H29V6.98047Z" fill="#33353D"/>
<path d="M9.5 20.9335C9.5 21.1328 9.7 21.3321 9.9 21.3321C10.1 21.3321 10.3 21.1328 10.3 20.9335C10.3 20.9335 10.4 20.8338 10.5 20.8338C10.7 20.7341 11.1 20.4351 11.1 20.0364C11.1 19.5381 10.8 19.3388 10.5 19.2391L10.4 19.1394L10.5 19.0398C10.7 18.9401 11.1 18.6411 11.1 18.2424C11.1 18.0431 10.9 17.8438 10.7 17.8438C10.5 17.8438 10.3 18.0431 10.3 18.2424C10.3 18.2424 10.2 18.3421 10.1 18.3421C9.9 18.4418 9.5 18.7408 9.5 19.1394C9.5 19.6378 9.8 19.8371 10.1 19.9368L10.2 20.0364L10.1 20.1361C9.8 20.2358 9.5 20.4351 9.5 20.9335Z" fill="#33353D"/>
<path d="M19 20.9335C19 21.1328 19.2 21.3321 19.4 21.3321C19.6 21.3321 19.8 21.1328 19.8 20.9335C19.8 20.9335 19.9 20.8338 20 20.8338C20.2 20.7341 20.6 20.4351 20.6 20.0364C20.6 19.5381 20.3 19.3388 20 19.2391L19.9 19.1394L20 19.0398C20.2 18.9401 20.6 18.6411 20.6 18.2424C20.6 18.0431 20.4 17.8438 20.2 17.8438C20 17.8438 19.8 18.0431 19.8 18.2424C19.8 18.2424 19.7 18.3421 19.6 18.3421C19.4 18.4418 19 18.7408 19 19.1394C19 19.6378 19.3 19.8371 19.6 19.9368L19.7 20.0364L19.6 20.1361C19.3 20.2358 19 20.4351 19 20.9335Z" fill="#33353D"/>
<path d="M9.5 15.3514C9.5 15.9494 9.8 16.2484 10.1 16.4477C10.2 16.4477 10.2 16.5474 10.3 16.647C10.3 16.946 10.5 17.245 10.7 17.245C10.9 17.245 11.1 16.946 11.1 16.647C11.1 16.049 10.8 15.75 10.5 15.5507L10.4 15.451L10.5 15.3514C10.7 15.152 11.1 14.853 11.1 14.255C11.1 13.657 10.8 13.358 10.5 13.1587C10.4 13.1587 10.4 13.059 10.3 12.9593C10.3 12.6603 10.1 12.3613 9.9 12.3613C9.7 12.3613 9.5 12.6603 9.5 12.9593C9.5 13.5573 9.8 13.8563 10.1 14.0557L10.2 14.1553L10.1 14.255C9.8 14.4544 9.5 14.7534 9.5 15.3514Z" fill="#33353D"/>
<path d="M19 15.3514C19 15.9494 19.3 16.2484 19.6 16.4477C19.7 16.4477 19.7 16.5474 19.8 16.647C19.8 16.946 20 17.245 20.2 17.245C20.4 17.245 20.6 16.946 20.6 16.647C20.6 16.049 20.3 15.75 20 15.5507L19.9 15.451L20 15.3514C20.2 15.152 20.6 14.853 20.6 14.255C20.6 13.657 20.3 13.358 20 13.1587C19.9 13.1587 19.9 13.059 19.8 12.9593C19.8 12.6603 19.6 12.3613 19.4 12.3613C19.2 12.3613 19 12.6603 19 12.9593C19 13.5573 19.3 13.8563 19.6 14.0557L19.7 14.1553L19.6 14.255C19.3 14.4544 19 14.7534 19 15.3514Z" fill="#33353D"/>
</svg>
