<svg width="44" height="31" viewBox="0 0 44 31" fill="none" xmlns="http://www.w3.org/2000/svg">
<g clip-path="url(#clip0)">
<path d="M29.8819 22.9721C29.5163 22.9721 29.2422 23.2382 29.2422 23.593V25.8548C29.2422 26.2096 29.5163 26.4757 29.8819 26.4757H31.1612L29.7905 24.3913C29.6077 24.0808 29.6991 23.726 29.9732 23.5043C30.2474 23.2825 30.6586 23.4156 30.887 23.6817L31.3896 24.3913L32.4862 22.9721C32.4405 22.9721 32.3491 22.9277 32.2578 22.9277H29.8819V22.9721Z" fill="#ECF0F1"/>
<path d="M32.2576 26.5211C32.6231 26.5211 32.8972 26.255 32.8972 25.9002V24.5254L31.3438 26.5211H32.2576Z" fill="#ECF0F1"/>
<path d="M11.7878 27.2744C13.6154 27.2744 15.0775 25.8108 15.0775 24.0369C15.0775 22.2629 13.5697 20.8438 11.7878 20.8438C10.0059 20.8438 8.49808 22.3073 8.49808 24.0369C8.45239 25.8108 9.96018 27.2744 11.7878 27.2744ZM10.1886 22.3516H13.3413C13.7068 22.3516 13.981 22.6177 13.981 22.9725C13.981 23.3273 13.7068 23.5934 13.3413 23.5934H10.1886C9.82311 23.5934 9.54897 23.3273 9.54897 22.9725C9.54897 22.6177 9.82311 22.3516 10.1886 22.3516ZM10.1886 24.5247H13.3413C13.7068 24.5247 13.981 24.7908 13.981 25.1456C13.981 25.5004 13.7068 25.7665 13.3413 25.7665H10.1886C9.82311 25.7665 9.54897 25.5004 9.54897 25.1456C9.54897 24.7908 9.82311 24.5247 10.1886 24.5247Z" fill="#ECF0F1"/>
<path d="M22.9827 16.8525H37.558C37.9235 16.8525 38.1977 17.1186 38.1977 17.4734C38.1977 17.8282 37.9235 18.0943 37.558 18.0943H22.206C22.0689 18.4934 21.9775 18.8926 21.9775 19.3361V29.7138H38.152C40.665 29.7138 42.6754 27.718 42.6754 25.3232V15.5664H25.9069C24.719 15.6108 23.7138 16.0986 22.9827 16.8525ZM35.4106 21.2874L34.0855 23.0171C34.1312 23.1944 34.1769 23.4162 34.1769 23.5936V25.8554C34.1769 26.8754 33.3088 27.7624 32.2122 27.7624H29.882C28.8311 27.7624 27.9173 26.9198 27.9173 25.8554V23.5936C27.9173 22.5736 28.7854 21.6866 29.882 21.6866H32.2122C32.5777 21.6866 32.9433 21.7753 33.2174 21.9527L34.3597 20.4892C34.5881 20.2231 34.9993 20.1787 35.2735 20.3561C35.5933 20.6222 35.639 21.0213 35.4106 21.2874Z" fill="#E09C3B"/>
<path d="M38.1975 1.24219H5.84856C3.33558 1.24219 1.3252 3.2379 1.3252 5.63274V25.3237C1.3252 27.7629 3.38127 29.7143 5.84856 29.7143H22.023V19.381C22.023 18.9375 22.1144 18.5383 22.2515 18.1392H6.39685C6.03132 18.1392 5.75718 17.8731 5.75718 17.5183C5.75718 17.1635 6.07701 16.8531 6.39685 16.8531H22.9825C23.7136 16.0991 24.7188 15.6113 25.861 15.6113H42.6751V5.67709C42.7208 3.2379 40.6648 1.24219 38.1975 1.24219ZM11.7883 19.6027C14.347 19.6027 16.4031 21.5984 16.4031 24.082C16.4031 26.5655 14.347 28.5612 11.7883 28.5612C9.22966 28.5612 7.17359 26.5655 7.17359 24.082C7.17359 21.5984 9.22966 19.6027 11.7883 19.6027ZM37.6035 14.2365H6.39685C6.03132 14.2365 5.75718 13.9704 5.75718 13.6156C5.75718 13.2608 6.03132 12.9947 6.39685 12.9947H37.5578C37.9233 12.9947 38.1975 13.2608 38.1975 13.6156C38.1975 13.9704 37.9233 14.2365 37.6035 14.2365ZM37.6035 10.3337H6.39685C6.03132 10.3337 5.75718 10.0677 5.75718 9.71286C5.75718 9.35807 6.03132 9.09197 6.39685 9.09197H37.5578C37.9233 9.09197 38.1975 9.35807 38.1975 9.71286C38.1975 10.0677 37.9233 10.3337 37.6035 10.3337ZM37.6035 6.43103H6.39685C6.03132 6.43103 5.75718 6.16493 5.75718 5.81014C5.75718 5.45535 6.03132 5.18925 6.39685 5.18925H37.5578C37.9233 5.18925 38.1975 5.45535 38.1975 5.81014C38.1975 6.16493 37.9233 6.43103 37.6035 6.43103Z" fill="#F4A343"/>
<path d="M38.1973 0H5.84839C2.60436 0 0 2.5279 0 5.67668V25.3677C0 28.4721 2.60436 31.0443 5.84839 31.0443H38.1973C41.3956 31.0443 44.0457 28.5165 44.0457 25.3677V5.67668C44 2.5279 41.3956 0 38.1973 0ZM42.7207 25.3677C42.7207 27.8069 40.6646 29.7582 38.1973 29.7582H22.0228H5.84839C3.33541 29.7582 1.32503 27.7625 1.32503 25.3677V5.67668C1.32503 3.23748 3.3811 1.28612 5.84839 1.28612H38.1973C40.7103 1.28612 42.7207 3.28183 42.7207 5.67668V15.6552H43.5431H42.7207V25.3677Z" fill="#33353D"/>
<path d="M37.6032 5.18945H6.3965C6.03098 5.18945 5.75684 5.45555 5.75684 5.81034C5.75684 6.16513 6.03098 6.43123 6.3965 6.43123H37.5575C37.923 6.43123 38.1971 6.16513 38.1971 5.81034C38.1971 5.45555 37.923 5.18945 37.6032 5.18945Z" fill="#33353D"/>
<path d="M37.6032 9.0918H6.3965C6.03098 9.0918 5.75684 9.35789 5.75684 9.71268C5.75684 10.0675 6.03098 10.3336 6.3965 10.3336H37.5575C37.923 10.3336 38.1971 10.0675 38.1971 9.71268C38.1971 9.35789 37.923 9.0918 37.6032 9.0918Z" fill="#33353D"/>
<path d="M37.6032 12.9941H6.3965C6.03098 12.9941 5.75684 13.2602 5.75684 13.615C5.75684 13.9698 6.03098 14.2359 6.3965 14.2359H37.5575C37.923 14.2359 38.1971 13.9698 38.1971 13.615C38.1971 13.2602 37.923 12.9941 37.6032 12.9941Z" fill="#33353D"/>
<path d="M38.2434 17.5174C38.2434 17.1626 37.9693 16.8965 37.6038 16.8965H22.9828C22.663 17.2513 22.3888 17.6948 22.2061 18.1383H37.5581C37.9236 18.1383 38.2434 17.8278 38.2434 17.5174Z" fill="#33353D"/>
<path d="M6.3965 16.8535C6.03098 16.8535 5.75684 17.1196 5.75684 17.4744C5.75684 17.8292 6.03098 18.0953 6.3965 18.0953H22.2054C22.3882 17.6074 22.6167 17.2083 22.9822 16.8535H6.3965Z" fill="#33353D"/>
<path d="M11.7886 28.5171C14.3472 28.5171 16.4033 26.5214 16.4033 24.0379C16.4033 21.5543 14.3472 19.5586 11.7886 19.5586C9.2299 19.5586 7.17383 21.5543 7.17383 24.0379C7.17383 26.5214 9.2299 28.5171 11.7886 28.5171ZM11.7886 20.8447C13.6162 20.8447 15.0783 22.3082 15.0783 24.0379C15.0783 25.8118 13.5705 27.2753 11.7886 27.2753C10.0066 27.2753 8.49885 25.8118 8.49885 24.0379C8.45316 22.3082 9.96095 20.8447 11.7886 20.8447Z" fill="#33353D"/>
<path d="M32.8975 25.8999C32.8975 26.2546 32.6233 26.5207 32.2578 26.5207H31.344L31.2526 26.6094L31.2069 26.5207H29.9276C29.5621 26.5207 29.2879 26.2546 29.2879 25.8999V23.6381C29.2879 23.2833 29.5621 23.0172 29.9276 23.0172H32.2578C32.3492 23.0172 32.3949 23.0172 32.4863 23.0615L33.263 22.0415C32.9888 21.8641 32.6233 21.7754 32.2578 21.7754H29.9276C28.8767 21.7754 27.9629 22.618 27.9629 23.6824V25.9442C27.9629 26.9642 28.831 27.8512 29.9276 27.8512H32.2578C33.3087 27.8512 34.2225 27.0086 34.2225 25.9442V23.6824C34.2225 23.4607 34.1768 23.2833 34.1311 23.1059L32.8975 24.525V25.8999Z" fill="#33353D"/>
<path d="M30.8412 23.7277C30.6584 23.4173 30.2472 23.3729 29.9274 23.5503C29.6075 23.7277 29.5618 24.1269 29.7446 24.4373L31.161 26.5661H31.2981L32.8515 24.5704V23.639C32.8515 23.3729 32.6688 23.1512 32.3946 23.0625L31.2981 24.4817L30.8412 23.7277Z" fill="#33353D"/>
<path d="M34.405 20.5344L33.2627 21.9979C33.6739 22.2197 33.9481 22.5745 34.0851 23.018L35.4102 21.2883C35.6386 21.0222 35.5929 20.6231 35.2731 20.4014C34.9989 20.224 34.5877 20.2683 34.405 20.5344Z" fill="#33353D"/>
<path d="M33.2172 21.998L32.4404 23.0181C32.7146 23.1068 32.8973 23.3285 32.8973 23.5946V24.5259L34.0853 23.0181C33.9025 22.5746 33.6284 22.2198 33.2172 21.998Z" fill="#33353D"/>
<path d="M31.2527 26.6102L31.3441 26.5215H31.207L31.2527 26.6102Z" fill="#33353D"/>
<path d="M10.1885 23.5933H13.3411C13.7067 23.5933 13.9808 23.3272 13.9808 22.9725C13.9808 22.6177 13.7067 22.3516 13.3411 22.3516H10.1885C9.82297 22.3516 9.54883 22.6177 9.54883 22.9725C9.54883 23.3272 9.82297 23.5933 10.1885 23.5933Z" fill="#33353D"/>
<path d="M10.1885 25.7672H13.3411C13.7067 25.7672 13.9808 25.5011 13.9808 25.1463C13.9808 24.7915 13.7067 24.5254 13.3411 24.5254H10.1885C9.82297 24.5254 9.54883 24.7915 9.54883 25.1463C9.54883 25.5011 9.82297 25.7672 10.1885 25.7672Z" fill="#33353D"/>
</g>
<defs>
<clipPath id="clip0">
<rect width="44" height="31" fill="white"/>
</clipPath>
</defs>
</svg>
