<svg width="46" height="41" viewBox="0 0 46 41" fill="none" xmlns="http://www.w3.org/2000/svg">
<path d="M16.2133 18.9062H14.7051V20.4188H16.2133V18.9062Z" fill="#ECF0F1"/>
<path d="M22.9467 18.9062H21.4385V20.4188H22.9467V18.9062Z" fill="#ECF0F1"/>
<path d="M16.2133 12.3164H14.7051V13.8289H16.2133V12.3164Z" fill="#ECF0F1"/>
<path d="M26.9321 6.48142C27.5785 6.48142 28.1171 5.94123 28.1171 5.29301V2.70012C28.1171 2.0519 27.5785 1.51172 26.9321 1.51172C26.2857 1.51172 25.7471 2.0519 25.7471 2.70012V5.29301C25.7471 5.94123 26.2857 6.48142 26.9321 6.48142Z" fill="#ECF0F1"/>
<path d="M22.9467 12.3164H21.4385V13.8289H22.9467V12.3164Z" fill="#ECF0F1"/>
<path d="M16.2133 32.1406H14.7051V33.6531H16.2133V32.1406Z" fill="#ECF0F1"/>
<path d="M22.9467 25.4961H21.4385V27.0086H22.9467V25.4961Z" fill="#ECF0F1"/>
<path d="M22.9467 32.1406H21.4385V33.6531H22.9467V32.1406Z" fill="#ECF0F1"/>
<path d="M16.2133 25.4961H14.7051V27.0086H16.2133V25.4961Z" fill="#ECF0F1"/>
<path d="M32.9645 21.8771C32.7491 21.553 32.8029 21.0668 33.18 20.7967C33.5032 20.5806 33.9879 20.6347 34.2573 21.0128L36.7889 24.7401L41.098 15.773C39.913 14.9627 38.4587 14.4766 36.8966 14.4766C32.6952 14.4766 29.3018 17.8797 29.3018 22.0932C29.3018 26.3066 32.6952 29.7098 36.8966 29.7098C41.098 29.7098 44.4914 26.3066 44.4914 22.0932C44.4914 20.0405 43.6835 18.1498 42.3369 16.7994L37.0582 27.7651L32.9645 21.8771Z" fill="#ECF0F1"/>
<path d="M9.42617 25.4961H7.91797V27.0086H9.42617V25.4961Z" fill="#ECF0F1"/>
<path d="M9.42617 32.1406H7.91797V33.6531H9.42617V32.1406Z" fill="#ECF0F1"/>
<path d="M10.7192 6.48142C11.3656 6.48142 11.9042 5.94123 11.9042 5.29301V2.70012C11.9042 2.0519 11.3656 1.51172 10.7192 1.51172C10.0728 1.51172 9.53418 2.0519 9.53418 2.70012V5.29301C9.53418 5.94123 10.0728 6.48142 10.7192 6.48142Z" fill="#ECF0F1"/>
<path d="M9.42617 12.3164H7.91797V13.8289H9.42617V12.3164Z" fill="#ECF0F1"/>
<path d="M9.42617 18.9062H7.91797V20.4188H9.42617V18.9062Z" fill="#ECF0F1"/>
<path d="M30.81 4.75404C33.7725 4.75404 36.1426 7.18487 36.1426 10.1019V13.0189C36.4119 13.0189 36.6273 12.9648 36.8967 12.9648C37.166 12.9648 37.3814 12.9648 37.6508 13.0189V10.1019C37.6508 6.32057 34.5805 3.1875 30.7561 3.1875H29.625V4.70002H30.81V4.75404Z" fill="#33353D"/>
<path d="M24.2388 3.24023H13.4121V4.75275H24.2388V3.24023Z" fill="#33353D"/>
<path d="M36.1429 31.2218V34.1388C36.1429 37.1098 33.719 39.4866 30.8103 39.4866H6.89462C3.93209 39.4866 1.56206 37.0558 1.56206 34.1388V10.1006C1.56206 7.12956 3.98595 4.75275 6.89462 4.75275H8.02576V3.24023H6.89462C3.07026 3.24023 0 6.31929 0 10.1006V34.0848C0 37.8661 3.07026 40.9991 6.89462 40.9991H30.8103C34.5808 40.9991 37.7049 37.9201 37.7049 34.0848V31.1678C37.4356 31.1678 37.2201 31.2218 36.9508 31.2218C36.6276 31.2218 36.3583 31.2218 36.1429 31.2218Z" fill="#33353D"/>
<path d="M9.91133 10.75H7.48744C6.89493 10.75 6.41016 11.2362 6.41016 11.8304V14.2612C6.41016 14.8554 6.89493 15.3416 7.48744 15.3416H9.91133C10.5038 15.3416 10.9886 14.8554 10.9886 14.2612V11.8304C10.9886 11.2362 10.5038 10.75 9.91133 10.75ZM9.42655 13.8291H7.91835V12.3165H9.42655V13.8291Z" fill="#33353D"/>
<path d="M16.6438 10.75H14.2199C13.6274 10.75 13.1426 11.2362 13.1426 11.8304V14.2612C13.1426 14.8554 13.6274 15.3416 14.2199 15.3416H16.6438C17.2363 15.3416 17.721 14.8554 17.721 14.2612V11.8304C17.721 11.2362 17.2363 10.75 16.6438 10.75ZM16.2128 13.8291H14.7046V12.3165H16.2128V13.8291Z" fill="#33353D"/>
<path d="M23.4309 10.75H21.007C20.4145 10.75 19.9297 11.2362 19.9297 11.8304V14.2612C19.9297 14.8554 20.4145 15.3416 21.007 15.3416H23.4309C24.0234 15.3416 24.5081 14.8554 24.5081 14.2612V11.8304C24.5081 11.2362 24.0234 10.75 23.4309 10.75ZM22.9999 13.8291H21.4917V12.3165H22.9999V13.8291Z" fill="#33353D"/>
<path d="M9.91133 17.3945H7.48744C6.89493 17.3945 6.41016 17.8807 6.41016 18.4749V20.9057C6.41016 21.4999 6.89493 21.9861 7.48744 21.9861H9.91133C10.5038 21.9861 10.9886 21.4999 10.9886 20.9057V18.4749C10.9886 17.8807 10.5038 17.3945 9.91133 17.3945ZM9.42655 20.4196H7.91835V18.907H9.42655V20.4196Z" fill="#33353D"/>
<path d="M16.6438 17.3945H14.2199C13.6274 17.3945 13.1426 17.8807 13.1426 18.4749V20.9057C13.1426 21.4999 13.6274 21.9861 14.2199 21.9861H16.6438C17.2363 21.9861 17.721 21.4999 17.721 20.9057V18.4749C17.721 17.8807 17.2363 17.3945 16.6438 17.3945ZM16.2128 20.4196H14.7046V18.907H16.2128V20.4196Z" fill="#33353D"/>
<path d="M23.4309 17.3945H21.007C20.4145 17.3945 19.9297 17.8807 19.9297 18.4749V20.9057C19.9297 21.4999 20.4145 21.9861 21.007 21.9861H23.4309C24.0234 21.9861 24.5081 21.4999 24.5081 20.9057V18.4749C24.5081 17.8807 24.0234 17.3945 23.4309 17.3945ZM22.9999 20.4196H21.4917V18.907H22.9999V20.4196Z" fill="#33353D"/>
<path d="M9.91133 23.9844H7.48744C6.89493 23.9844 6.41016 24.4705 6.41016 25.0647V27.4956C6.41016 28.0898 6.89493 28.5759 7.48744 28.5759H9.91133C10.5038 28.5759 10.9886 28.0898 10.9886 27.4956V25.0647C10.9886 24.4705 10.5038 23.9844 9.91133 23.9844ZM9.42655 27.0634H7.91835V25.5509H9.42655V27.0634Z" fill="#33353D"/>
<path d="M16.6438 23.9844H14.2199C13.6274 23.9844 13.1426 24.4705 13.1426 25.0647V27.4956C13.1426 28.0898 13.6274 28.5759 14.2199 28.5759H16.6438C17.2363 28.5759 17.721 28.0898 17.721 27.4956V25.0647C17.721 24.4705 17.2363 23.9844 16.6438 23.9844ZM16.2128 27.0634H14.7046V25.5509H16.2128V27.0634Z" fill="#33353D"/>
<path d="M23.4309 23.9844H21.007C20.4145 23.9844 19.9297 24.4705 19.9297 25.0647V27.4956C19.9297 28.0898 20.4145 28.5759 21.007 28.5759H23.4309C24.0234 28.5759 24.5081 28.0898 24.5081 27.4956V25.0647C24.5081 24.4705 24.0234 23.9844 23.4309 23.9844ZM22.9999 27.0634H21.4917V25.5509H22.9999V27.0634Z" fill="#33353D"/>
<path d="M9.91133 30.5742H7.48744C6.89493 30.5742 6.41016 31.0604 6.41016 31.6546V34.0854C6.41016 34.6796 6.89493 35.1658 7.48744 35.1658H9.91133C10.5038 35.1658 10.9886 34.6796 10.9886 34.0854V31.6546C10.9886 31.0604 10.5038 30.5742 9.91133 30.5742ZM9.42655 33.6533H7.91835V32.1408H9.42655V33.6533Z" fill="#33353D"/>
<path d="M16.6438 30.5742H14.2199C13.6274 30.5742 13.1426 31.0604 13.1426 31.6546V34.0854C13.1426 34.6796 13.6274 35.1658 14.2199 35.1658H16.6438C17.2363 35.1658 17.721 34.6796 17.721 34.0854V31.6546C17.721 31.0604 17.2363 30.5742 16.6438 30.5742ZM16.2128 33.6533H14.7046V32.1408H16.2128V33.6533Z" fill="#33353D"/>
<path d="M23.4309 30.5742H21.007C20.4145 30.5742 19.9297 31.0604 19.9297 31.6546V34.0854C19.9297 34.6796 20.4145 35.1658 21.007 35.1658H23.4309C24.0234 35.1658 24.5081 34.6796 24.5081 34.0854V31.6546C24.5081 31.0604 24.0234 30.5742 23.4309 30.5742ZM22.9999 33.6533H21.4917V32.1408H22.9999V33.6533Z" fill="#33353D"/>
<path d="M42.9838 15.3963L42.2836 16.8548C43.6302 18.2053 44.4381 20.0959 44.4381 22.1487C44.4381 26.3621 41.0447 29.7653 36.8433 29.7653C32.6419 29.7653 29.2484 26.3621 29.2484 22.1487C29.2484 17.9352 32.6419 14.532 36.8433 14.532C38.4053 14.532 39.8597 15.0182 41.0447 15.8285L41.6911 14.424C40.506 13.6678 39.1056 13.1816 37.5974 13.0195V13.7218H36.0892V13.0195C31.403 13.3977 27.7402 17.341 27.7402 22.0946C27.7402 26.8483 31.403 30.7916 36.0892 31.1697V30.4675H37.5974V31.1697C42.2836 30.7916 45.9463 26.8483 45.9463 22.0946C46.0002 19.4477 44.8152 17.0709 42.9838 15.3963Z" fill="#33353D"/>
<path d="M36.1426 13.0189V13.7211H37.6508V13.0189C37.3815 13.0189 37.166 12.9648 36.8967 12.9648C36.6274 12.9648 36.358 13.0189 36.1426 13.0189Z" fill="#33353D"/>
<path d="M36.1426 30.4668V31.169C36.4119 31.169 36.6274 31.2231 36.8967 31.2231C37.166 31.2231 37.3815 31.2231 37.6508 31.169V30.4668H36.1426Z" fill="#33353D"/>
<path d="M41.0981 15.8281L36.789 24.7952L34.2574 21.0679C34.0419 20.7438 33.5571 20.6358 33.1801 20.8518C32.8569 21.0679 32.7492 21.5541 32.9646 21.9322L37.0044 27.8742L42.2831 16.9085C41.96 16.4223 41.529 16.0982 41.0981 15.8281Z" fill="#33353D"/>
<path d="M44.3306 12.6397C44.4922 12.2616 44.3306 11.7754 43.9536 11.6134C43.5765 11.4513 43.0917 11.6134 42.9301 11.9915L41.7451 14.4763C42.176 14.7464 42.6069 15.0705 42.984 15.4487L44.3306 12.6397Z" fill="#33353D"/>
<path d="M42.3374 16.8L43.0376 15.3415C42.6605 15.0174 42.2296 14.6933 41.7987 14.3691L41.1523 15.7736C41.5294 16.0977 41.9603 16.4218 42.3374 16.8Z" fill="#33353D"/>
<path d="M8.77949 4.75362H8.02539V5.29381C8.02539 6.80632 9.2104 7.99473 10.7186 7.99473C12.2268 7.99473 13.4118 6.80632 13.4118 5.29381V4.75362H12.6577V3.24111H13.4118V2.70092C13.4118 1.18841 12.2268 0 10.7186 0C9.2104 0 8.02539 1.18841 8.02539 2.70092V3.24111H8.77949V4.75362ZM9.53359 2.70092C9.53359 2.0527 10.0722 1.51252 10.7186 1.51252C11.365 1.51252 11.9036 2.0527 11.9036 2.70092V5.29381C11.9036 5.94203 11.365 6.48221 10.7186 6.48221C10.0722 6.48221 9.53359 5.94203 9.53359 5.29381V2.70092Z" fill="#33353D"/>
<path d="M13.4123 3.24023H12.6582V4.75275H13.4123V3.24023Z" fill="#33353D"/>
<path d="M8.77949 3.24023H8.02539V4.75275H8.77949V3.24023Z" fill="#33353D"/>
<path d="M24.9934 4.75362H24.2393V5.29381C24.2393 6.80632 25.4243 7.99473 26.9325 7.99473C28.4407 7.99473 29.6257 6.80632 29.6257 5.29381V4.75362H28.8716V3.24111H29.6257V2.70092C29.6257 1.18841 28.4407 0 26.9325 0C25.4243 0 24.2393 1.18841 24.2393 2.70092V3.24111H24.9934V4.75362ZM25.7475 2.70092C25.7475 2.0527 26.2861 1.51252 26.9325 1.51252C27.5788 1.51252 28.1175 2.0527 28.1175 2.70092V5.29381C28.1175 5.94203 27.5788 6.48221 26.9325 6.48221C26.2861 6.48221 25.7475 5.94203 25.7475 5.29381V2.70092Z" fill="#33353D"/>
<path d="M29.6252 3.24023H28.8711V4.75275H29.6252V3.24023Z" fill="#33353D"/>
<path d="M24.9934 3.24023H24.2393V4.75275H24.9934V3.24023Z" fill="#33353D"/>
<path d="M15.2969 36.4627H35.5498C35.9269 35.7605 36.0885 34.9502 36.0885 34.0859V31.1689C31.4023 30.7908 27.7395 26.8474 27.7395 22.0938C27.7395 17.3402 31.4023 13.3969 36.0885 13.0187V10.1017C36.0885 7.13072 33.6646 4.75391 30.7559 4.75391H29.6248V5.29409C29.6248 6.80661 28.4397 7.99501 26.9315 7.99501C25.4233 7.99501 24.2383 6.80661 24.2383 5.29409V4.75391H13.4116V5.29409C13.4116 6.80661 12.2266 7.99501 10.7184 7.99501C9.21024 7.99501 8.02522 6.80661 8.02522 5.29409V4.75391H6.89408C3.93155 4.75391 1.56152 7.18474 1.56152 10.1017V34.0859C1.56152 37.0569 3.98541 39.4337 6.89408 39.4337H12.2805C12.2805 37.8132 13.6271 36.4627 15.2969 36.4627ZM19.9292 11.8303C19.9292 11.2361 20.414 10.75 21.0065 10.75H23.4304C24.0229 10.75 24.5077 11.2361 24.5077 11.8303V14.2612C24.5077 14.8554 24.0229 15.3415 23.4304 15.3415H21.0065C20.414 15.3415 19.9292 14.8554 19.9292 14.2612V11.8303ZM19.9292 18.4746C19.9292 17.8804 20.414 17.3942 21.0065 17.3942H23.4304C24.0229 17.3942 24.5077 17.8804 24.5077 18.4746V20.9054C24.5077 21.4996 24.0229 21.9858 23.4304 21.9858H21.0065C20.414 21.9858 19.9292 21.4996 19.9292 20.9054V18.4746ZM19.9292 25.0648C19.9292 24.4706 20.414 23.9845 21.0065 23.9845H23.4304C24.0229 23.9845 24.5077 24.4706 24.5077 25.0648V27.4957C24.5077 28.0899 24.0229 28.576 23.4304 28.576H21.0065C20.414 28.576 19.9292 28.0899 19.9292 27.4957V25.0648ZM19.9292 31.6551C19.9292 31.0609 20.414 30.5747 21.0065 30.5747H23.4304C24.0229 30.5747 24.5077 31.0609 24.5077 31.6551V34.0859C24.5077 34.6801 24.0229 35.1663 23.4304 35.1663H21.0065C20.414 35.1663 19.9292 34.6801 19.9292 34.0859V31.6551ZM13.1423 11.8303C13.1423 11.2361 13.6271 10.75 14.2196 10.75H16.6435C17.236 10.75 17.7208 11.2361 17.7208 11.8303V14.2612C17.7208 14.8554 17.236 15.3415 16.6435 15.3415H14.2196C13.6271 15.3415 13.1423 14.8554 13.1423 14.2612V11.8303ZM13.1423 18.4746C13.1423 17.8804 13.6271 17.3942 14.2196 17.3942H16.6435C17.236 17.3942 17.7208 17.8804 17.7208 18.4746V20.9054C17.7208 21.4996 17.236 21.9858 16.6435 21.9858H14.2196C13.6271 21.9858 13.1423 21.4996 13.1423 20.9054V18.4746ZM13.1423 25.0648C13.1423 24.4706 13.6271 23.9845 14.2196 23.9845H16.6435C17.236 23.9845 17.7208 24.4706 17.7208 25.0648V27.4957C17.7208 28.0899 17.236 28.576 16.6435 28.576H14.2196C13.6271 28.576 13.1423 28.0899 13.1423 27.4957V25.0648ZM13.1423 31.6551C13.1423 31.0609 13.6271 30.5747 14.2196 30.5747H16.6435C17.236 30.5747 17.7208 31.0609 17.7208 31.6551V34.0859C17.7208 34.6801 17.236 35.1663 16.6435 35.1663H14.2196C13.6271 35.1663 13.1423 34.6801 13.1423 34.0859V31.6551ZM10.9878 34.1399C10.9878 34.7341 10.503 35.2203 9.91047 35.2203H7.48658C6.89408 35.2203 6.4093 34.7341 6.4093 34.1399V31.7091C6.4093 31.1149 6.89408 30.6287 7.48658 30.6287H9.91047C10.503 30.6287 10.9878 31.1149 10.9878 31.7091V34.1399ZM10.9878 27.4957C10.9878 28.0899 10.503 28.576 9.91047 28.576H7.48658C6.89408 28.576 6.4093 28.0899 6.4093 27.4957V25.0648C6.4093 24.4706 6.89408 23.9845 7.48658 23.9845H9.91047C10.503 23.9845 10.9878 24.4706 10.9878 25.0648V27.4957ZM10.9878 20.9054C10.9878 21.4996 10.503 21.9858 9.91047 21.9858H7.48658C6.89408 21.9858 6.4093 21.4996 6.4093 20.9054V18.4746C6.4093 17.8804 6.89408 17.3942 7.48658 17.3942H9.91047C10.503 17.3942 10.9878 17.8804 10.9878 18.4746V20.9054ZM10.9878 14.2612C10.9878 14.8554 10.503 15.3415 9.91047 15.3415H7.48658C6.89408 15.3415 6.4093 14.8554 6.4093 14.2612V11.8303C6.4093 11.2361 6.89408 10.75 7.48658 10.75H9.91047C10.503 10.75 10.9878 11.2361 10.9878 11.8303V14.2612Z" fill="#F4A343"/>
<path d="M15.2968 36.4629C13.627 36.4629 12.2804 37.8133 12.2266 39.4339H30.7558C32.8565 39.4339 34.6879 38.1915 35.5497 36.4629H15.2968Z" fill="#E09C3B"/>
</svg>
