<svg width="38" height="38" viewBox="0 0 38 38" fill="none" xmlns="http://www.w3.org/2000/svg">
<g clip-path="url(#clip0)">
<path d="M27.6166 16.0367C27.9427 16.0367 28.1602 15.8192 28.2146 15.493L28.5407 8.37143C28.5407 8.20834 28.4864 8.04525 28.3777 7.93653C28.2689 7.8278 28.1058 7.77344 27.9427 7.77344H27.2904C27.1273 7.77344 26.9642 7.8278 26.8555 7.93653C26.7467 8.04525 26.6924 8.20834 26.6924 8.37143L27.0186 15.493C27.0186 15.8192 27.2904 16.0367 27.6166 16.0367Z" fill="#ECF0F1"/>
<path d="M27.6162 21.7461C28.1567 21.7461 28.5948 21.308 28.5948 20.7676C28.5948 20.2272 28.1567 19.7891 27.6162 19.7891C27.0758 19.7891 26.6377 20.2272 26.6377 20.7676C26.6377 21.308 27.0758 21.7461 27.6162 21.7461Z" fill="#ECF0F1"/>
<path d="M31.0959 0H6.95851C3.09871 0 0 3.09871 0 6.95851V31.0959C0 34.9013 3.09871 38.0544 6.95851 38.0544H31.0959C34.9013 38.0544 38.0544 34.9557 38.0544 31.0959V6.95851C38 3.09871 34.9013 0 31.0959 0ZM36.4778 31.0959C36.4778 34.0858 34.0315 36.4778 31.0959 36.4778H6.95851C3.96853 36.4778 1.57654 34.0315 1.57654 31.0959V6.95851C1.57654 3.96853 4.02289 1.57654 6.95851 1.57654H31.0959C34.0858 1.57654 36.4778 4.02289 36.4778 6.95851V31.0959Z" fill="#33353D"/>
<path d="M27.6163 17.5592C28.7579 17.5592 29.6821 16.6894 29.7364 15.5478L30.0626 8.42616C30.0626 7.82817 29.8995 7.28453 29.4646 6.84963C29.0841 6.41472 28.5405 6.19727 27.9425 6.19727H27.2901C26.6921 6.19727 26.1485 6.41472 25.7679 6.84963C25.3874 7.28453 25.1699 7.82817 25.1699 8.42616L25.4961 15.5478C25.5505 16.6894 26.4746 17.5592 27.6163 17.5592ZM26.8552 7.93689C26.9639 7.82817 27.127 7.7738 27.2901 7.7738H27.9425C28.1055 7.7738 28.2686 7.82817 28.3774 7.93689C28.4861 8.04562 28.5405 8.20871 28.5405 8.3718L28.2143 15.4934C28.2143 15.8196 27.9425 16.037 27.6163 16.037C27.2901 16.037 27.0726 15.8196 27.0183 15.4934L26.6921 8.3718C26.6921 8.20871 26.7465 8.09998 26.8552 7.93689Z" fill="#33353D"/>
<path d="M27.6169 18.3203C26.2578 18.3203 25.1162 19.4619 25.1162 20.821C25.1162 22.1801 26.2578 23.3217 27.6169 23.3217C28.976 23.3217 30.1176 22.1801 30.1176 20.821C30.1176 19.4619 28.976 18.3203 27.6169 18.3203ZM27.6169 21.7452C27.0733 21.7452 26.6384 21.3103 26.6384 20.7667C26.6384 20.223 27.0733 19.7881 27.6169 19.7881C28.1606 19.7881 28.5955 20.223 28.5955 20.7667C28.5955 21.3103 28.1062 21.7452 27.6169 21.7452Z" fill="#33353D"/>
<path d="M9.02378 7.88351H21.0381C21.473 7.88351 21.7992 7.55733 21.7992 7.12242C21.7992 6.68751 21.473 6.36133 21.0381 6.36133H9.02378C8.58888 6.36133 8.2627 6.68751 8.2627 7.12242C8.2627 7.55733 8.58888 7.88351 9.02378 7.88351Z" fill="#33353D"/>
<path d="M9.02378 12.6667H21.0381C21.473 12.6667 21.7992 12.3405 21.7992 11.9056C21.7992 11.4707 21.473 11.1445 21.0381 11.1445H9.02378C8.58888 11.1445 8.2627 11.4707 8.2627 11.9056C8.2627 12.3405 8.58888 12.6667 9.02378 12.6667Z" fill="#33353D"/>
<path d="M9.02378 17.4499H21.0381C21.473 17.4499 21.7992 17.1237 21.7992 16.6888C21.7992 16.2539 21.473 15.9277 21.0381 15.9277H9.02378C8.58888 15.9277 8.2627 16.2539 8.2627 16.6888C8.2627 17.1237 8.58888 17.4499 9.02378 17.4499Z" fill="#33353D"/>
<path d="M9.02378 22.2347H21.0381C21.473 22.2347 21.7992 21.9086 21.7992 21.4737C21.7992 21.0387 21.4186 20.6582 20.9837 20.6582H9.02378C8.58888 20.6582 8.2627 20.9844 8.2627 21.4193C8.2627 21.8542 8.58888 22.2347 9.02378 22.2347Z" fill="#33353D"/>
<path d="M29.0295 25.4414H9.02378C8.58888 25.4414 8.2627 25.7676 8.2627 26.2025C8.2627 26.6374 8.58888 26.9636 9.02378 26.9636H29.0295C29.4644 26.9636 29.7906 26.6374 29.7906 26.2025C29.7906 25.7676 29.41 25.4414 29.0295 25.4414Z" fill="#33353D"/>
<path d="M29.0295 30.2266H9.02378C8.58888 30.2266 8.2627 30.5527 8.2627 30.9876C8.2627 31.4226 8.58888 31.7487 9.02378 31.7487H29.0295C29.4644 31.7487 29.7906 31.4226 29.7906 30.9876C29.7906 30.5527 29.41 30.2266 29.0295 30.2266Z" fill="#33353D"/>
<path d="M36.4779 6.95815C36.4779 3.96816 34.0315 1.57617 31.0959 1.57617H22.9414V25.4961H28.9757C29.4106 25.4961 29.7368 25.8222 29.7368 26.2571C29.7368 26.6921 29.4106 27.0182 28.9757 27.0182H22.9414V30.2257H28.9757C29.4106 30.2257 29.7368 30.5519 29.7368 30.9868C29.7368 31.4217 29.4106 31.7478 28.9757 31.7478H22.9958C23.1589 33.27 24.4636 34.5204 26.0401 34.5204H35.2275C35.9886 33.5962 36.4779 32.4002 36.4779 31.0955V6.95815ZM25.7139 6.90378C26.0945 6.46888 26.6381 6.25142 27.2361 6.25142H27.8885C28.4865 6.25142 29.0301 6.46888 29.4106 6.90378C29.7912 7.33869 30.0086 7.88232 30.0086 8.48032L29.6825 15.6019C29.6281 16.7436 28.7039 17.6134 27.5623 17.6134C26.4207 17.6134 25.4965 16.7436 25.4421 15.6019L25.1159 8.48032C25.1159 7.88232 25.3334 7.33869 25.7139 6.90378ZM27.6167 23.2672C26.2576 23.2672 25.1159 22.1255 25.1159 20.7664C25.1159 19.4074 26.2576 18.2657 27.6167 18.2657C28.9757 18.2657 30.1174 19.4074 30.1174 20.7664C30.1174 22.1255 28.9757 23.2672 27.6167 23.2672Z" fill="#E09C3B"/>
<path d="M22.9953 31.7478H9.02395C8.58905 31.7478 8.26287 31.4217 8.26287 30.9868C8.26287 30.5519 8.58905 30.2257 9.02395 30.2257H22.9953V27.0182H9.02395C8.58905 27.0182 8.26287 26.6921 8.26287 26.2571C8.26287 25.8222 8.58905 25.4961 9.02395 25.4961H22.9953V1.57617H6.95815C3.96816 1.57617 1.57617 4.02252 1.57617 6.95815V31.0955C1.57617 34.0855 4.02252 36.4775 6.95815 36.4775H31.0955C32.7807 36.4775 34.2486 35.7164 35.2271 34.5204H26.0397C24.4632 34.5204 23.1584 33.3244 22.9953 31.7478ZM9.02395 6.36015H21.0383C21.4732 6.36015 21.7993 6.68633 21.7993 7.12124C21.7993 7.55614 21.4732 7.88232 21.0383 7.88232H9.02395C8.58905 7.88232 8.26287 7.55614 8.26287 7.12124C8.26287 6.68633 8.58905 6.36015 9.02395 6.36015ZM9.02395 11.1441H21.0383C21.4732 11.1441 21.7993 11.4703 21.7993 11.9052C21.7993 12.3401 21.4732 12.6663 21.0383 12.6663H9.02395C8.58905 12.6663 8.26287 12.3401 8.26287 11.9052C8.26287 11.4703 8.58905 11.1441 9.02395 11.1441ZM9.02395 15.9281H21.0383C21.4732 15.9281 21.7993 16.2543 21.7993 16.6892C21.7993 17.1241 21.4732 17.4503 21.0383 17.4503H9.02395C8.58905 17.4503 8.26287 17.1241 8.26287 16.6892C8.26287 16.2543 8.58905 15.9281 9.02395 15.9281ZM9.02395 20.6577H21.0383C21.4732 20.6577 21.7993 20.9839 21.7993 21.4188C21.7993 21.8537 21.4732 22.1799 21.0383 22.1799H9.02395C8.58905 22.1799 8.26287 21.8537 8.26287 21.4188C8.26287 20.9839 8.58905 20.6577 9.02395 20.6577Z" fill="#F4A343"/>
</g>
<defs>
<clipPath id="clip0">
<rect width="38" height="38" fill="white"/>
</clipPath>
</defs>
</svg>
