<svg width="48" height="30" viewBox="0 0 48 30" fill="none" xmlns="http://www.w3.org/2000/svg">
<g clip-path="url(#clip0)">
<path d="M26.9651 10.8652C22.9805 10.8652 19.7373 13.9949 19.7373 17.8399C19.7373 19.2706 20.2006 20.6566 20.9883 21.7743C21.6833 20.1201 23.1195 18.8235 24.8802 18.2423C24.4632 17.7505 24.1852 17.1693 24.1852 16.4539C24.1852 14.9785 25.4361 13.7713 26.9651 13.7713C28.4941 13.7713 29.745 14.9785 29.745 16.4539C29.745 17.1245 29.467 17.7505 29.05 18.2423C30.8107 18.8235 32.247 20.1201 32.9419 21.7743C33.7296 20.6566 34.1929 19.3153 34.1929 17.8399C34.2392 14.0396 30.996 10.8652 26.9651 10.8652Z" fill="#ECF0F1"/>
<path d="M26.965 17.9278C27.0114 17.9278 27.0114 17.9278 26.965 17.9278C27.799 17.9278 28.4477 17.3019 28.4477 16.4971C28.4477 15.6923 27.799 15.0664 26.965 15.0664C26.1311 15.0664 25.4824 15.6923 25.4824 16.4971C25.4824 17.3019 26.1774 17.9278 26.965 17.9278Z" fill="#BEC3C7"/>
<path d="M42.0234 28.7034H44.9424C45.9153 28.7034 46.6567 27.9433 46.6567 27.0491V24.2324C44.2474 24.5454 42.3478 26.3785 42.0234 28.7034Z" fill="#BEC3C7"/>
<path d="M27.0111 19.1797C26.9648 19.1797 26.9648 19.1797 27.0111 19.1797C24.6019 19.1797 22.5633 20.7445 21.9609 22.8906C23.2582 24.0977 25.0189 24.8578 26.9648 24.8578C28.9107 24.8578 30.6714 24.0977 31.9687 22.8906C31.4127 20.7445 29.3741 19.2244 27.0111 19.1797Z" fill="#BEC3C7"/>
<path d="M7.32031 24.2324V27.0491C7.32031 27.988 8.10796 28.7034 9.0346 28.7034H11.9535C11.6292 26.3785 9.72958 24.5454 7.32031 24.2324Z" fill="#BEC3C7"/>
<path d="M43.6908 5.76774C43.6445 4.87355 42.9032 4.1582 41.9765 4.1582H6.02288C5.09624 4.1582 4.30859 4.91826 4.30859 5.81245V24.1433C4.30859 25.0375 5.04991 25.7976 5.97655 25.7976V8.71856C5.97655 7.10902 7.32018 5.76774 9.03446 5.76774H43.6908Z" fill="#E09C3B"/>
<path d="M7.32031 8.7187V11.5354C9.72958 11.2671 11.6292 9.38934 11.9535 7.06445H9.0346C8.06163 7.06445 7.32031 7.7798 7.32031 8.7187Z" fill="#BEC3C7"/>
<path d="M40.6797 2.90641C40.6333 2.01223 39.892 1.29688 38.9654 1.29688H3.05804C2.08506 1.29688 1.34375 2.05693 1.34375 2.95112V21.282C1.34375 22.1762 2.08506 22.9362 3.0117 22.9362V5.81252C3.0117 4.20299 4.35533 2.8617 6.06962 2.8617H40.6797V2.90641Z" fill="#E09C3B"/>
<path d="M44.9424 7.06445H42.0234C42.3014 9.38934 44.2474 11.2224 46.6567 11.5354V8.7187C46.6567 7.7798 45.9153 7.06445 44.9424 7.06445Z" fill="#BEC3C7"/>
<path d="M44.9884 5.7673C44.9884 4.20247 43.6448 2.9059 41.9768 2.86119C41.9768 1.25165 40.5869 -0.0449219 38.9189 -0.0449219H3.05791C1.34363 -0.000212494 0 1.29636 0 2.95061V21.2815C0 22.891 1.34363 24.1876 3.01158 24.2323C3.01158 25.7971 4.35521 27.0937 6.02317 27.1384C6.02317 28.7479 7.41313 30.0445 9.08108 30.0445H44.9421C46.61 30.0445 48 28.7479 48 27.0937V8.76283C48 7.10858 46.6564 5.81201 44.9884 5.7673ZM3.01158 5.81201V22.9357C2.08494 22.891 1.34363 22.1756 1.34363 21.2815V2.95061C1.34363 2.01171 2.13127 1.29636 3.05791 1.29636H38.9653C39.8919 1.29636 40.6795 2.01171 40.6795 2.9059H6.02317C4.35521 2.9059 3.01158 4.20247 3.01158 5.81201ZM5.97683 8.71812V25.8418C5.05019 25.7971 4.30888 25.0817 4.30888 24.1876V5.81201C4.30888 4.91782 5.09653 4.15776 6.02317 4.15776H41.9305C42.8571 4.15776 43.6448 4.87311 43.6448 5.7673H9.03475C7.3668 5.7673 5.97683 7.10858 5.97683 8.71812ZM11.9537 7.06387C11.6757 9.38876 9.72973 11.2218 7.32046 11.5348V8.71812C7.32046 7.77922 8.10811 7.06387 9.03475 7.06387H11.9537ZM9.03475 28.7032C8.06178 28.7032 7.32046 27.9431 7.32046 27.049V24.2323C9.72973 24.5005 11.6293 26.3783 11.9537 28.7032H9.03475ZM46.6564 27.049C46.6564 27.9879 45.8687 28.7032 44.9421 28.7032H42.0232C42.3012 26.3783 44.2471 24.5452 46.6564 24.2323V27.049ZM46.6564 22.9804C43.5058 23.2934 41.0039 25.7077 40.6795 28.7479H13.251C12.9266 25.7077 10.4247 23.2934 7.27413 22.9804V12.7867C10.4247 12.4737 12.9266 10.0594 13.251 7.01916H40.7259C41.0502 10.0594 43.5521 12.4737 46.7027 12.7867V22.9804H46.6564ZM46.6564 11.5348C44.2471 11.2666 42.3475 9.38876 42.0232 7.06387H44.9421C45.9151 7.06387 46.6564 7.82393 46.6564 8.71812V11.5348Z" fill="#33353D"/>
<path d="M26.965 9.61328C22.2391 9.61328 18.3936 13.3242 18.3936 17.8845C18.3936 22.4449 22.2391 26.1558 26.965 26.1558C31.6909 26.1558 35.5364 22.4449 35.5364 17.8845C35.5364 13.3242 31.6909 9.61328 26.965 9.61328ZM26.965 24.8592C25.019 24.8592 23.2584 24.0991 21.9611 22.892C22.5634 20.7012 24.602 19.1811 26.965 19.1811C29.3279 19.1811 31.3665 20.7459 31.9688 22.892C30.6715 24.1438 28.9109 24.8592 26.965 24.8592ZM25.4824 16.4985C25.4824 15.6938 26.131 15.0678 26.965 15.0678C27.799 15.0678 28.4476 15.6938 28.4476 16.4985C28.4476 17.3033 27.799 17.9292 26.965 17.9292C26.1773 17.9292 25.4824 17.3033 25.4824 16.4985ZM32.9881 21.8189C32.2932 20.1647 30.8569 18.8681 29.0963 18.2869C29.5132 17.7951 29.7912 17.2139 29.7912 16.4985C29.7912 15.0231 28.5403 13.816 27.0113 13.816C25.4824 13.816 24.2314 15.0231 24.2314 16.4985C24.2314 17.1692 24.5094 17.7951 24.9264 18.2869C23.1658 18.8681 21.7295 20.1647 21.0345 21.8189C20.2468 20.7012 19.7835 19.3599 19.7835 17.8845C19.7835 14.0395 23.0268 10.9099 27.0113 10.9099C30.9959 10.9099 34.2391 14.0395 34.2391 17.8845C34.2391 19.3152 33.7758 20.7012 32.9881 21.8189Z" fill="#33353D"/>
<path d="M39.1037 17.4823H41.4667C41.8373 17.4823 42.1153 17.2141 42.1153 16.8564C42.1153 16.4987 41.8373 16.2305 41.4667 16.2305H39.1037C38.7331 16.2305 38.4551 16.4987 38.4551 16.8564C38.4551 17.1694 38.7794 17.4823 39.1037 17.4823Z" fill="#33353D"/>
<path d="M39.1037 19.5819H41.4667C41.8373 19.5819 42.1153 19.3137 42.1153 18.956C42.1153 18.5983 41.8373 18.3301 41.4667 18.3301H39.1037C38.7331 18.3301 38.4551 18.5983 38.4551 18.956C38.4551 19.269 38.7794 19.5819 39.1037 19.5819Z" fill="#33353D"/>
<path d="M12.4631 17.4823H14.826C15.1967 17.4823 15.4747 17.2141 15.4747 16.8564C15.4747 16.4987 15.1967 16.2305 14.826 16.2305H12.4631C12.0924 16.2305 11.8145 16.4987 11.8145 16.8564C11.8145 17.1694 12.0924 17.4823 12.4631 17.4823Z" fill="#33353D"/>
<path d="M12.4631 19.5819H14.826C15.1967 19.5819 15.4747 19.3137 15.4747 18.956C15.4747 18.5983 15.1967 18.3301 14.826 18.3301H12.4631C12.0924 18.3301 11.8145 18.5983 11.8145 18.956C11.8145 19.269 12.0924 19.5819 12.4631 19.5819Z" fill="#33353D"/>
<path d="M17.0505 20.3879V10.06C17.0505 9.16579 17.7918 8.45044 18.7184 8.45044H27.1045C27.9385 8.45044 28.6335 7.82451 28.7262 7.06445H13.2512C12.9269 10.1047 10.425 12.519 7.27441 12.832V22.0421H15.3362C16.3092 21.9974 17.0505 21.282 17.0505 20.3879ZM12.4636 16.1852H14.8265C15.1972 16.1852 15.4752 16.4534 15.4752 16.8111C15.4752 17.1688 15.1972 17.437 14.8265 17.437H12.4636C12.0929 17.437 11.815 17.1688 11.815 16.8111C11.815 16.4981 12.0929 16.1852 12.4636 16.1852ZM12.4636 18.2865H14.8265C15.1972 18.2865 15.4752 18.5548 15.4752 18.9124C15.4752 19.2701 15.1972 19.5384 14.8265 19.5384H12.4636C12.0929 19.5384 11.815 19.2701 11.815 18.9124C11.815 18.5995 12.0929 18.2865 12.4636 18.2865Z" fill="#E09C3B"/>
<path d="M40.7257 7.06445H28.7257C28.6331 7.86922 27.9381 8.45044 27.1041 8.45044H18.6717C17.745 8.45044 17.0037 9.16579 17.0037 10.06V20.4326C17.0037 21.3267 16.2624 22.0421 15.3358 22.0421H7.32031V23.0257C10.4709 23.3387 12.9728 25.753 13.2971 28.7932H40.772C41.0964 25.753 43.5983 23.3387 46.7489 23.0257V12.7873C43.552 12.4743 41.0037 10.06 40.7257 7.06445ZM26.9651 26.1554C22.2392 26.1554 18.3937 22.4445 18.3937 17.8841C18.3937 13.3238 22.2392 9.61289 26.9651 9.61289C31.691 9.61289 35.5365 13.3238 35.5365 17.8841C35.5365 22.4445 31.691 26.1554 26.9651 26.1554ZM41.5134 19.5831H39.1504C38.7798 19.5831 38.5018 19.3148 38.5018 18.9571C38.5018 18.5995 38.7798 18.3312 39.1504 18.3312H41.5134C41.884 18.3312 42.162 18.5995 42.162 18.9571C42.162 19.2701 41.884 19.5831 41.5134 19.5831ZM41.5134 17.4817H39.1504C38.7798 17.4817 38.5018 17.2135 38.5018 16.8558C38.5018 16.4981 38.7798 16.2299 39.1504 16.2299H41.5134C41.884 16.2299 42.162 16.4981 42.162 16.8558C42.162 17.1688 41.884 17.4817 41.5134 17.4817Z" fill="#F4A343"/>
</g>
<defs>
<clipPath id="clip0">
<rect width="48" height="30" fill="white"/>
</clipPath>
</defs>
</svg>
