<svg width="20" height="20" viewBox="0 0 20 20" fill="none" xmlns="http://www.w3.org/2000/svg">
<g clip-path="url(#clip0)">
<path d="M18.125 0H4.37501C4.02953 0 3.75 0.279535 3.75 0.625007V2.49999H5.00001V1.25001H17.5V18.75H5.00001V17.5H3.75V19.375C3.75 19.7205 4.02953 20 4.37501 20H18.125C18.4705 20 18.75 19.7205 18.75 19.375V0.625007C18.75 0.279535 18.4705 0 18.125 0V0Z" fill="#33353D"/>
<path d="M7.4243 13.3086L8.30808 14.1924L12.5 10.0005L8.30808 5.80859L7.4243 6.69238L10.1074 9.37548H1.25V10.6255H10.1074L7.4243 13.3086Z" fill="#33353D"/>
</g>
<defs>
<clipPath id="clip0">
<rect width="20" height="20" fill="white"/>
</clipPath>
</defs>
</svg>
