<svg width="20" height="20" viewBox="0 0 20 20" fill="none" xmlns="http://www.w3.org/2000/svg">
<g clip-path="url(#clip0)">
<path d="M19.3346 4.58138C18.9354 4.16313 18.384 3.91598 17.7567 3.91598H14.6008V3.87796C14.6008 3.40267 14.4106 2.9464 14.0875 2.64221C13.7643 2.31902 13.327 2.12891 12.8517 2.12891H7.14829C6.65399 2.12891 6.21673 2.31902 5.89354 2.64221C5.57034 2.96541 5.38023 3.40267 5.38023 3.87796V3.91598H2.24335C1.61597 3.91598 1.06464 4.16313 0.665399 4.58138C0.26616 4.98062 0 5.55096 0 6.15932V15.627C0 16.2544 0.247148 16.8057 0.665399 17.205C1.06464 17.6042 1.63498 17.8703 2.24335 17.8703H17.7567C18.384 17.8703 18.9354 17.6232 19.3346 17.205C19.7338 16.8057 20 16.2354 20 15.627V6.15932C20 5.53195 19.7529 4.98062 19.3346 4.58138ZM19.0114 15.627H18.9924C18.9924 15.9692 18.8593 16.2734 18.6312 16.5015C18.403 16.7297 18.0989 16.8627 17.7567 16.8627H2.24335C1.90114 16.8627 1.59696 16.7297 1.36882 16.5015C1.14068 16.2734 1.0076 15.9692 1.0076 15.627V6.15932C1.0076 5.81712 1.14068 5.51294 1.36882 5.2848C1.59696 5.05666 1.90114 4.92358 2.24335 4.92358H5.91255C6.19772 4.92358 6.42586 4.69545 6.42586 4.41027V3.85894C6.42586 3.64982 6.5019 3.4597 6.63498 3.32662C6.76806 3.19354 6.95818 3.1175 7.1673 3.1175H12.8517C13.0608 3.1175 13.251 3.19354 13.384 3.32662C13.5171 3.4597 13.5932 3.64982 13.5932 3.85894V4.41027C13.5932 4.69545 13.8213 4.92358 14.1065 4.92358H17.7757C18.1179 4.92358 18.4221 5.05666 18.6502 5.2848C18.8783 5.51294 19.0114 5.81712 19.0114 6.15932V15.627Z" fill="#F4A343"/>
<path d="M10 6.2168C8.70727 6.2168 7.52857 6.74912 6.69206 7.58562C5.83655 8.44113 5.32324 9.60083 5.32324 10.8936C5.32324 12.1864 5.85556 13.3651 6.69206 14.2016C7.54758 15.0571 8.70727 15.5704 10 15.5704C11.2928 15.5704 12.4715 15.0381 13.308 14.2016C14.1635 13.3461 14.6769 12.1864 14.6769 10.8936C14.6769 9.60083 14.1445 8.42212 13.308 7.58562C12.4715 6.74912 11.2928 6.2168 10 6.2168ZM12.5856 13.4982C11.9202 14.1446 11.0077 14.5628 10 14.5628C8.99244 14.5628 8.0799 14.1446 7.4145 13.4982C6.7491 12.8328 6.34986 11.9202 6.34986 10.9126C6.34986 9.90501 6.76811 8.99246 7.4145 8.32706C8.0799 7.66166 8.99244 7.26243 10 7.26243C11.0077 7.26243 11.9202 7.68068 12.5856 8.32706C13.251 8.99246 13.6502 9.90501 13.6502 10.9126C13.6693 11.9202 13.251 12.8328 12.5856 13.4982Z" fill="#F4A343"/>
<path d="M16.7675 8.06038C17.282 8.06038 17.6991 7.64331 17.6991 7.12883C17.6991 6.61434 17.282 6.19727 16.7675 6.19727C16.253 6.19727 15.8359 6.61434 15.8359 7.12883C15.8359 7.64331 16.253 8.06038 16.7675 8.06038Z" fill="#F4A343"/>
</g>
<defs>
<clipPath id="clip0">
<rect width="20" height="20" fill="white"/>
</clipPath>
</defs>
</svg>
