<svg width="1267" height="328" viewBox="0 0 1267 328" fill="none" xmlns="http://www.w3.org/2000/svg">
<path d="M-43 327C-22.6 246.6 74.8333 175.167 121 149.5C205.956 114.41 418.874 41.784 590 126C761.126 210.216 987.561 186.59 1071 151.5C1114 138 1148.7 101.1 1207.5 59.5" stroke="#F4A343" stroke-dasharray="5 5"/>
<path d="M1214.39 32.1624L1222.88 35.8769L1247.33 22.5355L1232.58 39.7439L1253.73 49.3707C1254.09 49.5291 1254.48 49.598 1254.88 49.5718C1255.27 49.5455 1255.65 49.4248 1255.99 49.2198C1256.33 49.0149 1256.61 48.7317 1256.81 48.3942C1257.02 48.0568 1257.14 47.675 1257.17 47.2811L1259.62 10.4061C1259.65 9.97932 1259.57 9.55274 1259.38 9.16836C1259.19 8.78398 1258.91 8.45504 1258.55 8.21393C1258.2 7.97281 1257.79 7.82782 1257.36 7.79323C1256.94 7.75863 1256.51 7.83562 1256.12 8.01662L1214.33 27.6833C1213.9 27.8855 1213.55 28.206 1213.3 28.6065C1213.05 29.007 1212.92 29.4708 1212.92 29.9426C1212.93 30.4144 1213.07 30.8744 1213.33 31.2679C1213.59 31.6614 1213.96 31.9719 1214.39 32.1624ZM1227.67 54.4939L1239.41 48.8004L1227.67 43.3232V54.4939Z" fill="#F4A343"/>
</svg>
