<svg width="50" height="50" viewBox="0 0 50 50" fill="none" xmlns="http://www.w3.org/2000/svg">
<path fill-rule="evenodd" clip-rule="evenodd" d="M11.3643 31.25C11.3643 31.0428 11.4441 30.8441 11.5861 30.6976C11.7282 30.5511 11.9209 30.4688 12.1218 30.4688H19.6976C19.8985 30.4688 20.0912 30.5511 20.2333 30.6976C20.3754 30.8441 20.4552 31.0428 20.4552 31.25V39.0625C20.4552 39.2697 20.3754 39.4684 20.2333 39.6149C20.0912 39.7614 19.8985 39.8438 19.6976 39.8438C19.4967 39.8438 19.304 39.7614 19.1619 39.6149C19.0198 39.4684 18.94 39.2697 18.94 39.0625V32.0312H12.1218C11.9209 32.0312 11.7282 31.9489 11.5861 31.8024C11.4441 31.6559 11.3643 31.4572 11.3643 31.25Z" fill="#F4A343"/>
<path fill-rule="evenodd" clip-rule="evenodd" d="M20.234 30.6963C20.3045 30.7689 20.3605 30.8551 20.3987 30.95C20.4369 31.0449 20.4566 31.1467 20.4566 31.2494C20.4566 31.3522 20.4369 31.454 20.3987 31.5489C20.3605 31.6438 20.3045 31.73 20.234 31.8026L6.59763 45.8651C6.45538 46.0118 6.26244 46.0942 6.06127 46.0942C5.86009 46.0942 5.66716 46.0118 5.5249 45.8651C5.38265 45.7184 5.30273 45.5194 5.30273 45.3119C5.30273 45.1045 5.38265 44.9055 5.5249 44.7588L19.1613 30.6963C19.2316 30.6236 19.3152 30.5658 19.4073 30.5265C19.4993 30.4871 19.598 30.4668 19.6976 30.4668C19.7973 30.4668 19.8959 30.4871 19.988 30.5265C20.08 30.5658 20.1636 30.6236 20.234 30.6963Z" fill="#F4A343"/>
<path fill-rule="evenodd" clip-rule="evenodd" d="M38.6367 18.75C38.6367 18.9572 38.5569 19.1559 38.4148 19.3024C38.2728 19.4489 38.0801 19.5313 37.8791 19.5313L30.3034 19.5313C30.1025 19.5313 29.9098 19.4489 29.7677 19.3024C29.6256 19.1559 29.5458 18.9572 29.5458 18.75L29.5458 10.9375C29.5458 10.7303 29.6256 10.5316 29.7677 10.3851C29.9098 10.2386 30.1025 10.1562 30.3034 10.1562C30.5043 10.1562 30.697 10.2386 30.8391 10.3851C30.9811 10.5316 31.061 10.7303 31.061 10.9375L31.061 17.9688L37.8791 17.9687C38.0801 17.9687 38.2728 18.0511 38.4148 18.1976C38.5569 18.3441 38.6367 18.5428 38.6367 18.75Z" fill="#F4A343"/>
<path fill-rule="evenodd" clip-rule="evenodd" d="M29.767 19.3037C29.6964 19.2311 29.6405 19.1449 29.6023 19.05C29.5641 18.9551 29.5444 18.8533 29.5444 18.7506C29.5444 18.6478 29.5641 18.546 29.6023 18.4511C29.6405 18.3562 29.6964 18.27 29.767 18.1974L43.4033 4.13493C43.5456 3.98824 43.7385 3.90582 43.9397 3.90582C44.1409 3.90582 44.3338 3.98824 44.4761 4.13493C44.6183 4.28163 44.6982 4.4806 44.6982 4.68806C44.6982 4.89552 44.6183 5.09449 44.4761 5.24118L30.8397 19.3037C30.7693 19.3764 30.6857 19.4342 30.5937 19.4735C30.5017 19.5129 30.403 19.5332 30.3033 19.5332C30.2037 19.5332 30.105 19.5129 30.013 19.4735C29.921 19.4342 29.8374 19.3764 29.767 19.3037Z" fill="#F4A343"/>
<path fill-rule="evenodd" clip-rule="evenodd" d="M29.5449 31.248C29.5449 31.0408 29.6247 30.8421 29.7668 30.6956C29.9089 30.5491 30.1016 30.4668 30.3025 30.4668H37.8783C38.0792 30.4668 38.2719 30.5491 38.4139 30.6956C38.556 30.8421 38.6358 31.0408 38.6358 31.248C38.6358 31.4552 38.556 31.654 38.4139 31.8005C38.2719 31.947 38.0792 32.0293 37.8783 32.0293H31.0601V39.0605C31.0601 39.2677 30.9803 39.4665 30.8382 39.613C30.6961 39.7595 30.5034 39.8418 30.3025 39.8418C30.1016 39.8418 29.9089 39.7595 29.7668 39.613C29.6247 39.4665 29.5449 39.2677 29.5449 39.0605V31.248Z" fill="#F4A343"/>
<path fill-rule="evenodd" clip-rule="evenodd" d="M29.7665 30.6963C29.8369 30.6236 29.9205 30.5658 30.0125 30.5265C30.1046 30.4871 30.2032 30.4668 30.3029 30.4668C30.4025 30.4668 30.5012 30.4871 30.5932 30.5265C30.6853 30.5658 30.7689 30.6236 30.8392 30.6963L44.4756 44.7588C44.6179 44.9055 44.6978 45.1045 44.6978 45.3119C44.6978 45.5194 44.6179 45.7184 44.4756 45.8651C44.3333 46.0118 44.1404 46.0942 43.9392 46.0942C43.7381 46.0942 43.5451 46.0118 43.4029 45.8651L29.7665 31.8026C29.696 31.73 29.64 31.6438 29.6018 31.5489C29.5636 31.454 29.5439 31.3522 29.5439 31.2494C29.5439 31.1467 29.5636 31.0449 29.6018 30.95C29.64 30.8551 29.696 30.7689 29.7665 30.6963Z" fill="#F4A343"/>
<path fill-rule="evenodd" clip-rule="evenodd" d="M20.4551 18.752C20.4551 18.9592 20.3753 19.1579 20.2332 19.3044C20.0911 19.4509 19.8984 19.5332 19.6975 19.5332L12.1217 19.5332C11.9208 19.5332 11.7281 19.4509 11.5861 19.3044C11.444 19.1579 11.3642 18.9592 11.3642 18.752C11.3642 18.5448 11.444 18.346 11.5861 18.1995C11.7281 18.053 11.9208 17.9707 12.1217 17.9707L18.9399 17.9707L18.9399 10.9395C18.9399 10.7323 19.0197 10.5335 19.1618 10.387C19.3039 10.2405 19.4966 10.1582 19.6975 10.1582C19.8984 10.1582 20.0911 10.2405 20.2332 10.387C20.3753 10.5335 20.4551 10.7323 20.4551 10.9395L20.4551 18.752Z" fill="#F4A343"/>
<path fill-rule="evenodd" clip-rule="evenodd" d="M20.2335 19.3037C20.1631 19.3764 20.0795 19.4342 19.9875 19.4735C19.8954 19.5129 19.7968 19.5332 19.6971 19.5332C19.5975 19.5332 19.4988 19.5129 19.4068 19.4735C19.3147 19.4342 19.2311 19.3764 19.1608 19.3037L5.5244 5.24119C5.38215 5.09449 5.30223 4.89552 5.30223 4.68806C5.30223 4.4806 5.38215 4.28163 5.5244 4.13494C5.66665 3.98824 5.85959 3.90582 6.06076 3.90582C6.26194 3.90582 6.45487 3.98824 6.59712 4.13494L20.2335 18.1974C20.304 18.27 20.36 18.3562 20.3982 18.4511C20.4364 18.546 20.4561 18.6478 20.4561 18.7506C20.4561 18.8533 20.4364 18.9551 20.3982 19.05C20.36 19.1449 20.304 19.2311 20.2335 19.3037Z" fill="#F4A343"/>
</svg>
