<svg width="50" height="50" viewBox="0 0 50 50" fill="none" xmlns="http://www.w3.org/2000/svg">
<g clip-path="url(#clip0)">
<path d="M30.8333 29.166H29.9167C29.5719 29.1666 29.2634 28.9515 29.145 28.6277C29.0433 28.361 28.9342 28.1002 28.8167 27.8418C28.6706 27.5277 28.7373 27.1557 28.9833 26.9118L29.6367 26.2577C30.6066 25.2792 30.6048 23.7013 29.6325 22.7252L27.2775 20.3702C26.3001 19.3985 24.7216 19.3985 23.7442 20.3702L23.0908 21.0227C22.8465 21.2678 22.4751 21.3343 22.1608 21.1893C21.9025 21.0718 21.6417 20.9627 21.3742 20.856C21.0486 20.7384 20.8321 20.4288 20.8333 20.0827V19.166C20.8333 17.7853 19.7141 16.666 18.3333 16.666H15C13.6193 16.666 12.5 17.7853 12.5 19.166V20.0827C12.5006 20.4275 12.2855 20.7359 11.9617 20.8543C11.695 20.956 11.4342 21.0652 11.1758 21.1827C10.8616 21.328 10.4901 21.2614 10.2458 21.016L9.59167 20.3627C8.61438 19.3916 7.03646 19.3916 6.05917 20.3627L3.70417 22.7252C2.7325 23.7026 2.7325 25.2811 3.70417 26.2585L4.35667 26.9118C4.60271 27.1557 4.66938 27.5277 4.52333 27.8418C4.40583 28.1002 4.29667 28.361 4.19417 28.6285C4.0749 28.9542 3.76354 29.1696 3.41667 29.166H2.5C1.11927 29.166 0 30.2853 0 31.666V34.9993C0 36.3801 1.11927 37.4993 2.5 37.4993H3.41667C3.76146 37.4987 4.0699 37.7138 4.18833 38.0377C4.29 38.3043 4.39917 38.5652 4.51667 38.8235C4.66271 39.1377 4.59604 39.5097 4.35 39.7535L3.69667 40.4077C2.72563 41.385 2.72563 42.9629 3.69667 43.9402L6.05167 46.2952C7.02906 47.2669 8.6076 47.2669 9.585 46.2952L10.2383 45.6427C10.4827 45.3976 10.8541 45.331 11.1683 45.476C11.4267 45.5935 11.6875 45.7027 11.955 45.8094C12.2822 45.9256 12.5006 46.2355 12.5 46.5827V47.4993C12.5 48.8801 13.6193 49.9994 15 49.9994H18.3333C19.7141 49.9994 20.8333 48.8801 20.8333 47.4993V46.5827C20.8327 46.2379 21.0478 45.9295 21.3717 45.811C21.6383 45.7093 21.8992 45.6002 22.1575 45.4827C22.4718 45.3374 22.8432 45.4039 23.0875 45.6493L23.7417 46.3027C24.7203 47.2722 26.2978 47.2703 27.2742 46.2985L29.6292 43.9435C30.6008 42.9661 30.6008 41.3876 29.6292 40.4102L28.9767 39.7568C28.7306 39.513 28.664 39.141 28.81 38.8268C28.9275 38.5685 29.0367 38.3077 29.1433 38.0402C29.2609 37.7147 29.5705 37.4981 29.9167 37.4993H30.8333C32.2141 37.4993 33.3333 36.3801 33.3333 34.9993V31.666C33.3333 30.2853 32.2141 29.166 30.8333 29.166ZM31.6667 34.9993C31.6667 35.4596 31.2935 35.8327 30.8333 35.8327H29.9167C28.8807 35.8365 27.9536 36.4768 27.5833 37.4443C27.495 37.6777 27.3995 37.9074 27.2967 38.1335C26.8682 39.0794 27.067 40.1914 27.7967 40.9302L28.4483 41.5827C28.774 41.9079 28.7743 42.4356 28.449 42.7612C28.4487 42.7614 28.4485 42.7616 28.4483 42.7618L26.0933 45.1168C25.7679 45.4422 25.2404 45.4422 24.915 45.1168L24.2617 44.4644C23.5232 43.734 22.4107 43.5352 21.465 43.9643C21.2392 44.0669 21.0092 44.1627 20.7775 44.251C19.8107 44.6212 19.1708 45.5475 19.1667 46.5827V47.4993C19.1667 47.9596 18.7935 48.3327 18.3333 48.3327H15C14.5398 48.3327 14.1667 47.9596 14.1667 47.4993V46.5827C14.1628 45.5467 13.5225 44.6197 12.555 44.2493C12.3217 44.161 12.092 44.0655 11.8658 43.9627C10.92 43.5345 9.80802 43.7333 9.06917 44.4627L8.41667 45.1144C8.09146 45.44 7.56375 45.4403 7.23813 45.115C7.23792 45.1148 7.23771 45.1146 7.2375 45.1144L4.8825 42.7618C4.55719 42.4364 4.55719 41.9089 4.8825 41.5835L5.535 40.9302C6.26469 40.1914 6.46344 39.0794 6.035 38.1335C5.9325 37.9077 5.83667 37.6777 5.74833 37.446C5.37896 36.4782 4.4525 35.8373 3.41667 35.8327H2.5C2.03979 35.8327 1.66667 35.4596 1.66667 34.9993V31.666C1.66667 31.2058 2.03979 30.8327 2.5 30.8327H3.41667C4.4526 30.8288 5.37969 30.1885 5.75 29.221C5.83833 28.9877 5.93385 28.758 6.03667 28.5318C6.4651 27.586 6.26625 26.4739 5.53667 25.7352L4.88167 25.0827C4.55604 24.7575 4.55573 24.2298 4.88104 23.9041C4.88125 23.9039 4.88146 23.9037 4.88167 23.9035L7.23667 21.5485C7.56208 21.2232 8.08958 21.2232 8.415 21.5485L9.06833 22.201C9.80677 22.9313 10.9193 23.1302 11.865 22.701C12.0908 22.5985 12.3208 22.5027 12.5525 22.4144C13.5206 22.0453 14.162 21.1187 14.1667 20.0827V19.166C14.1667 18.7058 14.5398 18.3327 15 18.3327H18.3333C18.7935 18.3327 19.1667 18.7058 19.1667 19.166V20.0827C19.1705 21.1186 19.8108 22.0457 20.7783 22.416C21.0117 22.5043 21.2414 22.5999 21.4675 22.7027C22.4132 23.1318 23.5257 22.933 24.2642 22.2027L24.9167 21.551C25.2433 21.2279 25.7692 21.2279 26.0958 21.551L28.4508 23.906C28.7761 24.2314 28.7761 24.7589 28.4508 25.0843L27.7983 25.7377C27.0688 26.4764 26.8699 27.5885 27.2983 28.5344C27.4008 28.7602 27.4967 28.9902 27.585 29.2219C27.9552 30.1886 28.8815 30.8285 29.9167 30.8327H30.8333C31.2935 30.8327 31.6667 31.2058 31.6667 31.666V34.9993Z" fill="#F4A343"/>
<path d="M24.1498 33.0007C24.1414 32.8007 24.1273 32.6015 24.1031 32.4032C24.0764 32.1898 24.0448 31.9782 24.0006 31.7707C23.9714 31.6348 23.9331 31.5007 23.8964 31.3657C23.8498 31.194 23.7973 31.0248 23.7389 30.8582C23.6981 30.7423 23.6556 30.6273 23.6123 30.5132C23.505 30.2463 23.3823 29.9858 23.2448 29.7332C23.2339 29.714 23.2273 29.6932 23.2164 29.674C22.9997 29.2882 22.7486 28.9224 22.4664 28.5815C22.4423 28.5515 22.4148 28.5232 22.3898 28.494C22.2748 28.3582 22.1564 28.2265 22.0323 28.1007C21.9673 28.0332 21.8989 27.9698 21.8306 27.9048C21.7473 27.8273 21.6639 27.7507 21.5806 27.6773C21.4795 27.5895 21.3764 27.5045 21.2714 27.4223L21.1348 27.3207C19.8453 26.3548 18.2775 25.8332 16.6664 25.834C16.5831 25.834 16.4998 25.8465 16.4164 25.8498C16.2389 25.8548 16.0606 25.8648 15.8814 25.8832C15.7873 25.8932 15.6923 25.904 15.5981 25.9173C15.3264 25.953 15.0568 26.0035 14.7906 26.0682C10.778 27.105 8.3657 31.1986 9.40258 35.2112C10.0859 37.8553 12.1517 39.9195 14.7964 40.6007C14.8098 40.6007 14.8239 40.6048 14.8381 40.6082C15.1259 40.6799 15.4175 40.7357 15.7114 40.7748C15.9056 40.799 16.0998 40.804 16.2948 40.8132C16.4248 40.8198 16.5448 40.839 16.6806 40.839C16.9181 40.839 17.1648 40.8232 17.4164 40.7982C17.4431 40.7982 17.4698 40.7907 17.4998 40.7873C17.7023 40.7648 17.9073 40.7348 18.1164 40.6932C18.1998 40.6773 18.2773 40.6565 18.3573 40.6382C18.5039 40.604 18.6498 40.5682 18.7998 40.524C18.9164 40.489 19.0298 40.4482 19.1439 40.4082C19.2581 40.3682 19.3764 40.3248 19.4948 40.2798C19.6131 40.2348 19.7123 40.1832 19.8198 40.1332C19.9598 40.069 20.0989 40.0057 20.2364 39.9307H20.2414C21.0191 39.5143 21.7375 38.9956 22.3773 38.3882C22.5501 38.2269 22.7004 38.043 22.8239 37.8415C23.4743 36.7988 23.9016 35.6326 24.0789 34.4165C24.1023 34.2557 24.1231 34.0948 24.1356 33.9307C24.1473 33.7798 24.1556 33.6298 24.1589 33.4798C24.1589 33.4323 24.1656 33.3873 24.1656 33.3398C24.1664 33.2223 24.1548 33.114 24.1498 33.0007ZM22.4889 33.5465C22.4889 33.6157 22.4831 33.6848 22.4789 33.7532C22.4639 33.9548 22.4381 34.1565 22.4039 34.359C22.0925 36.0916 21.0167 37.5916 19.4756 38.4423C19.3723 38.4965 19.2706 38.5473 19.1689 38.594L19.0998 38.6273C18.6156 38.8471 18.1046 39.0018 17.5798 39.0873C17.5431 39.0932 17.5056 39.0998 17.4681 39.1048C17.3639 39.1198 17.2614 39.1323 17.1598 39.1415C17.0256 39.1532 16.8906 39.1598 16.7531 39.1623C16.6948 39.1623 16.6373 39.1623 16.5789 39.1623C16.3817 39.16 16.1849 39.1479 15.9889 39.1257L15.8889 39.114C15.6598 39.084 15.4325 39.0412 15.2081 38.9857C12.0871 38.1868 10.2046 35.0091 11.0033 31.8881C11.5311 29.8258 13.1405 28.2147 15.2023 27.6848V27.684C15.681 27.5633 16.1727 27.5016 16.6664 27.5007C16.9047 27.502 17.1427 27.5182 17.3789 27.549C17.4423 27.5565 17.5048 27.5682 17.5673 27.5773C17.7473 27.6057 17.9256 27.6415 18.1014 27.6865C18.1589 27.7015 18.2164 27.7148 18.2731 27.7307C18.7162 27.8586 19.1428 28.0382 19.5439 28.2657C19.6081 28.3032 19.6706 28.3423 19.7339 28.3815C19.8656 28.4648 19.9931 28.5482 20.1189 28.6432C20.1864 28.6923 20.2548 28.7407 20.3198 28.7932C20.4833 28.9238 20.6399 29.0628 20.7889 29.2098C20.8481 29.2698 20.9023 29.3357 20.9598 29.3982C21.0556 29.5023 21.1489 29.609 21.2381 29.7215C21.2998 29.799 21.3589 29.879 21.4173 29.9598C21.5006 30.0798 21.5839 30.2048 21.6589 30.3315C21.7006 30.4007 21.7423 30.4682 21.7848 30.539C21.8923 30.7368 21.988 30.9408 22.0714 31.1498C22.1048 31.2332 22.1331 31.3165 22.1631 31.3998C22.2173 31.5532 22.2639 31.7082 22.3048 31.8648C22.3256 31.9482 22.3489 32.0223 22.3664 32.1032C22.4151 32.3284 22.4504 32.5563 22.4723 32.7857C22.4773 32.8465 22.4773 32.9082 22.4814 32.969C22.4931 33.1607 22.4964 33.3532 22.4889 33.5465Z" fill="#F4A343"/>
<path d="M47.5001 17.5H44.8793C44.5298 17.5035 44.2172 17.2834 44.1026 16.9533C43.8442 16.1793 43.5315 15.4243 43.1668 14.6942C43.012 14.3789 43.0765 13.9998 43.3268 13.7533L45.1851 11.8925C46.1605 10.9164 46.1605 9.33448 45.1851 8.35833L41.6418 4.82083C40.6656 3.84542 39.0838 3.84542 38.1076 4.82083L36.2501 6.6775C36.004 6.92771 35.6254 6.9925 35.3101 6.83833C34.5799 6.47177 33.8247 6.1574 33.0501 5.8975C32.7187 5.78406 32.497 5.47115 32.5001 5.12083V2.5C32.5001 1.11927 31.3809 0 30.0001 0H25.0001C23.6194 0 22.5001 1.11927 22.5001 2.5V5.12083C22.5037 5.47031 22.2837 5.78292 21.9535 5.8975C21.1793 6.15729 20.4243 6.47146 19.6943 6.8375C19.379 6.99281 18.9997 6.92833 18.7535 6.6775L16.8926 4.81917C15.9153 3.84656 14.3358 3.84656 13.3585 4.81917L9.8218 8.35583C8.84586 9.33208 8.84586 10.9146 9.8218 11.8908L12.5543 14.6283C12.8848 14.9485 13.4124 14.9402 13.7326 14.6096C14.045 14.2871 14.0458 13.775 13.7343 13.4517L11.0001 10.715C10.6748 10.3896 10.6748 9.86208 11.0001 9.53667L14.5368 6C14.8622 5.67469 15.3897 5.67469 15.7151 6L17.5768 7.85833C18.33 8.61604 19.4842 8.80542 20.4401 8.32833C21.1002 7.99781 21.7827 7.71406 22.4826 7.47917C23.4928 7.13719 24.1712 6.1874 24.1668 5.12083V2.5C24.1668 2.03979 24.5399 1.66667 25.0001 1.66667H30.0001C30.4603 1.66667 30.8335 2.03979 30.8335 2.5V5.12083C30.8292 6.18719 31.5075 7.13667 32.5176 7.47833C33.2178 7.71333 33.9006 7.99729 34.561 8.32833C35.5171 8.80292 36.6697 8.61333 37.4235 7.8575L39.2851 6C39.6105 5.67469 40.138 5.67469 40.4635 6L44.0001 9.5375C44.3249 9.86281 44.3249 10.3897 44.0001 10.715L42.1418 12.5767C41.3848 13.3303 41.1955 14.484 41.6718 15.44C42.0023 16.1001 42.2861 16.7826 42.521 17.4825C42.8627 18.4929 43.8126 19.1713 44.8793 19.1667H47.5001C47.9603 19.1667 48.3335 19.5398 48.3335 20V25C48.3335 25.4602 47.9603 25.8333 47.5001 25.8333H44.8793C43.8129 25.8291 42.8635 26.5074 42.5218 27.5175C42.2869 28.2177 42.0028 28.9005 41.6718 29.5608C41.1964 30.5169 41.3861 31.6699 42.1426 32.4233L44.001 34.285C44.3263 34.6104 44.3263 35.1379 44.001 35.4633L40.4626 39C40.1373 39.3248 39.6104 39.3248 39.2851 39L36.5468 36.2675C36.2266 35.9369 35.699 35.9285 35.3685 36.2488C35.0378 36.569 35.0295 37.0966 35.3497 37.4271C35.3564 37.434 35.3633 37.4408 35.3701 37.4475L38.1076 40.18C39.0838 41.1554 40.6656 41.1554 41.6418 40.18L45.1785 36.6442C46.1544 35.6679 46.1544 34.0854 45.1785 33.1092L43.3226 31.25C43.0726 31.0038 43.0079 30.6253 43.1618 30.31C43.5284 29.5798 43.8427 28.8246 44.1026 28.05C44.2161 27.7185 44.529 27.4969 44.8793 27.5H47.5001C48.8809 27.5 50.0001 26.3807 50.0001 25V20C50.0001 18.6193 48.8809 17.5 47.5001 17.5Z" fill="#F4A343"/>
<path d="M35.1603 14.8401C30.9272 10.6158 24.0735 10.6158 19.8403 14.8401C19.5206 15.1711 19.5298 15.6987 19.8609 16.0184C20.1838 16.3303 20.6958 16.3303 21.0187 16.0184C24.5744 12.4147 30.3783 12.3758 33.982 15.9315C37.5858 19.4873 37.6246 25.2911 34.0689 28.8949C34.0401 28.924 34.0112 28.953 33.982 28.9817C33.651 29.3015 33.6418 29.829 33.9616 30.1601C34.2814 30.4911 34.8089 30.5003 35.1399 30.1805C35.1468 30.1738 35.1537 30.167 35.1603 30.1601C39.3846 25.927 39.3846 19.0732 35.1603 14.8401Z" fill="#F4A343"/>
</g>
<defs>
<clipPath id="clip0">
<rect width="50" height="50" fill="white"/>
</clipPath>
</defs>
</svg>
