<svg width="50" height="50" viewBox="0 0 50 50" fill="none" xmlns="http://www.w3.org/2000/svg">
<path d="M48.1977 43.2415L46.6547 37.4411C46.6199 37.3104 46.5471 37.1931 46.4456 37.1038C46.3441 37.0145 46.2184 36.9573 46.0844 36.9394C45.9503 36.9215 45.814 36.9437 45.6927 37.0033C45.5713 37.0628 45.4703 37.157 45.4024 37.2739L43.6156 40.3563L39.1492 37.7391V22.5473C39.1484 22.5106 39.1447 22.4741 39.1383 22.4379C39.1435 22.4103 39.1472 22.3824 39.1492 22.3543C39.1494 22.235 39.1182 22.1178 39.0588 22.0143C38.9995 21.9108 38.914 21.8246 38.811 21.7645L25.684 14.0743V8.90825H29.2446C29.3797 8.90811 29.5118 8.8679 29.6241 8.7927C29.7364 8.7175 29.8239 8.61069 29.8756 8.48578C29.9272 8.36086 29.9406 8.22344 29.9142 8.09089C29.8877 7.95833 29.8226 7.8366 29.727 7.74107L25.4836 3.49692C25.3554 3.36883 25.1816 3.29688 25.0004 3.29688C24.8192 3.29688 24.6454 3.36883 24.5172 3.49692L20.2739 7.74107C20.1782 7.83665 20.113 7.95845 20.0866 8.09108C20.0602 8.22371 20.0737 8.36119 20.1254 8.48614C20.1771 8.61109 20.2647 8.71789 20.3772 8.79302C20.4896 8.86816 20.6218 8.90826 20.7571 8.90825H24.3168V14.0743L11.1899 21.7645C11.0869 21.8247 11.0015 21.9109 10.9421 22.0144C10.8828 22.1178 10.8516 22.2351 10.8516 22.3543C10.8536 22.3824 10.8574 22.4103 10.8629 22.4379C10.8561 22.474 10.8524 22.5106 10.8516 22.5473V37.7383L6.38557 40.3555L4.59846 37.2727C4.53057 37.1558 4.42955 37.0616 4.30817 37.0021C4.18678 36.9426 4.05048 36.9203 3.91648 36.9382C3.78247 36.9561 3.65677 37.0133 3.55526 37.1026C3.45374 37.1919 3.38097 37.3093 3.34612 37.4399L1.80315 43.2415C1.75666 43.4167 1.78164 43.6033 1.8726 43.7602C1.96357 43.9171 2.11308 44.0315 2.2883 44.0782L8.08909 45.6211C8.21973 45.6558 8.35771 45.651 8.48561 45.6073C8.6135 45.5635 8.72556 45.4829 8.80763 45.3755C8.88969 45.2681 8.93808 45.1388 8.94666 45.0039C8.95525 44.869 8.92366 44.7346 8.85588 44.6176L7.07073 41.5376L11.5348 38.9223L24.6543 46.6079C24.6621 46.6126 24.6711 46.6141 24.6789 46.6184C24.7164 46.6384 24.7556 46.6548 24.7961 46.6676C24.8098 46.6719 24.8231 46.677 24.8371 46.6805C24.9433 46.7092 25.0552 46.7092 25.1614 46.6805C25.1754 46.677 25.1887 46.6719 25.2004 46.6676C25.2409 46.6548 25.2801 46.6384 25.3176 46.6184C25.3254 46.6141 25.3344 46.6126 25.3422 46.6079L38.4656 38.9223L42.9297 41.5395L41.1449 44.618C41.0847 44.7219 41.0529 44.8399 41.0527 44.96C41.0525 45.0801 41.084 45.1982 41.1439 45.3022C41.2039 45.4063 41.2902 45.4928 41.3942 45.5529C41.4982 45.613 41.6162 45.6446 41.7364 45.6446C41.7957 45.6444 41.8548 45.6367 41.9121 45.6215L47.7129 44.0786C47.8881 44.0318 48.0376 43.9173 48.1285 43.7603C48.2194 43.6034 48.2443 43.4167 48.1977 43.2415ZM25.0004 4.94692L27.5946 7.54107H22.4063L25.0004 4.94692ZM3.30041 42.9313L4.24338 39.3864L6.84534 43.8743L3.30041 42.9313ZM25.0004 15.2583L37.1133 22.3543L25.0004 29.4501L12.8879 22.3543L25.0004 15.2583ZM12.2188 23.5469L24.3168 30.634V44.8254L12.2188 37.7383V23.5469ZM25.684 44.8254V30.634L37.7821 23.5469V37.7383L25.684 44.8254ZM43.1555 43.8743L45.7574 39.3864L46.7008 42.9313L43.1555 43.8743Z" fill="#F4A343"/>
</svg>
