<svg width="50" height="50" viewBox="0 0 50 50" fill="none" xmlns="http://www.w3.org/2000/svg">
<path d="M28.3808 8.31693V5.64961H34.0304C34.9163 5.64961 35.6446 4.92126 35.6446 4.03543V1.61417C35.6446 0.728346 34.9163 0 34.0304 0H16.2844C15.3986 0 14.6702 0.728346 14.6702 1.61417V4.03543C14.6702 4.92126 15.3986 5.64961 16.2844 5.64961H21.934V8.31693C18.0757 8.91732 14.5718 10.5709 11.7076 12.9724L9.2273 10.4921L10.0049 9.71457L8.86313 8.56299L3.88281 13.5433L5.02454 14.685L5.8021 13.9075L8.371 16.4764C5.74305 19.9803 4.18793 24.3307 4.18793 29.0354C4.18793 40.6004 13.5974 50 25.1525 50C36.7076 50 46.1171 40.5905 46.1171 29.0354C46.1269 18.563 38.4202 9.87205 28.3808 8.31693ZM16.2844 4.03543V1.61417H34.0304V4.03543H16.2844ZM26.7765 5.64961V8.13976C26.245 8.10039 25.7037 8.07087 25.1623 8.07087C24.621 8.07087 24.0797 8.10039 23.5482 8.13976V5.64961H26.7765ZM6.94384 12.7657L8.08557 11.624L10.5068 14.0453C10.123 14.4193 9.74895 14.813 9.39462 15.2165L6.94384 12.7657ZM25.1525 48.3858C14.4832 48.3858 5.8021 39.7047 5.8021 29.0354C5.8021 18.3661 14.4832 9.68504 25.1525 9.68504C35.8218 9.68504 44.5127 18.3563 44.5127 29.0354C44.5127 39.7146 35.8316 48.3858 25.1525 48.3858Z" fill="#F4A343"/>
<path d="M25.1524 12.9043C16.2548 12.9043 9.02051 20.1385 9.02051 29.0362C9.02051 37.9338 16.2548 45.1681 25.1524 45.1681C34.05 45.1681 41.2843 37.924 41.2843 29.0362C41.2843 20.1385 34.05 12.9043 25.1524 12.9043ZM25.1524 43.5441C17.1504 43.5441 10.6347 37.0283 10.6347 29.0263C10.6347 21.0244 17.1504 14.5086 25.1524 14.5086C33.1544 14.5086 39.6701 21.0244 39.6701 29.0362C39.6701 37.048 33.1642 43.5441 25.1524 43.5441Z" fill="#F4A343"/>
<path d="M25.9592 25.9257V16.9395H24.345V25.9257C23.2131 26.2209 22.3372 27.1068 22.0419 28.2288H13.0557V29.843H22.0419C22.4061 31.2308 23.6561 32.2643 25.1521 32.2643C26.9336 32.2643 28.3805 30.8174 28.3805 29.0359C28.3805 27.53 27.347 26.28 25.9592 25.9257ZM25.1521 30.6402C24.2663 30.6402 23.5379 29.9217 23.5379 29.0261C23.5379 28.1402 24.2663 27.4119 25.1521 27.4119C26.0379 27.4119 26.7663 28.1402 26.7663 29.0261C26.7663 29.9217 26.0478 30.6402 25.1521 30.6402Z" fill="#F4A343"/>
</svg>
