<svg width="30" height="30" viewBox="0 0 30 30" fill="none" xmlns="http://www.w3.org/2000/svg">
<rect width="30" height="30" rx="5" fill="#F4A343"/>
<path d="M14.9199 9.98438C14.4255 9.98437 13.9421 10.131 13.531 10.4057C13.1199 10.6804 12.7994 11.0709 12.6102 11.5277C12.421 11.9845 12.3715 12.4871 12.468 12.9721C12.5644 13.4571 12.8025 13.9025 13.1522 14.2521C13.5018 14.6018 13.9472 14.8399 14.4322 14.9363C14.9171 15.0328 15.4198 14.9833 15.8766 14.7941C16.3334 14.6049 16.7239 14.2844 16.9986 13.8733C17.2733 13.4622 17.4199 12.9788 17.4199 12.4844C17.4192 11.8216 17.1555 11.1861 16.6869 10.7174C16.2182 10.2488 15.5827 9.98513 14.9199 9.98438ZM14.9199 13.7344C14.6727 13.7344 14.431 13.6611 14.2255 13.5237C14.0199 13.3864 13.8597 13.1911 13.7651 12.9627C13.6705 12.7343 13.6457 12.483 13.6939 12.2405C13.7422 11.998 13.8612 11.7753 14.036 11.6005C14.2109 11.4257 14.4336 11.3066 14.6761 11.2584C14.9185 11.2102 15.1699 11.2349 15.3983 11.3295C15.6267 11.4241 15.8219 11.5844 15.9593 11.7899C16.0966 11.9955 16.1699 12.2371 16.1699 12.4844C16.1695 12.8158 16.0377 13.1335 15.8034 13.3678C15.569 13.6022 15.2513 13.734 14.9199 13.7344Z" fill="white"/>
<path d="M19.7222 7.67676C18.5344 6.48928 16.9489 5.78387 15.2716 5.69667C13.5943 5.60947 11.9441 6.14667 10.6396 7.20459C9.33508 8.2625 8.46867 9.76614 8.2076 11.4253C7.94652 13.0844 8.30929 14.7815 9.22587 16.1889L13.9488 23.4394C14.0539 23.6008 14.1976 23.7333 14.3669 23.8251C14.5362 23.9168 14.7257 23.9649 14.9182 23.9649C15.1108 23.9649 15.3003 23.9168 15.4696 23.8251C15.6389 23.7333 15.7826 23.6008 15.8877 23.4394L20.6108 16.1889C21.4612 14.8833 21.8371 13.3251 21.6753 11.7753C21.5136 10.2256 20.824 8.77855 19.7222 7.67676ZM19.5634 15.5066L14.9183 22.6375L10.2731 15.5066C8.85118 13.3238 9.15614 10.4027 10.9982 8.56063C11.513 8.04583 12.1241 7.63747 12.7967 7.35886C13.4693 7.08025 14.1902 6.93685 14.9183 6.93685C15.6463 6.93685 16.3672 7.08025 17.0398 7.35886C17.7124 7.63747 18.3235 8.04583 18.8383 8.56063C20.6804 10.4027 20.9853 13.3238 19.5634 15.5066Z" fill="white"/>
</svg>
