<svg width="11" height="14" viewBox="0 0 11 14" fill="none" xmlns="http://www.w3.org/2000/svg">
<path d="M5.88387 1C6.36881 1 6.84286 1.14662 7.24608 1.42133C7.6493 1.69603 7.96357 2.08648 8.14915 2.54329C8.33473 3.00011 8.38328 3.50277 8.28868 3.98773C8.19407 4.47268 7.96054 4.91814 7.61764 5.26777C7.27473 5.6174 6.83784 5.8555 6.36221 5.95196C5.88659 6.04843 5.39359 5.99892 4.94556 5.8097C4.49753 5.62048 4.11459 5.30005 3.84517 4.88893C3.57575 4.4778 3.43194 3.99445 3.43194 3.5C3.43194 2.83696 3.69027 2.20107 4.15009 1.73223C4.60992 1.26339 5.23358 1 5.88387 1ZM5.88387 0C5.20494 0 4.54127 0.205271 3.97676 0.589856C3.41226 0.974441 2.97228 1.52107 2.71247 2.16061C2.45266 2.80015 2.38468 3.50388 2.51713 4.18282C2.64958 4.86175 2.97652 5.48539 3.45659 5.97487C3.93666 6.46436 4.5483 6.7977 5.21418 6.93275C5.88006 7.0678 6.57026 6.99848 7.1975 6.73358C7.82474 6.46867 8.36086 6.02007 8.73805 5.4445C9.11523 4.86892 9.31656 4.19223 9.31656 3.5C9.31656 2.57174 8.9549 1.6815 8.31115 1.02513C7.66739 0.368749 6.79427 0 5.88387 0Z" fill="black"/>
<path d="M10.7882 14H9.80739V11.5C9.80739 10.837 9.54907 10.2011 9.08924 9.73223C8.62942 9.26339 8.00576 9 7.35547 9H4.41316C3.76287 9 3.13921 9.26339 2.67939 9.73223C2.21956 10.2011 1.96124 10.837 1.96124 11.5V14H0.980469V11.5C0.980469 10.5717 1.34213 9.6815 1.98588 9.02513C2.62964 8.36875 3.50275 8 4.41316 8H7.35547C8.26588 8 9.13899 8.36875 9.78275 9.02513C10.4265 9.6815 10.7882 10.5717 10.7882 11.5V14Z" fill="black"/>
</svg>
