<svg width="30" height="30" viewBox="0 0 30 30" fill="none" xmlns="http://www.w3.org/2000/svg">
<rect width="30" height="30" rx="5" fill="#F4A343"/>
<path d="M22.5 8.75H7.5C7.16848 8.75 6.85054 8.8817 6.61612 9.11612C6.3817 9.35054 6.25 9.66848 6.25 10V20C6.25 20.3315 6.3817 20.6495 6.61612 20.8839C6.85054 21.1183 7.16848 21.25 7.5 21.25H22.5C22.8315 21.25 23.1495 21.1183 23.3839 20.8839C23.6183 20.6495 23.75 20.3315 23.75 20V10C23.75 9.66848 23.6183 9.35054 23.3839 9.11612C23.1495 8.8817 22.8315 8.75 22.5 8.75V8.75ZM21.125 10L15 14.2375L8.875 10H21.125ZM7.5 20V10.5687L14.6438 15.5125C14.7484 15.5851 14.8727 15.624 15 15.624C15.1273 15.624 15.2516 15.5851 15.3562 15.5125L22.5 10.5687V20H7.5Z" fill="white"/>
</svg>
