<svg width="13" height="10" viewBox="0 0 13 10" fill="none" xmlns="http://www.w3.org/2000/svg">
<path d="M4.37524 7.4755L1.89608 4.99634C1.83125 4.93072 1.75404 4.87862 1.66893 4.84306C1.58381 4.8075 1.49249 4.78919 1.40024 4.78919C1.308 4.78919 1.21668 4.8075 1.13156 4.84306C1.04645 4.87862 0.969239 4.93072 0.90441 4.99634C0.83879 5.06117 0.786691 5.13838 0.751133 5.22349C0.715575 5.3086 0.697266 5.39993 0.697266 5.49217C0.697266 5.58441 0.715575 5.67574 0.751133 5.76085C0.786691 5.84597 0.83879 5.92318 0.90441 5.988L3.87233 8.95592C4.14858 9.23217 4.59483 9.23217 4.87108 8.95592L12.3794 1.45467C12.445 1.38984 12.4971 1.31263 12.5327 1.22752C12.5682 1.14241 12.5866 1.05108 12.5866 0.958837C12.5866 0.866594 12.5682 0.775269 12.5327 0.690155C12.4971 0.605042 12.445 0.527833 12.3794 0.463004C12.3146 0.397384 12.2374 0.345285 12.1523 0.309727C12.0671 0.274169 11.9758 0.255859 11.8836 0.255859C11.7913 0.255859 11.7 0.274169 11.6149 0.309727C11.5298 0.345285 11.4526 0.397384 11.3877 0.463004L4.37524 7.4755Z" fill="#33353D"/>
</svg>
