<svg width="70" height="70" viewBox="0 0 70 70" fill="none" xmlns="http://www.w3.org/2000/svg">
<rect width="70" height="70" fill="white"/>
<g clip-path="url(#clip0)">
<path d="M55.0134 16.5781H48.8714C47.409 16.5781 46.1973 17.7762 46.1973 19.2222V54.38H57.7293V19.2222C57.6875 17.7762 56.4758 16.5781 55.0134 16.5781Z" fill="#F4A343"/>
<path d="M38.0923 24.4277H31.9085C30.4461 24.4277 29.2344 25.6258 29.2344 27.0718V54.3801H40.7664V27.1131C40.7664 25.6258 39.5547 24.4277 38.0923 24.4277Z" fill="#F4A343"/>
<path d="M21.1704 32.3184H14.9866C13.5242 32.3184 12.3125 33.5165 12.3125 34.9624V54.4211H23.8445V34.9624C23.8445 33.4751 22.6328 32.3184 21.1704 32.3184Z" fill="#F4A343"/>
<path d="M12.3125 44.2993C14.9448 44.2993 17.0757 42.1923 17.0757 39.5895V32.3184H14.9866C13.5242 32.3184 12.3125 33.5165 12.3125 34.9624V44.2993Z" fill="#E09C3B"/>
<path d="M29.2344 36.45C31.8667 36.45 33.9976 34.343 33.9976 31.7402V24.4277H31.9085C30.4461 24.4277 29.2344 25.6258 29.2344 27.0718V36.45Z" fill="#E09C3B"/>
<path d="M46.1562 28.6004C48.7886 28.6004 50.9195 26.4934 50.9195 23.8906V16.5781H48.8303C47.368 16.5781 46.1562 17.7762 46.1562 19.2222V28.6004Z" fill="#E09C3B"/>
<path d="M12.3115 50.9518C11.9773 50.9518 11.7266 50.7039 11.7266 50.3734V49.5471C11.7266 49.2166 11.9773 48.9688 12.3115 48.9688C12.6458 48.9688 12.8965 49.2166 12.8965 49.5471V50.3734C12.8965 50.6626 12.6458 50.9518 12.3115 50.9518Z" fill="#33353D"/>
<path d="M23.8436 54.9998H12.3115C11.9773 54.9998 11.7266 54.7519 11.7266 54.4214V52.2318C11.7266 51.9012 11.9773 51.6534 12.3115 51.6534C12.6458 51.6534 12.8965 51.9012 12.8965 52.2318V53.843H23.2168V34.9627C23.2168 33.8059 22.2976 32.897 21.1277 32.897H14.9856C13.8157 32.897 12.8965 33.8059 12.8965 34.9627V47.5633C12.8965 47.8938 12.6458 48.1417 12.3115 48.1417C11.9773 48.1417 11.7266 47.8938 11.7266 47.5633V34.9627C11.7266 33.1862 13.189 31.7402 14.9856 31.7402H21.1277C22.9243 31.7402 24.3867 33.1862 24.3867 34.9627V54.4214C24.4285 54.7106 24.1778 54.9998 23.8436 54.9998Z" fill="#33353D"/>
<path d="M40.7654 54.9997H29.2334C28.8991 54.9997 28.6484 54.7519 28.6484 54.4213V27.1131C28.6484 25.3366 30.1108 23.8906 31.9075 23.8906H38.0496C39.8462 23.8906 41.3086 25.3366 41.3086 27.1131V54.4213C41.3504 54.7105 41.0997 54.9997 40.7654 54.9997ZM29.8184 53.8016H40.1387V27.1131C40.1387 25.9563 39.2195 25.0474 38.0496 25.0474H31.9075C30.7376 25.0474 29.8184 25.9563 29.8184 27.1131V53.8016Z" fill="#33353D"/>
<path d="M57.6873 55H46.1553C45.821 55 45.5703 54.7521 45.5703 54.4216V19.2225C45.5703 17.446 47.0327 16 48.8294 16H54.9714C56.7681 16 58.2305 17.446 58.2305 19.2225V54.3803C58.2723 54.7108 58.0216 55 57.6873 55ZM46.7402 53.8019H57.0606V19.2225C57.0606 18.0657 56.1413 17.1568 54.9714 17.1568H48.8294C47.6594 17.1568 46.7402 18.0657 46.7402 19.2225V53.8019Z" fill="#33353D"/>
<path d="M64.4146 55.0005H12.3115C11.9773 55.0005 11.7266 54.7527 11.7266 54.4221C11.7266 54.0916 11.9773 53.8438 12.3115 53.8438H64.4146C64.7488 53.8438 64.9995 54.0916 64.9995 54.4221C64.9995 54.7527 64.7071 55.0005 64.4146 55.0005Z" fill="#33353D"/>
<path d="M12.3122 55.0005H9.72168C9.38742 55.0005 9.13672 54.7527 9.13672 54.4221C9.13672 54.0916 9.38742 53.8438 9.72168 53.8438H12.3122C12.6465 53.8438 12.8972 54.0916 12.8972 54.4221C12.8972 54.7527 12.6465 55.0005 12.3122 55.0005Z" fill="#33353D"/>
<path d="M7.63231 55.0005H5.58496C5.2507 55.0005 5 54.7527 5 54.4221C5 54.0916 5.2507 53.8438 5.58496 53.8438H7.63231C7.96657 53.8438 8.21727 54.0916 8.21727 54.4221C8.21727 54.7527 7.96657 55.0005 7.63231 55.0005Z" fill="#33353D"/>
</g>
<defs>
<clipPath id="clip0">
<rect width="60" height="39" fill="white" transform="translate(5 16)"/>
</clipPath>
</defs>
</svg>
