<svg width="70" height="70" viewBox="0 0 70 70" fill="none" xmlns="http://www.w3.org/2000/svg">
<rect width="70" height="70" fill="white"/>
<g clip-path="url(#clip0)">
<path d="M53.5593 31.252H17.3379V55.2541H53.5593V31.252Z" fill="#E2E5ED"/>
<path d="M53.5593 19.0605H9.85101C9.74556 19.0605 9.69283 19.0605 9.58739 19.1145C9.53466 19.1145 9.48194 19.1684 9.42921 19.2224C9.42921 19.2224 9.37649 19.2224 9.37649 19.2763C9.32377 19.3302 9.27104 19.3842 9.27104 19.4381L7.00391 23.6452H48.9723C51.503 23.6452 53.5065 21.5956 53.5593 19.0605Z" fill="#DADCE0"/>
<path d="M64.1575 25.9653L61.0468 19.4389C60.9941 19.3849 60.9414 19.331 60.8886 19.277L60.8359 19.2231C60.7832 19.1692 60.7305 19.1692 60.6777 19.1152H60.625C60.5723 19.1152 60.5196 19.1152 60.4668 19.1152H53.56C53.5073 21.6503 51.5038 23.6999 49.0257 23.6999H7.05736L5.84471 25.9653C5.73926 26.181 5.73926 26.3968 5.84471 26.6125C5.95016 26.8283 6.16106 26.9362 6.37195 26.9362H10.9062H59.4124H63.5776C63.7885 26.9362 63.9994 26.8283 64.1048 26.6125C64.263 26.3968 64.263 26.1271 64.1575 25.9653Z" fill="#E2E5ED"/>
<path d="M10.957 26.8828V51.4783C10.957 53.9055 12.8551 55.8472 15.2277 55.8472H18.0221C17.653 55.8472 17.3894 55.5775 17.3894 55.2V31.899C17.3894 31.5214 17.653 31.2517 18.0221 31.2517H25.5616V26.9368H10.957V26.8828Z" fill="#E09C3B"/>
<path d="M25.5098 26.8828V31.1978H52.9263C53.2954 31.1978 53.559 31.4675 53.559 31.8451V55.146C53.559 55.5236 53.2954 55.7933 52.9263 55.7933H55.1934C57.566 55.7933 59.4641 53.8515 59.4641 51.4243V26.8828H25.5098Z" fill="#F4A343"/>
<path d="M35.4741 55.793H27.0383H23.0312C23.084 55.793 23.1367 55.8469 23.1894 55.8469H47.8643C47.917 55.8469 47.9697 55.8469 47.9697 55.793H43.9627H35.4741Z" fill="#F4A343"/>
<path d="M60.5194 19.0624C60.5721 19.0624 60.6248 19.0624 60.6775 19.0624L34.8955 10.81C34.7373 10.756 34.6318 10.756 34.4737 10.81L9.64061 19.1164C9.64061 19.1164 9.64061 19.1164 9.58789 19.1164C9.64061 19.0624 9.74606 19.0624 9.85151 19.0624H60.5194Z" fill="#F4A343"/>
<path d="M60.9395 19.2773C60.9922 19.3313 61.0449 19.3852 61.0976 19.4392C61.0449 19.3852 60.9922 19.2773 60.9395 19.2773Z" fill="#F4A343"/>
<path d="M9.32422 19.3845C9.37694 19.3305 9.42967 19.2766 9.42967 19.2227C9.37694 19.2766 9.32422 19.3305 9.32422 19.3845Z" fill="#F4A343"/>
<path d="M9.48242 19.2231C9.53515 19.1692 9.58787 19.1692 9.64059 19.1152C9.58787 19.1692 9.53515 19.1692 9.48242 19.2231Z" fill="#F4A343"/>
<path d="M60.7305 19.1152C60.7832 19.1152 60.8359 19.1692 60.8886 19.2231C60.8886 19.1692 60.8359 19.1152 60.7305 19.1152Z" fill="#F4A343"/>
<path d="M60.2009 26.8828H58.6719V46.3542H60.2009V26.8828Z" fill="#33353D"/>
<path d="M60.2009 47.7559H58.6719V50.0752H60.2009V47.7559Z" fill="#33353D"/>
<path d="M55.1924 56.6023H15.1748C12.4332 56.6023 10.166 54.283 10.166 51.4783V26.8828H11.695V51.4783C11.695 53.474 13.2767 55.0921 15.2275 55.0921H55.2451C57.1959 55.0921 58.7776 53.474 58.7776 51.4783H60.3066C60.2012 54.283 57.934 56.6023 55.1924 56.6023Z" fill="#33353D"/>
<path d="M52.9265 56.6018H17.9704C17.1796 56.6018 16.5996 55.9546 16.5996 55.1994V31.8985C16.5996 31.0894 17.2323 30.4961 17.9704 30.4961H52.9265C53.7174 30.4961 54.2973 31.1433 54.2973 31.8985V55.1994C54.2973 55.9546 53.6646 56.6018 52.9265 56.6018ZM18.0759 55.0376H52.821V32.0063H18.0759V55.0376Z" fill="#33353D"/>
<path d="M63.5769 27.6372H6.37131C5.89679 27.6372 5.42227 27.3675 5.15865 26.936C4.89503 26.5045 4.89503 25.9651 5.15865 25.5336L8.63844 19.0072C8.79661 18.6835 9.06023 18.4678 9.37658 18.3599L34.2623 10.0536C34.526 9.94569 34.8423 9.94569 35.1587 10.0536L60.9407 18.3599C61.3098 18.4678 61.5734 18.7375 61.7843 19.115L64.895 25.6415C65.1059 26.073 65.0532 26.6124 64.8423 27.0438C64.526 27.4214 64.1042 27.6372 63.5769 27.6372ZM6.5822 26.1269H63.4188L60.4135 19.8162L34.6841 11.5638L9.95654 19.8162L6.5822 26.1269Z" fill="#33353D"/>
<path d="M63.5769 27.6371H6.37131C5.89679 27.6371 5.42227 27.3674 5.15865 26.9359C4.89503 26.5044 4.89503 25.965 5.15865 25.5335L8.63844 19.0071C8.90206 18.5756 9.32385 18.252 9.8511 18.252H60.5189C61.0462 18.252 61.5207 18.5756 61.7843 19.061L64.895 25.5874C65.1059 26.0189 65.0532 26.5583 64.8423 26.9898C64.526 27.4213 64.1042 27.6371 63.5769 27.6371ZM6.5822 26.1268H63.4188L60.4135 19.8161H9.95654L6.5822 26.1268Z" fill="#33353D"/>
<path d="M49.1294 30.8196C47.3895 29.6869 45.0697 30.2263 43.9625 32.0601L33.9976 48.2414L28.5143 39.5574C27.4071 37.7775 25.0872 37.2921 23.3473 38.4248C21.6075 39.5574 21.1329 41.9307 22.2401 43.7106L30.9396 57.4647C31.5723 58.4895 32.6268 59.0828 33.7867 59.1907C33.8922 59.1907 33.9976 59.1907 34.1031 59.1907C35.3684 59.1907 36.5811 58.4895 37.2665 57.4107L50.2894 36.1054C51.3966 34.3255 50.8693 31.9523 49.1294 30.8196Z" fill="#E09C3B"/>
<path d="M34.1028 59.9998C33.9974 59.9998 33.8392 59.9998 33.7337 59.9998C32.3629 59.892 31.0975 59.0829 30.3067 57.8963L21.5545 44.1422C20.9218 43.1174 20.6582 41.8769 20.9218 40.6903C21.1854 39.5036 21.8708 38.4788 22.8726 37.7776C23.8743 37.1304 25.087 36.8607 26.2469 37.1304C27.4069 37.4001 28.4086 38.1013 29.094 39.1261L33.9974 46.8391L43.2768 31.6827C43.9095 30.6579 44.9112 29.9028 46.0712 29.6331C47.2311 29.3634 48.4438 29.5791 49.4455 30.2264C50.4473 30.8736 51.1854 31.8985 51.449 33.0851C51.7127 34.2717 51.5018 35.5123 50.8691 36.5371L37.8989 57.8424C37.0554 59.1908 35.6318 59.9998 34.1028 59.9998ZM25.3506 38.5867C24.7706 38.5867 24.1907 38.7485 23.7162 39.0721C23.0308 39.5036 22.5562 40.2048 22.3981 41.0139C22.2399 41.8229 22.3981 42.632 22.8199 43.3332L31.5193 57.0872C32.0466 57.8963 32.8902 58.3817 33.7865 58.4896C33.8919 58.4896 33.9446 58.4896 34.0501 58.4896C35.1046 58.4896 36.0009 57.9502 36.5808 57.0333L49.6037 35.728C50.0255 35.0268 50.1837 34.2178 49.9728 33.4087C49.8146 32.5996 49.3401 31.9524 48.6547 31.467C47.9692 31.0355 47.1784 30.8736 46.3875 31.0894C45.5967 31.2512 44.964 31.7366 44.4895 32.4378L34.5773 48.6191C34.4192 48.8348 34.2083 48.9966 33.9446 48.9966C33.681 49.0506 33.4701 48.8887 33.3119 48.673L27.8814 39.9891C27.4596 39.2879 26.7742 38.8024 25.9833 38.6406C25.7724 38.5867 25.5615 38.5867 25.3506 38.5867Z" fill="#33353D"/>
</g>
<defs>
<clipPath id="clip0">
<rect width="60" height="50" fill="white" transform="translate(5 10)"/>
</clipPath>
</defs>
</svg>
