<svg width="70" height="70" viewBox="0 0 70 70" fill="none" xmlns="http://www.w3.org/2000/svg">
<rect width="70" height="70" fill="white"/>
<g clip-path="url(#clip0)">
<path d="M33.5669 62.1753C36.183 62.1753 38.3038 60.1803 38.3038 57.7195C38.3038 55.2586 36.183 53.2637 33.5669 53.2637C30.9508 53.2637 28.8301 55.2586 28.8301 57.7195C28.8301 60.1803 30.9508 62.1753 33.5669 62.1753Z" fill="#BEC3C7"/>
<path d="M35.8471 57.7195H38.3032C38.3032 55.244 36.198 53.2637 33.5664 53.2637V55.5741C34.853 55.5741 35.8471 56.5643 35.8471 57.7195Z" fill="#ECF0F1"/>
<path d="M33.5084 32.1945V24.6582H17.4265C13.8008 24.6582 10.8184 27.4087 10.8184 30.8743V37.6405H27.7774C30.9353 37.5855 33.5084 35.1651 33.5084 32.1945Z" fill="#E09C3B"/>
<path d="M36.1985 24.6582H33.5084V32.2496C33.5084 35.2201 30.9353 37.6405 27.7774 37.6405H10.8184V42.0413C10.8184 45.4519 13.7423 48.2574 17.4265 48.2574H36.1985C39.8242 48.2574 42.8067 45.5069 42.8067 42.0413V30.8193C42.7482 27.4087 39.8242 24.6582 36.1985 24.6582Z" fill="#F4A343"/>
<path d="M33.3326 48.9719H32.4554C31.9876 48.9719 31.6367 48.6419 31.6367 48.2018C31.6367 47.7617 31.9876 47.4316 32.4554 47.4316H33.3326C33.8005 47.4316 34.1513 47.7617 34.1513 48.2018C34.2098 48.5868 33.8005 48.9719 33.3326 48.9719Z" fill="#33353D"/>
<path d="M36.1988 48.9735C35.731 48.9735 35.3801 48.6434 35.3801 48.2033C35.3801 47.7633 35.731 47.4332 36.1988 47.4332C39.3567 47.4332 41.9298 45.0128 41.9298 42.0422V30.8202C41.9298 27.8497 39.3567 25.4293 36.1988 25.4293H17.4269C14.269 25.4293 11.6959 27.8497 11.6959 30.8202V41.9322C11.6959 44.9027 14.269 47.3232 17.4269 47.3232H29.5322C30 47.3232 30.3509 47.6532 30.3509 48.0933C30.3509 48.5334 30 48.8635 29.5322 48.8635H17.4269C13.3333 48.9735 10 45.8379 10 41.9872V30.8202C10 26.9695 13.3333 23.834 17.4269 23.834H36.1988C40.2924 23.834 43.6257 26.9695 43.6257 30.8202V41.9322C43.6257 45.8379 40.2924 48.9735 36.1988 48.9735Z" fill="#33353D"/>
<path d="M37.4268 54.0334H11.7543C11.2864 54.0334 10.9355 53.7033 10.9355 53.2633C10.9355 52.8232 11.2864 52.4931 11.7543 52.4931H37.4268C43.1578 52.4931 47.8361 48.0923 47.8361 42.7014V13.1061C47.8946 9.75049 50.7601 7 54.3274 7H59.1812C59.649 7 59.9999 7.33006 59.9999 7.77014C59.9999 8.21022 59.649 8.54028 59.1812 8.54028H54.3274C51.6958 8.54028 49.532 10.5756 49.532 13.0511V42.6464C49.532 48.9725 44.0934 54.0334 37.4268 54.0334Z" fill="#33353D"/>
<path d="M33.5673 63.0007C30.4679 63.0007 28.0117 60.6353 28.0117 57.7748C28.0117 54.8592 30.5263 52.5488 33.5673 52.5488C36.6667 52.5488 39.1228 54.9143 39.1228 57.7748C39.1813 60.6353 36.6667 63.0007 33.5673 63.0007ZM33.5673 54.0341C31.4035 54.0341 29.6491 55.6844 29.6491 57.7197C29.6491 59.7551 31.4035 61.4054 33.5673 61.4054C35.731 61.4054 37.4854 59.7551 37.4854 57.7197C37.4854 55.6844 35.731 54.0341 33.5673 54.0341Z" fill="#33353D"/>
<path d="M20.0591 62.1753C22.6752 62.1753 24.7959 60.1803 24.7959 57.7195C24.7959 55.2586 22.6752 53.2637 20.0591 53.2637C17.443 53.2637 15.3223 55.2586 15.3223 57.7195C15.3223 60.1803 17.443 62.1753 20.0591 62.1753Z" fill="#BEC3C7"/>
<path d="M22.3393 57.7195H24.7954C24.7954 55.244 22.6902 53.2637 20.0586 53.2637V55.5741C21.2867 55.5741 22.3393 56.5643 22.3393 57.7195Z" fill="#ECF0F1"/>
<path d="M20.0595 63.0007C16.96 63.0007 14.5039 60.6353 14.5039 57.7748C14.5039 54.8592 17.0185 52.5488 20.0595 52.5488C23.1589 52.5488 25.615 54.9143 25.615 57.7748C25.615 60.6353 23.1004 63.0007 20.0595 63.0007ZM20.0595 54.0341C17.8957 54.0341 16.1413 55.6844 16.1413 57.7197C16.1413 59.7551 17.8957 61.4054 20.0595 61.4054C22.2232 61.4054 23.9776 59.7551 23.9776 57.7197C23.9776 55.6844 22.1647 54.0341 20.0595 54.0341Z" fill="#33353D"/>
</g>
<defs>
<clipPath id="clip0">
<rect width="50" height="56" fill="white" transform="translate(10 7)"/>
</clipPath>
</defs>
</svg>
