<svg width="70" height="70" viewBox="0 0 70 70" fill="none" xmlns="http://www.w3.org/2000/svg">
<rect width="70" height="70" fill="white"/>
<g clip-path="url(#clip0)">
<path d="M37.6166 10.8116L38.8173 12.521L39.7322 11.6094C39.9609 11.3814 40.3039 11.3245 40.5898 11.4954L44.1348 13.7746C43.4487 9.55807 39.8465 6.36719 35.501 6.36719C31.0412 6.36719 27.3246 9.72901 26.8672 14.0595H26.9244L36.8733 10.5267C37.102 10.4128 37.445 10.5267 37.6166 10.8116Z" fill="#BEC3C7"/>
<path d="M43.3909 15.5406C43.3338 15.3127 43.2766 15.0278 43.1622 14.7998L40.3033 12.9765L39.217 14.0591C39.0454 14.23 38.8739 14.287 38.6452 14.23C38.4165 14.23 38.2449 14.1161 38.1306 13.9451L36.7583 12.0078L27.6099 15.2557C27.5527 15.3696 27.5527 15.4836 27.5527 15.5406C28.2389 15.1417 29.0965 14.9138 30.0114 14.9138C31.498 14.9138 32.8131 15.5406 33.5564 16.5092C34.071 15.9964 34.6999 15.7115 35.5004 15.7115C36.2437 15.7115 36.9299 16.0534 37.4445 16.5092C38.1878 15.5406 39.5029 14.9138 40.9895 14.9138C41.8471 14.9138 42.7048 15.1417 43.3909 15.5406Z" fill="#F4A343"/>
<path d="M30.8108 25.9677C30.868 26.0247 30.9251 26.0247 30.9823 26.0817C31.1539 26.1956 31.3254 26.3096 31.4969 26.4235C31.5541 26.4235 31.6113 26.4805 31.6113 26.4805C31.84 26.5945 32.0687 26.7084 32.2974 26.8224C32.5261 26.9364 32.812 27.0503 33.0407 27.1073C33.0407 27.1073 33.0407 27.1073 33.0979 27.1073C33.3266 27.1643 33.5553 27.2782 33.784 27.3352C33.8412 27.3352 33.8984 27.3922 33.9556 27.3922C34.1271 27.4492 34.3558 27.4492 34.5273 27.5062C34.5845 27.5062 34.6417 27.5062 34.756 27.5062C34.9848 27.5062 35.2706 27.5631 35.4994 27.5631C35.7852 27.5631 36.014 27.5631 36.2427 27.5062C36.2998 27.5062 36.4142 27.5062 36.4714 27.4492C36.6429 27.4492 36.8716 27.3922 37.0431 27.3352C37.1003 27.3352 37.1575 27.2782 37.2719 27.2782C37.5006 27.2213 37.6721 27.1643 37.9008 27.1073C37.958 27.1073 37.958 27.1073 38.0152 27.0503C38.2439 26.9364 38.4726 26.8794 38.7013 26.7654C38.7585 26.7654 38.7585 26.7084 38.8157 26.7084C38.9872 26.5945 39.1587 26.5375 39.3874 26.4235C39.4446 26.3666 39.5018 26.3096 39.6161 26.3096C39.7305 26.1956 39.902 26.1386 40.0164 26.0247C40.0736 25.9677 40.1879 25.9107 40.2451 25.8537C41.7889 24.6572 42.9324 22.8908 43.447 20.7825C42.7609 21.1814 41.9032 21.4093 40.9884 21.4093C38.8728 21.4093 37.1003 20.0987 36.8716 18.5033C36.8716 18.4463 36.8716 18.4463 36.8716 18.3893C36.8716 17.5916 36.2998 16.9648 35.5565 16.9648C34.8132 16.9648 34.2414 17.5916 34.2414 18.3893C34.2414 18.4463 34.2414 18.4463 34.2414 18.5033C34.0127 20.1557 32.2402 21.4663 30.1247 21.4663C29.2098 21.4663 28.3521 21.2383 27.666 20.8395C28.1234 22.9477 29.267 24.7141 30.8108 25.9677Z" fill="#F4A343"/>
<path d="M40.9326 16.2812C39.4459 16.2812 38.1309 17.136 38.1309 18.2186C38.1309 19.2442 39.3888 20.1559 40.9326 20.1559C42.4192 20.1559 43.6771 19.3012 43.7343 18.2756V18.2186V18.1616C43.6771 17.136 42.4192 16.2812 40.9326 16.2812Z" fill="#E2E5ED"/>
<path d="M30.0107 20.0993C31.4973 20.0993 32.7552 19.2446 32.8124 18.1619C32.8124 17.1363 31.5545 16.2246 30.0107 16.2246C28.5241 16.2246 27.209 17.0793 27.209 18.1619C27.209 19.2446 28.5241 20.0993 30.0107 20.0993Z" fill="#E2E5ED"/>
<path d="M36.873 34.2877L40.5324 35.4843C40.6468 35.5412 40.7611 35.5412 40.8755 35.5412C41.1614 35.5412 41.5044 35.4273 41.676 35.1994C41.9047 34.9714 42.019 34.6865 42.019 34.3447V30.584H40.9898L36.873 34.2877Z" fill="#E2E5ED"/>
<path d="M40.0742 27.6777C40.017 27.7347 39.9598 27.7347 39.8455 27.7917C39.6168 27.9626 39.3309 28.0766 39.1022 28.1906C38.9878 28.2475 38.9306 28.2475 38.8163 28.3045C38.5304 28.4185 38.1873 28.5324 37.9015 28.6464C37.8443 28.6464 37.8443 28.6464 37.7871 28.6464C37.0438 28.8743 36.3005 28.9883 35.5 28.9883C34.6995 28.9883 33.9562 28.8743 33.2129 28.6464C33.1557 28.6464 33.0985 28.5894 33.0414 28.5894C32.7555 28.5324 32.4696 28.4185 32.2409 28.3045C32.1265 28.2475 32.0122 28.1906 31.8978 28.1906C31.6691 28.0766 31.4976 27.9626 31.2688 27.8487C31.1545 27.7917 31.0401 27.7347 30.9258 27.6777V29.5581L35.5 33.6606L40.0742 29.6151V27.6777Z" fill="#E09C3B"/>
<path d="M34.9277 39.2446H36.0141L35.4995 37.1934L34.9277 39.2446Z" fill="#F4A343"/>
<path d="M13.4297 57.307C13.4297 57.364 13.3725 57.4209 13.4297 57.4779L14.802 59.8711V57.25H13.5441C13.4869 57.25 13.4297 57.25 13.4297 57.307Z" fill="#E2E5ED"/>
<path d="M50.8812 40.6133H36.9298H34.071H20.1196C17.9469 40.6133 16.1172 42.3797 16.1172 44.6019V56.5677V62.4936C16.1172 63.1204 16.6318 63.6332 17.3179 63.6332H53.6829C54.3118 63.6332 54.8836 63.1204 54.8836 62.4366V56.5677V44.6019C54.8264 42.3797 53.0539 40.6133 50.8812 40.6133ZM35.5004 55.3711C33.6707 55.3711 32.2413 53.8896 32.2413 52.1232C32.2413 50.3569 33.7279 48.8754 35.5004 48.8754C37.2729 48.8754 38.7595 50.3569 38.7595 52.1232C38.7595 53.9466 37.2729 55.3711 35.5004 55.3711Z" fill="#E09C3B"/>
<path d="M57.4552 57.25H56.1973V59.8711L57.5695 57.4779C57.6267 57.4209 57.6267 57.364 57.5695 57.307C57.5695 57.307 57.5123 57.25 57.4552 57.25Z" fill="#E2E5ED"/>
<path d="M30.4676 35.4276L34.127 34.231L29.953 30.5273H28.9238V34.288C28.9238 35.0857 29.7243 35.7125 30.4676 35.4276Z" fill="#E2E5ED"/>
<path d="M40.0729 36.7382L36.4707 35.5986L37.3855 39.2453H50.8223C50.8223 39.2453 50.8223 39.2453 50.8795 39.2453H51.7943C52.5376 39.2453 53.2237 39.4162 53.8527 39.7581C53.5668 37.4789 52.5948 35.3706 50.9366 33.6612C48.9354 31.6669 46.3053 30.5273 43.4464 30.5273V34.288C43.4464 34.9718 43.1605 35.6555 42.7031 36.1114C42.2456 36.5672 41.5595 36.8521 40.9306 36.8521C40.5875 36.8521 40.3588 36.8521 40.0729 36.7382Z" fill="#BEC3C7"/>
<path d="M20.1197 39.2453H33.5565L34.5285 35.5986L30.9263 36.7382C30.6976 36.7952 30.4117 36.8521 30.1258 36.8521C28.6964 36.8521 27.5528 35.7125 27.5528 34.288V30.5273H27.4956C24.6939 30.5273 22.0066 31.61 20.0625 33.6612C18.4044 35.3137 17.3752 37.4789 17.1465 39.7581C17.7754 39.4162 18.5187 39.2453 19.2049 39.2453H20.1197Z" fill="#BEC3C7"/>
<path d="M35.5001 50.2422C34.4709 50.2422 33.6133 51.0969 33.6133 52.1225C33.6133 53.1482 34.4709 54.0029 35.5001 54.0029C36.5293 54.0029 37.387 53.1482 37.387 52.1225C37.387 51.0969 36.5293 50.2422 35.5001 50.2422Z" fill="#BEC3C7"/>
<path d="M57.4556 55.8832H56.1977V44.6011C56.1977 43.4615 55.7974 42.3789 55.1685 41.4672C55.2257 41.4103 55.2257 41.2963 55.2257 41.1823C55.2828 37.9914 54.0821 34.9715 51.8522 32.6923C49.6222 30.4131 46.5918 29.1595 43.3899 29.1595H41.3315V26.6524C43.5614 24.7151 44.9909 21.6382 44.9909 18.2764V18.2194V18.1624C44.9909 17.3647 44.8765 16.5669 44.7622 15.7692C44.7622 15.7692 44.7622 15.7692 44.8193 15.7692C45.2196 15.8262 45.5055 15.4843 45.5055 15.0855C45.5055 15.0285 45.5055 14.9715 45.5055 14.9145C45.5055 9.44444 40.9884 5 35.4994 5C29.9531 5 25.3789 9.50142 25.3789 15.0855C25.3789 15.3134 25.4933 15.5413 25.6648 15.6553C25.7792 15.7122 25.9507 15.7692 26.0651 15.7692C26.0651 15.7692 26.0651 15.7692 26.1223 15.7692C25.9507 16.5669 25.8364 17.3647 25.8364 18.2194C25.8364 21.6382 27.2658 24.7151 29.4957 26.7094V29.2165H27.4373C24.2354 29.2165 21.2622 30.4701 19.0322 32.7493C16.8023 35.0285 15.6016 38.0484 15.6587 41.2963C15.6587 41.4103 15.7159 41.4672 15.7159 41.5812C15.087 42.4359 14.7439 43.5185 14.7439 44.6581V55.9402H13.5432C12.9714 55.9402 12.514 56.2251 12.2281 56.6809C11.9422 57.1367 11.9422 57.7065 12.2281 58.2194L14.8011 62.8348C14.9154 64.1453 16.0018 65.114 17.3169 65.114H53.6819C54.9969 65.114 56.0833 64.0883 56.1977 62.8348L58.7707 58.2194C59.0566 57.7635 59.0566 57.1937 58.7707 56.6809C58.4848 56.1681 58.0274 55.8832 57.4556 55.8832ZM14.7439 59.8718L13.3716 57.4786C13.3145 57.4216 13.3716 57.3647 13.3716 57.3077C13.3716 57.2507 13.4288 57.2507 13.486 57.2507H14.7439V59.8718ZM43.4471 34.3447V30.584C46.306 30.584 48.9361 31.6667 50.9373 33.7179C52.5955 35.3134 53.5675 37.4786 53.8534 39.7578C53.2244 39.416 52.5383 39.245 51.795 39.245H50.8802C50.8802 39.245 50.8802 39.245 50.823 39.245H37.4434L36.5286 35.5983L40.1308 36.7379C40.4167 36.7949 40.6454 36.8518 40.9313 36.8518C41.6174 36.8518 42.2463 36.5669 42.7038 36.1111C43.1612 35.6553 43.4471 35.0285 43.4471 34.3447ZM35.4994 33.661L30.9252 29.5584V27.6781C31.0395 27.735 31.1539 27.792 31.2682 27.849C31.4969 27.963 31.6685 28.0769 31.8972 28.1909C32.0115 28.2479 32.1259 28.3048 32.2403 28.3048C32.5261 28.4188 32.812 28.5328 33.0407 28.5897C33.0979 28.5897 33.1551 28.6467 33.2123 28.6467C33.9556 28.8746 34.6989 28.9886 35.4994 28.9886C36.2999 28.9886 37.0432 28.8746 37.7865 28.6467C37.8437 28.6467 37.8437 28.6467 37.9008 28.6467C38.1867 28.5328 38.5298 28.4758 38.8157 28.3048C38.93 28.2479 38.9872 28.2479 39.1016 28.1909C39.3875 28.0769 39.6162 27.963 39.8449 27.792C39.9021 27.735 39.9592 27.735 40.0736 27.6781V29.5584L35.4994 33.661ZM36.014 39.245H34.9276L35.4994 37.1937L36.014 39.245ZM42.0748 30.584V34.3447C42.0748 34.6866 41.9604 34.9715 41.7317 35.1994C41.503 35.4273 41.2171 35.5413 40.9313 35.5413C40.8169 35.5413 40.7025 35.5413 40.5882 35.4843L36.9288 34.2877L41.1028 30.584H42.0748ZM43.733 18.2194C43.6758 19.245 42.4179 20.0997 40.9313 20.0997C39.4446 20.0997 38.1295 19.245 38.1295 18.1624C38.1295 17.1368 39.3875 16.2251 40.9313 16.2251C42.4179 16.2251 43.6758 17.0798 43.733 18.1054C43.733 18.1624 43.733 18.1624 43.733 18.2194ZM37.3862 16.51C36.8716 15.9972 36.2427 15.7122 35.4422 15.7122C34.6989 15.7122 34.0128 16.0541 33.4982 16.51C32.7549 15.5413 31.4398 14.9145 29.9531 14.9145C29.0383 14.9145 28.1806 15.1424 27.4945 15.5413C27.4945 15.4273 27.5517 15.3134 27.5517 15.2564L36.7001 12.0085L38.0724 13.9459C38.1867 14.1168 38.3583 14.2308 38.587 14.2308C38.8157 14.2308 38.9872 14.1738 39.1587 14.0598L40.2451 12.9772L43.104 14.8006C43.1612 15.0285 43.2755 15.3134 43.3327 15.5413C42.6466 15.1424 41.7889 14.9145 40.8741 14.9145C39.4446 14.9145 38.1296 15.5413 37.3862 16.51ZM26.8656 14.0598C27.323 9.72934 31.0395 6.36752 35.4994 6.36752C39.8449 6.36752 43.4471 9.5584 44.076 13.7179L40.531 11.4387C40.2451 11.2678 39.9021 11.3248 39.6733 11.5527L38.7585 12.4644L37.5578 10.755C37.3862 10.5271 37.0432 10.4131 36.7573 10.5271L26.8656 14.0598ZM30.0103 16.282C31.4969 16.282 32.812 17.1368 32.812 18.2194C32.812 19.245 31.5541 20.1567 30.0103 20.1567C28.5237 20.1567 27.2086 19.302 27.2086 18.2194C27.2086 17.1368 28.5237 16.282 30.0103 16.282ZM27.5517 20.8405C28.2378 21.2393 29.0955 21.4672 30.0103 21.4672C32.1259 21.4672 33.8984 20.1567 34.1271 18.5043C34.1271 18.4473 34.1271 18.4473 34.1271 18.3903C34.1271 17.5926 34.6989 16.9658 35.4422 16.9658C36.1855 16.9658 36.7573 17.5926 36.7573 18.3903C36.7573 18.4473 36.7573 18.4473 36.7573 18.5043C36.986 20.1567 38.7585 21.4103 40.8741 21.4103C41.7889 21.4103 42.6466 21.1823 43.3327 20.7835C42.8181 22.8348 41.6746 24.6581 40.1308 25.8547C40.0736 25.9117 39.9592 25.9687 39.9021 26.0256C39.7877 26.1396 39.6162 26.1966 39.5018 26.3105C39.4446 26.3675 39.3875 26.4245 39.2731 26.4245C39.1016 26.5385 38.93 26.6524 38.7013 26.7094C38.6441 26.7094 38.6441 26.7664 38.587 26.7664C38.3583 26.8803 38.1295 26.9943 37.9008 27.0513C37.8437 27.0513 37.8437 27.0513 37.7865 27.1083C37.5578 27.1652 37.3862 27.2222 37.1575 27.2792C37.1004 27.2792 37.0432 27.3362 36.9288 27.3362C36.7573 27.3932 36.5858 27.3932 36.357 27.4501C36.2999 27.4501 36.2427 27.4501 36.1283 27.5071C35.8996 27.5071 35.6137 27.5641 35.385 27.5641C35.0991 27.5641 34.8704 27.5641 34.6417 27.5071C34.5845 27.5071 34.5274 27.5071 34.413 27.5071C34.2415 27.5071 34.0128 27.4501 33.8412 27.3932C33.784 27.3932 33.7269 27.3932 33.6697 27.3362C33.441 27.2792 33.2123 27.2222 32.9836 27.1083C32.9836 27.1083 32.9836 27.1083 32.9264 27.1083C32.6977 26.9943 32.4118 26.9373 32.1831 26.8234C31.9544 26.7094 31.7257 26.5954 31.4969 26.4815C31.4398 26.4815 31.3826 26.4245 31.3826 26.4245C31.2111 26.3105 31.0395 26.1966 30.868 26.0826C30.8108 26.0256 30.7536 26.0256 30.6965 25.9687C29.267 24.7151 28.1235 22.9487 27.5517 20.8405ZM28.924 30.584H29.9531L34.1271 34.2877L30.4677 35.4843C29.7244 35.7122 28.924 35.1424 28.924 34.3447V30.584ZM20.0614 33.661C22.0626 31.6667 24.6928 30.5271 27.4945 30.5271H27.5517V34.2877C27.5517 35.7122 28.6952 36.8518 30.1247 36.8518C30.4106 36.8518 30.6393 36.7949 30.9252 36.7379L34.5274 35.5983L33.5553 39.245H20.1186C20.1186 39.245 20.1186 39.245 20.0614 39.245H19.1466C18.4033 39.245 17.7171 39.416 17.0882 39.7578C17.3741 37.4786 18.4033 35.3134 20.0614 33.661ZM54.8254 56.5669V62.4929C54.8254 63.1197 54.3108 63.6894 53.6247 63.6894H17.3169C16.6879 63.6894 16.1733 63.1766 16.1162 62.5499V56.5669V44.6011C16.1162 42.4359 17.8887 40.6125 20.1186 40.6125H34.0699H36.9288H50.8802C53.0529 40.6125 54.8826 42.3789 54.8826 44.6011V56.5669H54.8254ZM57.5699 57.4786L56.1977 59.8718V57.2507H57.4556C57.5128 57.2507 57.5699 57.3077 57.5699 57.3077C57.6271 57.3647 57.6271 57.4216 57.5699 57.4786Z" fill="#33353D"/>
<path d="M35.4994 48.875C33.6697 48.875 32.2402 50.3565 32.2402 52.1229C32.2402 53.9462 33.7269 55.3707 35.4994 55.3707C37.2719 55.3707 38.7585 53.8892 38.7585 52.1229C38.7585 50.3565 37.2719 48.875 35.4994 48.875ZM35.4994 54.0032C34.4702 54.0032 33.6125 53.1485 33.6125 52.1229C33.6125 51.0972 34.4702 50.2425 35.4994 50.2425C36.5286 50.2425 37.3862 51.0972 37.3862 52.1229C37.3862 53.1485 36.5286 54.0032 35.4994 54.0032Z" fill="#33353D"/>
</g>
<defs>
<clipPath id="clip0">
<rect width="47" height="60" fill="white" transform="translate(12 5)"/>
</clipPath>
</defs>
</svg>
