<svg width="70" height="70" viewBox="0 0 70 70" fill="none" xmlns="http://www.w3.org/2000/svg">
<rect width="70" height="70" fill="white"/>
<path d="M41.0898 54.7324H28.9102V60.1431H41.0898V54.7324Z" fill="#BEC3C7"/>
<path d="M12.5806 16.8027C10.371 16.8027 8.64648 18.5706 8.64648 20.7134V42.1956V46.9634H61.407V20.7134C61.407 18.517 59.6285 16.8027 57.4728 16.8027H12.5806Z" fill="#F4A343"/>
<path d="M8.59375 46.9648V50.1791C8.59375 52.3756 10.3722 54.0898 12.5279 54.0898H29.0189H41.0369H57.474C59.6836 54.0898 61.4081 52.322 61.4081 50.1791V46.9648H8.59375Z" fill="#E09C3B"/>
<path d="M50.5749 16.804V36.2505C50.5749 36.2505 43.0838 32.6076 35 36.2505V12.3576C42.8144 8.39332 50.5749 12.3576 50.5749 12.3576V16.804Z" fill="#BEC3C7"/>
<path d="M35.0009 12.3576V36.1969C26.8632 32.554 19.4261 36.1969 19.4261 36.1969V16.804V12.3576C19.3722 12.3576 27.1865 8.39332 35.0009 12.3576Z" fill="#ECF0F1"/>
<path d="M55.3731 49.3223C54.7264 49.3223 54.1875 49.858 54.1875 50.5008C54.1875 51.1437 54.7264 51.6794 55.3731 51.6794C56.0198 51.6794 56.5588 51.1437 56.5588 50.5008C56.6127 49.858 56.0737 49.3223 55.3731 49.3223Z" fill="#33353D"/>
<path d="M51.8145 49.3223C51.1678 49.3223 50.6289 49.858 50.6289 50.5008C50.6289 51.1437 51.1678 51.6794 51.8145 51.6794C52.4612 51.6794 53.0002 51.1437 53.0002 50.5008C53.0002 49.858 52.4612 49.3223 51.8145 49.3223Z" fill="#33353D"/>
<path d="M48.2032 49.3223C47.5565 49.3223 47.0176 49.858 47.0176 50.5008C47.0176 51.1437 47.5565 51.6794 48.2032 51.6794C48.8499 51.6794 49.3888 51.1437 49.3888 50.5008C49.3888 49.858 48.8499 49.3223 48.2032 49.3223Z" fill="#33353D"/>
<path d="M57.4192 16.2143H51.1677V12.3571C51.1677 12.1429 51.0599 11.9286 50.8443 11.8214C50.7365 11.7679 47.2335 10 42.491 10C39.7964 10 37.3174 10.5893 35 11.7143C30.9042 9.73214 26.8623 9.83929 24.1677 10.2679C21.2036 10.8036 19.2096 11.7679 19.1018 11.8214C18.9401 11.9286 18.7784 12.1429 18.7784 12.3571V16.1607H12.5808C10.0479 16.2143 8 18.1964 8 20.7143V50.1786C8 52.6964 10.0479 54.7321 12.5808 54.7321H28.4252V59.8214H25.4072C25.0838 59.8214 24.8144 60.0893 24.8144 60.4107C24.8144 60.7321 25.0838 61 25.4072 61H44.5928C44.9162 61 45.1856 60.7321 45.1856 60.4107C45.1856 60.0893 44.9162 59.8214 44.5928 59.8214H41.5749V54.7321H57.4192C59.9521 54.7321 62 52.6964 62 50.1786V20.7143C62 18.1964 59.9521 16.2143 57.4192 16.2143ZM35.5928 12.7321C37.6946 11.7143 40.0659 11.1786 42.491 11.1786C46.1018 11.1786 49.012 12.3036 49.982 12.7321V35.2857C48.6886 34.8036 45.994 34 42.6527 34C40.1737 34 37.8563 34.4286 35.5928 35.2857V12.7321ZM20.018 12.7321C20.6647 12.4643 22.2814 11.8214 24.4371 11.4464C26.9162 11.0179 30.6347 10.9107 34.4072 12.7321V35.3393C30.3653 33.7857 26.5928 33.8929 24.0599 34.2679C22.2814 34.5357 20.8263 35.0179 20.018 35.3393V12.7321ZM12.5808 17.3929H18.7784V36.25C18.7784 36.4643 18.8862 36.625 19.0479 36.7321C19.2096 36.8393 19.4252 36.8393 19.6407 36.7857C19.6946 36.7321 26.9701 33.3571 34.7305 36.7857C34.7305 36.7857 34.7305 36.7857 34.7844 36.7857C34.8383 36.8393 34.9461 36.8393 35 36.8393C35.0539 36.8393 35.1617 36.8393 35.2156 36.7857C35.2156 36.7857 35.2156 36.7857 35.2695 36.7857C37.5868 35.7679 40.0659 35.2321 42.6527 35.2321C47.0719 35.2321 50.3054 36.7857 50.3593 36.7857C50.521 36.8929 50.7904 36.8393 50.9521 36.7321C51.1138 36.625 51.2216 36.4107 51.2216 36.25V17.3929H57.4731C59.3054 17.3929 60.8144 18.8929 60.8144 20.7143V46.375H9.18563V42.7857H32.5749C32.8982 42.7857 33.1677 42.5179 33.1677 42.1964C33.1677 41.875 32.8982 41.6071 32.5749 41.6071H9.18563V20.7143C9.18563 18.8929 10.6946 17.3929 12.5808 17.3929ZM40.3892 59.7679H37.9641V58.8571C37.9641 58.5357 37.6946 58.2679 37.3713 58.2679C37.0479 58.2679 36.7784 58.5357 36.7784 58.8571V59.7679H33.1677V58.8571C33.1677 58.5357 32.8982 58.2679 32.5749 58.2679C32.2515 58.2679 31.982 58.5357 31.982 58.8571V59.7679H29.5569V54.6786H40.3353V59.7679H40.3892ZM57.4192 53.5H12.5808C10.7485 53.5 9.23952 52 9.23952 50.1786V47.5536H60.8144V50.1786C60.7605 52 59.3054 53.5 57.4192 53.5Z" fill="#33353D"/>
<path d="M24.0607 17.7141L30.0967 18.8927C30.1506 18.8927 30.1506 18.8927 30.2044 18.8927C30.4739 18.8927 30.7434 18.6784 30.7973 18.4105C30.8512 18.0891 30.6356 17.7677 30.3122 17.7141L24.3302 16.5355C24.0068 16.482 23.6835 16.6963 23.6296 17.0177C23.5218 17.3391 23.7374 17.6605 24.0607 17.7141Z" fill="#33353D"/>
<path d="M24.0607 21.304L30.0967 22.4825C30.1506 22.4825 30.1506 22.4825 30.2044 22.4825C30.4739 22.4825 30.7434 22.2683 30.7973 22.0004C30.8512 21.679 30.6356 21.3575 30.3122 21.304L24.3302 20.1254C24.0068 20.0718 23.6835 20.2861 23.6296 20.6075C23.5218 20.929 23.7374 21.2504 24.0607 21.304Z" fill="#33353D"/>
<path d="M24.0607 24.8919L30.0967 26.0704C30.1506 26.0704 30.1506 26.0704 30.2044 26.0704C30.4739 26.0704 30.7434 25.8561 30.7973 25.5883C30.8512 25.2669 30.6356 24.9454 30.3122 24.8919L24.3302 23.7133C24.0068 23.6597 23.6835 23.874 23.6296 24.1954C23.5218 24.5169 23.7374 24.8383 24.0607 24.8919Z" fill="#33353D"/>
<path d="M24.0607 28.4817L30.0967 29.6603C30.1506 29.6603 30.1506 29.6603 30.2044 29.6603C30.4739 29.6603 30.7434 29.446 30.7973 29.1781C30.8512 28.8567 30.6356 28.5353 30.3122 28.4817L24.3302 27.3031C24.0068 27.2496 23.6835 27.4638 23.6296 27.7853C23.5218 28.1067 23.7374 28.3746 24.0607 28.4817Z" fill="#33353D"/>
<path d="M39.7964 18.9474C39.8503 18.9474 39.8503 18.9474 39.9042 18.9474L45.8862 17.7688C46.2096 17.7152 46.4251 17.3938 46.3712 17.0724C46.3173 16.7509 45.994 16.5367 45.6706 16.5902L39.6886 17.7688C39.3652 17.8224 39.1497 18.1438 39.2036 18.4652C39.2575 18.7331 39.5269 18.9474 39.7964 18.9474Z" fill="#33353D"/>
<path d="M39.7964 22.4825C39.8503 22.4825 39.8503 22.4825 39.9042 22.4825L45.8862 21.304C46.2096 21.2504 46.4251 20.929 46.3712 20.6075C46.3173 20.2861 45.994 20.0718 45.6706 20.1254L39.6886 21.304C39.3652 21.3575 39.1497 21.679 39.2036 22.0004C39.2575 22.3218 39.5269 22.4825 39.7964 22.4825Z" fill="#33353D"/>
<path d="M39.7964 26.0704C39.8503 26.0704 39.8503 26.0704 39.9042 26.0704L45.8862 24.8919C46.2096 24.8383 46.4251 24.5169 46.3712 24.1954C46.3173 23.874 45.994 23.6597 45.6706 23.7133L39.6886 24.8919C39.3652 24.9454 39.1497 25.2669 39.2036 25.5883C39.2575 25.9097 39.5269 26.0704 39.7964 26.0704Z" fill="#33353D"/>
<path d="M46.3712 27.7325C46.3173 27.4111 45.994 27.1968 45.6706 27.2504L39.6886 28.429C39.3652 28.4825 39.1497 28.804 39.2036 29.1254C39.2575 29.3933 39.5269 29.6075 39.7964 29.6075C39.8503 29.6075 39.8503 29.6075 39.9042 29.6075L45.8862 28.429C46.2096 28.3754 46.4251 28.1075 46.3712 27.7325Z" fill="#33353D"/>
<path d="M34.8389 42.786H53.0006C53.3239 42.786 53.5934 42.5181 53.5934 42.1967C53.5934 41.8753 53.3239 41.6074 53.0006 41.6074H34.8389C34.5156 41.6074 34.2461 41.8753 34.2461 42.1967C34.2461 42.5181 34.5156 42.786 34.8389 42.786Z" fill="#33353D"/>
<path d="M55.1006 42.786H56.6096C56.933 42.786 57.2024 42.5181 57.2024 42.1967C57.2024 41.8753 56.933 41.6074 56.6096 41.6074H55.1006C54.7773 41.6074 54.5078 41.8753 54.5078 42.1967C54.5078 42.5181 54.7773 42.786 55.1006 42.786Z" fill="#33353D"/>
</svg>
