<svg width="70" height="70" viewBox="0 0 70 70" fill="none" xmlns="http://www.w3.org/2000/svg">
<rect width="70" height="70" fill="white"/>
<g clip-path="url(#clip0)">
<path d="M53.3921 5.79492H44.9155V8.63583H46.7928V10.5108H53.3921V61.3631H35.5286H17.6083V10.5108H24.2075V8.63583H26.0849V5.79492H17.6083C15.5033 5.79492 13.8535 7.49947 13.8535 9.54492V60.3972C13.8535 62.4995 15.5602 64.1472 17.6083 64.1472H35.5286H53.3921C55.497 64.1472 57.1468 62.4426 57.1468 60.3972V9.60174C57.2037 7.49947 55.497 5.79492 53.3921 5.79492Z" fill="#F4A343"/>
<path d="M27.9056 51.9883H22.2734V57.6133H27.9056V51.9883Z" fill="#D9A527"/>
<path d="M27.9056 41.5918H22.2734V47.2168H27.9056V41.5918Z" fill="#D9A527"/>
<path d="M27.9056 31.25H22.2734V36.875H27.9056V31.25Z" fill="#D9A527"/>
<path d="M46.7923 10.5117V13.3526H41.1602V10.5117H44.0047V8.63672H44.9149H46.7923V10.5117Z" fill="#DADCE0"/>
<path d="M29.8391 10.5117V13.3526H24.207V10.5117V8.63672H26.0844H26.9946V10.5117H29.8391Z" fill="#DADCE0"/>
<path d="M41.161 10.5117H29.8398V13.3526H41.161V10.5117Z" fill="#DADCE0"/>
<path d="M27.9614 31.2504H22.3293V36.8754H27.9614V31.2504ZM27.9614 41.5913H22.3293V47.2163H27.9614V41.5913ZM53.3912 10.5117V55.739V61.364H47.7591H17.6074V10.5117H24.2067V13.3526H29.8388H41.1599H46.792V10.5117H53.3912ZM27.9614 57.614V51.989H22.3293V57.614H27.9614Z" fill="#E2E5ED"/>
<path d="M44.9146 5.79492V8.63583H44.0043V10.5108H41.1598H29.8387H26.9942V8.63583H26.084V5.79492H44.9146Z" fill="#F4A343"/>
<path d="M53.3921 5.79492H44.9155H26.0849H17.6083C15.5033 5.79492 13.8535 7.49947 13.8535 9.54492V11.4199C13.8535 9.31765 15.5602 7.66992 17.6083 7.66992H26.0849H44.9724H53.3921C55.497 7.66992 57.1468 9.37447 57.1468 11.4199V9.60174C57.2037 7.49947 55.497 5.79492 53.3921 5.79492Z" fill="#E09C3B"/>
<path d="M41.161 11.4766H29.8398V13.3516H41.161V11.4766Z" fill="#D9A527"/>
<path d="M41.161 11.4766V13.3516H29.8398V11.4766H30.807V12.3857H40.1938V11.4766H41.161Z" fill="#CE9222"/>
<path d="M44.0063 5.79492H42.1289V10.5108H44.0063V5.79492Z" fill="#E09C3B"/>
<path d="M25.1179 5.79492V8.63583H24.2077V10.5108H22.2734V7.66992H23.2406V5.79492H25.1179Z" fill="#E09C3B"/>
<path d="M24.2077 13.3526V10.5117H22.2734V15.2276H24.2077H44.0054V13.3526H24.2077Z" fill="#DADCE0"/>
<path d="M44.973 8.63672H44.0059V10.5117H44.973V8.63672Z" fill="#33353D"/>
<path d="M27.0511 8.63672H26.084V10.5117H27.0511V8.63672Z" fill="#33353D"/>
<path d="M46.7923 12.3867H41.1602V13.3526H46.7923V12.3867Z" fill="#33353D"/>
<path d="M29.8391 12.3867H24.207V13.3526H29.8391V12.3867Z" fill="#33353D"/>
<path d="M17.6081 61.3629V11.4766H15.6738V59.4879C15.6738 61.5902 17.3805 63.2379 19.4286 63.2379H52.4248V61.3629H17.6081Z" fill="#E09C3B"/>
<path d="M47.7598 65H17.6081C15.1049 65 13 62.9545 13 60.3977V9.60227C13 7.04545 15.048 5 17.6081 5H53.4488C55.952 5 58.0569 7.04545 58.0569 9.60227V61.1364H56.4071V9.60227C56.4071 7.95455 55.0986 6.64773 53.4488 6.64773H17.6081C15.9583 6.64773 14.6498 7.95455 14.6498 9.60227V60.4545C14.6498 62.1023 15.9583 63.4091 17.6081 63.4091H47.7598V65Z" fill="#33353D"/>
<path d="M29.8387 14.1467H24.2066C23.7515 14.1467 23.4102 13.8058 23.4102 13.3512V8.6353C23.4102 8.18075 23.7515 7.83984 24.2066 7.83984H27.0511C27.5062 7.83984 27.8476 8.18075 27.8476 8.6353V9.71484H29.8387C30.2938 9.71484 30.6352 10.0558 30.6352 10.5103V13.3512C30.6352 13.8058 30.2938 14.1467 29.8387 14.1467ZM25.0031 12.5558H29.0423V11.3626H27.0511C26.596 11.3626 26.2547 11.0217 26.2547 10.5671V9.43075H25.06V12.5558H25.0031Z" fill="#33353D"/>
<path d="M46.7919 14.1467H41.1597C40.7046 14.1467 40.3633 13.8058 40.3633 13.3512V10.5103C40.3633 10.0558 40.7046 9.71484 41.1597 9.71484H43.1509V8.6353C43.1509 8.18075 43.5491 7.83984 44.0042 7.83984H46.8487C47.3039 7.83984 47.6452 8.18075 47.6452 8.6353V13.3512C47.6452 13.8058 47.247 14.1467 46.7919 14.1467ZM41.9562 12.5558H45.9954V9.43075H44.8007V10.5103C44.8007 10.9648 44.4594 11.3058 44.0042 11.3058H42.0131V12.5558H41.9562Z" fill="#33353D"/>
<path d="M41.159 12.5566H29.8379V14.2044H41.159V12.5566Z" fill="#33353D"/>
<path d="M45.767 5.79492H44.1172V8.63583H45.767V5.79492Z" fill="#33353D"/>
<path d="M26.8803 5.79492H25.2305V8.63583H26.8803V5.79492Z" fill="#33353D"/>
<path d="M47.7607 62.2168H17.609C17.1538 62.2168 16.8125 61.8759 16.8125 61.4213V10.5123C16.8125 10.0577 17.1538 9.7168 17.609 9.7168H24.2082V11.3645H18.4054V60.6259H47.7607V62.2168Z" fill="#33353D"/>
<path d="M54.2448 61.0804H52.595V11.3077H49.6367V9.7168H53.3915C53.8466 9.7168 54.1879 10.0577 54.1879 10.5123V61.0804H54.2448Z" fill="#33353D"/>
<path d="M41.161 9.7168H29.8398V11.3645H41.161V9.7168Z" fill="#33353D"/>
<path d="M27.9618 37.7276H22.3297C21.8745 37.7276 21.5332 37.3867 21.5332 36.9322V31.3072C21.5332 30.8526 21.8745 30.5117 22.3297 30.5117H27.9618C28.4169 30.5117 28.7582 30.8526 28.7582 31.3072V36.9322C28.7582 37.3299 28.4169 37.7276 27.9618 37.7276ZM23.1261 36.0799H27.1653V32.0458H23.1261V36.0799Z" fill="#33353D"/>
<path d="M29.299 28.775L21.7363 36.3281L22.8627 37.4531L30.4253 29.8999L29.299 28.775Z" fill="#33353D"/>
<path d="M27.9056 20.9668H22.2734V26.5918H27.9056V20.9668Z" fill="#D9A527"/>
<path d="M27.9618 27.4425H22.3297C21.8745 27.4425 21.5332 27.1016 21.5332 26.647V21.022C21.5332 20.5675 21.8745 20.2266 22.3297 20.2266H27.9618C28.4169 20.2266 28.7582 20.5675 28.7582 21.022V26.647C28.7582 27.1016 28.4169 27.4425 27.9618 27.4425ZM23.1261 25.8516H27.1653V21.8175H23.1261V25.8516Z" fill="#33353D"/>
<path d="M29.2716 18.5016L21.709 26.0547L22.8353 27.1796L30.398 19.6265L29.2716 18.5016Z" fill="#33353D"/>
<path d="M27.9618 48.0694H22.3297C21.8745 48.0694 21.5332 47.7285 21.5332 47.274V41.649C21.5332 41.1944 21.8745 40.8535 22.3297 40.8535H27.9618C28.4169 40.8535 28.7582 41.1944 28.7582 41.649V47.274C28.7582 47.7285 28.4169 48.0694 27.9618 48.0694ZM23.1261 46.4217H27.1653V42.3876H23.1261V46.4217Z" fill="#33353D"/>
<path d="M29.2853 39.1227L21.7227 46.6758L22.849 47.8007L30.4117 40.2476L29.2853 39.1227Z" fill="#33353D"/>
<path d="M29.2853 49.2359L21.7227 56.7891L22.849 57.914L30.4117 50.3609L29.2853 49.2359Z" fill="#33353D"/>
<path d="M27.9618 58.4093H22.3297C21.8745 58.4093 21.5332 58.0684 21.5332 57.6138V51.9888C21.5332 51.5343 21.8745 51.1934 22.3297 51.1934H27.9618C28.4169 51.1934 28.7582 51.5343 28.7582 51.9888V57.6138C28.7582 58.0684 28.4169 58.4093 27.9618 58.4093ZM23.1261 56.8184H27.1653V52.7843H23.1261V56.8184Z" fill="#33353D"/>
<path d="M49.6364 31.3633H34.5605V33.011H49.6364V31.3633Z" fill="#33353D"/>
<path d="M49.6364 35.1133H34.5605V36.761H49.6364V35.1133Z" fill="#33353D"/>
<path d="M49.6364 21.1367H34.5605V22.7844H49.6364V21.1367Z" fill="#33353D"/>
<path d="M49.6364 24.8867H34.5605V26.5344H49.6364V24.8867Z" fill="#33353D"/>
<path d="M49.6364 41.7617H34.5605V43.4094H49.6364V41.7617Z" fill="#33353D"/>
<path d="M49.6364 45.5117H34.5605V47.1594H49.6364V45.5117Z" fill="#33353D"/>
<path d="M49.6364 52.1016H34.5605V53.7493H49.6364V52.1016Z" fill="#33353D"/>
<path d="M49.6364 55.8516H34.5605V57.4993H49.6364V55.8516Z" fill="#33353D"/>
<path d="M50.8895 60.5684H49.3535V62.2161H50.8895V60.5684Z" fill="#33353D"/>
<path d="M50.8895 63.4082H49.3535V65.0559H50.8895V63.4082Z" fill="#33353D"/>
</g>
<defs>
<clipPath id="clip0">
<rect width="45" height="60" fill="white" transform="translate(13 5)"/>
</clipPath>
</defs>
</svg>
