<svg width="70" height="70" viewBox="0 0 70 70" fill="none" xmlns="http://www.w3.org/2000/svg">
<rect width="70" height="70" fill="white"/>
<g clip-path="url(#clip0)">
<path d="M50.499 20.3549C34.2368 15.7727 26.0176 20.3549 26.0176 20.3549V24.357C26.0176 29.1132 29.951 32.9993 34.7651 32.9993C40.1076 32.9413 46.3894 33.5794 48.8552 36.3635C53.4931 41.6417 64.1193 39.4956 64.1193 39.4956C64.6477 32.5353 61.5949 23.487 50.499 20.3549Z" fill="#E09C3B"/>
<path d="M48.7968 36.364C46.3311 33.5799 40.0493 32.9418 34.7068 32.9998C29.8927 33.0578 25.9593 29.1717 25.9593 24.3575V20.3554C25.9593 20.3554 20.5581 15.9472 11.6344 18.8473C11.6344 18.8473 17.3291 24.1835 18.2097 25.7496C18.2097 25.7496 14.9221 28.8237 13.2195 32.4778C11.517 36.1319 5.82227 37.466 5.82227 37.466V46.2243C5.82227 46.2243 20.9103 49.3564 24.0219 61.1309H31.7127V56.2587C31.7127 56.2587 38.5816 58.9268 46.0962 56.2587V61.1309H53.6109C53.6109 61.1309 57.3096 51.7925 61.5366 46.9783C62.8869 45.4703 63.8849 42.6862 64.1197 39.4381C64.061 39.4961 53.4935 41.6422 48.7968 36.364Z" fill="#F4A343"/>
<path d="M53.5519 61.9998H46.0959C45.6262 61.9998 45.274 61.6518 45.274 61.1878V57.4756C39.7554 59.0997 34.7065 58.0557 32.5342 57.4756V61.1878C32.5342 61.6518 32.182 61.9998 31.7123 61.9998H24.0215C23.6693 61.9998 23.317 61.7678 23.1996 61.3618C20.2642 50.2254 5.82192 47.0933 5.64579 47.0353C5.29354 46.9773 5 46.6292 5 46.2232V37.4649C5 37.0589 5.29354 36.7689 5.64579 36.6529C5.7045 36.6529 10.9883 35.3188 12.5147 32.0707C13.865 29.1706 16.1546 26.6185 17.2114 25.5745C16.0959 24.1824 13.1605 21.2243 11.1644 19.3682C10.9296 19.1942 10.8708 18.8462 10.9296 18.6142C10.9883 18.3242 11.2231 18.0922 11.4579 18.0342C19.3249 15.4821 24.6086 18.3822 26.135 19.3682C28.1898 18.4402 36.3503 15.4821 50.7339 19.5422C59.4814 22.0363 62.8865 27.7785 64.1781 32.1867C65.998 38.3349 64.589 44.8312 62.1233 47.5573C60.7143 49.1813 59.1879 51.5014 57.6027 54.4595C57.3679 54.8655 56.8982 55.0395 56.4873 54.8075C56.0763 54.5755 55.9002 54.1115 56.135 53.7055C57.7789 50.5734 59.364 48.1373 60.8904 46.4552C63.0039 44.0771 64.2368 38.1609 62.593 32.6507C61.4188 28.6486 58.3072 23.4284 50.2642 21.1663C34.4716 16.7001 26.4873 21.0503 26.4286 21.1083C26.135 21.2823 25.7241 21.2243 25.4892 21.0503C25.3131 20.8763 20.7926 17.3961 13.3366 19.2522C15.0391 20.9343 18.3268 24.1244 18.9726 25.3424C19.1487 25.6905 19.09 26.0965 18.7965 26.3285C18.7378 26.3865 15.6262 29.3446 13.9824 32.8247C12.456 36.0728 8.28767 37.6389 6.64384 38.1029V45.5852C9.63796 46.3392 21.4971 49.9934 24.6086 60.3177H30.8317V56.3156C30.8317 56.0256 30.9491 55.7936 31.184 55.6196C31.4188 55.4456 31.7123 55.4456 31.9472 55.5036C32.0059 55.5036 38.6399 57.9977 45.7436 55.5036C45.9785 55.3876 46.272 55.4456 46.5069 55.6196C46.7417 55.7936 46.8591 56.0256 46.8591 56.3156V60.3177H53.4932C53.9628 60.3177 54.3151 60.6658 54.3151 61.1298C54.3151 61.5938 54.0215 61.9998 53.5519 61.9998Z" fill="#33353D"/>
<path d="M55.3722 57.9394C55.2548 57.9394 55.1374 57.9394 55.02 57.8814C54.609 57.7074 54.4329 57.1854 54.609 56.7794L54.7264 56.5474C54.7851 56.4314 54.7851 56.4314 54.9026 56.1994L55.02 55.9673C55.1961 55.5613 55.7245 55.3873 56.1354 55.5613C56.5464 55.7353 56.7225 56.2574 56.5464 56.6634L56.429 56.8954C56.3116 57.0694 56.3116 57.0694 56.2529 57.2434L56.1354 57.5334C56.018 57.7654 55.6658 57.9394 55.3722 57.9394Z" fill="#33353D"/>
<path d="M53.5528 62.0003C53.4354 62.0003 53.3767 62.0003 53.2593 61.9423C52.8483 61.7683 52.6135 61.3042 52.7896 60.8982C52.7896 60.8982 52.9658 60.3762 53.5528 59.1002C53.729 58.6941 54.2573 58.5201 54.6683 58.6941C55.0793 58.8681 55.3141 59.3902 55.0793 59.7962C54.5509 61.0142 54.3748 61.5362 54.3161 61.5362C54.2573 61.7683 53.9051 62.0003 53.5528 62.0003Z" fill="#33353D"/>
<path d="M46.624 26.2705C46.5066 26.2705 46.3892 26.2705 46.2718 26.2125C39.9313 23.3124 31.0663 24.9945 30.9489 24.9945C30.4792 25.0525 30.0683 24.7624 29.9508 24.3564C29.8921 23.8924 30.1857 23.4864 30.5966 23.3704C31.0076 23.3124 40.0487 21.6303 46.9176 24.7044C47.3285 24.8784 47.5047 25.4005 47.3285 25.8065C47.2111 26.0965 46.9176 26.2705 46.624 26.2705Z" fill="#33353D"/>
<path d="M21.2028 33.6371C22.2079 33.6371 23.0227 32.8321 23.0227 31.8391C23.0227 30.846 22.2079 30.041 21.2028 30.041C20.1976 30.041 19.3828 30.846 19.3828 31.8391C19.3828 32.8321 20.1976 33.6371 21.2028 33.6371Z" fill="#33353D"/>
<path d="M38.6989 20.3536C41.9088 20.3536 44.511 17.7827 44.511 14.6114C44.511 11.44 41.9088 8.86914 38.6989 8.86914C35.4889 8.86914 32.8867 11.44 32.8867 14.6114C32.8867 17.7827 35.4889 20.3536 38.6989 20.3536Z" fill="#BEC3C7"/>
<path d="M41.5172 14.6114H44.5114C44.5114 11.4212 41.9282 8.86914 38.6992 8.86914V11.8273C40.2843 11.8273 41.5172 13.0453 41.5172 14.6114Z" fill="#ECF0F1"/>
<path d="M38.6986 21.2245C35 21.2245 32.0059 18.2664 32.0059 14.6122C32.0059 10.9581 35 8 38.6986 8C42.3973 8 45.3914 10.9581 45.3914 14.6122C45.3914 18.2664 42.3973 21.2245 38.6986 21.2245ZM38.6986 9.68206C35.9393 9.68206 33.7084 11.8861 33.7084 14.6122C33.7084 17.3383 35.9393 19.5424 38.6986 19.5424C41.4579 19.5424 43.6888 17.3383 43.6888 14.6122C43.6888 11.8861 41.4579 9.68206 38.6986 9.68206Z" fill="#33353D"/>
</g>
<defs>
<clipPath id="clip0">
<rect width="60" height="54" fill="white" transform="translate(5 8)"/>
</clipPath>
</defs>
</svg>
