<svg width="70" height="70" viewBox="0 0 70 70" fill="none" xmlns="http://www.w3.org/2000/svg">
<rect width="70" height="70" fill="white"/>
<g clip-path="url(#clip0)">
<path d="M28.4461 49.7657L18.8867 56.9149L23.0982 62.5942C23.3656 62.9951 23.9004 63.0619 24.3015 62.7946L30.0504 58.5185C30.9863 57.9171 31.9222 57.7835 32.8581 57.7167C33.9945 57.5831 35.1309 57.4494 36.3342 56.5808C36.4679 56.514 38.4734 54.9773 41.0804 53.1064L39.6766 51.3024C36.9358 47.7612 31.989 47.0931 28.4461 49.7657Z" fill="#E09C3B"/>
<path d="M51.9788 42.8169C51.7114 42.416 51.3103 42.2156 50.8424 42.1488C50.3744 42.082 49.9065 42.2156 49.5723 42.4828L45.294 45.6232C44.826 45.9572 44.1575 45.8904 43.8233 45.4227C43.489 44.955 43.5559 44.2869 44.0238 43.9528L48.3021 40.8125C49.0375 40.2111 49.238 39.1421 48.6364 38.4071C48.1016 37.6722 46.9652 37.4717 46.2298 38.073L41.9515 41.2134C41.4836 41.5474 40.8151 41.4806 40.4809 41.0129C40.1466 40.5452 40.2135 39.8771 40.6814 39.543L44.9597 36.4027C45.3608 36.1354 45.5613 35.7345 45.6282 35.2668C45.695 34.7991 45.5613 34.3314 45.294 33.9973C44.6923 33.2624 43.6227 33.0619 42.8874 33.6632L38.6091 36.8036C38.1412 37.1376 37.4727 37.0708 37.1384 36.6031C36.8042 36.1354 36.871 35.4673 37.339 35.1332L41.6173 31.9929C42.0184 31.7256 42.2189 31.3247 42.2858 30.857C42.3526 30.3893 42.2189 29.9216 41.9515 29.5875C41.6841 29.1866 41.283 28.9862 40.8151 28.9194C40.3472 28.8526 39.8792 28.9862 39.545 29.2534L27.7796 37.9394C27.3117 38.2735 26.6432 38.2067 26.309 37.739C25.9747 37.2713 26.0416 36.6031 26.5095 36.269L28.3144 34.9327L26.2421 32.4606L22.0307 35.6677C20.6268 36.6699 19.0893 39.4762 19.6241 46.9595C19.6241 47.2935 19.4904 47.6276 19.223 47.8281L15.279 50.7679C14.8779 51.0352 14.811 51.5697 15.0784 51.9706L18.7551 56.9149L28.4481 49.7657C31.9911 47.0931 36.9379 47.7612 39.6787 51.2356L41.0825 53.0396C45.5613 49.6989 51.5777 45.2223 51.5777 45.2223C51.9788 44.955 52.1794 44.5541 52.2462 44.0864C52.3799 43.6187 52.2462 43.2178 51.9788 42.8169Z" fill="#F4A343"/>
<path d="M51.3777 47.9629C49.6396 49.2324 46.6314 51.5041 43.8906 53.5085L49.5059 60.3237C51.0434 62.395 53.9848 62.8627 56.0571 61.3259C58.1294 59.7892 58.5305 56.8493 57.0598 54.778L51.3777 47.9629Z" fill="#BEC3C7"/>
<path d="M53.0475 46.758C53.7828 46.1566 54.2508 45.3548 54.3845 44.4194C54.5182 43.4172 54.2508 42.415 53.6491 41.6132C53.0475 40.8114 52.1785 40.2769 51.1757 40.1433C51.1089 40.1433 51.1089 40.1433 51.042 40.1433C51.2426 39.141 50.9752 38.072 50.3736 37.2034C49.7051 36.3348 48.7692 35.8003 47.7665 35.6666C47.7665 35.5998 47.7665 35.5998 47.7665 35.533C47.9002 34.5308 47.6328 33.5286 47.0311 32.7268C46.3626 31.8582 45.4268 31.3237 44.424 31.19C44.424 31.1232 44.424 31.1232 44.424 31.0564C44.5577 30.0542 44.2903 29.0519 43.6887 28.2502C43.0871 27.4484 42.218 26.9139 41.2153 26.7802C40.5468 26.7134 39.9452 26.7802 39.3435 26.9807C39.3435 26.9139 39.2767 26.847 39.2767 26.847L35.1321 21.9027C36.6027 17.9606 36.0011 13.4172 33.5277 10.0096C30.5864 6.06753 25.6396 4.19671 20.8933 5.26575C20.5591 5.33257 20.2917 5.59983 20.158 5.9339C20.0243 6.26798 20.0912 6.66887 20.2917 6.93613C20.2917 7.00294 20.3585 7.06976 20.4254 7.13657L26.8429 12.8159L25.1716 19.6978L18.0857 19.2301L14.4759 11.5464C14.3422 11.1455 14.0079 10.8782 13.6068 10.8782C13.2057 10.8114 12.8047 11.0119 12.6041 11.3459C10.1976 15.6221 10.5318 20.9005 13.4731 24.8426C16.0134 28.2502 20.158 30.121 24.3695 29.8537L25.1716 30.7891L21.027 33.9294C18.4868 35.8003 17.4172 40.0096 17.7515 46.4907L14.1416 49.0965C12.8047 50.0319 12.5373 51.9027 13.54 53.1722L21.4281 63.7958C22.364 65.0653 24.2358 65.3326 25.5059 64.3972L31.188 60.1878C31.656 59.9205 32.3244 59.7869 33.1266 59.7201C34.3967 59.5865 35.9343 59.386 37.5386 58.1833C37.6723 58.1165 39.6109 56.6466 42.1512 54.7758L47.7665 61.5909C49.9725 64.5976 54.2508 65.1989 57.1921 62.994C60.2003 60.7891 60.8019 56.5798 58.5959 53.5731L53.0475 46.758ZM24.7037 27.7825C21.027 28.1833 17.3504 26.6466 15.1444 23.6399C13.1389 20.9673 12.6041 17.4929 13.54 14.4194L16.4145 20.7C16.5482 21.0341 16.8824 21.3014 17.2835 21.3014L25.907 21.8359C26.4418 21.8359 26.8429 21.5018 26.9766 21.0341L28.982 12.6822C29.0489 12.2813 28.9152 11.9473 28.6478 11.68L23.5004 7.06976C26.7092 7.06976 29.9179 8.60651 31.8565 11.2791C34.0625 14.219 34.5304 18.2279 32.9929 21.6355C32.8592 21.9695 32.8592 22.3704 33.1266 22.6377L37.6723 28.0497L30.1853 33.5954L25.6396 28.1833C25.439 27.9161 25.0379 27.7825 24.7037 27.7825ZM36.3354 56.513C35.1989 57.3816 33.9957 57.5152 32.8592 57.6488C31.9233 57.7825 30.9875 57.9161 30.0516 58.4506L24.3026 62.7268C23.9015 62.994 23.3667 62.9272 23.0993 62.5263L15.2112 51.9695C14.9438 51.5686 15.0107 51.0341 15.4118 50.7669L19.3558 47.827C19.6232 47.6265 19.8238 47.2925 19.7569 46.9584C19.289 39.4751 20.8265 36.6689 22.1635 35.6666L26.3749 32.4595L28.4472 34.9317L26.6423 36.268C26.1744 36.6021 26.1075 37.2702 26.4418 37.7379C26.776 38.2056 27.4445 38.2724 27.9124 37.9384L39.6778 29.2524C40.0789 28.9851 40.48 28.8515 40.9479 28.9183C41.4158 28.9851 41.8169 29.2524 42.0843 29.5865C42.3517 29.9874 42.4854 30.3882 42.4186 30.856C42.3517 31.3237 42.0843 31.7245 41.7501 31.9918L37.4718 35.0653C37.0038 35.3994 36.937 36.0675 37.2712 36.5352C37.6055 37.0029 38.274 37.0698 38.7419 36.7357L43.0202 33.5954C43.7555 32.994 44.892 33.1945 45.4268 33.9294C45.6942 34.3303 45.8279 34.7312 45.761 35.1989C45.6942 35.6666 45.4268 36.0675 45.0925 36.3348L40.8142 39.4751C40.3463 39.8092 40.2794 40.4773 40.6137 40.945C40.9479 41.4127 41.6164 41.4796 42.0843 41.1455L46.3626 38.0052C47.098 37.4706 48.2344 37.6043 48.7692 38.3392C49.304 39.0742 49.1703 40.2101 48.4349 40.7446L44.1566 43.8849C43.6887 44.219 43.6218 44.8871 43.9561 45.3548C44.2903 45.8225 44.9588 45.8894 45.4268 45.5553L49.7051 42.415C50.1062 42.1477 50.5072 42.0141 50.9752 42.0809C51.4431 42.1477 51.8442 42.415 52.1116 42.749C52.379 43.1499 52.5127 43.5508 52.4459 44.0185C52.379 44.4862 52.1116 44.8871 51.7774 45.1544C51.6437 45.2212 36.6696 56.3125 36.3354 56.513ZM55.9888 61.3237C53.9165 62.8604 50.9752 62.3927 49.4377 60.3214L43.8224 53.5063C46.5632 51.435 49.5714 49.2301 51.3094 47.9606L56.9247 54.7758C58.5291 56.847 58.0611 59.7869 55.9888 61.3237Z" fill="#33353D"/>
<path d="M26.977 21.0366C26.8433 21.5043 26.4422 21.8384 25.9074 21.8384L17.2839 21.3038C16.8828 21.3038 16.5486 21.0366 16.4149 20.7025L13.5404 14.4219C12.6045 17.5622 13.1393 20.9698 15.1448 23.6424C17.3508 26.649 21.0275 28.1858 24.7041 27.7849C25.0384 27.7181 25.4395 27.9185 25.64 28.1858L30.1857 33.5978L36.1352 29.188L27.5786 18.4976L26.977 21.0366Z" fill="#BEC3C7"/>
<path d="M37.6738 28.1186L33.1281 22.7066C32.9276 22.4393 32.8608 22.0384 32.9944 21.7044C34.4651 18.2968 34.064 14.2879 31.858 11.348C29.8526 8.67542 26.6438 7.13867 23.502 7.13867L28.6493 11.7489C28.9167 12.0162 29.0504 12.4171 28.9835 12.7511L27.5797 18.6309L36.1363 29.3213L37.6738 28.1186Z" fill="#BEC3C7"/>
<path d="M24.97 39.81C25.5607 39.81 26.0395 39.3313 26.0395 38.7409C26.0395 38.1505 25.5607 37.6719 24.97 37.6719C24.3793 37.6719 23.9004 38.1505 23.9004 38.7409C23.9004 39.3313 24.3793 39.81 24.97 39.81Z" fill="#33353D"/>
</g>
<defs>
<clipPath id="clip0">
<rect width="49" height="60" fill="white" transform="translate(11 5)"/>
</clipPath>
</defs>
</svg>
