<svg width="30" height="30" viewBox="0 0 30 30" fill="none" xmlns="http://www.w3.org/2000/svg">
<rect width="30" height="30" rx="5" fill="#F4A343"/>
<path d="M21.2501 23.125H21.1438C8.86259 22.4187 7.11884 12.0563 6.87509 8.89375C6.85545 8.64786 6.88452 8.40052 6.96064 8.16588C7.03676 7.93125 7.15842 7.71394 7.31867 7.52641C7.47891 7.33888 7.67458 7.1848 7.89447 7.07302C8.11437 6.96124 8.35415 6.89395 8.60009 6.875H12.0438C12.2942 6.87476 12.5388 6.94969 12.7461 7.0901C12.9534 7.23051 13.1137 7.42992 13.2063 7.6625L14.1563 10C14.2478 10.2272 14.2705 10.4763 14.2216 10.7163C14.1727 10.9563 14.0544 11.1767 13.8813 11.35L12.5501 12.6938C12.758 13.8755 13.324 14.9648 14.1713 15.8143C15.0186 16.6639 16.1064 17.2327 17.2876 17.4438L18.6438 16.1C18.8198 15.9288 19.0422 15.8133 19.2834 15.7677C19.5246 15.7221 19.7738 15.7486 20.0001 15.8438L22.3563 16.7875C22.5854 16.8831 22.7809 17.0446 22.9178 17.2517C23.0547 17.4587 23.1268 17.7018 23.1251 17.95V21.25C23.1251 21.7473 22.9275 22.2242 22.5759 22.5758C22.2243 22.9275 21.7474 23.125 21.2501 23.125ZM8.75009 8.125C8.58433 8.125 8.42536 8.19085 8.30815 8.30806C8.19094 8.42527 8.12509 8.58424 8.12509 8.75V8.8C8.41259 12.5 10.2563 21.25 21.2126 21.875C21.2947 21.8801 21.377 21.8689 21.4548 21.8421C21.5326 21.8153 21.6043 21.7734 21.6658 21.7188C21.7274 21.6642 21.7775 21.598 21.8135 21.524C21.8494 21.45 21.8703 21.3696 21.8751 21.2875V17.95L19.5188 17.0062L17.7251 18.7875L17.4251 18.75C11.9876 18.0688 11.2501 12.6313 11.2501 12.575L11.2126 12.275L12.9876 10.4813L12.0501 8.125H8.75009Z" fill="white"/>
</svg>
