<svg width="40" height="40" viewBox="0 0 40 40" fill="none" xmlns="http://www.w3.org/2000/svg">
<rect width="40" height="40" rx="3" fill="#F4A343"/>
<path d="M29.9167 13.5006C29.8334 13.4173 29.75 13.3339 29.5834 13.3339H13.75L13.3333 11.1673C13.3333 11.0006 13.0833 10.834 12.9166 10.834H10.4166C10.1667 10.8339 10 11.0006 10 11.2506C10 11.5006 10.1667 11.6673 10.4167 11.6673H12.5834L14.5834 21.834C14.8334 23.1673 16.0834 24.1673 17.4167 24.1673H27C27.25 24.1673 27.4167 24.0006 27.4167 23.7506C27.4167 23.5006 27.25 23.3339 27 23.3339H17.5C16.8333 23.3339 16.1667 23.0006 15.8333 22.4173L28 20.7506C28.1667 20.7506 28.3333 20.5839 28.3333 20.4173L30 13.7506C30 13.7506 30 13.5839 29.9167 13.5006ZM27.5833 20.0006L15.4166 21.5839L13.9166 14.0839H29L27.5833 20.0006Z" fill="white"/>
<path d="M17.0833 25C15.9167 25 15 25.9167 15 27.0833C15 28.25 15.9167 29.1666 17.0833 29.1666C18.25 29.1666 19.1666 28.25 19.1666 27.0833C19.1667 25.9167 18.25 25 17.0833 25ZM17.0833 28.3333C16.4166 28.3333 15.8333 27.75 15.8333 27.0833C15.8333 26.4167 16.4166 25.8333 17.0833 25.8333C17.75 25.8333 18.3333 26.4167 18.3333 27.0833C18.3333 27.75 17.75 28.3333 17.0833 28.3333Z" fill="white"/>
<path d="M25.4154 25C24.2487 25 23.332 25.9167 23.332 27.0833C23.332 28.25 24.2487 29.1666 25.4154 29.1666C26.582 29.1666 27.4987 28.25 27.4987 27.0833C27.4987 25.9167 26.582 25 25.4154 25ZM25.4154 28.3333C24.7487 28.3333 24.1654 27.75 24.1654 27.0833C24.1654 26.4167 24.7487 25.8333 25.4154 25.8333C26.082 25.8333 26.6654 26.4167 26.6654 27.0833C26.6654 27.75 26.082 28.3333 25.4154 28.3333Z" fill="white"/>
</svg>
