<svg width="20" height="20" viewBox="0 0 20 20" fill="none" xmlns="http://www.w3.org/2000/svg">
<path fill-rule="evenodd" clip-rule="evenodd" d="M2.05764 5.80666C2.1157 5.74846 2.18467 5.70228 2.2606 5.67077C2.33653 5.63926 2.41793 5.62305 2.50014 5.62305C2.58235 5.62305 2.66375 5.63926 2.73968 5.67077C2.81561 5.70228 2.88458 5.74846 2.94264 5.80666L10.0001 12.8654L17.0576 5.80666C17.1158 5.74855 17.1847 5.70246 17.2607 5.67101C17.3366 5.63956 17.418 5.62337 17.5001 5.62337C17.5823 5.62337 17.6637 5.63956 17.7396 5.67101C17.8155 5.70246 17.8845 5.74855 17.9426 5.80666C18.0007 5.86477 18.0468 5.93376 18.0783 6.00968C18.1097 6.08561 18.1259 6.16698 18.1259 6.24916C18.1259 6.33134 18.1097 6.41272 18.0783 6.48864C18.0468 6.56457 18.0007 6.63355 17.9426 6.69166L10.4426 14.1917C10.3846 14.2499 10.3156 14.296 10.2397 14.3276C10.1638 14.3591 10.0823 14.3753 10.0001 14.3753C9.91793 14.3753 9.83653 14.3591 9.7606 14.3276C9.68467 14.296 9.6157 14.2499 9.55764 14.1917L2.05764 6.69166C1.99944 6.63361 1.95326 6.56464 1.92175 6.48871C1.89024 6.41277 1.87402 6.33137 1.87402 6.24916C1.87402 6.16695 1.89024 6.08555 1.92175 6.00962C1.95326 5.93369 1.99944 5.86472 2.05764 5.80666Z" fill="#35373F"/>
</svg>
