<svg width="21" height="21" viewBox="0 0 21 21" fill="none" xmlns="http://www.w3.org/2000/svg">
<path d="M20.1704 7.6211L13.9716 6.72022L11.2006 1.10255C11.125 0.948739 11.0005 0.824228 10.8466 0.748544C10.4609 0.558115 9.99215 0.716806 9.79928 1.10255L7.02828 6.72022L0.829552 7.6211C0.658653 7.64552 0.502403 7.72608 0.382774 7.84815C0.23815 7.9968 0.158455 8.19679 0.161202 8.40416C0.163948 8.61154 0.248912 8.80934 0.397423 8.95411L4.88229 13.3267L3.82272 19.501C3.79787 19.6446 3.81376 19.7923 3.86859 19.9274C3.92343 20.0624 4.015 20.1794 4.13294 20.2651C4.25088 20.3507 4.39046 20.4016 4.53585 20.412C4.68124 20.4224 4.82663 20.3918 4.95553 20.3237L10.5 17.4087L16.0444 20.3237C16.1958 20.4043 16.3715 20.4312 16.54 20.4019C16.9648 20.3286 17.2505 19.9258 17.1772 19.501L16.1176 13.3267L20.6025 8.95411C20.7246 8.83448 20.8051 8.67823 20.8296 8.50733C20.8955 8.08009 20.5976 7.68458 20.1704 7.6211Z" fill="#F4A343"/>
</svg>
