<svg width="21" height="21" viewBox="0 0 21 21" fill="none" xmlns="http://www.w3.org/2000/svg">
<path d="M20.1713 7.6211L13.9726 6.72022L11.2016 1.10255C11.1259 0.948739 11.0014 0.824228 10.8476 0.748544C10.4619 0.558115 9.99312 0.716806 9.80025 1.10255L7.02926 6.72022L0.830528 7.6211C0.65963 7.64552 0.50338 7.72608 0.383751 7.84815C0.239126 7.9968 0.159431 8.19679 0.162178 8.40416C0.164925 8.61154 0.249888 8.80934 0.398399 8.95411L4.88326 13.3267L3.82369 19.501C3.79885 19.6446 3.81474 19.7923 3.86957 19.9274C3.9244 20.0624 4.01598 20.1794 4.13392 20.2651C4.25186 20.3507 4.39143 20.4016 4.53683 20.412C4.68222 20.4224 4.82761 20.3918 4.9565 20.3237L10.5009 17.4087L16.0454 20.3237C16.1967 20.4043 16.3725 20.4312 16.541 20.4019C16.9658 20.3286 17.2514 19.9258 17.1782 19.501L16.1186 13.3267L20.6035 8.95411C20.7255 8.83448 20.8061 8.67823 20.8305 8.50733C20.8964 8.08009 20.5986 7.68458 20.1713 7.6211Z" fill="#C5C5C5"/>
</svg>
