<svg width="15" height="15" viewBox="0 0 15 15" fill="none" xmlns="http://www.w3.org/2000/svg">
    <path fill-rule="evenodd" clip-rule="evenodd" d="M4.75334 2.1914H1L0.999999 5.94474L4.75334 5.94474L4.75334 2.1914ZM1 1.1914C0.447715 1.1914 0 1.63912 0 2.1914V5.94474C0 6.49703 0.447715 6.94474 0.999999 6.94474H4.75334C5.30562 6.94474 5.75334 6.49703 5.75334 5.94474V2.1914C5.75334 1.63912 5.30562 1.1914 4.75334 1.1914H1Z" fill="white"/>
    <path fill-rule="evenodd" clip-rule="evenodd" d="M4.75334 10.2461H1L0.999999 13.9994L4.75334 13.9994L4.75334 10.2461ZM1 9.24608C0.447715 9.24608 0 9.69379 0 10.2461V13.9994C0 14.5517 0.447715 14.9994 0.999999 14.9994H4.75334C5.30562 14.9994 5.75334 14.5517 5.75334 13.9994V10.2461C5.75334 9.69379 5.30562 9.24608 4.75334 9.24608H1Z" fill="white"/>
    <path fill-rule="evenodd" clip-rule="evenodd" d="M12.808 10.2461H9.05467L9.05467 13.9994L12.808 13.9994V10.2461ZM9.05467 9.24608C8.50239 9.24608 8.05467 9.69379 8.05467 10.2461V13.9994C8.05467 14.5517 8.50239 14.9994 9.05467 14.9994H12.808C13.3603 14.9994 13.808 14.5517 13.808 13.9994V10.2461C13.808 9.69379 13.3603 9.24608 12.808 9.24608H9.05467Z" fill="white"/>
    <path fill-rule="evenodd" clip-rule="evenodd" d="M10.9318 1.41406L8.27777 4.06807L10.9318 6.72208L13.5858 4.06807L10.9318 1.41406ZM7.57066 3.36097C7.18013 3.75149 7.18013 4.38466 7.57066 4.77518L10.2247 7.42919C10.6152 7.81971 11.2484 7.81971 11.6389 7.42919L14.2929 4.77518C14.6834 4.38466 14.6834 3.75149 14.2929 3.36097L11.6389 0.706956C11.2484 0.316432 10.6152 0.316431 10.2247 0.706955L7.57066 3.36097Z" fill="white"/>
</svg>