<svg width="52" height="53" viewBox="0 0 52 53" fill="none" xmlns="http://www.w3.org/2000/svg">
<g clip-path="url(#clip0)">
<path d="M25.9577 38.4222C32.5887 38.4222 37.9642 33.0653 37.9642 26.4572C37.9642 19.8491 32.5887 14.4922 25.9577 14.4922C19.3267 14.4922 13.9512 19.8491 13.9512 26.4572C13.9512 33.0653 19.3267 38.4222 25.9577 38.4222Z" fill="#DADCE0"/>
<path d="M46.1666 27.5527L46.2512 26.4573L46.1666 25.3619C46.1666 24.6879 46.5894 24.098 47.2658 23.8453C48.5341 23.4239 49.8869 23.0026 51.1552 22.4971C51.0707 22.0758 50.9861 21.5702 50.9016 21.1489L50.5633 19.8007C50.3942 18.8739 50.056 18.0313 49.7178 17.1044C48.365 17.2729 47.0121 17.5257 45.6593 17.8627C44.9829 18.0313 44.2219 17.6942 43.9682 17.1044C43.7991 16.7674 43.63 16.5146 43.4609 16.1775L42.9536 15.2507C42.6154 14.6608 42.6154 13.9025 43.1227 13.3969C44.0528 12.3858 44.9829 11.2904 45.8284 10.195C45.2365 9.43667 44.6446 8.76258 43.9682 8.0885C43.2918 7.49867 42.6154 6.82458 41.939 6.23476C40.8398 7.07737 39.8251 8.00424 38.8105 8.9311C38.3032 9.43667 37.5422 9.43667 36.9503 9.09963L36.1048 8.5098C35.7666 8.42554 35.5129 8.25702 35.1747 8.17276C34.5829 7.91997 34.3292 7.16163 34.4138 6.40328C34.752 5.05511 34.9211 3.70694 35.1747 2.27451C34.3292 1.93746 33.4837 1.60042 32.5536 1.4319L31.2007 1.09486C30.778 1.01059 30.2707 0.926334 29.8479 0.842073C29.3406 2.19025 28.9178 3.45416 28.4951 4.80233C28.2414 5.47641 27.6495 5.98198 26.9731 5.98198L25.9585 5.89772H24.9438C24.2674 5.89772 23.6755 5.47641 23.4219 4.71807C22.9991 3.36989 22.5764 2.10598 22.069 0.757812C21.6463 0.842073 21.139 0.926334 20.7162 1.01059L19.3633 1.34764C18.4333 1.51616 17.5877 1.8532 16.7422 2.19024C16.9113 3.53842 17.165 4.88659 17.5032 6.31902C17.6723 7.07737 17.3341 7.75145 16.7422 8.0885C16.404 8.25702 16.1503 8.42554 15.8121 8.59406L14.9666 9.18389C14.3747 9.52093 13.6983 9.52093 13.1064 9.01536C12.0918 8.0885 11.0772 7.16163 9.97798 6.31902C9.30156 6.82458 8.62513 7.49867 7.94871 8.0885C7.35684 8.76258 6.68042 9.43667 6.08855 10.195C6.93408 11.2904 7.86416 12.3858 8.79424 13.3969C9.30156 13.9867 9.30156 14.6608 8.96335 15.2507L8.45603 16.1775C8.28692 16.5146 8.11782 16.7674 7.94871 17.1044C7.69505 17.6942 6.93408 18.0313 6.25765 17.8627C4.90481 17.5257 3.55196 17.2729 2.19912 17.1044C1.86091 17.947 1.52269 18.8739 1.35359 19.8007L1.01538 21.1489C0.930825 21.5702 0.846272 22.0758 0.761719 22.4971C2.03001 23.0026 3.2983 23.5082 4.65115 23.8453C5.32757 24.098 5.83489 24.6879 5.75034 25.3619L5.66578 26.4573L5.75034 27.5527C5.75034 28.2268 5.32757 28.8166 4.65115 29.0694C3.38286 29.4907 2.11456 29.912 0.846272 30.4176C0.930824 30.8389 1.01538 31.3445 1.09993 31.7658L1.43814 33.1139C1.60725 34.0408 1.94546 34.8834 2.28367 35.8103C3.63652 35.6418 4.98936 35.389 6.34221 35.0519C7.01863 34.8834 7.77961 35.2205 8.03326 35.8103C8.20237 36.1473 8.37148 36.4001 8.54058 36.7371L9.0479 37.664C9.38611 38.2538 9.38611 39.0122 8.87879 39.5177C7.94871 40.5289 7.01863 41.6243 6.1731 42.7197C6.76497 43.478 7.35684 44.1521 8.03326 44.8262C8.70969 45.416 9.38611 46.0901 10.0625 46.6799C11.1617 45.8373 12.1764 44.9104 13.191 43.9836C13.6983 43.478 14.4593 43.478 15.0511 43.815L15.8967 44.4049C16.1503 44.5734 16.4885 44.7419 16.8268 44.9104C17.4186 45.1632 17.6723 45.9216 17.5877 46.6799C17.2495 48.0281 17.0804 49.3763 16.8268 50.8087C17.6723 51.1457 18.5178 51.4828 19.4479 51.6513L20.8007 51.9883C21.2235 52.0726 21.7308 52.1569 22.1536 52.2411C22.6609 50.8929 23.0837 49.629 23.5064 48.2809C23.7601 47.6068 24.352 47.1012 25.0284 47.1012L26.043 47.1855L27.0577 47.1012C27.7341 47.1012 28.3259 47.5225 28.5796 48.2809C29.0024 49.629 29.4251 50.8929 29.9325 52.2411C30.3552 52.1569 30.8625 52.0726 31.2853 51.9883L32.6381 51.6513C33.5682 51.4828 34.4138 51.1457 35.2593 50.8087C35.0902 49.4605 34.8365 48.1123 34.4983 46.6799C34.3292 45.9216 34.6674 45.2475 35.2593 44.9104C35.5975 44.7419 35.8512 44.5734 36.1894 44.4049L37.0349 43.815C37.6268 43.478 38.3032 43.478 38.8951 43.9836C39.9097 44.9104 40.9243 45.8373 42.0235 46.6799C42.7845 46.0901 43.3764 45.416 44.0528 44.8262C44.6446 44.1521 45.3211 43.478 45.9129 42.7197C45.0674 41.6243 44.1373 40.5289 43.2072 39.5177C42.6999 38.9279 42.6999 38.2538 43.0381 37.664L43.5455 36.7371C43.7146 36.4001 43.8837 36.1473 44.0528 35.8103C44.3064 35.2205 45.0674 34.8834 45.7438 35.0519C47.0967 35.389 48.4495 35.6418 49.8024 35.8103C50.1406 34.9677 50.4788 34.0408 50.6479 33.1139L50.9861 31.7658C51.0707 31.3445 51.1552 30.8389 51.2398 30.4176C49.9715 29.912 48.7032 29.4065 47.3503 29.0694C46.5894 28.8166 46.082 28.2268 46.1666 27.5527ZM36.2739 32.5241L35.8512 33.1982C35.682 33.451 35.5129 33.6195 35.4284 33.8723C35.1747 34.2936 34.752 34.6306 34.4138 35.0519C33.991 35.389 33.6528 35.8103 33.23 36.0631C33.0609 36.2316 32.8072 36.4001 32.6381 36.5686L31.9617 36.9899C30.1861 38.0853 28.0723 38.5909 26.043 38.5909C23.9292 38.5909 21.8999 38.0853 20.1243 36.9899L19.4479 36.5686C19.1942 36.4001 19.0251 36.2316 18.856 36.0631C18.4333 35.8103 18.0951 35.389 17.6723 35.0519C17.3341 34.6306 16.9113 34.2936 16.6577 33.8723C16.4885 33.6195 16.3194 33.451 16.2349 33.1982L15.8121 32.5241C14.7129 30.6704 14.2902 28.5639 14.2056 26.4573C14.2056 24.3508 14.7129 22.2443 15.8121 20.3906L16.2349 19.7165C16.404 19.4637 16.5731 19.2952 16.6577 19.0424C16.9113 18.6211 17.3341 18.284 17.6723 17.8627C18.0951 17.5257 18.4333 17.1044 18.856 16.8516C19.0251 16.6831 19.2788 16.5146 19.4479 16.346L20.1243 15.9247C21.8999 14.8294 24.0138 14.3238 26.043 14.3238C28.1568 14.3238 30.1861 14.8294 31.9617 15.9247L32.6381 16.346C32.8918 16.5146 33.0609 16.6831 33.23 16.8516C33.6528 17.1044 33.991 17.5257 34.4138 17.8627C34.752 18.284 35.1747 18.6211 35.4284 19.0424C35.5975 19.2952 35.7666 19.4637 35.8512 19.7165L36.2739 20.3906C37.3731 22.2443 37.7959 24.3508 37.8804 26.4573C37.7959 28.5639 37.2885 30.6704 36.2739 32.5241Z" fill="#F4A343"/>
<path d="M25.9576 38.59C23.8438 38.59 21.8145 38.0845 20.0389 36.9891L19.3625 36.5678C19.1088 36.3993 18.9397 36.2307 18.7706 36.0622C18.3479 35.8094 18.0097 35.3881 17.5869 35.0511C17.2487 34.6298 16.8259 34.2927 16.5723 33.8714C16.4031 33.6187 16.234 33.4501 16.1495 33.1974L15.7267 32.5233C14.6275 30.6695 14.2048 28.563 14.1202 26.4565C14.1202 24.35 14.6275 22.2435 15.7267 20.3897L16.1495 19.7156C16.3186 19.4629 16.4877 19.2943 16.5723 19.0416C16.8259 18.6203 17.2487 18.2832 17.5869 17.8619C18.0097 17.5249 18.3479 17.1036 18.7706 16.8508C18.9397 16.6823 19.1934 16.5137 19.3625 16.3452L20.0389 15.9239C21.8145 14.8285 23.9283 14.323 25.9576 14.323C25.9576 12.0479 23.8438 10.3627 21.6454 11.0368C14.8812 12.8905 9.89258 19.1258 9.89258 26.4565C9.89258 33.7872 14.8812 40.0225 21.6454 41.8762C23.8438 42.5503 25.9576 40.8651 25.9576 38.59Z" fill="#E09C3B"/>
<path d="M33.9909 26.4572H38.0495C38.0495 19.8006 32.6381 14.4922 26.043 14.4922V18.5367C30.3552 18.5367 33.9909 22.0757 33.9909 26.4572Z" fill="#E2E5ED"/>
<path d="M46.1666 27.5527L46.2512 26.4573L46.1666 25.3619C46.1666 24.6879 46.5894 24.098 47.2658 23.8453C48.5341 23.4239 49.8869 23.0026 51.1552 22.4971C51.0707 22.0758 50.9861 21.5702 50.9016 21.1489L50.5633 19.8007C50.3942 18.8739 50.056 18.0313 49.7178 17.1044C48.365 17.2729 47.0121 17.5257 45.6593 17.8627C44.9829 18.0313 44.2219 17.6942 43.9682 17.1044C43.7991 16.7674 43.63 16.5146 43.4609 16.1775L42.9536 15.2507C42.6154 14.6608 42.6154 13.9025 43.1227 13.3969C44.0528 12.3858 44.9829 11.2904 45.8284 10.195C45.2365 9.43667 44.6446 8.76258 43.9682 8.0885C43.2918 7.49867 42.6154 6.82459 41.939 6.23476C40.8398 7.07737 39.8251 8.00424 38.8105 8.9311C38.3032 9.43667 37.5422 9.43667 36.9503 9.09963L36.1048 8.5098C35.7666 8.42554 35.5129 8.25702 35.1747 8.17276C34.5829 7.91997 34.3292 7.16163 34.4138 6.40328C34.752 5.05511 34.9211 3.70694 35.1747 2.27451C34.3292 1.93746 33.4837 1.60042 32.5536 1.4319L31.2007 1.09486C30.778 1.01059 30.2707 0.926334 29.8479 0.842073C29.3406 2.19024 28.9178 3.45416 28.4951 4.80233C28.2414 5.47641 27.6495 5.98198 26.9731 5.98198L25.9585 5.89772H24.9438C24.2674 5.89772 23.6755 5.47641 23.4219 4.71807C22.9991 3.3699 22.5764 2.10598 22.069 0.757812C21.6463 0.842073 21.139 0.926334 20.7162 1.01059L19.3633 1.34764C18.4333 1.51616 17.5877 1.8532 16.7422 2.19024C16.9113 3.53842 17.165 4.88659 17.5032 6.31902C17.6723 7.07737 17.3341 7.75145 16.7422 8.0885C16.404 8.25702 16.1503 8.42554 15.8121 8.59406L14.9666 9.18389C14.3747 9.52093 13.6983 9.52093 13.1064 9.01536C12.0918 8.0885 11.0772 7.16163 9.97798 6.31902C9.30156 6.82459 8.62513 7.49867 7.94871 8.0885C7.35684 8.76258 6.68042 9.43667 6.08855 10.195C6.93408 11.2904 7.86416 12.3858 8.79424 13.3969C9.30156 13.9867 9.30156 14.6608 8.96335 15.2507L8.45603 16.1775C8.28692 16.5146 8.11782 16.7674 7.94871 17.1044C7.69505 17.6942 6.93408 18.0313 6.25765 17.8627C4.90481 17.5257 3.55196 17.2729 2.19912 17.1044C1.86091 17.947 1.52269 18.8739 1.35359 19.8007L1.01538 21.1489C0.930825 21.5702 0.846272 22.0758 0.761719 22.4971C2.03001 23.0026 3.2983 23.5082 4.65115 23.8453C5.32757 24.098 5.83489 24.6879 5.75034 25.3619L5.66578 26.4573L5.75034 27.5527C5.75034 28.2268 5.32757 28.8166 4.65115 29.0694C3.38286 29.4907 2.11456 29.912 0.846272 30.4176C0.930824 30.8389 1.01538 31.3445 1.09993 31.7658L1.43814 33.1139C1.60725 34.0408 1.94546 34.8834 2.28367 35.8103C3.63652 35.6418 4.98936 35.389 6.34221 35.0519C7.01863 34.8834 7.77961 35.2205 8.03326 35.8103C8.20237 36.1473 8.37148 36.4001 8.54058 36.7371L9.0479 37.664C9.38611 38.2538 9.38611 39.0122 8.87879 39.5177C7.94871 40.5289 7.01863 41.6243 6.1731 42.7197C6.76497 43.478 7.35684 44.1521 8.03326 44.8262C8.70969 45.416 9.38611 46.0901 10.0625 46.6799C11.1617 45.8373 12.1764 44.9104 13.191 43.9836C13.6983 43.478 14.4593 43.478 15.0511 43.815L15.8967 44.4049C16.1503 44.5734 16.4885 44.7419 16.8268 44.9104C17.4186 45.1632 17.6723 45.9216 17.5877 46.6799C17.2495 48.0281 17.0804 49.3763 16.8268 50.8087C17.6723 51.1457 18.5178 51.4828 19.4479 51.6513L20.8007 51.9883C21.2235 52.0726 21.7308 52.1569 22.1536 52.2411C22.6609 50.8929 23.0837 49.629 23.5064 48.2809C23.7601 47.6068 24.352 47.1012 25.0284 47.1012L26.043 47.1855L27.0577 47.1012C27.7341 47.1012 28.3259 47.5225 28.5796 48.2809C29.0024 49.629 29.4251 50.8929 29.9325 52.2411C30.3552 52.1569 30.8625 52.0726 31.2853 51.9883L32.6381 51.6513C33.5682 51.4828 34.4138 51.1457 35.2593 50.8087C35.0902 49.4605 34.8365 48.1123 34.4983 46.6799C34.3292 45.9216 34.6674 45.2475 35.2593 44.9104C35.5975 44.7419 35.8511 44.5734 36.1894 44.4049L37.0349 43.815C37.6268 43.478 38.3032 43.478 38.8951 43.9836C39.9097 44.9104 40.9243 45.8373 42.0235 46.6799C42.7845 46.0901 43.3764 45.416 44.0528 44.8262C44.6446 44.1521 45.3211 43.478 45.9129 42.7197C45.0674 41.6243 44.1373 40.5289 43.2072 39.5177C42.6999 38.9279 42.6999 38.2538 43.0381 37.664L43.5455 36.7371C43.7146 36.4001 43.8837 36.1473 44.0528 35.8103C44.3064 35.2205 45.0674 34.8834 45.7438 35.0519C47.0967 35.389 48.4495 35.6418 49.8024 35.8103C50.1406 34.9677 50.4788 34.0408 50.6479 33.1139L50.9861 31.7658C51.0707 31.3445 51.1552 30.8389 51.2398 30.4176C49.9715 29.912 48.7032 29.4065 47.3503 29.0694C46.5894 28.8166 46.082 28.2268 46.1666 27.5527Z" stroke="#33353D" stroke-width="2" stroke-miterlimit="10" stroke-linejoin="round"/>
<path d="M35.4287 33.873C35.175 34.2943 34.7523 34.6314 34.4141 35.0527" stroke="#33353D" stroke-width="2" stroke-miterlimit="10" stroke-linejoin="round"/>
<path d="M33.2295 36.0635C33.0604 36.232 32.8067 36.4005 32.6376 36.5691L31.9612 36.9904C30.1856 38.0857 28.0717 38.5913 26.0425 38.5913C23.9287 38.5913 21.8994 38.0857 20.1238 36.9904L19.4474 36.5691C19.1937 36.4005 19.0246 36.232 18.8555 36.0635C18.4327 35.8107 18.0945 35.3894 17.6717 35.0524C17.3335 34.6311 16.9108 34.294 16.6571 33.8727C16.488 33.6199 16.3189 33.4514 16.2343 33.1986L15.8116 32.5245C14.7124 30.6708 14.2896 28.5643 14.2051 26.4578C14.2051 24.3512 14.7124 22.2447 15.8116 20.391L16.2343 19.7169C16.4035 19.4641 16.5726 19.2956 16.6571 19.0428C16.9108 18.6215 17.3335 18.2845 17.6717 17.8632C18.0945 17.5261 18.4327 17.1048 18.8555 16.852C19.0246 16.6835 19.2782 16.515 19.4474 16.3465L20.1238 15.9252C21.8994 14.8298 24.0132 14.3242 26.0425 14.3242C28.1563 14.3242 30.1856 14.8298 31.9612 15.9252L32.6376 16.3465C32.8913 16.515 33.0604 16.6835 33.2295 16.852C33.6522 17.1048 33.9904 17.5261 34.4132 17.8632C34.7514 18.2845 35.1742 18.6215 35.4278 19.0428C35.597 19.2956 35.7661 19.4641 35.8506 19.7169L36.2734 20.391C37.3726 22.2447 37.7953 24.3512 37.8799 26.4578C37.8799 28.5643 37.3726 30.6708 36.2734 32.5245" stroke="#33353D" stroke-width="2" stroke-miterlimit="10" stroke-linejoin="round"/>
</g>
<defs>
<clipPath id="clip0">
<rect width="52" height="53" fill="white"/>
</clipPath>
</defs>
</svg>
