<svg width="44" height="53" viewBox="0 0 44 53" fill="none" xmlns="http://www.w3.org/2000/svg">
<g clip-path="url(#clip0)">
<path d="M24.056 12.4676H25.6115L26.7782 12.3596C27.0004 12.1437 27.8338 12.4136 28.1115 12.5755L30.4449 11.9278C29.8338 7.98792 26.3338 4.96552 22.056 4.96552C17.7782 4.91155 14.2227 8.09587 13.7227 12.1977H13.7782L22.0004 12.0898C22.2782 11.9818 23.8893 12.1977 24.056 12.4676Z" fill="#BEC3C7"/>
<path d="M16.2219 26.231C16.2775 26.285 17.4442 26.9866 17.4997 27.0406C17.6664 27.2025 17.9997 27.2025 18.1664 27.3644C18.2219 27.4184 18.7219 27.3104 18.7775 27.3644C18.9997 27.5263 18.9442 27.3104 19.1664 27.4723L19.7219 27.6342C19.9442 27.7962 19.8331 27.3104 19.9442 27.5803C20.3886 28.8756 20.1108 27.6342 20.1108 27.6342C20.333 27.7422 20.1664 27.5803 20.4442 27.6342C20.4997 27.6342 20.7219 27.6342 20.7775 27.6342C20.9442 27.6882 21.0553 27.7422 21.2775 27.7422C21.333 27.7422 21.7219 27.7962 21.7775 27.7962C21.9997 27.8501 22.4442 27.7422 22.7219 27.7422C22.9997 27.7422 22.5553 27.6882 22.833 27.6342C22.8886 27.6342 22.9997 27.6882 23.0553 27.6882C23.2219 27.6342 23.2219 27.7962 23.4442 27.7422C23.4997 27.7422 23.6664 27.6882 23.7775 27.6342C23.9997 27.5803 23.9442 27.6342 24.1108 27.5263C24.1664 27.5263 24.4442 27.4184 24.4997 27.4184C24.7219 27.3104 24.7775 27.3644 24.9997 27.2025C25.0553 27.2025 25.333 27.2025 25.333 27.2025C25.4997 27.0945 25.6108 27.0945 25.7775 26.9866C25.8331 26.9326 26.1108 26.9866 26.1664 26.9326C26.2775 26.8247 26.6108 26.9866 26.7219 26.8247C26.7775 26.7707 27.333 26.3389 27.3886 26.285C28.8886 24.5579 30.1108 24.8277 30.6108 21.8593C29.9442 22.453 32.333 19.3766 31.4442 19.3766C29.3886 19.3766 30.8886 15.2748 30.6108 12.9C30.6108 12.8461 24.6108 12.954 24.6108 12.9C24.6108 11.7666 22.833 12.1444 22.1108 12.1444C21.3886 12.1444 20.833 13.0619 20.833 14.1414C20.833 14.1953 22.1108 12.0905 22.1108 12.1444C21.8886 14.5192 16.2775 12.9 14.1664 12.9C13.2775 12.9 14.4997 19.4306 13.833 18.8369C14.2775 21.8053 14.7219 24.5039 16.2219 26.231Z" fill="#F4A343"/>
<path d="M23.5547 35.783L26.9991 38.7515C27.1102 38.8054 27.6102 36.1608 27.7214 36.1608C27.9991 36.1608 27.9436 35.5671 28.1658 35.3512C28.388 35.1354 28.1658 34.5956 28.1658 34.3258L29.2769 30.8716L27.1658 30.7637L23.5547 35.783Z" fill="#E2E5ED"/>
<path d="M20.6656 35.6209L17.2211 38.5893C17.11 38.6433 16.61 35.9987 16.4989 35.9987C16.2211 35.9987 16.2767 35.405 16.0545 35.1891C15.8322 34.9733 16.0545 34.4335 16.0545 34.1637L14.9434 30.7095L17.0545 30.6016L20.6656 35.6209Z" fill="#E2E5ED"/>
<path d="M26.5545 27.0391C26.4989 27.093 26.4434 27.147 26.3323 27.201C26.11 27.4169 25.8322 27.6327 25.5545 27.7947C25.4434 27.8486 25.3878 27.9026 25.2767 27.9566C24.9989 28.1185 24.6656 28.2804 24.3878 28.4423C24.3323 28.4423 24.3323 28.4423 24.2767 28.4963C23.5545 28.8201 22.7767 28.982 21.9989 28.982C21.2211 28.982 20.4434 28.8201 19.7211 28.4963C19.6656 28.4963 19.61 28.4423 19.5545 28.4423C19.2767 28.3344 18.9989 28.1725 18.7211 28.0106C18.61 27.9566 18.4989 27.8486 18.3878 27.7947C18.1656 27.6327 17.9989 27.4708 17.7767 27.3089C17.6656 27.201 17.5545 27.147 17.4434 27.0391V29.8996L21.9989 36.1602L26.4989 29.8996V27.0391H26.5545Z" fill="#EFBC67"/>
<path d="M34.0556 52.083C34.7778 52.083 41.5556 51.3274 42.1667 51.6512C41.8889 49.4924 41.0556 35.3518 39.5 33.7327C37.5556 31.8437 33.5 31.25 30.7222 31.25H29.9444L29.2778 35.082C29.2778 35.7296 29.2222 36.2154 28.7778 36.6472C28.3333 37.0789 28.8889 37.2408 28.2222 37.2408C27.9444 37.2408 27.7778 38.806 27.5 38.752L22 35.6217V47.0636V51.4893" fill="#BEC3C7"/>
<path d="M9.66623 52.083C8.94401 52.083 1.88845 51.3274 1.27734 51.6512C1.55512 49.4924 2.38845 35.3518 4.05512 33.7327C6.05512 31.8437 10.2773 31.25 13.1107 31.25H13.944L14.6107 35.082C14.6107 35.7296 14.6662 36.2154 15.1662 36.6472C15.6662 37.0789 15.0551 37.2408 15.7218 37.2408C15.9996 37.2408 16.1662 38.806 16.444 38.752L22.1107 35.6217V47.0636V51.4893" fill="#BEC3C7"/>
<path d="M42.8333 38.5356C42.4444 34.11 38.8889 30.4939 34.3333 29.9542L26.7778 29.0906L26.5556 27.9572C28.2778 27.0397 29.7222 25.6365 30.6111 23.9094H34.3333C34.8333 23.9094 35.2222 23.5316 35.2222 23.0458V20.3473C36.2222 19.9694 37 19.0519 37 17.9185V14.5183C37 13.3849 36.2222 12.4674 35.2222 12.0896C34.7778 5.39715 29.0556 0 22 0C15 0 9.22222 5.39715 8.83333 12.1436C7.77778 12.4674 7.05556 13.4389 7.05556 14.5723V17.9725C7.05556 19.3758 8.22222 20.5631 9.72222 20.5631H12.3889C12.6667 23.8014 14.6667 26.554 17.5 28.0112L17.2222 29.0906L9.66667 29.9542C5.11111 30.4939 1.55556 34.056 1.16667 38.5356L0 52.0825C0 52.2984 0.0555556 52.5682 0.222222 52.7301C0.388889 52.8921 0.611111 53 0.888889 53H43.1667C43.3889 53 43.6667 52.8921 43.8333 52.7301C44 52.5682 44.1111 52.2984 44.0556 52.0825L42.8333 38.5356ZM28.7222 31.0336L26.8333 38.3198L24.0556 35.0815L27 32.221C27.2222 32.0051 27.2778 31.7352 27.2222 31.4654L27.1111 30.8717L28.7222 31.0336ZM31.3333 22.2363C31.5 21.6965 31.6111 21.1029 31.6667 20.5092H33.4444V22.2363H31.3333ZM18.5 11.9817H14.1667C14.6111 8.1497 17.9444 5.12729 22.0556 5.12729C23 5.12729 23.8889 5.28921 24.7222 5.55906V5.99084C24.6667 9.2831 21.8889 11.9817 18.5 11.9817ZM26.3889 6.42261C28.2778 7.66395 29.6111 9.6609 29.8889 11.9817H25.5556C24.9444 11.9817 24.3333 11.8737 23.7778 11.7118C25.2778 10.4165 26.2778 8.52749 26.3889 6.42261ZM35.2222 17.9725C35.2222 18.4582 34.8333 18.8361 34.3333 18.8361H31.6667V13.7088H34.3333C34.8333 13.7088 35.2222 14.0866 35.2222 14.5723V17.9725ZM22 1.72709C28 1.72709 32.9444 6.26069 33.3889 11.9817H31.6667C31.2222 7.17821 27.0556 3.45418 22.0556 3.45418C17.0556 3.45418 12.8889 7.23218 12.3889 11.9817H10.6111C11.0556 6.26069 16 1.72709 22 1.72709ZM8.77778 17.9725V14.5723C8.77778 14.0866 9.16667 13.7088 9.66667 13.7088H12.3333V18.8361H9.66667C9.22222 18.8361 8.77778 18.4582 8.77778 17.9725ZM14.1111 19.6456V13.7088H18.5C19.7778 13.7088 20.9444 13.3849 22.0556 12.8992C23.1667 13.4389 24.3333 13.7088 25.5556 13.7088H29.9444V19.6996C29.9444 20.6171 29.7778 21.4807 29.5 22.2902H25.3889C25 21.2648 24.0556 20.5092 22.8889 20.5092H21.1111C19.6667 20.5092 18.4444 21.6426 18.4444 23.0998C18.4444 24.5031 19.6111 25.6904 21.1111 25.6904H22.8889C24.0556 25.6904 25 24.9888 25.3889 23.9633H28.6111C27.1667 26.0143 24.7778 27.3635 22 27.3635C17.6667 27.3635 14.1111 23.9094 14.1111 19.6456ZM23.7778 23.0998C23.7778 23.5855 23.3889 23.9633 22.8889 23.9633H21.1111C20.6111 23.9633 20.2222 23.5855 20.2222 23.0998C20.2222 22.6141 20.6111 22.2363 21.1111 22.2363H22.8889C23.3889 22.2363 23.7778 22.6141 23.7778 23.0998ZM22 29.0906C23 29.0906 24 28.9287 24.8889 28.6589L25.4444 31.3574L22 34.7037L18.5556 31.3574L19.1111 28.6589C20.0556 28.9287 21 29.0906 22 29.0906ZM17 32.2749L19.9444 35.1354L17.1667 38.3737L15.2778 31.0876L16.8889 30.9257L16.7778 31.5194C16.6667 31.7352 16.7778 32.0591 17 32.2749ZM35.2222 51.3269V41.0723H33.4444V51.3269H10.5556V41.0723H8.77778V51.3269H1.83333L2.94444 38.6976C3.27778 35.0815 6.16667 32.113 9.88889 31.6813L13.5 31.2495L15.8333 40.3707C15.8889 40.6945 16.1667 40.9104 16.5 41.0183C16.5556 41.0183 16.6111 41.0183 16.7222 41.0183C17 41.0183 17.2222 40.9104 17.3889 40.6945L21.1667 36.2688L21.3889 36.4847C21.5556 36.6466 21.7778 36.7546 22 36.7546C22.2222 36.7546 22.4444 36.6466 22.6111 36.4847L22.8333 36.2688L26.6111 40.6945C26.7778 40.9104 27.0556 41.0183 27.2778 41.0183C27.3333 41.0183 27.3889 41.0183 27.5 41.0183C27.8333 40.9644 28.0556 40.6945 28.1667 40.3707L30.5 31.2495L34.1111 31.6813C37.8333 32.113 40.7778 35.0275 41.0556 38.6976L42.1667 51.3269H35.2222Z" fill="#33353D"/>
<path d="M21.1113 47.873H22.8891V49.6001H21.1113V47.873Z" fill="black"/>
<path d="M21.1113 44.4727H22.8891V46.1997H21.1113V44.4727Z" fill="black"/>
<path d="M21.1113 41.0723H22.8891V42.7994H21.1113V41.0723Z" fill="black"/>
<path d="M19.3895 16.4622C19.3895 17.0559 18.6118 16.84 17.6118 16.84C16.6118 16.84 15.834 17.0559 15.834 16.4622C15.834 15.8686 16.6118 15.3828 17.6118 15.3828C18.6118 15.3828 19.3895 15.8686 19.3895 16.4622Z" fill="#33353D"/>
<path d="M28.1669 16.6224C28.1669 17.2161 27.3891 16.8923 26.3891 16.8923C25.3891 16.8923 24.6113 17.2161 24.6113 16.6224C24.6113 16.0287 25.3891 15.543 26.3891 15.543C27.3891 15.543 28.1669 16.0287 28.1669 16.6224Z" fill="#33353D"/>
</g>
<defs>
<clipPath id="clip0">
<rect width="44" height="53" fill="white"/>
</clipPath>
</defs>
</svg>
