<svg width="50" height="53" viewBox="0 0 50 53" fill="none" xmlns="http://www.w3.org/2000/svg">
<g clip-path="url(#clip0)">
<path d="M43.78 23.1984L28.1084 7.43053C27.2792 6.60499 26.1183 6.10966 24.9575 6.10966C23.7966 6.10966 22.6358 6.60499 21.8895 7.43053L6.21784 23.1984L4.31071 25.1798C3.89612 25.5925 3.39861 25.7576 2.90109 25.7576C1.65731 25.7576 0.828125 24.8495 0.828125 23.8589C0.828125 23.3636 0.993963 22.9508 1.40856 22.538L21.8895 2.06449C22.7187 1.23894 23.7966 0.826172 25.0404 0.826172C26.2013 0.826172 27.3621 1.3215 28.1913 2.06449L37.5611 11.4757L42.9508 16.8417L48.6722 22.538C49.916 23.7763 49.0039 25.7576 47.2626 25.7576C46.6822 25.7576 46.1847 25.51 45.853 25.1798L43.78 23.1984Z" fill="#F4A343"/>
<path d="M43.7809 20.7216V48.625C43.7809 50.6063 42.2055 52.1749 40.2154 52.1749H9.78426C7.79421 52.1749 6.21875 50.6063 6.21875 48.625V20.7216L21.8904 4.95368C22.7196 4.12814 23.8804 3.63281 25.0413 3.63281C26.2022 3.63281 27.2801 4.12814 28.1093 4.95368L43.7809 20.7216Z" fill="#E2E5ED"/>
<path d="M43.7814 4.37695V7.9268H42.8693H37.4796H36.6504V4.37695H43.7814Z" fill="#F4A343"/>
<path d="M42.8682 7.92578V16.8417L37.4785 11.4756V7.92578H42.8682Z" fill="#E2E5ED"/>
<path d="M40.2148 9.74198H42.8682V7.92578H37.4785V11.4756L39.3027 13.2918V10.6501C39.3027 10.1548 39.7173 9.74198 40.2148 9.74198Z" fill="#DADCE0"/>
<path d="M36.6504 4.37695V7.9268H43.7814V6.19315H39.3038C38.8063 6.19315 38.3917 5.78038 38.3917 5.28505V4.37695H36.6504Z" fill="#E09C3B"/>
<path d="M48.5902 22.5383L46.9318 20.8872L46.8489 20.9698C46.1856 21.6302 45.0247 21.6302 44.2784 20.9698L28.0264 4.7891C27.1972 3.96355 26.1192 3.55078 24.9584 3.55078C23.7975 3.55078 22.7196 3.96355 21.8904 4.7891L5.6383 20.9698C4.97495 21.6302 3.81409 21.6302 3.06782 20.9698L2.9849 20.8872L1.32653 22.5383C0.911931 22.9511 0.746094 23.3639 0.746094 23.8592C0.746094 24.8498 1.57528 25.7579 2.73614 25.7579C3.31657 25.7579 3.81409 25.5103 4.14576 25.1801L6.05289 23.1988L21.8904 7.43084C22.7196 6.6053 23.8804 6.10997 25.0413 6.10997C26.2022 6.10997 27.2801 6.6053 28.1093 7.43084L43.7809 23.1988L45.688 25.1801C46.1026 25.5928 46.6002 25.7579 47.0977 25.7579C48.9219 25.7579 49.834 23.7766 48.5902 22.5383Z" fill="#E09C3B"/>
<path d="M21.8904 12.7963C22.7196 11.9707 23.8804 11.4754 25.0413 11.4754C26.2022 11.4754 27.363 11.9707 28.1922 12.7963L43.8639 28.5642V23.1982L28.1093 7.43025C27.2801 6.6047 26.1192 6.10938 24.9584 6.10938C23.7975 6.10938 22.6367 6.6047 21.8904 7.43025L10.6964 18.7402L6.21875 23.2807V28.6468V48.7075C6.21875 50.6888 7.79421 52.2574 9.78426 52.2574H40.2154C42.2055 52.2574 43.7809 50.6888 43.7809 48.7075V46.0658C43.7809 48.0471 42.2055 49.6156 40.2154 49.6156H23.2171C16.3348 49.6156 10.6964 44.0019 10.6964 37.1499V24.1063L21.8904 12.7963Z" fill="#DADCE0"/>
<path d="M6.21875 28.3997V26.666" stroke="#33353D" stroke-width="2" stroke-miterlimit="10" stroke-linejoin="round"/>
<path d="M43.7809 23.1152V48.6246C43.7809 50.6059 42.2055 52.1744 40.2154 52.1744H9.78426C7.79421 52.1744 6.21875 50.6059 6.21875 48.6246V30.2149" stroke="#33353D" stroke-width="2" stroke-miterlimit="10" stroke-linejoin="round"/>
<path d="M1.41042 22.538L21.8913 2.06449C22.7205 1.23894 23.7985 0.826172 25.0423 0.826172C26.2031 0.826172 27.364 1.3215 28.1932 2.06449L48.6741 22.4555C49.9179 23.6938 49.0058 25.6751 47.2645 25.6751C46.684 25.6751 46.1865 25.4274 45.8549 25.0972L28.1103 7.43053C27.2811 6.60499 26.2031 6.10966 24.9593 6.10966C23.7985 6.10966 22.6376 6.60499 21.8084 7.43053L4.31258 25.1798C3.89798 25.5925 3.40047 25.7576 2.90296 25.7576C1.07874 25.7576 0.166639 23.6938 1.41042 22.538Z" stroke="#33353D" stroke-width="2" stroke-miterlimit="10" stroke-linejoin="round"/>
<path d="M37.4805 11.4756V7.92578H42.8702V12.3837" stroke="#33353D" stroke-width="2" stroke-miterlimit="10" stroke-linejoin="round"/>
<path d="M43.7814 4.37695H36.6504V7.9268H43.7814V4.37695Z" stroke="#33353D" stroke-width="2" stroke-miterlimit="10" stroke-linejoin="round"/>
<path d="M26.948 28.2344H23.0508V44.5802H26.948V28.2344Z" fill="#F4A343"/>
<path d="M24.5433 39.2148H23.0508V44.3332H24.5433V39.2148Z" fill="#E09C3B"/>
<path d="M15.5059 28.2348L17.6617 22.6211H32.67V28.2348H15.5059Z" fill="#DADCE0"/>
<path d="M26.948 33.2702V44.5802H23.0508V28.2344" stroke="#33353D" stroke-width="2" stroke-miterlimit="10" stroke-linejoin="round"/>
<path d="M26.9492 32.0323V30.6289" stroke="#33353D" stroke-width="2" stroke-miterlimit="10" stroke-linejoin="round"/>
<path d="M15.5059 28.2348L17.6617 22.6211H32.67V28.2348H15.5059Z" stroke="#33353D" stroke-width="2" stroke-miterlimit="10" stroke-linejoin="round"/>
</g>
<defs>
<clipPath id="clip0">
<rect width="50" height="53" fill="white"/>
</clipPath>
</defs>
</svg>
