<svg width="150" height="150" viewBox="0 0 150 150" fill="none" xmlns="http://www.w3.org/2000/svg">
<circle cx="73.5" cy="73.5" r="35.5" fill="#F4A343" fill-opacity="0.4"/>
<circle cx="74" cy="74" r="50" fill="url(#paint0_radial)" fill-opacity="0.5"/>
<g filter="url(#filter0_d)">
<circle cx="74" cy="74" r="25" transform="rotate(180 74 74)" fill="white"/>
</g>
<path d="M77.596 74.6973L71.233 78.3893C70.693 78.7023 70 78.3233 70 77.6923V70.3083C70 69.6783 70.692 69.2983 71.233 69.6123L77.596 73.3043C77.7188 73.3745 77.8209 73.4758 77.892 73.5982C77.963 73.7205 78.0004 73.8594 78.0004 74.0008C78.0004 74.1423 77.963 74.2812 77.892 74.4035C77.8209 74.5259 77.7188 74.6272 77.596 74.6973V74.6973Z" fill="#F4A343"/>
<defs>
<filter id="filter0_d" x="0" y="0" width="150" height="150" filterUnits="userSpaceOnUse" color-interpolation-filters="sRGB">
<feFlood flood-opacity="0" result="BackgroundImageFix"/>
<feColorMatrix in="SourceAlpha" type="matrix" values="0 0 0 0 0 0 0 0 0 0 0 0 0 0 0 0 0 0 127 0"/>
<feOffset dx="1" dy="1"/>
<feGaussianBlur stdDeviation="25"/>
<feColorMatrix type="matrix" values="0 0 0 0 0 0 0 0 0 0 0 0 0 0 0 0 0 0 0.1 0"/>
<feBlend mode="normal" in2="BackgroundImageFix" result="effect1_dropShadow"/>
<feBlend mode="normal" in="SourceGraphic" in2="effect1_dropShadow" result="shape"/>
</filter>
<radialGradient id="paint0_radial" cx="0" cy="0" r="1" gradientUnits="userSpaceOnUse" gradientTransform="translate(74 74) rotate(90) scale(99)">
<stop stop-color="#F4A343"/>
<stop offset="1" stop-color="#F4A343" stop-opacity="0"/>
</radialGradient>
</defs>
</svg>
