<svg width="30" height="30" viewBox="0 0 30 30" fill="none" xmlns="http://www.w3.org/2000/svg">
<path d="M15.0037 0H14.9963C6.72563 0 0 6.7275 0 15C0 18.2812 1.0575 21.3225 2.85562 23.7919L0.98625 29.3644L6.75187 27.5213C9.12375 29.0925 11.9531 30 15.0037 30C23.2744 30 30 23.2706 30 15C30 6.72938 23.2744 0 15.0037 0Z" fill="#4CAF50"/>
<path d="M23.732 21.1826C23.3702 22.2045 21.9339 23.052 20.7883 23.2995C20.0045 23.4663 18.9808 23.5995 15.5345 22.1707C11.1264 20.3445 8.28766 15.8651 8.06641 15.5745C7.85453 15.2838 6.28516 13.2026 6.28516 11.0501C6.28516 8.89758 7.37828 7.84945 7.81891 7.39945C8.18078 7.03008 8.77891 6.86133 9.35266 6.86133C9.53828 6.86133 9.70516 6.8707 9.85516 6.8782C10.2958 6.89695 10.517 6.9232 10.8077 7.61883C11.1695 8.4907 12.0508 10.6432 12.1558 10.8645C12.2627 11.0857 12.3695 11.3857 12.2195 11.6763C12.0789 11.9763 11.9552 12.1095 11.7339 12.3645C11.5127 12.6195 11.3027 12.8145 11.0814 13.0882C10.8789 13.3263 10.6502 13.5813 10.9052 14.022C11.1602 14.4532 12.0414 15.8913 13.3389 17.0463C15.0133 18.537 16.3708 19.0132 16.8564 19.2157C17.2183 19.3657 17.6495 19.3301 17.9139 19.0488C18.2495 18.687 18.6639 18.087 19.0858 17.4963C19.3858 17.0726 19.7645 17.0201 20.162 17.1701C20.567 17.3107 22.7102 18.3701 23.1508 18.5895C23.5914 18.8107 23.882 18.9157 23.9889 19.1013C24.0939 19.287 24.0939 20.1588 23.732 21.1826Z" fill="#FAFAFA"/>
</svg>
