<svg width="60" height="45" fill="none" xmlns="http://www.w3.org/2000/svg"><g clip-path="url(#clip0)"><path d="M48.56 8.75H4.85c-.105 0-.158 0-.264.052-.052 0-.105.052-.158.104 0 0-.053 0-.053.052-.052.052-.105.104-.105.157l-2.267 4.062h41.968c2.531 0 4.535-1.98 4.587-4.427z" fill="#DADCE0"/><path d="M59.157 15.417l-3.11-6.302-.158-.156-.053-.052c-.053-.052-.105-.052-.158-.104H48.56a4.53 4.53 0 01-4.534 4.427H2.057L.845 15.417a.657.657 0 000 .625.58.58 0 00.527.313h57.206a.58.58 0 00.527-.313c.158-.208.158-.468.053-.625z" fill="#E2E5ED"/><path d="M5.957 16.303v23.75c0 2.344 1.898 4.219 4.27 4.219h2.795c-.369 0-.633-.26-.633-.625v-22.5c0-.365.264-.625.633-.625h7.54v-4.167H5.957v-.052z" fill="#E09C3B"/><path d="M20.51 16.303v4.166h27.416c.37 0 .633.26.633.625v22.5c0 .365-.264.625-.633.625h2.267c2.373 0 4.271-1.875 4.271-4.218V16.303H20.51zm5.431 20.364h4.534v-3.073h-6.643v.99c0 1.145.95 2.083 2.109 2.083z" fill="#F4A343"/><path d="M25.94 36.667c-1.16 0-2.108-.938-2.108-2.084v-.99h-1.793v5.261h8.436v-2.187H25.94z" fill="#E09C3B"/><path d="M34.377 36.667h4.534v-3.073h-6.643v.99c0 1.145.949 2.083 2.108 2.083z" fill="#F4A343"/><path d="M34.376 36.667c-1.16 0-2.109-.938-2.109-2.084v-.99h-1.792v5.261h8.435v-2.187h-4.534z" fill="#E09C3B"/><path d="M25.941 41.98h4.534v-3.074h-6.643v.99c0 1.146.95 2.083 2.109 2.083z" fill="#F4A343"/><path d="M25.94 41.98c-1.16 0-2.108-.938-2.108-2.084v-.99h-1.793v5.26h8.436V41.98H25.94z" fill="#E09C3B"/><path d="M34.377 41.98h4.534v-3.074h-6.643v.99c0 1.146.949 2.083 2.108 2.083z" fill="#F4A343"/><path d="M34.376 41.98c-1.16 0-2.109-.938-2.109-2.084v-.99h-1.792v5.26h8.435V41.98h-4.534z" fill="#E09C3B"/><path d="M48.56 43.594V21.146c0-.364-.264-.625-.633-.625H12.97c-.37 0-.633.26-.633.625v22.5c0 .365.264.626.633.626h5.008a.846.846 0 01-.738-.834V32.397c0-2.344 1.898-4.22 4.27-4.22h17.822c2.372 0 4.27 1.876 4.27 4.22v11.041c0 .417-.316.73-.738.834h5.009c.422-.053.685-.313.685-.678z" fill="#E2E5ED"/><path d="M30.474 44.219H18.031c.053 0 .106.052.158.052h24.675c.053 0 .106 0 .106-.052H30.474z" fill="#F4A343"/><path d="M43.655 43.438V32.397c0-2.344-1.898-4.22-4.27-4.22H21.51c-2.373 0-4.27 1.876-4.27 4.22v11.041c0 .417.316.73.737.834h4.007v-5.313h16.872v5.26h4.007c.475-.052.791-.364.791-.78zm-4.745-4.583H22.038v-5.26H38.91v5.26z" fill="#DADCE0"/><path d="M55.52 8.75h.157L29.896.781a.589.589 0 00-.421 0L4.64 8.802h-.053c.053-.052.158-.052.264-.052h50.667zm.42.156l.158.156c-.053 0-.106-.104-.158-.156zm-51.616.157c.053-.053.106-.105.106-.157-.053.052-.106.104-.106.156zm.158-.156c.053-.052.106-.052.159-.104-.053 0-.106.052-.159.104zm51.248-.104c.053 0 .106.052.159.104 0-.052-.053-.104-.159-.104z" fill="#F4A343"/><path d="M55.2 16.303h-1.528v18.802H55.2V16.303zm0 20.156h-1.528v2.24H55.2v-2.24zM50.192 45H10.175c-2.742 0-5.009-2.239-5.009-4.947v-23.75h1.529v23.75c0 1.927 1.582 3.49 3.532 3.49h40.018c1.95 0 3.533-1.563 3.533-3.49h1.529C55.2 42.76 52.934 45 50.192 45z" fill="#33353D"/><path d="M47.926 45H12.97c-.79 0-1.37-.626-1.37-1.355v-22.5c0-.781.632-1.354 1.37-1.354h34.956c.791 0 1.371.625 1.371 1.354v22.5c0 .73-.632 1.354-1.37 1.354zm-34.85-1.511H47.82v-22.24H13.076v22.24z" fill="#33353D"/><path d="M42.759 45H18.136c-.896 0-1.581-.73-1.581-1.563V32.395c0-2.708 2.267-4.948 5.009-4.948h17.82c2.742 0 5.009 2.24 5.009 4.948v11.042c0 .885-.738 1.562-1.634 1.562zM21.51 28.905c-1.951 0-3.533 1.562-3.533 3.49v11.04c0 .053.053.105.106.105h24.675c.052 0 .105-.052.105-.104V32.395c0-1.927-1.582-3.49-3.532-3.49H21.51z" fill="#33353D"/><path d="M30.475 45h-8.436a.716.716 0 01-.738-.73v-5.312c0-.417.316-.73.738-.73h8.436c.422 0 .738.313.738.73v5.26c0 .417-.37.781-.738.781zm-7.698-1.511h6.96v-3.802h-6.96v3.802z" fill="#33353D"/><path d="M38.91 45h-8.435a.716.716 0 01-.739-.73v-5.312c0-.417.317-.73.738-.73h8.436c.422 0 .738.313.738.73v5.26c0 .417-.316.781-.738.781zm-7.697-1.511h6.96v-3.802h-6.96v3.802z" fill="#33353D"/><path d="M30.475 39.584h-8.436a.716.716 0 01-.738-.73v-5.26c0-.416.316-.729.738-.729h8.436c.422 0 .738.313.738.73v5.26c0 .417-.37.729-.738.729zm-7.698-1.458h6.96v-3.802h-6.96v3.802z" fill="#33353D"/><path d="M38.91 39.584h-8.435a.716.716 0 01-.739-.73v-5.26c0-.416.317-.729.738-.729h8.436c.422 0 .738.313.738.73v5.26a.716.716 0 01-.738.729zm-7.697-1.458h6.96v-3.802h-6.96v3.802zm27.364-21.094H1.37c-.474 0-.949-.26-1.212-.677a1.258 1.258 0 010-1.354l3.48-6.302c.158-.313.421-.521.738-.625L29.262.053c.264-.052.58-.052.897 0l25.782 8.02c.369.105.632.365.843.73l3.111 6.302c.21.416.158.937-.053 1.354a1.612 1.612 0 01-1.265.573zM1.582 15.574H58.42L55.414 9.48 29.683 1.51 4.957 9.48l-3.375 6.094z" fill="#33353D"/><path d="M58.577 17.031H1.37c-.474 0-.949-.26-1.212-.677a1.258 1.258 0 010-1.354l3.48-6.302c.263-.417.685-.73 1.212-.73h50.67c.527 0 1.002.313 1.265.782l3.111 6.302c.21.417.158.938-.053 1.354a1.51 1.51 0 01-1.265.625zM1.582 15.573H58.42l-2.953-6.094H4.956l-3.374 6.094z" fill="#33353D"/></g><defs><clipPath id="clip0"><path fill="#fff" d="M0 0h60v45H0z"/></clipPath></defs></svg>