<svg width="62" height="55" fill="none" xmlns="http://www.w3.org/2000/svg"><g clip-path="url(#clip0)"><path d="M12.312 17.953a8.939 8.939 0 00-2.843.474v8.24a4.122 4.122 0 01-4.146 4.149H2.362l-.948 6.402h21.678l-2.784-14.7a9.305 9.305 0 00-7.996-4.565z" fill="#F4A343"/><path d="M9.41 26.667v-8.24c-3.376 1.068-5.982 4.032-6.456 7.707l-.651 4.682h2.961c2.31-.059 4.146-1.896 4.146-4.149z" fill="#E09C3B"/><path d="M56.676 30.757a4.122 4.122 0 01-4.146-4.15v-8.18a8.939 8.939 0 00-2.843-.474c-3.376 0-6.397 1.838-8.055 4.564l-2.784 14.7h21.678l-.889-6.46h-2.961z" fill="#F4A343"/><path d="M56.676 30.756h2.962l-.593-4.683c-.474-3.675-3.08-6.639-6.456-7.706v8.24c-.059 2.311 1.836 4.149 4.087 4.149z" fill="#E09C3B"/><path d="M12.313 17.894a5.51 5.51 0 005.508-5.512 5.51 5.51 0 00-5.508-5.513 5.51 5.51 0 00-5.508 5.513 5.51 5.51 0 005.508 5.512zm37.375 0a5.51 5.51 0 005.508-5.512 5.51 5.51 0 00-5.508-5.513 5.51 5.51 0 00-5.508 5.513 5.51 5.51 0 005.508 5.512z" fill="#DADCE0"/><path d="M41.632 22.518c.178.533.237 1.067.356 1.6l1.776 13.1H18.236l1.777-13.1c.77-5.512 5.45-9.602 10.958-9.602 5.034 0 9.299 3.32 10.661 8.002z" fill="#F4A343"/><path d="M30.97 14.455a6.518 6.518 0 006.516-6.52 6.518 6.518 0 00-6.516-6.52 6.518 6.518 0 00-6.515 6.52 6.518 6.518 0 006.515 6.52z" fill="#DADCE0"/><path d="M23.153 37.218H1.475l1.54-11.144a9.384 9.384 0 019.299-8.12 9.349 9.349 0 018.055 4.563m-8.056-4.623a5.51 5.51 0 005.508-5.512 5.51 5.51 0 00-5.508-5.513 5.51 5.51 0 00-5.508 5.513 5.51 5.51 0 005.508 5.512zm29.319 4.623a9.349 9.349 0 018.055-4.564c4.679 0 8.707 3.497 9.299 8.12l1.54 11.145H38.848m10.84-19.324a5.51 5.51 0 005.508-5.512 5.51 5.51 0 00-5.508-5.513 5.51 5.51 0 00-5.508 5.513 5.51 5.51 0 005.508 5.512z" stroke="#33353D" stroke-width="1.5" stroke-miterlimit="10" stroke-linecap="round" stroke-linejoin="round"/><path d="M41.632 22.518c.178.533.237 1.067.356 1.6l1.776 13.1H18.236l1.777-13.1c.77-5.512 5.45-9.602 10.958-9.602 5.034 0 9.299 3.32 10.661 8.002zM30.97 14.455a6.518 6.518 0 006.516-6.52 6.518 6.518 0 00-6.516-6.52 6.518 6.518 0 00-6.515 6.52 6.518 6.518 0 006.515 6.52z" stroke="#33353D" stroke-width="1.5" stroke-miterlimit="10" stroke-linecap="round" stroke-linejoin="round"/><path d="M14.742 52.63v.118l3.02-.178h2.785c.177 0 .296.118.296.296v1.66c0 .178-.119.296-.296.296h-9.004c-.118 0-.296-.118-.296-.296v-1.6a.54.54 0 01.178-.415l5.745-3.438c.889-.534 1.422-1.008 1.422-1.779 0-1.126-1.007-1.6-2.429-1.6-1.48 0-2.606.474-3.672 1.541-.118.119-.237.119-.355 0L10.95 46.05c-.059-.06-.118-.178 0-.297 1.244-1.541 3.199-2.312 5.212-2.312 2.251 0 4.798 1.186 4.798 3.794 0 1.541-1.125 2.667-2.428 3.438l-1.126.652-2.665 1.304zm11.077-5.158c.651-.237 1.362-.415 2.191-.415 2.547 0 4.68 1.245 4.68 3.912 0 2.727-2.666 4.031-5.035 4.031-2.429 0-3.732-.652-5.035-1.956-.118-.119-.118-.237 0-.415l1.185-1.245a.286.286 0 01.414 0c.948.949 1.836 1.364 3.436 1.364 1.599 0 2.724-.593 2.724-1.838 0-1.185-1.007-1.719-2.606-1.719-.888 0-1.658.178-2.428.533-.119.06-.237.06-.356.06l-1.244-.297c-.177-.059-.236-.118-.177-.355l.414-5.216c0-.178.119-.297.297-.297H31.8c.177 0 .296.119.296.297v1.66c0 .177-.119.296-.296.296h-5.923l-.06 1.6zM40.033 43.5c3.198 0 5.805 2.49 5.805 5.75 0 3.32-2.607 5.75-5.805 5.75-3.258 0-5.805-2.43-5.805-5.75 0-3.26 2.607-5.75 5.805-5.75zm-3.376 5.809c0 2.015 1.362 3.497 3.435 3.497 2.014 0 3.376-1.482 3.376-3.497 0-2.075-1.362-3.556-3.376-3.556-2.073 0-3.435 1.481-3.435 3.556zm13.503-3.378c0-.178.12-.296.297-.296h1.422c.177 0 .296.118.296.296v2.016h1.954c.178 0 .297.118.297.296v1.482c0 .178-.119.296-.297.296h-1.954v1.956c0 .178-.119.297-.296.297h-1.422c-.178 0-.296-.119-.296-.297v-2.015h-1.955c-.177 0-.296-.119-.296-.297v-1.481c0-.178.119-.297.296-.297h1.955v-1.956z" fill="#33353D"/></g><defs><clipPath id="clip0"><path fill="#fff" d="M0 0h62v55H0z"/></clipPath></defs></svg>