<svg width="44" height="60" fill="none" xmlns="http://www.w3.org/2000/svg"><g clip-path="url(#clip0)"><path d="M39.494.795h-8.288v2.84h1.835v1.876h6.453v50.852H4.505V5.511h6.453V3.636h1.835V.795H4.505C2.447.795.834 2.499.834 4.545v50.852c0 2.102 1.669 3.75 3.671 3.75h34.989c2.058 0 3.671-1.704 3.671-3.75V4.602c.056-2.103-1.613-3.807-3.671-3.807z" fill="#F4A343"/><path d="M14.573 46.988H9.066v5.625h5.507v-5.625zm0-10.396H9.066v5.625h5.507v-5.625zm0-10.342H9.066v5.625h5.507V26.25z" fill="#F4A343"/><path d="M33.042 5.512v2.84h-5.507v-2.84h2.781V3.637h2.726v1.875zm-16.576 0v2.84h-5.507V3.638h2.726v1.875h2.78z" fill="#DADCE0"/><path d="M27.534 5.512h-11.07v2.84h11.07v-2.84z" fill="#DADCE0"/><path d="M14.63 26.25H9.123v5.625h5.507V26.25zm0 10.341H9.123v5.625h5.507v-5.625zm24.864-31.08v50.853H4.507V5.512h6.453v2.84h22.083v-2.84h6.453zM14.63 52.615V46.99H9.123v5.625h5.507z" fill="#E2E5ED"/><path d="M31.207.795v2.84h-.89v1.876H13.685V3.636h-.89V.795h18.412z" fill="#F4A343"/><path d="M39.494.795H4.505C2.447.795.834 2.499.834 4.545V6.42c0-2.102 1.669-3.75 3.671-3.75h34.989c2.058 0 3.671 1.704 3.671 3.75V4.602c.056-2.103-1.613-3.807-3.671-3.807z" fill="#E09C3B"/><path d="M27.534 6.477h-11.07v1.875h11.07V6.477z" fill="#F4A343"/><path d="M27.534 6.477v1.875h-11.07V6.477h.947v.909h9.178v-.91h.945z" fill="#CE9222"/><path d="M30.316.795h-1.835V5.51h1.835V.795zm-18.468 0v2.84h-.89v1.876H9.066V2.67h.946V.795h1.836z" fill="#E09C3B"/><path d="M10.958 8.353V5.512H9.066v4.716h21.249V8.353H10.959z" fill="#DADCE0"/><path d="M31.262 3.637h-.946v1.875h.946V3.637zm-17.522 0h-.945v1.875h.946V3.637zm19.302 3.75h-5.507v.966h5.507v-.966zm-16.576 0h-5.507v.966h5.507v-.966z" fill="#33353D"/><path d="M4.507 56.363V6.477H2.615v48.01c0 2.103 1.669 3.75 3.672 3.75H38.55v-1.874H4.507z" fill="#E09C3B"/><path d="M33.987 60H4.506C2.058 60 0 57.955 0 55.398V4.602C0 2.045 2.003 0 4.506 0H39.55c2.448 0 4.506 2.045 4.506 4.602v51.534h-1.613V4.602c0-1.647-1.28-2.954-2.893-2.954H4.506c-1.613 0-2.893 1.307-2.893 2.954v50.853c0 1.647 1.28 2.954 2.893 2.954h29.481V60z" fill="#33353D"/><path d="M16.465 9.147h-5.507c-.445 0-.778-.341-.778-.796V3.635c0-.454.333-.795.778-.795h2.782c.445 0 .778.34.778.795v1.08h1.947c.445 0 .78.34.78.795v2.841c0 .455-.335.796-.78.796zm-4.728-1.591h3.95V6.363H13.74c-.445 0-.779-.341-.779-.796V4.431h-1.168v3.125h-.056zm21.305 1.591h-5.507c-.445 0-.78-.341-.78-.796v-2.84c0-.455.335-.796.78-.796h1.947v-1.08c0-.454.389-.795.834-.795h2.781c.445 0 .779.34.779.795v4.716c0 .455-.39.796-.834.796zm-4.729-1.591h3.95V4.43h-1.168v1.08c0 .454-.334.795-.78.795H28.37v1.25h-.056z" fill="#33353D"/><path d="M27.534 7.557h-11.07v1.647h11.07V7.557zM32.04.795h-1.612v2.84h1.613V.796zm-18.466 0h-1.613v2.84h1.613V.796zm20.413 56.422H4.505c-.445 0-.778-.341-.778-.796V5.512c0-.454.333-.795.778-.795h6.453v1.648H5.284v49.26h28.703v1.592zm6.341-1.137h-1.613V6.308h-2.893V4.717h3.672c.445 0 .778.34.778.795V56.08h.056zM27.534 4.717h-11.07v1.648h11.07V4.717z" fill="#33353D"/><path d="M14.63 32.728H9.123c-.445 0-.78-.341-.78-.796v-5.625c0-.454.335-.795.78-.795h5.507c.444 0 .778.34.778.795v5.625c0 .398-.333.796-.778.796zM9.9 31.08h3.95v-4.034H9.9v4.034zm4.73 11.988H9.123c-.445 0-.78-.341-.78-.796v-5.625c0-.454.335-.795.78-.795h5.507c.444 0 .778.34.778.795v5.625c0 .455-.333.796-.778.796zM9.9 41.42h3.95v-4.034H9.9v4.034zm4.73 11.99H9.123c-.445 0-.78-.342-.78-.796v-5.625c0-.455.335-.796.78-.796h5.507c.444 0 .778.341.778.796v5.625c0 .454-.333.795-.778.795zM9.9 51.817h3.95v-4.034H9.9v4.034zm25.923-25.454H21.082v1.648h14.74v-1.648zm0 3.75H21.082v1.648h14.74v-1.648zm0 6.592H21.082v1.648h14.74v-1.648zm0 3.807H21.082v1.647h14.74v-1.647zm0 6.59H21.082v1.647h14.74v-1.647zm0 3.75H21.082v1.647h14.74v-1.647zm1.224 4.716h-1.502v1.648h1.502v-1.648zm0 2.84h-1.502v1.648h1.502v-1.648zM10.29 13.75h1.001v5.057h1.002V20h-3.45v-1.193h1.169v-3.693l-1.168.454v-1.25l1.446-.568zm3.282 5.455c-.445-.625-.668-1.364-.668-2.33s.223-1.761.668-2.33c.445-.624 1.168-.908 2.058-.908.946 0 1.613.284 2.058.909.445.625.668 1.363.668 2.33 0 .965-.223 1.76-.668 2.329-.445.625-1.168.909-2.058.909-.89 0-1.558-.284-2.058-.91zm2.114-.284c.945 0 1.446-.682 1.446-2.046 0-1.363-.5-2.045-1.446-2.045s-1.447.682-1.447 2.045c0 1.364.5 2.046 1.447 2.046zm4.228.284c-.445-.625-.668-1.364-.668-2.33s.223-1.761.668-2.33c.445-.624 1.168-.908 2.058-.908.945 0 1.613.284 2.058.909.445.625.667 1.363.667 2.33 0 .965-.222 1.76-.667 2.329-.445.625-1.168.909-2.058.909-.89 0-1.613-.284-2.058-.91zm2.058-.284c.945 0 1.446-.682 1.446-2.046 0-1.363-.5-2.045-1.446-2.045s-1.447.682-1.447 2.045c0 1.364.501 2.046 1.447 2.046zm4.283.284c-.445-.625-.667-1.364-.667-2.33s.222-1.761.667-2.33c.445-.624 1.169-.908 2.059-.908.945 0 1.613.284 2.058.909.445.625.667 1.363.667 2.33 0 .965-.222 1.76-.667 2.329-.445.625-1.168.909-2.058.909-.946 0-1.614-.284-2.059-.91zm2.059-.284c.945 0 1.446-.682 1.446-2.046 0-1.363-.5-2.045-1.446-2.045s-1.447.682-1.447 2.045c0 1.364.5 2.046 1.447 2.046zm6.116-2.67h1.558v1.08h-1.557v1.59h-1.057v-1.59h-1.558v-1.08h1.558v-1.59h1.057v1.59z" fill="#33353D"/></g><defs><clipPath id="clip0"><path fill="#fff" d="M0 0h44v60H0z"/></clipPath></defs></svg>