<svg width="60" height="60" fill="none" xmlns="http://www.w3.org/2000/svg"><g clip-path="url(#clip0)"><path d="M41.002 33.592l-4.29-4.115 6.618-6.94a11.063 11.063 0 0011.216-1.105c3.248-2.456 4.842-6.325 4.413-10.071l-7.11 5.22c-.98.736-2.328.49-3.064-.492l-3.984-5.404c-.735-.983-.49-2.334.49-3.07l7.11-5.22C48.908.92 44.74 1.226 41.43 3.622c-3.861 2.886-5.332 7.799-3.984 12.22l-7.11 7.554-7.17-6.816a11.124 11.124 0 00-1.103-11.239C19.612 2.087 15.75.491 12.013.92l5.21 7.124c.735.983.49 2.334-.491 3.07l-3.187 2.334c1.164 1.413.92 3.44-.429 4.607l-4.597 3.807c2.452 1.167 5.332 1.351 7.968.553l7.66 7.37-.183.183-7.232 7.677c-3.555-1.72-7.906-1.535-11.338.921C2.084 40.961.49 44.83.859 48.638l7.17-5.159c.98-.737 2.329-.491 3.065.492l3.922 5.404c.735.983.49 2.334-.49 3.07l-7.171 5.16c3.493 1.534 7.66 1.289 10.97-1.106 3.861-2.825 5.394-7.677 4.107-11.976l7.967-8.352.184-.184 7.6 7.308c-1.717 3.562-1.533 7.922.919 11.361a11.035 11.035 0 0010.05 4.545l-5.147-7.185c-.736-.983-.49-2.334.49-3.071l5.393-3.93c.98-.737 2.33-.492 3.065.49l5.148 7.186c1.532-3.5 1.287-7.676-1.103-10.993-2.758-3.93-7.6-5.465-11.951-4.237l-4.045-3.87zm-4.107-13.634c.736-.798 2.023-.86 2.82-.061.428.368.612.86.612 1.412 0 .492-.183 1.044-.551 1.413l-4.842 5.097-2.88-2.764 4.841-5.097zm-8.212 14.494L23.35 40.04a1.96 1.96 0 01-2.82.062c-.428-.369-.612-.86-.612-1.413 0-.491.184-1.044.551-1.412l5.332-5.589.184-.184 2.88 2.763-.183.185zm12.012 5.035c-.368.43-.858.615-1.41.615-.49 0-1.041-.185-1.41-.553l-4.657-4.422-8.641-8.29-3.984-3.808c-.797-.737-.858-2.027-.061-2.825.367-.43.858-.614 1.41-.614.49 0 1.041.184 1.409.552l3.922 3.747 8.948 8.536 4.413 4.238c.797.736.858 2.026.061 2.824z" fill="#F4A343"/><path d="M13.607 13.45L11.4 15.106c-.98.737-2.329.492-3.064-.491l-5.27-7.124C1.532 10.992 1.9 15.17 4.29 18.485a10.66 10.66 0 004.168 3.44l4.596-3.809c1.471-1.166 1.655-3.254.552-4.667z" fill="#E09C3B"/><path d="M36.894 19.958l-4.841 5.098 2.88 2.763 4.903-5.097c.368-.369.552-.921.552-1.413 0-.491-.245-1.044-.613-1.412-.858-.737-2.084-.737-2.88.061zm-9.62 3.931l-3.922-3.746c-.368-.369-.92-.553-1.41-.553-.49 0-1.042.245-1.41.614-.735.798-.735 2.088.062 2.825l3.983 3.808 8.642 8.29 4.658 4.422c.429.368.919.553 1.41.553.49 0 1.041-.246 1.409-.614.735-.799.735-2.088-.061-2.825l-4.413-4.238-8.948-8.536zm-1.472 7.799l-5.332 5.589c-.368.43-.552.92-.552 1.412 0 .492.245 1.044.613 1.413.797.737 2.084.737 2.819-.062l5.332-5.588.184-.184-2.88-2.764-.184.184z" fill="#E2E5ED"/><path d="M34.933 28.679a.786.786 0 01-.613-.246l-2.88-2.763c-.368-.307-.368-.86 0-1.229l4.841-5.097c1.104-1.167 2.942-1.167 4.046-.123.551.492.858 1.229.919 2.027 0 .798-.245 1.535-.797 2.088l-4.842 5.097c-.184.184-.429.246-.674.246zm-1.654-3.623l1.593 1.535 4.229-4.483c.184-.184.306-.492.306-.799 0-.307-.122-.552-.368-.798a1.146 1.146 0 00-1.593 0l-4.167 4.545zm6.007 15.907c-.736 0-1.41-.307-1.961-.799l-17.283-16.52c-1.165-1.105-1.165-2.947-.123-4.053.49-.553 1.226-.86 2.023-.921a2.432 2.432 0 012.022.798l17.283 16.52c1.164 1.106 1.164 2.948.123 4.053a3.103 3.103 0 01-2.023.922h-.061zM22.003 20.45c-.307 0-.613.123-.797.368a1.099 1.099 0 00.061 1.597l17.283 16.52c.245.184.49.307.797.307.245 0 .552-.061.797-.368a1.099 1.099 0 00-.061-1.597L26.66 24.504l-3.923-3.746a1.014 1.014 0 00-.735-.307zm-.123 21.064c-.735 0-1.41-.245-1.96-.798A3.115 3.115 0 0119 38.69c0-.737.245-1.474.797-2.027l5.516-5.773a.786.786 0 01.612-.245c.246 0 .43.06.613.245l2.88 2.764a.79.79 0 01.246.614.79.79 0 01-.245.614l-5.516 5.773c-.49.553-1.226.86-2.022.86zm4.107-8.781l-4.903 5.158c-.184.246-.307.492-.307.799a.97.97 0 00.368.798c.43.43 1.165.43 1.593-.062l4.904-5.158-1.655-1.535z" fill="#33353D"/><path d="M48.11 60c-3.799 0-7.415-1.842-9.682-4.912a11.884 11.884 0 01-1.287-11.669l-6.497-6.264-7.17 7.554c1.103 4.667-.675 9.642-4.597 12.467-3.432 2.456-7.967 2.947-11.828 1.228-.307-.123-.49-.369-.49-.737-.062-.307.122-.614.367-.799l7.17-5.158c.552-.43.736-1.228.307-1.843l-3.984-5.404c-.429-.614-1.225-.737-1.838-.307l-7.17 5.159c-.246.184-.614.245-.859.061a.798.798 0 01-.49-.737 11.945 11.945 0 014.903-10.87 11.819 11.819 0 0111.644-1.29l6.374-6.693-6.741-6.326c-4.72 1.228-9.745-.491-12.625-4.422A12.108 12.108 0 012.268 7.186a.884.884 0 01.674-.553c.307-.061.613.123.797.369l5.27 7.123c.43.614 1.226.737 1.84.307l5.393-3.991c.551-.43.735-1.29.306-1.843l-5.27-7.124c-.184-.245-.184-.614-.062-.86.123-.245.368-.49.674-.49 4.168-.492 8.335 1.35 10.848 4.79 2.451 3.377 3.003 7.738 1.471 11.545l6.006 5.773 6.251-6.571c-1.225-4.729.49-9.765 4.413-12.651C44.249.492 48.785 0 52.707 1.659c.307.123.49.368.552.675.061.307-.123.614-.368.799l-7.109 5.22c-.613.43-.735 1.228-.306 1.842l3.983 5.404c.43.553 1.287.737 1.839.307l7.048-5.22c.245-.184.613-.245.858-.123.306.123.49.369.49.676.49 4.176-1.348 8.352-4.78 10.87-3.371 2.456-7.722 3.01-11.522 1.474l-5.455 5.896 3.003 2.886-1.225 1.29-3.616-3.5c-.368-.308-.368-.922-.062-1.23l6.62-6.939c.245-.245.674-.368.98-.184 3.37 1.597 7.293 1.167 10.296-1.044 2.452-1.842 3.984-4.667 4.106-7.677l-5.76 4.238c-1.349.983-3.31.675-4.29-.676l-3.862-5.404c-.98-1.351-.735-3.316.674-4.299l5.761-4.237c-2.941-.737-6.067-.185-8.58 1.658-3.493 2.58-4.964 7.062-3.677 11.238.123.307 0 .614-.184.86l-7.17 7.554c-.307.368-.858.368-1.226 0l-7.11-6.817c-.245-.246-.367-.676-.183-.983 1.593-3.377 1.164-7.308-1.042-10.317-1.839-2.456-4.658-3.992-7.661-4.114l4.229 5.772c.98 1.351.674 3.317-.674 4.3l-5.394 3.991c-1.348.983-3.31.737-4.29-.676L3.371 9.397c-.735 2.947-.183 6.08 1.655 8.597a10.149 10.149 0 0011.216 3.685c.306-.123.613 0 .858.184l7.66 7.37a.79.79 0 01.246.614c0 .246-.062.43-.245.614L17.405 38.2c-.245.246-.674.369-1.042.184-3.37-1.658-7.354-1.35-10.419.86-2.512 1.781-3.983 4.606-4.167 7.677L7.6 42.744c1.348-.983 3.248-.676 4.29.675l3.923 5.405c.98 1.35.674 3.254-.675 4.298l-5.822 4.176a9.994 9.994 0 008.58-1.596 10.272 10.272 0 003.8-11.055c-.061-.307 0-.614.184-.86l8.09-8.536c.306-.368.858-.368 1.226-.061l7.66 7.308c.307.246.368.675.184 1.044-1.654 3.378-1.348 7.37.858 10.44 1.778 2.518 4.597 3.992 7.661 4.176l-4.167-5.834c-.98-1.351-.674-3.255.674-4.299l5.393-3.93c1.348-.983 3.248-.676 4.29.675l4.168 5.834c.797-2.947.245-6.08-1.594-8.597-2.512-3.44-6.925-4.975-11.031-3.808l-.49-1.658c4.78-1.412 9.99.43 12.931 4.483 2.451 3.44 2.942 7.984 1.226 11.853-.123.307-.368.491-.736.491-.306 0-.613-.123-.797-.369l-5.148-7.185c-.429-.552-1.225-.737-1.838-.307l-5.393 3.93c-.613.43-.736 1.229-.307 1.843l5.148 7.185c.184.246.245.614.062.86a.796.796 0 01-.736.491c-.306.185-.674.185-1.103.185zM21.88 41.516c-.735 0-1.41-.245-1.961-.798a3.114 3.114 0 01-.92-2.027c0-.736.246-1.473.797-2.026l5.516-5.773a.786.786 0 01.613-.246c.245 0 .429.062.613.246l2.88 2.764a.79.79 0 01.245.614c0 .245-.06.43-.245.614l-5.515 5.773c-.49.552-1.226.86-2.023.86zm4.106-8.782l-4.903 5.16c-.183.245-.306.49-.306.797 0 .246.061.553.368.799.429.43 1.164.43 1.593-.062l4.903-5.158-1.655-1.536zm13.3 8.23c-.736 0-1.41-.307-1.962-.799l-17.283-16.52c-1.164-1.105-1.164-2.947-.122-4.053.49-.553 1.226-.86 2.022-.921a2.432 2.432 0 012.023.798l17.283 16.52c1.164 1.106 1.164 2.948.122 4.053a3.103 3.103 0 01-2.022.922h-.061zM22.003 20.45c-.307 0-.613.123-.797.368a1.099 1.099 0 00.061 1.597l17.283 16.52c.245.184.49.307.797.307.245 0 .551-.061.797-.368a1.099 1.099 0 00-.062-1.597L22.8 20.758c-.245-.184-.49-.307-.796-.307zm12.931 8.23a.786.786 0 01-.613-.247l-2.88-2.763c-.368-.307-.368-.86 0-1.228l4.841-5.098c1.104-1.166 2.942-1.166 4.045-.122.552.491.858 1.228.92 2.026 0 .737-.245 1.536-.797 2.027l-4.842 5.097c-.183.246-.429.307-.674.307zm-1.655-3.624l1.594 1.535 4.229-4.483c.184-.184.306-.491.306-.798 0-.307-.122-.553-.368-.799a1.146 1.146 0 00-1.593 0l-4.168 4.545z" fill="#33353D"/><path d="M42.042 33.46l-1.185 1.245 1.642 1.568 1.184-1.244-1.641-1.568z" fill="#33353D"/></g><defs><clipPath id="clip0"><path fill="#fff" d="M0 0h60v60H0z"/></clipPath></defs></svg>