<svg width="60" height="44" fill="none" xmlns="http://www.w3.org/2000/svg"><g clip-path="url(#clip0)"><path d="M27.351 37.684c-.512 0-.854.3-.94.558-.085.172-.385.602-1.453 1.89l-.513.602.3.516c.299.516.982 1.719 2.008 1.547.513-.086 1.111-.559 1.667-1.418.384-.559.983-1.633.769-2.45-.214-1.074-1.838-1.245-1.838-1.245zM26.24 34.46c-.17-.343-.598-.859-1.71-.773-1.751.13-2.82 1.719-3.589 2.88l-.427.644.042.3c.129 1.375 1.111 2.407 2.436 2.493h.47l.3-.344c2.82-3.309 2.863-4.469 2.478-5.2zm4.572 3.395s.555 1.891-.214 3.266l-.641 1.074 1.24.215c.128.043.256.043.427.043.683 0 1.282-.3 1.837-.902l.727-.774-.898-.558c-.47-.301-2.05-2.02-2.478-2.364zM17.308 29.95l.085-.13c.214-.472.684-1.675.086-2.62-.214-.302-.684-.86-1.71-.86-1.111 0-2.863 2.922-3.248 3.652-.384.73-.427 1.375-.213 1.934.341.816 1.196 1.16 1.965 1.418l.898.3.213-.859c.214-.472 1.539-2.363 1.795-2.62l.129-.216zm4.273.902c-.17-.301-.555-.73-1.453-.73h-.256c-1.667.171-3.12 2.405-3.291 2.663-.598.946-.77 1.676-.598 2.235.342.988 1.282 1.546 2.436 1.546.213 0 .47-.043.726-.086l.342-.085.256-.344c2.35-3.352 2.223-4.512 1.838-5.2z" fill="#F4A343"/><path d="M45.3 29.734l-.342-.172c-4.914-2.793-7.65-6.66-10.94-11.773l-.257-.473-5.299.73-.17.474c-1.795 4.382-4.958 5.8-9.402 4.21-.214-.085-.385-.214-.47-.386a.731.731 0 010-.43l3.247-8.508c.043-.086.086-.215.214-.3l2.393-1.633-4.487-3.266-9.273 16.2 2.393 2.663.598-.945c.727-1.117 2.051-1.246 3.034-.945 1.069.3 2.35 1.246 2.436 2.879l.043.902.897-.043c.94-.043 1.795.215 2.35.73.514.473.727 1.16.727 1.977l-.042 1.074 1.068-.172c1.24-.215 2.35.043 2.991.73.556.602.727 1.419.513 2.407l-.213.902.897.172c.085 0 .17.043.256.043l.94.215.129-.945c.043-.387.384-.473.47-.516h.128c.128 0 .342.043.513.3 1.752 2.75 3.718 3.653 4.316 3.868l.128.043h.171c.599 0 1.453-.344 2.094-1.848l.3-.687-.642-.387c-1.837-1.16-3.418-2.277-5.042-4.082-.214-.215-.214-.43-.171-.558.085-.215.299-.43.513-.516.128-.043.299-.043.512.215 1.624 1.762 3.206 2.879 5.385 4.21l.256.13h.3c.555-.043 1.282-.13 1.837-.43l1.41-.773-1.453-.774c-2.692-1.375-4.7-3.867-5.982-5.586-.214-.3-.171-.601.128-.86a.686.686 0 01.384-.128.59.59 0 01.47.258c1.539 2.105 3.718 4.64 6.71 5.758l.085.042c.727.172 1.539-.042 2.18-.687.769-.773 1.154-1.977.897-2.965l-.128-.344z" fill="#F4A343"/><path d="M48.633 1.418a2.5 2.5 0 00-1.58-1.203 2.606 2.606 0 00-1.967.258l-4.829 2.793c-1.025.601-1.538 1.89-1.154 3.05l.342 1.118-9.401.257c-.171 0-.257.086-.342.13l-4.36 2.921-4.871-3.566.3-.645c.555-1.203.085-2.664-1.026-3.351L14.873.344a2.606 2.606 0 00-1.966-.258 2.5 2.5 0 00-1.581 1.203L.343 20.496c-.727 1.246-.3 2.836.94 3.524l4.83 2.793c1.025.601 2.35.43 3.161-.473l.641-.688 2.308 2.45-.427.601c-.855 1.203-1.111 2.363-.77 3.395.385 1.117 1.54 2.02 3.12 2.449l.47.129.129.472c.47 1.762 1.923 2.75 3.846 2.664h.683l.171.645a3.95 3.95 0 003.462 2.793l.47.043.214.387c.555.945 1.41 2.062 2.564 2.277.128.043.256.043.384.043.641 0 1.325-.3 2.094-.86l.47-.386.513.344c.898.558 1.795.73 2.735.515 1.069-.258 2.052-1.074 2.735-2.234l.214-.344.385-.086c1.666-.258 2.521-1.933 2.863-2.922l.17-.515.514-.043c1.624-.215 2.65-.817 3.12-1.934l.213-.472.513-.086a4.233 4.233 0 002.863-1.805 4.156 4.156 0 00.598-3.395l-.128-.43 3.29-4.253.685 1.031a2.57 2.57 0 001.495 1.074 2.632 2.632 0 001.966-.258l4.83-2.793c1.239-.73 1.666-2.32.94-3.523L48.632 1.418zM8.591 25.266c-.171.3-.47.558-.812.644a1.413 1.413 0 01-1.026-.129l-.726-.43-4.146-2.406a1.397 1.397 0 01-.513-1.847L12.394 1.934a1.38 1.38 0 011.838-.516l4.829 2.836c.64.387.855 1.203.513 1.848L8.59 25.266zm6.795 7.433l-.214.86-.898-.301c-.769-.258-1.623-.602-1.965-1.418-.257-.559-.171-1.203.213-1.934.385-.73 2.137-3.652 3.248-3.652 1.026 0 1.496.515 1.71.86.598.945.128 2.148-.086 2.62l-.085.13-.129.214c-.256.258-1.58 2.192-1.794 2.621zm4.359 3.438l-.257.343-.342.043c-.256.043-.47.086-.726.086-1.197 0-2.094-.601-2.436-1.547-.214-.558 0-1.289.598-2.234.171-.258 1.624-2.535 3.29-2.664h.257c.898 0 1.282.473 1.453.73.385.645.513 1.805-1.837 5.243zm3.675 3.867h-.47c-1.325-.086-2.308-1.117-2.436-2.492v-.301l.427-.645c.77-1.16 1.838-2.75 3.59-2.879 1.111-.085 1.538.473 1.71.774.341.73.341 1.89-2.522 5.2l-.3.343zm5.042 1.289c-.598.86-1.153 1.332-1.666 1.418-1.026.172-1.71-1.031-2.009-1.547l-.299-.516.513-.601c1.068-1.29 1.367-1.719 1.453-1.89.085-.216.385-.56.94-.56 0 0 1.667.172 1.88 1.204.171.86-.47 1.933-.812 2.492zm5 .258c-.555.601-1.196.902-1.837.902-.128 0-.256 0-.427-.043l-1.24-.215.641-1.074c.77-1.375.214-3.266.214-3.266.427.387 2.009 2.063 2.479 2.364l.897.558-.727.774zm11.026-8.508c-.64.645-1.41.902-2.18.688l-.085-.044c-2.991-1.074-5.17-3.652-6.71-5.757a.59.59 0 00-.47-.258.686.686 0 00-.384.129c-.3.215-.342.558-.128.86 1.282 1.718 3.29 4.21 5.983 5.585l1.453.773-1.41.774c-.513.3-1.24.387-1.838.43h-.3l-.256-.13c-2.18-1.331-3.76-2.449-5.384-4.21-.214-.215-.385-.215-.513-.215a.638.638 0 00-.513.516c-.043.129-.043.3.171.558 1.667 1.762 3.205 2.922 5.043 4.082l.64.387-.298.687c-.641 1.504-1.496 1.848-2.094 1.848h-.171l-.128-.043c-.556-.215-2.565-1.074-4.317-3.867-.128-.258-.342-.3-.513-.3h-.128c-.085 0-.427.128-.47.515l-.128.945-.94-.215c-.086-.043-.171-.043-.257-.043l-.897-.172.214-.902c.213-.988.042-1.805-.513-2.406-.641-.688-1.752-.946-2.992-.73l-1.068.171.043-1.074c.042-.816-.214-1.504-.727-1.977-.555-.515-1.367-.773-2.35-.73l-.898.043-.042-.902c-.043-1.633-1.325-2.579-2.436-2.88-.983-.257-2.308-.171-3.034.946l-.599.945-2.393-2.664 9.316-16.242 4.488 3.266-2.394 1.633c-.128.085-.213.214-.213.3l-3.291 8.508c-.085.172-.085.3 0 .43.085.172.256.3.47.387 4.445 1.59 7.65.171 9.402-4.211l.17-.473 5.343-.688.299.473c3.29 5.113 5.983 8.938 10.94 11.773l.342.172.085.344c.214.988-.17 2.192-.94 2.965zm1.111-4.555l-.64-.43c-4.702-2.878-7.437-7.132-10.343-11.644-.213-.344-.427-.387-.555-.387h-.128l-5.983.86c-.257.043-.47.172-.556.43-.47 1.374-1.923 5.628-6.666 4.683l-1.026-.215 2.991-7.777 7.522-5.113L40.3 8.637l8.846 15.297-3.547 4.554zm12.479-5.414l-4.83 2.793a1.248 1.248 0 01-.683.172c-.47 0-.94-.258-1.197-.687L40.386 6.187c-.385-.644-.129-1.503.512-1.89l4.83-2.793c.213-.129.427-.172.683-.172.47 0 .94.258 1.197.688l11.025 19.164a1.452 1.452 0 01-.555 1.89z" fill="#33353D"/><path d="M57.308 18.992L47.565 2.02a1.415 1.415 0 00-1.197-.688c-.214 0-.47.043-.684.172l-3.077 1.762L50.6 17.187c1.41 2.407 4.402 3.18 6.71 1.805z" fill="#E2E5ED"/><path d="M57.307 18.992c-2.307 1.375-5.299.559-6.666-1.762L42.649 3.31l-1.795 1.03c-.64.388-.855 1.204-.513 1.891l11.026 19.165c.257.43.684.687 1.197.687.256 0 .47-.043.683-.172l4.83-2.793c.64-.387.854-1.203.512-1.89l-1.282-2.235z" fill="#DADCE0"/><path d="M2.648 18.906l9.744-17.015c.256-.43.726-.688 1.197-.688.213 0 .47.043.683.172l3.077 1.762-8.034 13.965C7.99 19.465 5 20.238 2.648 18.906z" fill="#E2E5ED"/><path d="M2.649 18.906c2.308 1.375 5.299.559 6.667-1.761L17.35 3.18l1.795 1.03c.64.388.854 1.204.512 1.892L8.59 25.266c-.256.43-.684.687-1.197.687-.256 0-.47-.043-.683-.172l-4.83-2.836c-.64-.386-.854-1.203-.512-1.89l1.282-2.149z" fill="#DADCE0"/><path d="M47.693 21.398c-2.992 1.332-6.539.258-8.29-2.62L33.418 8.765l-3.162.086-7.521 5.156-2.992 7.777L20.77 22c4.786.945 6.196-3.309 6.666-4.684a.728.728 0 01.556-.43l5.983-.859h.128c.128 0 .342.043.556.387 2.906 4.512 5.64 8.766 10.299 11.645l.64.43 3.548-4.555-1.453-2.536z" fill="#F4A343"/><path d="M47.693 21.398l-7.35-12.761-6.923.172 5.983 10.011c1.752 2.88 5.342 3.953 8.29 2.578z" fill="#E09C3B"/></g><defs><clipPath id="clip0"><path fill="#fff" d="M0 0h60v44H0z"/></clipPath></defs></svg>