<svg width="67" height="41" fill="none" xmlns="http://www.w3.org/2000/svg"><path d="M13.221 33.136h15.944V31c0-1.045-.687-1.805-1.633-1.805h-6.919l-3.567.19 3.009-1.52 2.879-1.853c4.34-2.85 6.532-6.319 6.532-10.357 0-7.886-6.661-11.449-12.85-11.449-5.586 0-10.571 2.423-13.666 6.698l-.043.048c-.472.713-.43 1.568.086 2.138l2.923 3.325a1.43 1.43 0 001.031.475c.43 0 .817-.19 1.117-.522 2.536-2.803 5.072-3.99 8.552-3.99 1.934 0 5.157.427 5.157 3.467 0 1.378-.773 2.376-3.137 3.99l-9.626 6.32v2.28c0 2.612 1.89 4.702 4.211 4.702z" fill="#F4A343"/><path d="M13.222 33.137c-2.32 0-4.211-2.09-4.211-4.655v-2.28l-4.685 2.992-.043.048c-.601.475-.902 1.092-.902 1.947l.043 4.371c0 .95.73 1.805 1.633 1.805h22.519c.945 0 1.633-.76 1.633-1.805v-2.47H13.222v.047z" fill="#E09C3B"/><path d="M46.657 4.205v1.663c0 1.092-.688 2.043-1.676 2.28-2.837.713-8.424 3.04-9.283 10.832-.129 1.187-1.032 2.042-2.106 2.042H31.23v.048c0 4.608 1.59 8.884 4.512 12.019 2.88 3.088 6.747 4.75 10.916 4.75 8.595 0 15.342-7.363 15.342-16.77 0-9.453-6.747-16.864-15.342-16.864zm0 25.464c-4.47 0-7.607-3.563-7.607-8.647 0-5.178 3.051-8.693 7.607-8.693 4.512 0 7.563 3.515 7.563 8.693 0 5.131-3.137 8.647-7.563 8.647z" fill="#F4A343"/><path d="M35.718 18.98C36.534 11.188 42.12 8.86 45 8.148c.989-.237 1.676-1.188 1.676-2.28V4.205c-8.638 0-15.385 7.364-15.385 16.817h2.364c1.031 0 1.934-.855 2.063-2.042z" fill="#E09C3B"/><path d="M22.418 29.194h-1.805l-3.567.19 3.009-1.52 2.879-1.853c4.34-2.85 6.532-6.319 6.532-10.357 0-7.886-6.661-11.449-12.85-11.449-5.586 0-10.571 2.423-13.666 6.698l-.043.048c-.472.713-.43 1.568.086 2.138l2.923 3.325a1.43 1.43 0 001.031.475c.43 0 .817-.19 1.117-.522 2.536-2.803 5.072-3.99 8.552-3.99 1.934 0 5.157.427 5.157 3.467 0 1.378-.773 2.376-3.137 3.99l-14.31 9.36-.043.047c-.602.475-.903 1.093-.903 1.948l.043 4.37c0 .95.73 1.806 1.633 1.806h22.476c.946 0 1.633-.76 1.633-1.806v-4.608c0-1.045-.687-1.805-1.633-1.805h-1.504" stroke="#33353D" stroke-miterlimit="10"/><path d="M24.87 29.193h-1.42" stroke="#33353D" stroke-width="2.835" stroke-miterlimit="10"/><path d="M46.657 4.205c-8.638 0-15.385 7.411-15.385 16.865 0 4.608 1.59 8.884 4.512 12.019 2.88 3.088 6.747 4.75 10.916 4.75 8.595 0 15.342-7.363 15.342-16.77-.043-9.453-6.79-16.864-15.385-16.864zM54.22 21.07c0 5.083-3.094 8.646-7.563 8.646-4.47 0-7.607-3.563-7.607-8.646 0-5.178 3.051-8.694 7.607-8.694 4.512 0 7.563 3.468 7.563 8.694z" stroke="#33353D" stroke-miterlimit="10"/></svg>