<svg width="16" height="16" fill="none" xmlns="http://www.w3.org/2000/svg"><path fill-rule="evenodd" clip-rule="evenodd" d="M2.678 11.894a1 1 0 01.287.801 10.97 10.97 0 01-.398 2c1.395-.323 2.247-.697 2.634-.893a1 1 0 01.71-.074A8.06 8.06 0 008 14c3.996 0 7-2.807 7-6 0-3.192-3.004-6-7-6S1 4.808 1 8c0 1.468.617 2.83 1.678 3.894zm-.493 3.905c-.237.047-.475.09-.713.129-.2.032-.352-.176-.273-.362.089-.21.17-.422.244-.637l.003-.01c.248-.72.45-1.548.524-2.319C.743 11.37 0 9.76 0 8c0-3.866 3.582-7 8-7s8 3.134 8 7-3.582 7-8 7a9.058 9.058 0 01-2.347-.306c-.52.263-1.639.742-3.468 1.105z" fill="#F4A343"/></svg>