<svg width="30" height="32" fill="none" xmlns="http://www.w3.org/2000/svg"><path fill-rule="evenodd" clip-rule="evenodd" d="M5.39 9.314l.22.103c.787.366 1.874 1.07 2.425 2.038.284.5.434 1.087.301 1.727-.11.528-.402 1.046-.89 1.55.174.279.375.622.553.986.256.523.501 1.158.501 1.728v6.279h-1v-6.28c0-.327-.155-.788-.4-1.287a10.95 10.95 0 00-.716-1.225l-.243-.365.33-.289c.57-.5.812-.94.886-1.3.074-.354 0-.694-.192-1.03-.358-.63-1.093-1.172-1.756-1.517-1.485.815-1.838 1.605-1.847 2.175-.009.648.417 1.268.872 1.676l.42.377-.425.372c-.298.26-.512.678-.664 1.166a8.288 8.288 0 00-.265 1.283v12.423h-1V17.41l.006-.044c.05-.347.13-.903.304-1.464.127-.408.314-.853.601-1.235-.444-.507-.86-1.23-.848-2.075.016-1.123.778-2.228 2.609-3.166l.217-.112zm9.5 0l.22.103c.787.366 1.874 1.07 2.425 2.038.284.5.434 1.087.301 1.727-.108.523-.396 1.035-.875 1.533.175.261.366.585.53.938.246.53.464 1.19.409 1.816v6.256h-1V17.42l.003-.025c.036-.364-.094-.838-.319-1.322a5.827 5.827 0 00-.674-1.106l-.3-.373.36-.316c.57-.5.813-.94.887-1.3.074-.354 0-.694-.192-1.03-.358-.63-1.093-1.172-1.756-1.517-1.485.815-1.838 1.605-1.847 2.175-.009.648.417 1.268.872 1.676l.42.377-.425.372c-.298.26-.512.678-.664 1.166A8.29 8.29 0 0013 17.482v6.244h-1V17.41l.006-.044c.05-.347.13-.903.304-1.464.127-.408.313-.853.601-1.235-.444-.507-.86-1.23-.848-2.075.016-1.123.778-2.228 2.609-3.166l.217-.112zm9.721 0l.217.112c1.831.938 2.594 2.043 2.61 3.166.012.845-.405 1.568-.849 2.075.288.382.475.827.601 1.235.175.561.254 1.117.304 1.464l.006.044v12.494h-1V17.481a8.278 8.278 0 00-.265-1.283c-.151-.488-.366-.907-.663-1.166l-.426-.372.42-.377c.455-.408.881-1.028.872-1.676-.008-.57-.362-1.36-1.846-2.175-.664.345-1.398.887-1.757 1.518-.19.335-.265.675-.192 1.029.075.36.316.8.887 1.3l.36.316-.3.373a5.88 5.88 0 00-.674 1.106c-.225.484-.355.958-.318 1.322l.002.025v6.304h-1v-6.256c-.055-.625.163-1.287.41-1.816.163-.353.354-.677.529-.938-.479-.498-.767-1.01-.875-1.533-.133-.64.017-1.228.302-1.727.55-.968 1.637-1.672 2.424-2.038l.221-.103z" fill="#33353D"/><path fill-rule="evenodd" clip-rule="evenodd" d="M2 1.998c-.525 0-1 .475-1 .995v25.914c0 .52.475.995 1 .995h26c.525 0 1-.476 1-.995V2.993c0-.52-.475-.995-1-.995H2zm-2 .995C0 1.918.925.998 2 .998h26c1.075 0 2 .92 2 1.995v25.914c0 1.075-.925 1.995-2 1.995H2c-1.075 0-2-.92-2-1.995V2.993z" fill="#33353D"/><path fill-rule="evenodd" clip-rule="evenodd" d="M5 24.916l20 .105v5.983L5 30.9v-5.983zm1 1.005v3.984l18 .094v-3.983L6 25.92z" fill="#33353D"/><path fill-rule="evenodd" clip-rule="evenodd" d="M5.373 24.256c-.221.187-.302.402-.277.603l.004.03v.03h20c0-.203-.118-.443-.383-.651a1.676 1.676 0 00-1.017-.342H6.4c-.447 0-.804.142-1.027.33zm-.645-.764c.426-.36 1.02-.566 1.672-.566h17.3c.613 0 1.196.212 1.634.555.434.34.766.846.766 1.44v.998h-22v-.97c-.06-.583.207-1.102.628-1.457zM4 .998h22V3.99c0 .263-.09.522-.285.715a1 1 0 01-.715.283H5a1 1 0 01-.715-.283A.996.996 0 014 3.99V.998zm1 1v1.99h20v-1.99H5z" fill="#33353D"/><path d="M29 6.98H1v.997h28V6.98zM9.5 20.933c0 .2.2.4.4.4s.4-.2.4-.4c0 0 .1-.1.2-.1.2-.099.6-.398.6-.797 0-.498-.3-.697-.6-.797l-.1-.1.1-.1c.2-.099.6-.398.6-.797 0-.199-.2-.398-.4-.398s-.4.2-.4.398c0 0-.1.1-.2.1-.2.1-.6.399-.6.797 0 .499.3.698.6.798l.1.1-.1.1c-.3.099-.6.298-.6.796zm9.5 0c0 .2.2.4.4.4s.4-.2.4-.4c0 0 .1-.1.2-.1.2-.099.6-.398.6-.797 0-.498-.3-.697-.6-.797l-.1-.1.1-.1c.2-.099.6-.398.6-.797 0-.199-.2-.398-.4-.398s-.4.2-.4.398c0 0-.1.1-.2.1-.2.1-.6.399-.6.797 0 .499.3.698.6.798l.1.1-.1.1c-.3.099-.6.298-.6.796zm-9.5-5.582c0 .598.3.897.6 1.097.1 0 .1.1.2.199 0 .299.2.598.4.598s.4-.299.4-.598c0-.598-.3-.897-.6-1.096l-.1-.1.1-.1c.2-.199.6-.498.6-1.096 0-.598-.3-.897-.6-1.096-.1 0-.1-.1-.2-.2 0-.299-.2-.598-.4-.598s-.4.3-.4.598c0 .598.3.897.6 1.097l.1.1-.1.099c-.3.2-.6.498-.6 1.096zm9.5 0c0 .598.3.897.6 1.097.1 0 .1.1.2.199 0 .299.2.598.4.598s.4-.299.4-.598c0-.598-.3-.897-.6-1.096l-.1-.1.1-.1c.2-.199.6-.498.6-1.096 0-.598-.3-.897-.6-1.096-.1 0-.1-.1-.2-.2 0-.299-.2-.598-.4-.598s-.4.3-.4.598c0 .598.3.897.6 1.097l.1.1-.1.099c-.3.2-.6.498-.6 1.096z" fill="#33353D"/></svg>