<svg width="30" height="30" fill="none" xmlns="http://www.w3.org/2000/svg"><path d="M28.125 24.873a.527.527 0 01-.527-.527 1.33 1.33 0 00-1.348-1.348h-2.34a1 1 0 01-1-1V10.814a1 1 0 011-1h.813a1 1 0 001-1V5.248a1 1 0 00-1-1H5.219a1 1 0 00-1 1v3.566a1 1 0 001 1h.812a1 1 0 011 1v8.372a1 1 0 01-1 1h-.406c-1.793 0-3.281 1.43-3.281 3.222v.465a1 1 0 01-1 1H.439a.44.44 0 000 .879h29.122a.44.44 0 100-.879h-1.436zM6.098 8.936a1 1 0 01-1-1V6.127a1 1 0 011-1h17.746a1 1 0 011 1v1.809a1 1 0 01-1 1H6.098zm13.091 11.25a.967.967 0 110-1.934h1.875a.967.967 0 010 1.934H19.19zm1.875.878a.967.967 0 110 1.934.967.967 0 010-1.934zM8.877 17.373a.967.967 0 110-1.934h3.75a.967.967 0 110 1.934h-3.75zm.937.879a.967.967 0 110 1.934h-.937a.967.967 0 110-1.934h.937zm6.563-5.625a.967.967 0 110 1.933H11.69a.967.967 0 110-1.933h4.687zm-1.875-.879a.967.967 0 110-1.934h3.75a.967.967 0 010 1.934h-3.75zm4.687 3.692a.967.967 0 010 1.933h-3.75a.967.967 0 110-1.934h3.75zm-6.533-4.659a.967.967 0 01-.966.967H8.877a.967.967 0 110-1.934h2.813c.533 0 .966.433.966.967zm-3.779 1.846a.967.967 0 110 1.934.967.967 0 010-1.934zm2.783 6.592c0-.534.433-.967.967-.967h3.75a.967.967 0 110 1.934h-3.75a.967.967 0 01-.967-.967zm6.592 1.845a.967.967 0 110 1.934h-1.377a.499.499 0 01-.498-.498c0-.601.45-1.436 1.051-1.436h.824zm3.281-3.691a.498.498 0 01-.498-.498v-.938a.498.498 0 11.996 0v.938a.498.498 0 01-.498.498zM19.19 14.56a.967.967 0 110-1.933h1.875a.967.967 0 010 1.933H19.19zm1.875-2.812a.967.967 0 110-1.933.967.967 0 010 1.933zm5.655 12.598a.527.527 0 01-.528.527H4.223a1 1 0 01-1-1v-.465c0-1.308 1.094-2.344 2.402-2.344h8.438c.791 0 1.435.644 1.435 1.436 0 .76.618 1.377 1.377 1.377h9.375a.45.45 0 01.469.469z" fill="#35373F"/></svg>