<svg width="30" height="30" fill="none" xmlns="http://www.w3.org/2000/svg"><g clip-path="url(#clip0)" fill="#35373F"><path d="M29.772 14l-5.535-4.727.02-.103V2.988a.69.69 0 00-.667-.679H20.5c-.356 0-.647.317-.647.68v2.56l-4.43-3.777a.647.647 0 00-.84 0L.233 13.994a.646.646 0 00-.083.912c.226.278.633.31.911.084l.013-.013 13.929-11.86 4.985 4.249L22.97 9.9l5.968 5.082c.272.233.679.2.912-.07a.653.653 0 00-.078-.913zm-6.815-5.82l-1.811-1.525V3.609h1.81V8.18z"/><path d="M26.92 15.308l-1.818-1.552-9.68-8.27a.647.647 0 00-.84 0l-9.68 8.27-1.818 1.552a.646.646 0 00-.071.912.63.63 0 00.892.077l.007-.006.808-.699v12.125c.007.362.304.66.666.666h19.225a.678.678 0 00.666-.666V15.592l.808.699a.643.643 0 00.414.155.654.654 0 00.491-.227.64.64 0 00-.07-.911zm-9.332 11.775h-5.173v-6.984h5.173v6.984zm1.293 0v-7.61c0-.357-.265-.667-.62-.667h-6.518c-.356 0-.621.31-.621.666v7.611H6.013V14.487l8.989-7.657 8.988 7.656v12.597h-5.108z"/></g><defs><clipPath id="clip0"><path fill="#fff" d="M0 0h30v30H0z"/></clipPath></defs></svg>