<svg width="20" height="20" fill="none" xmlns="http://www.w3.org/2000/svg"><g clip-path="url(#clip0)" fill="#F4A343"><path d="M19.335 4.581a2.15 2.15 0 00-1.578-.665H14.6v-.038c0-.475-.19-.932-.514-1.236a1.74 1.74 0 00-1.235-.513H7.148A1.751 1.751 0 005.38 3.878v.038H2.243a2.15 2.15 0 00-1.578.665C.266 4.981 0 5.551 0 6.16v9.468c0 .627.247 1.179.665 1.578.4.4.97.665 1.578.665h15.514a2.15 2.15 0 001.578-.665c.399-.4.665-.97.665-1.578V6.159a2.15 2.15 0 00-.665-1.578zm-.324 11.046h-.019c0 .342-.133.646-.36.874a1.22 1.22 0 01-.875.362H2.243a1.22 1.22 0 01-.874-.361 1.22 1.22 0 01-.361-.875V6.159c0-.342.133-.646.36-.874a1.22 1.22 0 01.875-.361h3.67a.511.511 0 00.513-.514v-.55c0-.21.076-.4.209-.532a.747.747 0 01.532-.21h5.685c.209 0 .399.077.532.21s.21.323.21.532v.551c0 .285.227.514.513.514h3.669c.342 0 .646.133.874.36.228.229.361.533.361.875v9.468z"/><path d="M10 6.217a4.685 4.685 0 00-3.308 1.369 4.64 4.64 0 00-1.369 3.308c0 1.292.533 2.471 1.37 3.308A4.64 4.64 0 0010 15.57a4.685 4.685 0 003.308-1.368 4.64 4.64 0 001.369-3.308 4.685 4.685 0 00-1.369-3.308A4.685 4.685 0 0010 6.216zm2.586 7.281A3.715 3.715 0 0110 14.563a3.715 3.715 0 01-2.585-1.065 3.635 3.635 0 01-1.065-2.585c0-1.008.418-1.92 1.065-2.586A3.634 3.634 0 0110 7.262c1.008 0 1.92.419 2.586 1.065a3.634 3.634 0 011.064 2.586c.02 1.007-.399 1.92-1.064 2.585zm4.181-5.438a.932.932 0 100-1.863.932.932 0 000 1.863z"/></g><defs><clipPath id="clip0"><path fill="#fff" d="M0 0h20v20H0z"/></clipPath></defs></svg>