<svg width="1267" height="328" fill="none" xmlns="http://www.w3.org/2000/svg"><path d="M-43 327c20.4-80.4 117.833-151.833 164-177.5 84.956-35.09 297.874-107.716 469-23.5 171.126 84.216 397.561 60.59 481 25.5 43-13.5 77.7-50.4 136.5-92" stroke="#F4A343" stroke-dasharray="5 5"/><path d="M1214.39 32.162l8.49 3.715 24.45-13.342-14.75 17.209 21.15 9.627a2.443 2.443 0 002.26-.151c.34-.205.62-.488.82-.826.21-.337.33-.719.36-1.113l2.45-36.875a2.44 2.44 0 00-1.07-2.192 2.44 2.44 0 00-1.19-.42c-.42-.035-.85.042-1.24.223l-41.79 19.666c-.43.203-.78.523-1.03.924-.25.4-.38.864-.38 1.336a2.471 2.471 0 001.47 2.22zm13.28 22.332l11.74-5.694-11.74-5.477v11.17z" fill="#F4A343"/></svg>