<svg width="30" height="30" fill="none" xmlns="http://www.w3.org/2000/svg"><rect width="30" height="30" rx="5" fill="#F4A343"/><path d="M14.92 9.984a2.5 2.5 0 100 5 2.5 2.5 0 000-5zm0 3.75a1.25 1.25 0 110-2.498 1.25 1.25 0 010 2.498z" fill="#fff"/><path d="M19.722 7.677a6.794 6.794 0 00-10.496 8.512l4.723 7.25a1.157 1.157 0 001.939 0l4.723-7.25a6.794 6.794 0 00-.889-8.512zm-.159 7.83l-4.645 7.13-4.645-7.13a5.57 5.57 0 01.725-6.946 5.544 5.544 0 017.84 0 5.57 5.57 0 01.725 6.946z" fill="#fff"/></svg>