<svg width="70" height="70" fill="none" xmlns="http://www.w3.org/2000/svg"><path fill="#fff" d="M0 0h70v70H0z"/><g clip-path="url(#clip0)"><path d="M50.499 20.355c-16.262-4.582-24.481 0-24.481 0v4.002c0 4.756 3.933 8.642 8.747 8.642 5.343-.058 11.624.58 14.09 3.364 4.638 5.279 15.264 3.133 15.264 3.133.529-6.96-2.524-16.009-13.62-19.141z" fill="#E09C3B"/><path d="M48.797 36.364C46.33 33.58 40.049 32.942 34.707 33a8.643 8.643 0 01-8.748-8.642v-4.003s-5.4-4.408-14.325-1.508c0 0 5.695 5.336 6.576 6.903 0 0-3.288 3.074-4.99 6.728-1.703 3.654-7.398 4.988-7.398 4.988v8.758s15.088 3.132 18.2 14.907h7.69v-4.872s6.87 2.668 14.384 0v4.872h7.515s3.699-9.339 7.926-14.153c1.35-1.508 2.348-4.292 2.583-7.54-.059.058-10.627 2.204-15.323-3.074z" fill="#F4A343"/><path d="M53.552 62h-7.456a.798.798 0 01-.822-.812v-3.712c-5.519 1.624-10.568.58-12.74 0v3.712a.798.798 0 01-.822.812h-7.69a.862.862 0 01-.822-.638C20.264 50.225 5.822 47.093 5.646 47.035 5.294 46.977 5 46.63 5 46.223v-8.758c0-.406.294-.696.646-.812.059 0 5.342-1.334 6.869-4.582 1.35-2.9 3.64-5.452 4.696-6.496-1.115-1.393-4.05-4.35-6.047-6.207-.234-.174-.293-.522-.234-.754.058-.29.293-.522.528-.58 7.867-2.552 13.15.348 14.677 1.334 2.055-.928 10.215-3.886 24.599.174 8.747 2.494 12.152 8.236 13.444 12.645 1.82 6.148.411 12.644-2.055 15.37-1.409 1.624-2.935 3.944-4.52 6.902-.235.406-.705.58-1.116.348-.41-.232-.587-.696-.352-1.102 1.644-3.132 3.229-5.568 4.755-7.25 2.114-2.378 3.347-8.294 1.703-13.804-1.174-4.002-4.286-9.223-12.329-11.485-15.792-4.466-23.777-.116-23.835-.058-.294.174-.705.116-.94-.058-.176-.174-4.696-3.654-12.152-1.798 1.702 1.682 4.99 4.872 5.636 6.09.176.349.117.755-.176.986-.06.059-3.17 3.017-4.815 6.497-1.526 3.248-5.694 4.814-7.338 5.278v7.482c2.994.754 14.853 4.408 17.965 14.733h6.223v-4.002c0-.29.117-.522.352-.696.235-.174.528-.174.763-.116.059 0 6.693 2.494 13.797 0 .234-.116.528-.058.763.116a.824.824 0 01.352.696v4.002h6.634c.47 0 .822.348.822.812 0 .464-.293.87-.763.87z" fill="#33353D"/><path d="M55.372 57.94c-.117 0-.235 0-.352-.059-.411-.174-.587-.696-.411-1.102l.117-.232.177-.348.117-.232c.176-.406.704-.58 1.115-.406.411.174.587.696.411 1.102l-.117.232c-.117.174-.117.174-.176.348l-.118.29c-.117.232-.47.406-.763.406zM53.553 62c-.118 0-.176 0-.294-.058-.41-.174-.645-.638-.47-1.044 0 0 .177-.522.764-1.798.176-.406.704-.58 1.115-.406.411.174.646.696.411 1.102-.528 1.218-.704 1.74-.763 1.74-.059.232-.41.464-.763.464zm-6.929-35.73c-.117 0-.235 0-.352-.058-6.34-2.9-15.206-1.218-15.323-1.218a.914.914 0 01-.998-.638.903.903 0 01.646-.986c.41-.058 9.452-1.74 16.32 1.334.411.174.588.697.411 1.102a.763.763 0 01-.704.464zm-25.421 7.367a1.81 1.81 0 001.82-1.798 1.81 1.81 0 00-1.82-1.798 1.81 1.81 0 00-1.82 1.798 1.81 1.81 0 001.82 1.798z" fill="#33353D"/><path d="M38.699 20.354c3.21 0 5.812-2.571 5.812-5.743 0-3.171-2.602-5.742-5.812-5.742-3.21 0-5.812 2.571-5.812 5.742 0 3.172 2.602 5.743 5.812 5.743z" fill="#BEC3C7"/><path d="M41.517 14.611h2.994c0-3.19-2.583-5.742-5.812-5.742v2.958c1.585 0 2.818 1.218 2.818 2.784z" fill="#ECF0F1"/><path d="M38.699 21.224c-3.699 0-6.693-2.958-6.693-6.612S35 8 38.699 8c3.698 0 6.692 2.958 6.692 6.612s-2.994 6.612-6.692 6.612zm0-11.542c-2.76 0-4.99 2.204-4.99 4.93 0 2.726 2.23 4.93 4.99 4.93 2.759 0 4.99-2.204 4.99-4.93 0-2.726-2.231-4.93-4.99-4.93z" fill="#33353D"/></g><defs><clipPath id="clip0"><path fill="#fff" transform="translate(5 8)" d="M0 0h60v54H0z"/></clipPath></defs></svg>