<svg width="70" height="70" fill="none" xmlns="http://www.w3.org/2000/svg"><path fill="#fff" d="M0 0h70v70H0z"/><g clip-path="url(#clip0)"><path d="M55.013 16.578h-6.142c-1.462 0-2.674 1.198-2.674 2.644V54.38H57.73V19.222c-.041-1.446-1.253-2.644-2.716-2.644zm-16.921 7.85H31.91c-1.463 0-2.675 1.198-2.675 2.644V54.38h11.532V27.113a2.686 2.686 0 00-2.674-2.685zm-16.922 7.89h-6.183c-1.463 0-2.675 1.199-2.675 2.644v19.46h11.533v-19.46c0-1.487-1.212-2.644-2.675-2.644z" fill="#F4A343"/><path d="M12.313 44.3c2.632 0 4.763-2.108 4.763-4.71v-7.272h-2.09c-1.462 0-2.674 1.199-2.674 2.644V44.3zm16.921-7.85c2.633 0 4.764-2.107 4.764-4.71v-7.312h-2.09c-1.462 0-2.674 1.198-2.674 2.644v9.378zm16.922-7.85c2.633 0 4.764-2.107 4.764-4.71v-7.312h-2.09c-1.462 0-2.674 1.198-2.674 2.644V28.6z" fill="#E09C3B"/><path d="M12.312 50.952a.568.568 0 01-.585-.579v-.826c0-.33.25-.578.585-.578.334 0 .585.248.585.578v.826c0 .29-.251.579-.585.579z" fill="#33353D"/><path d="M23.844 55H12.31a.568.568 0 01-.584-.579v-2.19c0-.33.25-.578.585-.578.334 0 .585.248.585.579v1.611h10.32v-18.88c0-1.157-.92-2.066-2.09-2.066h-6.141c-1.17 0-2.09.909-2.09 2.066v12.6c0 .33-.25.579-.585.579a.568.568 0 01-.584-.579v-12.6c0-1.777 1.462-3.223 3.259-3.223h6.142c1.796 0 3.259 1.446 3.259 3.223V54.42c.041.29-.21.579-.543.579zm16.921 0H29.233a.568.568 0 01-.585-.579V27.113c0-1.776 1.463-3.222 3.26-3.222h6.142c1.796 0 3.259 1.446 3.259 3.222v27.308c.041.29-.21.579-.544.579zm-10.947-1.198h10.32V27.113c0-1.157-.919-2.066-2.088-2.066h-6.142c-1.17 0-2.09.91-2.09 2.066v26.689zM57.687 55H46.155a.568.568 0 01-.585-.578v-35.2c0-1.776 1.463-3.222 3.26-3.222h6.141c1.797 0 3.26 1.446 3.26 3.223V54.38a.546.546 0 01-.544.62zM46.74 53.802h10.32v-34.58c0-1.156-.919-2.065-2.089-2.065H48.83c-1.17 0-2.089.909-2.089 2.066v34.579z" fill="#33353D"/><path d="M64.415 55H12.31a.568.568 0 01-.584-.578c0-.33.25-.578.585-.578h52.103c.334 0 .584.248.584.578 0 .33-.292.579-.584.579z" fill="#33353D"/><path d="M12.312 55h-2.59a.568.568 0 01-.585-.578c0-.33.25-.578.585-.578h2.59c.335 0 .585.248.585.578 0 .33-.25.579-.585.579zm-4.68 0H5.585A.568.568 0 015 54.422c0-.33.25-.578.585-.578h2.047c.335 0 .585.248.585.578 0 .33-.25.579-.585.579z" fill="#33353D"/></g><defs><clipPath id="clip0"><path fill="#fff" transform="translate(5 16)" d="M0 0h60v39H0z"/></clipPath></defs></svg>