<svg width="70" height="70" fill="none" xmlns="http://www.w3.org/2000/svg"><path fill="#fff" d="M0 0h70v70H0z"/><g clip-path="url(#clip0)"><path d="M53.392 5.795h-8.477v2.84h1.878v1.876h6.6v50.852H17.608V10.511h6.598V8.636h1.878V5.795h-8.477a3.749 3.749 0 00-3.755 3.75v50.852a3.749 3.749 0 003.755 3.75h35.785a3.749 3.749 0 003.755-3.75V9.602c.057-2.103-1.65-3.807-3.755-3.807z" fill="#F4A343"/><path d="M27.906 51.988h-5.633v5.625h5.633v-5.625zm0-10.396h-5.633v5.625h5.633v-5.625zm0-10.342h-5.633v5.625h5.633V31.25z" fill="#D9A527"/><path d="M46.792 10.512v2.84H41.16v-2.84h2.845V8.637h2.787v1.875zm-16.952 0v2.84h-5.633V8.638h2.787v1.875h2.845z" fill="#DADCE0"/><path d="M41.161 10.512H29.84v2.84h11.32v-2.84z" fill="#DADCE0"/><path d="M27.961 31.25H22.33v5.625h5.632V31.25zm0 10.341H22.33v5.625h5.632v-5.625zm25.43-31.08v50.853H17.607V10.512h6.6v2.84h22.585v-2.84h6.6zm-25.43 47.103v-5.625H22.33v5.625h5.632z" fill="#E2E5ED"/><path d="M44.915 5.795v2.84h-.91v1.876H26.993V8.636h-.91V5.795h18.83z" fill="#F4A343"/><path d="M53.392 5.795H17.608a3.749 3.749 0 00-3.755 3.75v1.875a3.749 3.749 0 013.755-3.75h35.784a3.749 3.749 0 013.755 3.75V9.602c.057-2.103-1.65-3.807-3.755-3.807z" fill="#E09C3B"/><path d="M41.161 11.477H29.84v1.875h11.32v-1.875z" fill="#D9A527"/><path d="M41.161 11.477v1.875H29.84v-1.875h.967v.909h9.387v-.91h.967z" fill="#CE9222"/><path d="M44.006 5.795H42.13v4.716h1.877V5.795zm-18.888 0v2.84h-.91v1.876h-1.935V7.67h.968V5.795h1.877z" fill="#E09C3B"/><path d="M24.208 13.353v-2.841h-1.935v4.716h21.732v-1.875H24.208z" fill="#DADCE0"/><path d="M44.973 8.637h-.967v1.875h.967V8.637zm-17.922 0h-.967v1.875h.967V8.637zm19.741 3.75H41.16v.966h5.632v-.966zm-16.952 0h-5.633v.966h5.632v-.966z" fill="#33353D"/><path d="M17.608 61.363V11.477h-1.934v48.01a3.749 3.749 0 003.755 3.75h32.996v-1.874H17.608z" fill="#E09C3B"/><path d="M47.76 65H17.608C15.105 65 13 62.955 13 60.398V9.602A4.586 4.586 0 0117.608 5h35.84c2.504 0 4.609 2.045 4.609 4.602v51.534h-1.65V9.602a2.936 2.936 0 00-2.958-2.954h-35.84a2.936 2.936 0 00-2.96 2.954v50.853a2.936 2.936 0 002.96 2.954h30.15V65z" fill="#33353D"/><path d="M29.839 14.147h-5.632a.777.777 0 01-.797-.796V8.635c0-.454.341-.795.797-.795h2.844c.455 0 .797.34.797.795v1.08h1.99c.456 0 .797.34.797.795v2.841a.777.777 0 01-.796.796zm-4.836-1.591h4.04v-1.193H27.05a.777.777 0 01-.796-.796V9.431H25.06v3.125h-.057zm21.789 1.591H41.16a.777.777 0 01-.797-.796v-2.84c0-.455.342-.796.797-.796h1.99v-1.08c0-.454.4-.795.854-.795h2.845c.455 0 .796.34.796.795v4.716c0 .455-.398.796-.853.796zm-4.836-1.591h4.04V9.43H44.8v1.08a.777.777 0 01-.797.795h-1.99v1.25h-.058z" fill="#33353D"/><path d="M41.159 12.557H29.838v1.647h11.321v-1.647zm4.608-6.762h-1.65v2.84h1.65v-2.84zm-18.887 0h-1.65v2.84h1.65v-2.84zm20.88 56.422H17.61a.777.777 0 01-.797-.796V10.512c0-.454.342-.795.797-.795h6.6v1.647h-5.804v49.262h29.356v1.59zm6.485-1.137h-1.65V11.308h-2.958V9.717h3.755c.455 0 .796.34.796.795V61.08h.057zM41.161 9.717H29.84v1.647h11.32V9.717z" fill="#33353D"/><path d="M27.962 37.728H22.33a.777.777 0 01-.797-.796v-5.625c0-.454.341-.795.797-.795h5.632c.455 0 .796.34.796.795v5.625c0 .398-.341.796-.796.796zm-4.836-1.648h4.04v-4.034h-4.04v4.034z" fill="#33353D"/><path d="M29.299 28.775l-7.563 7.553 1.127 1.125 7.562-7.553-1.126-1.125z" fill="#33353D"/><path d="M27.906 20.967h-5.633v5.625h5.633v-5.625z" fill="#D9A527"/><path d="M27.962 27.442H22.33a.777.777 0 01-.797-.795v-5.625c0-.454.341-.795.797-.795h5.632c.455 0 .796.34.796.795v5.625a.777.777 0 01-.796.796zm-4.836-1.59h4.04v-4.035h-4.04v4.035z" fill="#33353D"/><path d="M29.272 18.502l-7.563 7.553 1.126 1.125 7.563-7.553-1.126-1.125zm-1.31 29.568H22.33a.777.777 0 01-.797-.796v-5.625c0-.455.341-.796.797-.796h5.632c.455 0 .796.341.796.796v5.625a.777.777 0 01-.796.795zm-4.836-1.648h4.04v-4.034h-4.04v4.034z" fill="#33353D"/><path d="M29.285 39.123l-7.562 7.553 1.126 1.125 7.563-7.553-1.127-1.125zm0 10.113l-7.562 7.553 1.126 1.125 7.563-7.553-1.127-1.125z" fill="#33353D"/><path d="M27.962 58.41H22.33a.777.777 0 01-.797-.796v-5.625c0-.455.341-.796.797-.796h5.632c.455 0 .796.341.796.796v5.625a.777.777 0 01-.796.795zm-4.836-1.592h4.04v-4.034h-4.04v4.034zm26.51-25.455H34.56v1.648h15.076v-1.648zm0 3.75H34.56v1.648h15.076v-1.648zm0-13.976H34.56v1.647h15.076v-1.647zm0 3.75H34.56v1.647h15.076v-1.647zm0 16.875H34.56v1.647h15.076v-1.647zm0 3.75H34.56v1.647h15.076v-1.647zm0 6.59H34.56v1.647h15.076v-1.647zm0 3.75H34.56v1.647h15.076v-1.647zm1.254 4.716h-1.537v1.648h1.536v-1.648zm0 2.84h-1.537v1.648h1.536v-1.648z" fill="#33353D"/></g><defs><clipPath id="clip0"><path fill="#fff" transform="translate(13 5)" d="M0 0h45v60H0z"/></clipPath></defs></svg>