<svg width="70" height="70" fill="none" xmlns="http://www.w3.org/2000/svg"><path fill="#fff" d="M0 0h70v70H0z"/><g clip-path="url(#clip0)"><path d="M37.617 10.812l1.2 1.709.915-.912a.695.695 0 01.858-.114l3.545 2.28c-.686-4.217-4.288-7.408-8.634-7.408-4.46 0-8.176 3.362-8.634 7.692h.057l9.95-3.532c.228-.114.571 0 .743.285z" fill="#BEC3C7"/><path d="M43.39 15.54c-.056-.227-.113-.512-.228-.74l-2.859-1.824-1.086 1.083c-.172.171-.343.228-.572.171a.6.6 0 01-.514-.285l-1.373-1.937-9.148 3.248c-.057.114-.057.228-.057.285.686-.4 1.543-.627 2.458-.627 1.487 0 2.802.627 3.545 1.595a2.634 2.634 0 011.944-.798c.744 0 1.43.342 1.944.798.744-.968 2.059-1.595 3.545-1.595.858 0 1.716.228 2.402.627zM30.81 25.968c.058.057.115.057.172.114l.515.341c.057 0 .114.058.114.058l.686.341c.23.114.515.228.744.285h.057c.229.057.457.171.686.228.057 0 .114.057.172.057.171.057.4.057.571.114h.229c.229 0 .515.057.743.057.286 0 .515 0 .744-.057.057 0 .171 0 .228-.057.172 0 .4-.057.572-.114.057 0 .114-.057.229-.057.229-.057.4-.114.629-.17.057 0 .057 0 .114-.058.229-.114.458-.17.686-.285.057 0 .057-.057.115-.057.171-.113.343-.17.571-.284.058-.057.115-.114.23-.114.114-.114.285-.171.4-.285.057-.057.17-.114.228-.171 1.544-1.197 2.687-2.963 3.202-5.072-.686.4-1.544.627-2.459.627-2.115 0-3.888-1.31-4.116-2.906v-.114c0-.797-.572-1.424-1.316-1.424-.743 0-1.315.627-1.315 1.424v.114c-.228 1.653-2 2.963-4.116 2.963-.915 0-1.773-.228-2.459-.627a9.04 9.04 0 003.145 5.129z" fill="#F4A343"/><path d="M40.933 16.281c-1.487 0-2.802.855-2.802 1.938 0 1.025 1.258 1.937 2.802 1.937 1.486 0 2.744-.855 2.801-1.88v-.114c-.057-1.026-1.315-1.88-2.801-1.88zM30.01 20.1c1.487 0 2.745-.855 2.802-1.938 0-1.026-1.257-1.937-2.801-1.937-1.487 0-2.802.854-2.802 1.937 0 1.083 1.315 1.937 2.802 1.937zm6.863 14.188l3.66 1.196c.114.057.228.057.343.057.285 0 .628-.114.8-.342.229-.228.343-.512.343-.854v-3.761h-1.03l-4.116 3.704z" fill="#E2E5ED"/><path d="M40.074 27.678c-.057.057-.114.057-.228.114-.23.17-.515.285-.744.399-.114.056-.171.056-.286.114-.286.114-.629.227-.915.341h-.114a7.666 7.666 0 01-2.287.342c-.8 0-1.544-.114-2.287-.342-.057 0-.114-.057-.172-.057a3.313 3.313 0 01-.8-.284c-.114-.058-.229-.114-.343-.114-.229-.114-.4-.228-.63-.342l-.342-.171v1.88l4.574 4.103 4.574-4.046v-1.937z" fill="#E09C3B"/><path d="M34.928 39.245h1.086l-.515-2.052-.571 2.052z" fill="#F4A343"/><path d="M13.43 57.307c0 .057-.057.114 0 .17l1.372 2.394V57.25h-1.258c-.057 0-.114 0-.114.057z" fill="#E2E5ED"/><path d="M50.881 40.613H20.12c-2.173 0-4.003 1.767-4.003 3.989v17.892c0 .626.515 1.14 1.2 1.14h36.366c.629 0 1.2-.514 1.2-1.197V44.602c-.057-2.222-1.83-3.989-4.002-3.989zm-15.38 14.758a3.252 3.252 0 01-3.26-3.248c0-1.766 1.487-3.248 3.26-3.248 1.772 0 3.259 1.482 3.259 3.248 0 1.824-1.487 3.248-3.26 3.248z" fill="#E09C3B"/><path d="M57.455 57.25h-1.258v2.621l1.372-2.393c.058-.057.058-.114 0-.171 0 0-.057-.057-.114-.057zM30.468 35.428l3.659-1.197-4.174-3.704h-1.03v3.761c0 .798.801 1.425 1.545 1.14z" fill="#E2E5ED"/><path d="M40.073 36.738l-3.602-1.14.915 3.647h14.408c.744 0 1.43.171 2.059.513a10.538 10.538 0 00-2.916-6.097c-2.002-1.994-4.632-3.134-7.49-3.134v3.761a2.63 2.63 0 01-.744 1.823 2.619 2.619 0 01-1.772.741c-.343 0-.572 0-.858-.114zM20.12 39.245h13.436l.973-3.646-3.603 1.14a3.385 3.385 0 01-.8.113 2.558 2.558 0 01-2.573-2.564v-3.76h-.057c-2.802 0-5.49 1.082-7.433 3.133a10.052 10.052 0 00-2.916 6.097 4.405 4.405 0 012.058-.513h.915zM35.5 50.242a1.9 1.9 0 00-1.887 1.88 1.9 1.9 0 001.887 1.88 1.9 1.9 0 001.887-1.88 1.9 1.9 0 00-1.887-1.88z" fill="#BEC3C7"/><path d="M57.456 55.883h-1.258V44.601c0-1.14-.4-2.222-1.03-3.134.058-.057.058-.17.058-.285a11.761 11.761 0 00-3.374-8.49c-2.23-2.279-5.26-3.532-8.462-3.532h-2.06v-2.508c2.23-1.937 3.66-5.014 3.66-8.376v-.114c0-.797-.114-1.595-.229-2.393h.057c.4.057.686-.285.686-.684v-.17C45.505 9.445 40.988 5 35.5 5c-5.546 0-10.12 4.501-10.12 10.085a.7.7 0 00.286.57c.114.057.286.114.4.114h.057c-.171.798-.286 1.596-.286 2.45 0 3.42 1.43 6.496 3.66 8.49v2.508h-2.059a11.648 11.648 0 00-8.405 3.532c-2.23 2.28-3.43 5.3-3.373 8.547 0 .114.057.171.057.285-.629.855-.972 1.938-.972 3.077V55.94h-1.2c-.573 0-1.03.285-1.316.74-.286.457-.286 1.026 0 1.54l2.573 4.615c.114 1.31 1.2 2.279 2.516 2.279h36.365a2.54 2.54 0 002.516-2.28l2.573-4.615c.286-.456.286-1.025 0-1.538-.286-.513-.744-.798-1.315-.798zm-42.712 3.989l-1.372-2.393c-.057-.057 0-.114 0-.171 0-.057.057-.057.114-.057h1.258v2.62zm28.703-25.527v-3.761c2.859 0 5.49 1.083 7.49 3.134 1.659 1.595 2.63 3.76 2.916 6.04a4.242 4.242 0 00-2.058-.513H37.443l-.914-3.647 3.602 1.14c.286.057.514.114.8.114.686 0 1.315-.285 1.773-.74a2.496 2.496 0 00.743-1.767zM35.5 33.66l-4.574-4.103v-1.88l.343.171c.229.114.4.228.63.342.113.057.228.114.342.114a7 7 0 00.8.285c.058 0 .115.057.172.057a7.666 7.666 0 002.287.342c.8 0 1.544-.114 2.287-.342h.115c.286-.114.629-.171.915-.342.114-.057.171-.057.286-.114.286-.114.514-.228.743-.399.057-.057.114-.057.229-.114v1.88L35.5 33.66zm.515 5.584h-1.086l.571-2.051.515 2.051zm6.06-8.661v3.76c0 .343-.114.627-.342.855a1.13 1.13 0 01-.8.342c-.115 0-.23 0-.344-.057l-3.66-1.196 4.175-3.704h.972zm1.659-12.365c-.057 1.026-1.315 1.88-2.802 1.88-1.486 0-2.801-.854-2.801-1.937 0-1.025 1.258-1.937 2.801-1.937 1.487 0 2.745.855 2.802 1.88v.114zm-6.347-1.709a2.633 2.633 0 00-1.944-.798c-.743 0-1.43.342-1.944.798-.743-.969-2.058-1.596-3.545-1.596-.915 0-1.772.228-2.459.627 0-.114.058-.228.058-.285l9.148-3.248 1.372 1.938c.115.17.286.285.515.285a.97.97 0 00.572-.171l1.086-1.083 2.859 1.824c.057.227.172.512.229.74-.686-.399-1.544-.627-2.459-.627-1.43 0-2.744.627-3.488 1.596zm-10.52-2.45c.457-4.33 4.174-7.692 8.633-7.692 4.346 0 7.948 3.19 8.577 7.35l-3.545-2.28a.695.695 0 00-.858.115l-.915.911-1.2-1.709c-.172-.228-.515-.342-.8-.228l-9.892 3.533zm3.144 2.222c1.487 0 2.802.855 2.802 1.937 0 1.026-1.258 1.938-2.802 1.938-1.486 0-2.801-.855-2.801-1.938 0-1.082 1.315-1.937 2.801-1.937zm-2.458 4.558c.686.4 1.544.627 2.458.627 2.116 0 3.888-1.31 4.117-2.963v-.114c0-.797.572-1.424 1.315-1.424s1.315.627 1.315 1.424v.114c.229 1.653 2.002 2.906 4.117 2.906.915 0 1.773-.228 2.459-.627-.515 2.052-1.658 3.875-3.202 5.072-.057.057-.172.114-.229.17-.114.115-.286.172-.4.286-.057.056-.114.113-.229.113-.171.114-.343.228-.572.285-.057 0-.057.057-.114.057-.229.114-.458.228-.686.285-.057 0-.057 0-.115.057-.228.057-.4.114-.629.171-.057 0-.114.057-.228.057-.172.057-.343.057-.572.114-.057 0-.114 0-.229.057-.228 0-.514.057-.743.057-.286 0-.515 0-.743-.057h-.229c-.171 0-.4-.057-.572-.114-.057 0-.114 0-.171-.057-.229-.057-.458-.114-.686-.228h-.058c-.228-.114-.514-.17-.743-.285a1461 1461 0 00-.686-.341c-.057 0-.114-.058-.114-.058l-.515-.341c-.057-.057-.114-.057-.171-.114-1.43-1.254-2.573-3.02-3.145-5.129zm1.372 9.744h1.03l4.173 3.704-3.66 1.196c-.743.228-1.543-.342-1.543-1.14v-3.76zm-8.863 3.077c2.002-1.994 4.632-3.134 7.433-3.134h.058v3.76a2.558 2.558 0 002.573 2.565c.286 0 .514-.057.8-.114l3.602-1.14-.972 3.647H19.147a4.24 4.24 0 00-2.059.513 10.452 10.452 0 012.973-6.097zm34.764 22.906v5.926c0 .627-.514 1.196-1.2 1.196H17.317c-.63 0-1.144-.512-1.2-1.14V44.602a4.007 4.007 0 014.002-3.989H50.88c2.173 0 4.003 1.767 4.003 3.99v11.965h-.058zm2.745.912l-1.372 2.393V57.25h1.258c.057 0 .114.057.114.057.057.057.057.114 0 .17z" fill="#33353D"/><path d="M35.5 48.875a3.252 3.252 0 00-3.26 3.248c0 1.823 1.487 3.248 3.26 3.248 1.772 0 3.258-1.482 3.258-3.248 0-1.767-1.486-3.248-3.259-3.248zm0 5.128a1.9 1.9 0 01-1.888-1.88 1.9 1.9 0 011.887-1.88 1.9 1.9 0 011.887 1.88 1.9 1.9 0 01-1.887 1.88z" fill="#33353D"/></g><defs><clipPath id="clip0"><path fill="#fff" transform="translate(12 5)" d="M0 0h47v60H0z"/></clipPath></defs></svg>