<svg width="70" height="70" fill="none" xmlns="http://www.w3.org/2000/svg"><path fill="#fff" d="M0 0h70v70H0z"/><g clip-path="url(#clip0)"><path d="M28.446 49.766l-9.56 7.149 4.212 5.68c.268.4.802.467 1.204.2l5.748-4.276c.936-.602 1.872-.736 2.808-.802 1.137-.134 2.273-.268 3.476-1.136.134-.067 2.14-1.604 4.746-3.475l-1.403-1.804c-2.741-3.54-7.688-4.209-11.23-1.536z" fill="#E09C3B"/><path d="M51.979 42.817c-.268-.401-.669-.601-1.137-.668a1.676 1.676 0 00-1.27.334l-4.278 3.14c-.468.334-1.136.267-1.47-.2-.335-.468-.268-1.136.2-1.47l4.278-3.14c.736-.602.936-1.67.334-2.406-.534-.735-1.67-.935-2.406-.334l-4.278 3.14c-.468.334-1.137.268-1.471-.2-.334-.468-.267-1.136.2-1.47l4.279-3.14c.4-.268.601-.669.668-1.136a1.675 1.675 0 00-.334-1.27c-.602-.735-1.671-.935-2.407-.334l-4.278 3.14c-.468.335-1.136.268-1.47-.2-.335-.468-.268-1.136.2-1.47l4.278-3.14c.401-.267.602-.668.669-1.136a1.674 1.674 0 00-.334-1.27c-.268-.4-.669-.6-1.137-.668a1.676 1.676 0 00-1.27.334L27.78 37.94c-.468.334-1.137.268-1.471-.2-.334-.468-.267-1.136.2-1.47l1.805-1.336-2.072-2.472-4.211 3.207c-1.404 1.002-2.942 3.808-2.407 11.291 0 .334-.134.669-.401.87l-3.944 2.939c-.401.267-.468.802-.2 1.203l3.676 4.944 9.693-7.15c3.543-2.672 8.49-2.004 11.23 1.47l1.405 1.805c4.478-3.341 10.495-7.818 10.495-7.818.4-.267.601-.668.668-1.136.134-.467 0-.868-.267-1.27z" fill="#F4A343"/><path d="M51.378 47.963c-1.738 1.27-4.747 3.541-7.487 5.545l5.615 6.816c1.537 2.071 4.479 2.539 6.551 1.002 2.072-1.537 2.474-4.477 1.003-6.548l-5.682-6.815z" fill="#BEC3C7"/><path d="M53.047 46.758a3.643 3.643 0 001.338-2.339 3.823 3.823 0 00-.736-2.806 3.687 3.687 0 00-2.473-1.47h-.134c.2-1.002-.067-2.071-.668-2.94-.669-.868-1.605-1.403-2.608-1.536v-.134a3.823 3.823 0 00-.735-2.806c-.668-.869-1.604-1.403-2.607-1.537v-.134a3.824 3.824 0 00-.735-2.806 3.687 3.687 0 00-2.474-1.47c-.668-.067-1.27 0-1.872.2 0-.066-.066-.133-.066-.133l-4.145-4.944c1.47-3.942.87-8.486-1.604-11.893-2.942-3.942-7.888-5.813-12.635-4.744-.334.067-.601.334-.735.668s-.067.735.134 1.002c0 .067.066.134.133.2l6.418 5.68-1.671 6.882-7.086-.468-3.61-7.684c-.134-.4-.468-.668-.87-.668a.995.995 0 00-1.002.468 12.384 12.384 0 00.87 13.497c2.54 3.407 6.684 5.278 10.895 5.01l.803.936-4.145 3.14c-2.54 1.871-3.61 6.08-3.276 12.562l-3.61 2.605a2.837 2.837 0 00-.601 4.076l7.888 10.624c.936 1.27 2.808 1.537 4.078.601l5.682-4.21c.468-.267 1.136-.4 1.939-.467 1.27-.133 2.807-.334 4.412-1.537.133-.066 2.072-1.536 4.612-3.407l5.615 6.815c2.206 3.007 6.485 3.608 9.426 1.403 3.008-2.205 3.61-6.414 1.404-9.42l-5.548-6.816zM24.704 27.782c-3.677.401-7.354-1.135-9.56-4.142-2.005-2.673-2.54-6.147-1.604-9.22l2.875 6.28a.952.952 0 00.869.601l8.623.535c.535 0 .936-.334 1.07-.802l2.005-8.352c.067-.4-.067-.735-.334-1.002L23.5 7.07c3.21 0 6.418 1.537 8.357 4.21a10.299 10.299 0 011.136 10.356c-.134.334-.134.734.134 1.002l4.545 5.412-7.487 5.545-4.545-5.412c-.201-.267-.602-.4-.936-.4zm11.631 28.731c-1.136.869-2.34 1.002-3.476 1.136-.936.133-1.872.267-2.807.802l-5.75 4.276c-.4.267-.935.2-1.203-.2l-7.888-10.558c-.267-.4-.2-.935.2-1.202l3.945-2.94c.267-.2.468-.535.4-.869-.467-7.483 1.07-10.29 2.407-11.291l4.212-3.208 2.072 2.473-1.805 1.336c-.468.334-.534 1.002-.2 1.47.334.468 1.003.534 1.47.2l11.766-8.686c.4-.267.802-.4 1.27-.334.468.067.869.334 1.136.669.268.4.401.801.335 1.269a1.805 1.805 0 01-.669 1.136l-4.278 3.073c-.468.334-.535 1.003-.2 1.47.334.468 1.002.535 1.47.2l4.278-3.14c.735-.601 1.872-.4 2.407.334.267.401.4.802.334 1.27a1.805 1.805 0 01-.669 1.136l-4.278 3.14c-.468.334-.535 1.002-.2 1.47.334.468 1.002.535 1.47.2l4.279-3.14c.735-.534 1.871-.4 2.406.334.535.735.401 1.871-.334 2.406l-4.278 3.14c-.468.334-.535 1.002-.2 1.47.333.468 1.002.534 1.47.2l4.278-3.14c.401-.267.802-.4 1.27-.334.468.067.87.334 1.137.668.267.4.4.802.334 1.27a1.806 1.806 0 01-.669 1.135c-.133.067-15.107 11.158-15.442 11.359zm19.654 4.81c-2.072 1.537-5.014 1.07-6.551-1.002l-5.616-6.815a603.682 603.682 0 017.487-5.545l5.616 6.815c1.604 2.071 1.136 5.01-.936 6.548z" fill="#33353D"/><path d="M26.977 21.037a1.084 1.084 0 01-1.07.801l-8.623-.534a.952.952 0 01-.87-.601l-2.874-6.281c-.935 3.14-.4 6.548 1.605 9.22 2.206 3.007 5.883 4.544 9.56 4.143.333-.067.735.134.935.4l4.546 5.413 5.95-4.41-8.557-10.69-.602 2.539z" fill="#BEC3C7"/><path d="M37.674 28.119l-4.546-5.412a1.066 1.066 0 01-.134-1.003c1.471-3.407 1.07-7.416-1.136-10.356-2.005-2.673-5.214-4.21-8.356-4.21l5.147 4.61c.268.268.401.67.334 1.003l-1.403 5.88 8.556 10.69 1.538-1.202z" fill="#BEC3C7"/><path d="M24.97 39.81a1.07 1.07 0 100-2.139 1.07 1.07 0 000 2.139z" fill="#33353D"/></g><defs><clipPath id="clip0"><path fill="#fff" transform="translate(11 5)" d="M0 0h49v60H0z"/></clipPath></defs></svg>