<svg width="70" height="70" fill="none" xmlns="http://www.w3.org/2000/svg"><path fill="#fff" d="M0 0h70v70H0z"/><path d="M41.09 54.732H28.91v5.411h12.18v-5.41z" fill="#BEC3C7"/><path d="M12.58 16.803a3.91 3.91 0 00-3.934 3.91v26.25h52.761v-26.25c0-2.196-1.778-3.91-3.934-3.91H12.58z" fill="#F4A343"/><path d="M8.594 46.965v3.214c0 2.197 1.778 3.91 3.934 3.91h44.946a3.91 3.91 0 003.934-3.91v-3.214H8.594z" fill="#E09C3B"/><path d="M50.575 16.804v19.447s-7.491-3.643-15.575 0V12.358c7.814-3.965 15.575 0 15.575 0v4.446z" fill="#BEC3C7"/><path d="M35 12.358v23.839c-8.137-3.643-15.574 0-15.574 0V12.358c-.054 0 7.76-3.965 15.575 0z" fill="#ECF0F1"/><path d="M55.373 49.322c-.647 0-1.185.536-1.185 1.179s.538 1.178 1.185 1.178 1.186-.535 1.186-1.178c.054-.643-.485-1.179-1.186-1.179zm-3.558 0c-.647 0-1.186.536-1.186 1.179s.539 1.178 1.186 1.178c.646 0 1.185-.535 1.185-1.178 0-.643-.539-1.179-1.185-1.179zm-3.612 0c-.647 0-1.185.536-1.185 1.179s.538 1.178 1.185 1.178 1.186-.535 1.186-1.178c0-.643-.54-1.179-1.186-1.179z" fill="#33353D"/><path d="M57.42 16.214h-6.252v-3.857a.589.589 0 00-.324-.536c-.108-.053-3.61-1.821-8.353-1.821A16.9 16.9 0 0035 11.714c-4.096-1.982-8.138-1.875-10.832-1.446-2.964.536-4.958 1.5-5.066 1.553-.162.108-.324.322-.324.536v3.804h-6.197C10.048 16.214 8 18.196 8 20.714V50.18c0 2.517 2.048 4.553 4.58 4.553h15.845v5.09h-3.018a.596.596 0 00-.593.589c0 .321.27.589.593.589h19.186a.596.596 0 00.593-.59c0-.32-.27-.589-.593-.589h-3.018v-5.089h15.844c2.533 0 4.581-2.036 4.581-4.553V20.714c0-2.518-2.048-4.5-4.58-4.5zm-21.827-3.482c2.102-1.018 4.473-1.553 6.898-1.553 3.61 0 6.521 1.125 7.491 1.553v22.554C48.689 34.804 45.994 34 42.652 34a19.63 19.63 0 00-7.06 1.286V12.732zm-15.575 0a20.94 20.94 0 014.42-1.286c2.478-.428 6.197-.535 9.97 1.286V35.34c-4.043-1.553-7.815-1.446-10.348-1.071-1.779.268-3.234.75-4.042 1.071V12.732zm-7.437 4.66h6.197V36.25c0 .214.108.375.27.482.162.107.377.107.593.054.054-.054 7.33-3.429 15.09 0h.053c.054.053.162.053.216.053.054 0 .162 0 .216-.053h.053a18.243 18.243 0 017.384-1.554c4.419 0 7.652 1.554 7.706 1.554.162.107.431.053.593-.054a.638.638 0 00.27-.482V17.393h6.251c1.832 0 3.341 1.5 3.341 3.321v25.661H9.186v-3.59h23.389a.596.596 0 00.593-.589.597.597 0 00-.593-.589H9.185V20.714c0-1.821 1.51-3.321 3.396-3.321zm27.808 42.376h-2.425v-.91c0-.322-.27-.59-.593-.59a.596.596 0 00-.593.59v.91h-3.61v-.91c0-.322-.27-.59-.593-.59a.596.596 0 00-.593.59v.91h-2.425v-5.09h10.778v5.09h.054zM57.42 53.5H12.581c-1.832 0-3.341-1.5-3.341-3.321v-2.625h51.574v2.625C60.761 52 59.305 53.5 57.42 53.5z" fill="#33353D"/><path d="M24.06 17.714l6.037 1.179h.107a.63.63 0 00.593-.483.606.606 0 00-.485-.696l-5.982-1.178a.608.608 0 00-.7.482.536.536 0 00.43.696zm0 3.59l6.037 1.179h.107a.63.63 0 00.593-.483.606.606 0 00-.485-.696l-5.982-1.179c-.323-.053-.646.161-.7.483a.536.536 0 00.43.696zm0 3.588l6.037 1.178h.107a.63.63 0 00.593-.482.606.606 0 00-.485-.696l-5.982-1.179c-.323-.053-.646.161-.7.482a.536.536 0 00.43.697zm0 3.59l6.037 1.178h.107a.63.63 0 00.593-.482.606.606 0 00-.485-.696l-5.982-1.179c-.323-.053-.646.16-.7.482-.108.322.107.59.43.697zm15.736-9.535h.108l5.982-1.178a.606.606 0 00.485-.697c-.054-.321-.377-.535-.7-.482l-5.982 1.179a.606.606 0 00-.485.696.63.63 0 00.592.482zm0 3.536h.108l5.982-1.179a.606.606 0 00.485-.696c-.054-.322-.377-.536-.7-.483l-5.982 1.179a.606.606 0 00-.485.696c.053.322.323.483.592.483zm0 3.587h.108l5.982-1.178a.606.606 0 00.485-.697c-.054-.321-.377-.535-.7-.482l-5.982 1.179a.606.606 0 00-.485.696c.053.322.323.482.592.482zm6.575 1.663c-.054-.322-.377-.536-.7-.483l-5.982 1.179a.606.606 0 00-.485.696.63.63 0 00.592.483h.108l5.982-1.179c.324-.054.54-.321.485-.696zM34.839 42.786H53a.596.596 0 00.592-.59c0-.32-.27-.589-.592-.589H34.839a.596.596 0 00-.593.59c0 .321.27.589.593.589zm20.261 0h1.51a.596.596 0 00.592-.59.597.597 0 00-.592-.589H55.1a.596.596 0 00-.592.59c0 .321.27.589.593.589z" fill="#33353D"/></svg>