<svg width="70" height="70" fill="none" xmlns="http://www.w3.org/2000/svg"><path fill="#fff" d="M0 0h70v70H0z"/><g clip-path="url(#clip0)"><path d="M33.567 62.175c2.616 0 4.737-1.995 4.737-4.456 0-2.46-2.121-4.455-4.737-4.455s-4.737 1.995-4.737 4.455c0 2.461 2.12 4.456 4.737 4.456z" fill="#BEC3C7"/><path d="M35.847 57.72h2.456c0-2.476-2.105-4.456-4.737-4.456v2.31c1.287 0 2.281.99 2.281 2.145z" fill="#ECF0F1"/><path d="M33.508 32.194v-7.536H17.426c-3.625 0-6.608 2.75-6.608 6.216v6.767h16.96c3.157-.055 5.73-2.476 5.73-5.447z" fill="#E09C3B"/><path d="M36.199 24.658h-2.69v7.592c0 2.97-2.574 5.39-5.732 5.39H10.818v4.401c0 3.41 2.924 6.216 6.609 6.216h18.772c3.625 0 6.608-2.75 6.608-6.216V30.82c-.059-3.41-2.983-6.16-6.608-6.16z" fill="#F4A343"/><path d="M33.333 48.972h-.878c-.467 0-.818-.33-.818-.77s.35-.77.818-.77h.878c.468 0 .818.33.818.77.059.385-.35.77-.818.77z" fill="#33353D"/><path d="M36.199 48.974c-.468 0-.819-.33-.819-.77s.351-.77.819-.77c3.158 0 5.73-2.421 5.73-5.392V30.82c0-2.97-2.572-5.39-5.73-5.39H17.427c-3.158 0-5.731 2.42-5.731 5.39v11.112c0 2.97 2.573 5.391 5.73 5.391h12.106c.468 0 .819.33.819.77s-.351.77-.819.77H17.427c-4.094.11-7.427-3.025-7.427-6.876V30.82c0-3.85 3.333-6.986 7.427-6.986h18.772c4.093 0 7.427 3.136 7.427 6.986v11.112c0 3.906-3.334 7.041-7.427 7.041z" fill="#33353D"/><path d="M37.427 54.033H11.754c-.468 0-.819-.33-.819-.77s.351-.77.82-.77h25.672c5.73 0 10.41-4.4 10.41-9.792V13.106C47.894 9.75 50.76 7 54.326 7h4.854c.468 0 .819.33.819.77s-.351.77-.819.77h-4.854c-2.631 0-4.795 2.036-4.795 4.511v29.595c0 6.326-5.439 11.387-12.105 11.387z" fill="#33353D"/><path d="M33.567 63c-3.1 0-5.555-2.365-5.555-5.225 0-2.916 2.514-5.226 5.555-5.226 3.1 0 5.556 2.365 5.556 5.226.058 2.86-2.456 5.226-5.556 5.226zm0-8.966c-2.163 0-3.918 1.65-3.918 3.686 0 2.035 1.755 3.685 3.918 3.685 2.164 0 3.918-1.65 3.918-3.685 0-2.036-1.754-3.686-3.918-3.686z" fill="#33353D"/><path d="M20.06 62.175c2.615 0 4.736-1.995 4.736-4.456 0-2.46-2.12-4.455-4.737-4.455-2.616 0-4.737 1.995-4.737 4.455 0 2.461 2.121 4.456 4.737 4.456z" fill="#BEC3C7"/><path d="M22.34 57.72h2.455c0-2.476-2.105-4.456-4.736-4.456v2.31c1.228 0 2.28.99 2.28 2.145z" fill="#ECF0F1"/><path d="M20.06 63c-3.1 0-5.556-2.365-5.556-5.225 0-2.916 2.514-5.226 5.556-5.226 3.099 0 5.555 2.365 5.555 5.226 0 2.86-2.515 5.226-5.555 5.226zm0-8.966c-2.164 0-3.919 1.65-3.919 3.686 0 2.035 1.755 3.685 3.919 3.685 2.163 0 3.918-1.65 3.918-3.685 0-2.036-1.813-3.686-3.919-3.686z" fill="#33353D"/></g><defs><clipPath id="clip0"><path fill="#fff" transform="translate(10 7)" d="M0 0h50v56H0z"/></clipPath></defs></svg>