<svg width="30" height="30" fill="none" xmlns="http://www.w3.org/2000/svg"><rect width="30" height="30" rx="5" fill="#F4A343"/><path d="M21.25 23.125h-.106C8.863 22.419 7.119 12.056 6.875 8.894A1.875 1.875 0 018.6 6.875h3.444a1.25 1.25 0 011.162.787l.95 2.338a1.25 1.25 0 01-.275 1.35l-1.33 1.344a5.856 5.856 0 004.737 4.75l1.356-1.344A1.25 1.25 0 0120 15.844l2.356.944a1.25 1.25 0 01.77 1.162v3.3a1.875 1.875 0 01-1.876 1.875zm-12.5-15a.625.625 0 00-.625.625v.05c.288 3.7 2.131 12.45 13.088 13.075a.625.625 0 00.662-.587V17.95l-2.356-.944-1.794 1.782-.3-.038c-5.437-.681-6.175-6.119-6.175-6.175l-.037-.3 1.775-1.794-.938-2.356h-3.3z" fill="#fff"/></svg>