<svg width="15" height="15" fill="none" xmlns="http://www.w3.org/2000/svg"><path fill-rule="evenodd" clip-rule="evenodd" d="M4.753 2.191H1v3.754h3.753V2.19zM1 1.191a1 1 0 00-1 1v3.754a1 1 0 001 1h3.753a1 1 0 001-1V2.19a1 1 0 00-1-1H1zm3.753 9.055H1V14h3.753v-3.753zM1 9.246a1 1 0 00-1 1V14a1 1 0 001 1h3.753a1 1 0 001-1v-3.753a1 1 0 00-1-1H1zm11.808 1H9.055V14h3.753v-3.753zm-3.753-1a1 1 0 00-1 1V14a1 1 0 001 1h3.753a1 1 0 001-1v-3.753a1 1 0 00-1-1H9.055zm1.877-7.832L8.278 4.068l2.654 2.654 2.654-2.654-2.654-2.654zM7.57 3.361a1 1 0 000 1.414l2.654 2.654a1 1 0 001.414 0l2.654-2.654a1 1 0 000-1.414L11.639.707a1 1 0 00-1.414 0L7.57 3.361z" fill="#fff"/></svg>