<svg width="44" height="53" fill="none" xmlns="http://www.w3.org/2000/svg"><g clip-path="url(#clip0)"><path d="M24.056 12.468h1.555l1.167-.108c.222-.216 1.056.054 1.334.216l2.333-.648c-.611-3.94-4.111-6.962-8.389-6.962-4.278-.054-7.833 3.13-8.333 7.232h.055L22 12.09c.278-.108 1.89.108 2.056.378z" fill="#BEC3C7"/><path d="M16.222 26.231c.055.054 1.222.756 1.278.81.166.162.5.162.666.323.056.054.556-.054.611 0 .223.162.167-.054.39.108l.555.162c.222.162.111-.324.222-.054.445 1.296.167.054.167.054.222.108.055-.054.333 0h.334c.166.054.277.108.5.108.055 0 .444.054.5.054.222.054.666-.054.944-.054.278 0-.167-.054.111-.108.056 0 .167.054.222.054.167-.054.167.108.39.054.055 0 .221-.054.332-.108.223-.054.167 0 .334-.108.055 0 .333-.108.389-.108.222-.108.277-.054.5-.215h.333c.167-.108.278-.108.445-.216.055-.054.333 0 .388-.054.111-.108.445.054.556-.108.055-.054.611-.486.667-.54 1.5-1.727 2.722-1.457 3.222-4.426-.667.594 1.722-2.482.833-2.482-2.055 0-.555-4.102-.833-6.477 0-.054-6 .054-6 0 0-1.133-1.778-.756-2.5-.756s-1.278.918-1.278 1.997c0 .054 1.278-2.05 1.278-1.997-.222 2.375-5.834.756-7.945.756-.889 0 .334 6.53-.333 5.937.444 2.968.889 5.667 2.389 7.394z" fill="#F4A343"/><path d="M23.555 35.783l3.444 2.968c.111.054.611-2.59.722-2.59.278 0 .223-.594.445-.81.222-.216 0-.755 0-1.025l1.11-3.454-2.11-.108-3.611 5.019zm-2.889-.163l-3.445 2.97c-.111.053-.611-2.591-.722-2.591-.278 0-.222-.594-.444-.81-.223-.216 0-.755 0-1.025l-1.112-3.455 2.112-.107 3.61 5.019z" fill="#E2E5ED"/><path d="M26.555 27.04c-.056.053-.112.107-.223.161-.222.216-.5.432-.777.594-.112.054-.167.108-.278.162-.278.162-.611.323-.89.485-.055 0-.055 0-.11.054a5.57 5.57 0 01-4.556 0c-.055 0-.111-.054-.166-.054-.278-.108-.556-.27-.834-.431-.111-.054-.222-.162-.333-.216-.222-.162-.39-.324-.611-.486-.111-.108-.223-.162-.334-.27v2.86L22 36.16l4.5-6.26v-2.86h.056z" fill="#EFBC67"/><path d="M34.056 52.083c.722 0 7.5-.756 8.11-.432-.277-2.159-1.11-16.3-2.666-17.918-1.944-1.89-6-2.483-8.778-2.483h-.778l-.666 3.832c0 .648-.056 1.133-.5 1.565-.445.432.11.594-.556.594-.278 0-.444 1.565-.722 1.511l-5.5-3.13v15.867" fill="#BEC3C7"/><path d="M9.666 52.083c-.722 0-7.778-.756-8.389-.432.278-2.159 1.111-16.3 2.778-17.918 2-1.89 6.222-2.483 9.056-2.483h.833l.667 3.832c0 .648.055 1.133.555 1.565.5.432-.11.594.556.594.278 0 .444 1.565.722 1.511l5.667-3.13v15.867" fill="#BEC3C7"/><path d="M42.833 38.536c-.389-4.426-3.944-8.042-8.5-8.582l-7.555-.863-.222-1.134c1.722-.917 3.166-2.32 4.055-4.048h3.722c.5 0 .89-.377.89-.863v-2.699c1-.378 1.777-1.295 1.777-2.428v-3.4c0-1.134-.778-2.052-1.778-2.43C34.778 5.398 29.056 0 22 0 15 0 9.222 5.397 8.833 12.144a2.52 2.52 0 00-1.777 2.428v3.4c0 1.404 1.166 2.591 2.666 2.591h2.667c.278 3.238 2.278 5.991 5.111 7.448l-.278 1.08-7.555.863c-4.556.54-8.111 4.102-8.5 8.582L0 52.083c0 .215.056.485.222.647.167.162.39.27.667.27h42.278c.222 0 .5-.108.666-.27.167-.162.278-.432.223-.647l-1.223-13.547zm-14.11-7.502l-1.89 7.286-2.777-3.239L27 32.221a.786.786 0 00.222-.756l-.11-.593 1.61.162zm2.61-8.798a8.67 8.67 0 00.334-1.727h1.777v1.727h-2.11zM18.5 11.982h-4.333c.444-3.832 3.777-6.855 7.889-6.855.944 0 1.833.162 2.666.432v.432c-.055 3.292-2.833 5.99-6.222 5.99zm7.889-5.56c1.889 1.242 3.222 3.239 3.5 5.56h-4.333a6.43 6.43 0 01-1.778-.27 7.53 7.53 0 002.61-5.29zm8.833 11.55c0 .486-.389.864-.889.864h-2.666V13.71h2.666c.5 0 .89.378.89.863v3.4zM22 1.727c6 0 10.944 4.534 11.389 10.255h-1.722c-.445-4.804-4.611-8.528-9.611-8.528-5 0-9.167 3.778-9.667 8.528H10.61C11.056 6.26 16 1.727 22 1.727zM8.778 17.972v-3.4c0-.485.389-.863.889-.863h2.666v5.127H9.667c-.445 0-.89-.378-.89-.863zm5.333 1.674v-5.937H18.5c1.278 0 2.444-.324 3.556-.81 1.11.54 2.277.81 3.5.81h4.388v5.99a7.93 7.93 0 01-.444 2.591h-4.111c-.389-1.025-1.333-1.78-2.5-1.78H21.11c-1.444 0-2.667 1.133-2.667 2.59 0 1.403 1.167 2.59 2.667 2.59h1.778a2.634 2.634 0 002.5-1.727h3.222c-1.444 2.051-3.833 3.4-6.611 3.4-4.333 0-7.889-3.454-7.889-7.717zm9.667 3.454c0 .485-.39.863-.89.863h-1.777c-.5 0-.889-.378-.889-.863 0-.486.39-.864.89-.864h1.777c.5 0 .889.378.889.864zM22 29.09c1 0 2-.161 2.889-.431l.555 2.698L22 34.704l-3.444-3.347.555-2.698c.945.27 1.889.432 2.889.432zm-5 3.185l2.944 2.86-2.777 3.239-1.89-7.286 1.612-.162-.111.593c-.111.216 0 .54.222.756zm18.222 19.052V41.072h-1.778v10.255H10.556V41.072H8.778v10.255H1.833l1.111-12.63c.334-3.616 3.223-6.584 6.945-7.016l3.611-.431 2.333 9.12c.056.325.334.54.667.648h.222a.8.8 0 00.667-.324l3.778-4.425.222.216c.167.162.389.27.611.27a.904.904 0 00.611-.27l.222-.216 3.778 4.425a.878.878 0 00.667.324h.222c.333-.054.556-.324.667-.647l2.333-9.122 3.611.432c3.722.432 6.667 3.347 6.945 7.017l1.11 12.629h-6.944z" fill="#33353D"/><path d="M21.111 47.873h1.778V49.6h-1.778v-1.727zm0-3.4h1.778V46.2h-1.778v-1.727zm0-3.401h1.778V42.8h-1.778v-1.727z" fill="#000"/><path d="M19.39 16.462c0 .594-.778.378-1.778.378s-1.778.216-1.778-.378c0-.593.778-1.08 1.778-1.08s1.778.487 1.778 1.08zm8.777.16c0 .594-.778.27-1.778.27s-1.778.324-1.778-.27c0-.593.778-1.079 1.778-1.079s1.778.486 1.778 1.08z" fill="#33353D"/></g><defs><clipPath id="clip0"><path fill="#fff" d="M0 0h44v53H0z"/></clipPath></defs></svg>