<svg width="50" height="53" fill="none" xmlns="http://www.w3.org/2000/svg"><g clip-path="url(#clip0)"><path d="M43.78 23.198L28.108 7.431c-.829-.826-1.99-1.321-3.15-1.321-1.161 0-2.322.495-3.068 1.32L6.218 23.199 4.31 25.18a1.947 1.947 0 01-1.41.578c-1.244 0-2.073-.909-2.073-1.9 0-.494.166-.907.58-1.32L21.89 2.064c.829-.825 1.907-1.238 3.15-1.238 1.161 0 2.322.495 3.151 1.238l9.37 9.412 5.39 5.366 5.721 5.696c1.244 1.238.332 3.22-1.41 3.22-.58 0-1.077-.248-1.409-.578l-2.073-1.982z" fill="#F4A343"/><path d="M43.78 20.722v27.903a3.531 3.531 0 01-3.565 3.55H9.785c-1.99 0-3.566-1.569-3.566-3.55V20.722L21.89 4.954c.83-.826 1.99-1.321 3.151-1.321 1.161 0 2.24.495 3.068 1.32l15.672 15.769z" fill="#E2E5ED"/><path d="M43.781 4.377v3.55H36.65v-3.55h7.131z" fill="#F4A343"/><path d="M42.868 7.926v8.916l-5.39-5.366v-3.55h5.39z" fill="#E2E5ED"/><path d="M40.215 9.742h2.653V7.926h-5.39v3.55l1.825 1.816V10.65c0-.495.414-.908.912-.908z" fill="#DADCE0"/><path d="M36.65 4.377v3.55h7.131V6.193h-4.477a.918.918 0 01-.912-.908v-.908H36.65zm11.94 18.161l-1.658-1.65-.083.082c-.663.66-1.824.66-2.57 0L28.025 4.79c-.829-.826-1.907-1.24-3.068-1.24-1.16 0-2.238.414-3.068 1.24L5.638 20.97c-.663.66-1.824.66-2.57 0l-.083-.083-1.658 1.651c-.415.413-.58.826-.58 1.321 0 .99.828 1.899 1.99 1.899.58 0 1.077-.248 1.409-.578l1.907-1.98L21.89 7.43c.83-.826 1.99-1.321 3.151-1.321 1.161 0 2.24.495 3.068 1.32L43.781 23.2l1.907 1.981c.415.413.912.578 1.41.578 1.824 0 2.736-1.981 1.492-3.22z" fill="#E09C3B"/><path d="M21.89 12.796c.83-.825 1.99-1.32 3.151-1.32 1.161 0 2.322.495 3.151 1.32l15.672 15.768v-5.366L28.109 7.43c-.829-.825-1.99-1.32-3.15-1.32-1.162 0-2.322.495-3.069 1.32L10.696 18.74 6.22 23.28v25.427c0 1.982 1.575 3.55 3.565 3.55h30.431c1.99 0 3.566-1.568 3.566-3.55v-2.641c0 1.981-1.575 3.55-3.566 3.55H23.217c-6.882 0-12.52-5.614-12.52-12.466V24.106l11.193-11.31z" fill="#DADCE0"/><path d="M6.219 28.4v-1.734m37.561-3.551v25.51c0 1.98-1.575 3.55-3.565 3.55H9.785a3.533 3.533 0 01-3.566-3.55v-18.41" stroke="#33353D" stroke-width="2" stroke-miterlimit="10" stroke-linejoin="round"/><path d="M1.41 22.538L21.891 2.064C22.721 1.24 23.8.826 25.042.826c1.161 0 2.322.495 3.151 1.238l20.481 20.392c1.244 1.238.332 3.22-1.41 3.22-.58 0-1.078-.249-1.41-.579L28.11 7.431c-.829-.826-1.907-1.321-3.15-1.321-1.162 0-2.322.495-3.152 1.32L4.313 25.18a1.947 1.947 0 01-1.41.578c-1.824 0-2.736-2.064-1.493-3.22z" stroke="#33353D" stroke-width="2" stroke-miterlimit="10" stroke-linejoin="round"/><path d="M37.48 11.476v-3.55h5.39v4.458" stroke="#33353D" stroke-width="2" stroke-miterlimit="10" stroke-linejoin="round"/><path d="M43.781 4.377h-7.13v3.55h7.13v-3.55z" stroke="#33353D" stroke-width="2" stroke-miterlimit="10" stroke-linejoin="round"/><path d="M26.948 28.234h-3.897V44.58h3.897V28.234z" fill="#F4A343"/><path d="M24.543 39.215h-1.492v5.118h1.492v-5.118z" fill="#E09C3B"/><path d="M15.506 28.235l2.156-5.614H32.67v5.614H15.506z" fill="#DADCE0"/><path d="M26.948 33.27v11.31h-3.897V28.234m3.899 3.798V30.63" stroke="#33353D" stroke-width="2" stroke-miterlimit="10" stroke-linejoin="round"/><path d="M15.506 28.235l2.156-5.614H32.67v5.614H15.506z" stroke="#33353D" stroke-width="2" stroke-miterlimit="10" stroke-linejoin="round"/></g><defs><clipPath id="clip0"><path fill="#fff" d="M0 0h50v53H0z"/></clipPath></defs></svg>