<svg width="40" height="53" fill="none" xmlns="http://www.w3.org/2000/svg"><g clip-path="url(#clip0)"><path d="M35.865.838h-7.51v2.516h1.687V5.03h5.823v44.698H4.135V4.947h5.823V3.354h1.687V.838h-7.51C2.363.838.844 2.348.844 4.108v44.698c0 1.845 1.519 3.27 3.29 3.27h31.731a3.285 3.285 0 003.291-3.27V4.108c0-1.76-1.519-3.27-3.291-3.27z" fill="#F4A343"/><path d="M13.332 41.426H8.354v4.948h4.978v-4.948zm0-9.141H8.354v4.948h4.978v-4.948zm0-9.14H8.354v4.947h4.978v-4.947z" fill="#F4A343"/><path d="M29.957 4.947v2.516h-4.979V4.947h2.532V3.354h2.447v1.593zm-14.935 0v2.516h-4.979V3.354h2.447v1.593h2.532z" fill="#DADCE0"/><path d="M24.98 4.947h-9.96v2.516h9.958V4.947z" fill="#DADCE0"/><path d="M13.333 23.145H8.354v4.948h4.98v-4.948zm0 9.14H8.354v4.949h4.98v-4.948zM35.865 4.948v44.698H4.135V4.947h5.823v2.516h19.916V4.947h5.99zM13.333 46.374v-4.947H8.354v4.947h4.98z" fill="#E2E5ED"/><path d="M28.353.838v2.516h-.844v1.593H12.488V3.354h-.843V.838h16.708z" fill="#EFBC67"/><path d="M35.865.838H4.135C2.363.838.844 2.348.844 4.108v1.678c0-1.845 1.519-3.27 3.29-3.27H35.78a3.285 3.285 0 013.292 3.27V4.108c.084-1.76-1.435-3.27-3.207-3.27z" fill="#E09C3B"/><path d="M24.98 5.785h-9.96v1.677h9.958V5.785z" fill="#F4A343"/><path d="M24.98 5.785v1.677h-9.96V5.785h.844v.839h8.27v-.839h.844z" fill="#CE9222"/><path d="M27.51.838h-1.688v4.11h1.688V.837zm-16.71 0v2.516h-.759v1.593H8.354V2.515h.843V.838h1.604z" fill="#E09C3B"/><path d="M10.041 7.463V4.947H8.354V9.14H27.51V7.463H10.04z" fill="#DADCE0"/><path d="M28.354 3.354h-.844V5.03h.844V3.354zm-15.866 0h-.843V5.03h.843V3.354zm17.469 3.271h-4.979v.839h4.98v-.839zm-14.935 0h-4.979v.839h4.979v-.839z" fill="#4B4B4A"/><path d="M4.135 49.644V5.785H2.53v42.182c0 1.845 1.52 3.27 3.291 3.27h29.114V49.56h-30.8v.084z" fill="#E09C3B"/><path d="M30.802 52.16H4.135a3.285 3.285 0 01-3.291-3.27V4.108c0-1.76 1.519-3.27 3.29-3.27h31.647a3.285 3.285 0 013.29 3.27v45.285" stroke="#33353D" stroke-width="2" stroke-miterlimit="10" stroke-linejoin="round"/><path d="M10.043 3.354v4.109h4.979V4.947H12.49V3.354h-2.447zm19.917 0v4.109h-4.98V4.947h2.532V3.354h2.447zm-4.98 4.109h-9.96m13.335-4.109V.838M11.646 3.354V.838" stroke="#33353D" stroke-width="2" stroke-miterlimit="10" stroke-linejoin="round"/><path d="M30.801 49.645H4.135V4.947h5.907m22.448 0h3.376v44.447M24.98 4.947h-9.96" stroke="#33353D" stroke-width="2" stroke-miterlimit="10" stroke-linejoin="round"/><path d="M13.332 23.145H8.354v4.947h4.978v-4.947zm-4.978 5.031l6.666-6.625" stroke="#33353D" stroke-width="2" stroke-miterlimit="10" stroke-linejoin="round"/><path d="M13.332 14.172H8.354v4.948h4.978v-4.948z" fill="#F4A343"/><path d="M13.332 14.172H8.354v4.948h4.978v-4.948zM8.354 19.12l6.666-6.626m-1.688 19.793H8.354v4.948h4.978v-4.948zm-4.978 4.947l6.666-6.625M8.354 46.123l6.666-6.625m-1.688 1.928H8.354v4.948h4.978v-4.948zm5.824-17.442H32.49m-13.334 3.354H32.49M19.156 15.01H32.49m-13.334 3.271H32.49M19.156 33.125H32.49m-13.334 3.272H32.49m-13.334 5.785H32.49m-13.334 3.353H32.49m-.254 4.11h1.35m-1.35 2.515h1.35" stroke="#33353D" stroke-width="2" stroke-miterlimit="10" stroke-linejoin="round"/></g><defs><clipPath id="clip0"><path fill="#fff" d="M0 0h40v53H0z"/></clipPath></defs></svg>