<svg width="52" height="53" fill="none" xmlns="http://www.w3.org/2000/svg"><g clip-path="url(#clip0)"><path d="M25.958 38.422c6.63 0 12.006-5.357 12.006-11.965S32.59 14.492 25.958 14.492 13.95 19.85 13.95 26.457s5.376 11.965 12.007 11.965z" fill="#DADCE0"/><path d="M46.167 27.553l.084-1.096-.084-1.095c0-.674.422-1.264 1.099-1.517 1.268-.421 2.62-.842 3.89-1.348-.085-.421-.17-.927-.254-1.348l-.339-1.348c-.169-.927-.507-1.77-.845-2.697a34.335 34.335 0 00-4.059.759c-.676.168-1.437-.169-1.69-.759-.17-.337-.339-.59-.508-.927l-.507-.926c-.339-.59-.339-1.348.169-1.854a49.234 49.234 0 002.705-3.202 22.125 22.125 0 00-1.86-2.107c-.676-.59-1.353-1.263-2.029-1.853-1.1.842-2.114 1.77-3.129 2.696-.507.506-1.268.506-1.86.169l-.845-.59c-.338-.084-.592-.253-.93-.337-.592-.253-.846-1.011-.761-1.77.338-1.348.507-2.696.76-4.128-.845-.338-1.69-.675-2.62-.843L31.2 1.095c-.423-.084-.93-.169-1.353-.253a72.936 72.936 0 00-1.353 3.96c-.254.674-.846 1.18-1.522 1.18l-1.014-.084h-1.015c-.677 0-1.268-.422-1.522-1.18a72.932 72.932 0 00-1.353-3.96c-.423.084-.93.168-1.353.253l-1.353.337c-.93.168-1.775.505-2.62.842a38.67 38.67 0 00.76 4.129c.17.758-.169 1.432-.76 1.77-.339.168-.593.337-.93.505l-.846.59c-.592.337-1.269.337-1.86-.169-1.015-.927-2.03-1.853-3.129-2.696-.676.506-1.353 1.18-2.03 1.77-.591.674-1.268 1.348-1.86 2.106a49.25 49.25 0 002.706 3.202c.508.59.508 1.264.17 1.854l-.508.926c-.17.338-.338.59-.507.927-.254.59-1.015.927-1.691.759a34.336 34.336 0 00-4.059-.759c-.338.843-.676 1.77-.845 2.697l-.339 1.348c-.084.421-.169.927-.253 1.348 1.268.506 2.536 1.011 3.89 1.348.676.253 1.183.843 1.098 1.517l-.084 1.095.084 1.096c0 .674-.422 1.264-1.099 1.516-1.268.422-2.536.843-3.805 1.349.085.42.17.927.254 1.348l.338 1.348c.17.927.507 1.77.846 2.696a34.316 34.316 0 004.058-.758c.677-.169 1.438.169 1.691.758.17.337.338.59.508.927l.507.927c.338.59.338 1.348-.17 1.854a49.278 49.278 0 00-2.705 3.202 22.124 22.124 0 001.86 2.106c.677.59 1.353 1.264 2.03 1.854 1.099-.843 2.113-1.77 3.128-2.696.507-.506 1.268-.506 1.86-.169l.846.59c.253.168.591.337.93.505.592.253.845 1.012.76 1.77-.337 1.348-.507 2.696-.76 4.129.845.337 1.69.674 2.62.842l1.354.337c.423.085.93.169 1.353.253a72.57 72.57 0 001.352-3.96c.254-.674.846-1.18 1.522-1.18l1.015.084 1.015-.084c.676 0 1.268.422 1.522 1.18a72.964 72.964 0 001.353 3.96c.422-.084.93-.168 1.352-.253l1.353-.337c.93-.168 1.776-.505 2.621-.842a38.913 38.913 0 00-.76-4.13c-.17-.757.168-1.431.76-1.769.338-.168.592-.337.93-.505l.846-.59c.592-.337 1.268-.337 1.86.169 1.015.926 2.03 1.853 3.128 2.696.761-.59 1.353-1.264 2.03-1.854.592-.674 1.268-1.348 1.86-2.106a49.263 49.263 0 00-2.706-3.202c-.507-.59-.507-1.264-.169-1.854l.508-.927c.169-.337.338-.59.507-.927.253-.59 1.014-.927 1.69-.758 1.354.337 2.706.59 4.06.758.338-.842.676-1.77.845-2.696l.338-1.348c.085-.421.17-.927.254-1.348-1.269-.506-2.537-1.011-3.89-1.349-.76-.252-1.268-.842-1.183-1.516zm-9.893 4.971l-.423.674c-.169.253-.338.422-.423.674-.253.422-.676.759-1.014 1.18-.423.337-.761.758-1.184 1.011-.17.169-.423.337-.592.506l-.676.42c-1.776 1.096-3.89 1.602-5.919 1.602-2.114 0-4.143-.506-5.919-1.601l-.676-.421a3.672 3.672 0 01-.592-.506c-.423-.253-.76-.674-1.184-1.011-.338-.421-.76-.758-1.014-1.18-.17-.252-.339-.421-.423-.674l-.423-.674c-1.1-1.854-1.522-3.96-1.606-6.067 0-2.106.507-4.213 1.606-6.066l.423-.674c.169-.253.338-.422.423-.675.253-.42.676-.758 1.014-1.18.423-.336.761-.758 1.184-1.01.17-.169.423-.337.592-.506l.676-.421c1.776-1.096 3.89-1.601 5.919-1.601 2.114 0 4.143.505 5.919 1.6l.676.422c.254.169.423.337.592.506.423.252.761.674 1.184 1.01.338.422.76.76 1.014 1.18.17.253.339.422.423.674l.423.675c1.1 1.853 1.522 3.96 1.606 6.066-.084 2.107-.592 4.213-1.606 6.067z" fill="#F4A343"/><path d="M25.958 38.59c-2.114 0-4.143-.506-5.92-1.6l-.675-.422a3.657 3.657 0 01-.592-.506c-.423-.253-.761-.674-1.184-1.01-.338-.422-.761-.76-1.015-1.18-.169-.253-.338-.422-.422-.675l-.423-.674c-1.1-1.854-1.522-3.96-1.607-6.067 0-2.106.508-4.212 1.607-6.066l.422-.674c.17-.253.339-.422.423-.674.254-.422.677-.759 1.015-1.18.423-.337.76-.758 1.184-1.011.169-.169.422-.337.591-.506l.677-.421c1.775-1.095 3.89-1.601 5.919-1.601 0-2.275-2.114-3.96-4.313-3.286-6.764 1.853-11.752 8.089-11.752 15.42 0 7.33 4.988 13.566 11.752 15.42 2.199.673 4.313-1.012 4.313-3.287z" fill="#E09C3B"/><path d="M33.99 26.457h4.06c0-6.656-5.412-11.965-12.007-11.965v4.045c4.312 0 7.948 3.539 7.948 7.92z" fill="#E2E5ED"/><path d="M46.167 27.553l.084-1.096-.084-1.095c0-.674.422-1.264 1.099-1.517 1.268-.421 2.62-.842 3.89-1.348-.085-.421-.17-.927-.254-1.348l-.339-1.348c-.169-.927-.507-1.77-.845-2.697a34.335 34.335 0 00-4.059.759c-.676.168-1.437-.169-1.69-.759-.17-.337-.339-.59-.508-.927l-.507-.926c-.339-.59-.339-1.348.169-1.854a49.234 49.234 0 002.705-3.202 22.125 22.125 0 00-1.86-2.107c-.676-.59-1.353-1.263-2.029-1.853-1.1.842-2.114 1.77-3.129 2.696-.507.506-1.268.506-1.86.169l-.845-.59c-.338-.084-.592-.253-.93-.337-.592-.253-.846-1.011-.761-1.77.338-1.348.507-2.696.76-4.128-.845-.338-1.69-.675-2.62-.843L31.2 1.095c-.423-.084-.93-.169-1.353-.253a72.933 72.933 0 00-1.353 3.96c-.254.674-.846 1.18-1.522 1.18l-1.014-.084h-1.015c-.677 0-1.268-.422-1.522-1.18a72.935 72.935 0 00-1.353-3.96c-.423.084-.93.168-1.353.253l-1.353.337c-.93.168-1.775.505-2.62.842a38.67 38.67 0 00.76 4.129c.17.758-.169 1.432-.76 1.77-.339.168-.593.337-.93.505l-.846.59c-.592.337-1.269.337-1.86-.169-1.015-.927-2.03-1.853-3.129-2.696-.676.506-1.353 1.18-2.03 1.77-.591.674-1.268 1.348-1.86 2.106a49.25 49.25 0 002.706 3.202c.508.59.508 1.264.17 1.854l-.508.926c-.17.338-.338.59-.507.927-.254.59-1.015.927-1.691.759a34.336 34.336 0 00-4.059-.759c-.338.843-.676 1.77-.845 2.697l-.339 1.348c-.084.421-.169.927-.253 1.348 1.268.506 2.536 1.011 3.89 1.348.676.253 1.183.843 1.098 1.517l-.084 1.095.084 1.096c0 .674-.422 1.264-1.099 1.516-1.268.422-2.536.843-3.805 1.349.085.42.17.927.254 1.348l.338 1.348c.17.927.507 1.77.846 2.696a34.316 34.316 0 004.058-.758c.677-.169 1.438.169 1.691.758.17.337.338.59.508.927l.507.927c.338.59.338 1.348-.17 1.854a49.278 49.278 0 00-2.705 3.202 22.124 22.124 0 001.86 2.106c.677.59 1.353 1.264 2.03 1.854 1.099-.843 2.113-1.77 3.128-2.696.507-.506 1.268-.506 1.86-.169l.846.59c.253.168.591.337.93.505.592.253.845 1.012.76 1.77-.337 1.348-.507 2.696-.76 4.129.845.337 1.69.674 2.62.842l1.354.337c.423.085.93.169 1.353.253a72.57 72.57 0 001.352-3.96c.254-.674.846-1.18 1.522-1.18l1.015.084 1.015-.084c.676 0 1.268.422 1.522 1.18a72.964 72.964 0 001.353 3.96c.422-.084.93-.168 1.352-.253l1.353-.337c.93-.168 1.776-.505 2.621-.842a38.913 38.913 0 00-.76-4.13c-.17-.757.168-1.431.76-1.769.338-.168.592-.337.93-.505l.846-.59c.592-.337 1.268-.337 1.86.169 1.015.926 2.03 1.853 3.128 2.696.761-.59 1.353-1.264 2.03-1.854.592-.674 1.268-1.348 1.86-2.106a49.263 49.263 0 00-2.706-3.202c-.507-.59-.507-1.264-.169-1.854l.508-.927c.169-.337.338-.59.507-.927.253-.59 1.014-.927 1.69-.758 1.354.337 2.706.59 4.06.758.338-.842.676-1.77.845-2.696l.338-1.348c.085-.421.17-.927.254-1.348-1.269-.506-2.537-1.011-3.89-1.349-.76-.252-1.268-.842-1.183-1.516zm-10.738 6.32c-.254.421-.677.758-1.015 1.18" stroke="#33353D" stroke-width="2" stroke-miterlimit="10" stroke-linejoin="round"/><path d="M33.23 36.063c-.17.169-.423.337-.592.506l-.677.421c-1.775 1.096-3.89 1.601-5.918 1.601-2.114 0-4.144-.505-5.92-1.6l-.676-.422a3.69 3.69 0 01-.591-.506c-.423-.252-.762-.674-1.184-1.01-.338-.422-.761-.759-1.015-1.18-.169-.253-.338-.422-.423-.674l-.422-.674c-1.1-1.854-1.522-3.96-1.607-6.067 0-2.107.507-4.213 1.607-6.067l.422-.674c.17-.253.339-.421.423-.674.254-.421.677-.758 1.015-1.18.422-.337.76-.758 1.183-1.011.17-.169.423-.337.592-.506l.677-.42c1.775-1.096 3.89-1.602 5.919-1.602 2.113 0 4.143.506 5.918 1.601l.677.421c.253.169.422.337.592.506.422.253.76.674 1.183 1.011.338.422.761.759 1.015 1.18.169.253.338.421.423.674l.422.674c1.1 1.854 1.522 3.96 1.607 6.067 0 2.106-.507 4.213-1.607 6.067" stroke="#33353D" stroke-width="2" stroke-miterlimit="10" stroke-linejoin="round"/></g><defs><clipPath id="clip0"><path fill="#fff" d="M0 0h52v53H0z"/></clipPath></defs></svg>