<svg width="30" height="30" fill="none" xmlns="http://www.w3.org/2000/svg"><path d="M15.004 0h-.008C6.726 0 0 6.728 0 15a14.89 14.89 0 002.856 8.792l-1.87 5.572 5.766-1.843A14.87 14.87 0 0015.004 30C23.274 30 30 23.27 30 15S23.274 0 15.004 0z" fill="#4CAF50"/><path d="M23.732 21.183c-.362 1.021-1.798 1.869-2.944 2.116-.784.167-1.807.3-5.254-1.128-4.408-1.826-7.246-6.306-7.468-6.596-.211-.291-1.78-2.372-1.78-4.525 0-2.152 1.092-3.2 1.533-3.65.362-.37.96-.539 1.534-.539.185 0 .352.01.502.017.44.019.662.045.953.74.361.873 1.243 3.025 1.348 3.246.107.222.213.522.063.812-.14.3-.264.434-.485.688-.221.255-.431.45-.653.724-.202.238-.43.493-.176.934.255.431 1.136 1.87 2.434 3.024 1.674 1.491 3.032 1.967 3.517 2.17.362.15.793.114 1.058-.167.335-.362.75-.962 1.172-1.553.3-.423.679-.476 1.076-.326.405.14 2.548 1.2 2.989 1.42.44.22.731.326.838.511.105.186.105 1.058-.257 2.082z" fill="#FAFAFA"/></svg>